M48
; DRILL file {KiCad (5.1.5-0-10_14)} date 2021 September 14, Tuesday 17:27:23
; FORMAT={-:-/ absolute / inch / decimal}
; #@! TF.CreationDate,2021-09-14T17:27:23+02:00
; #@! TF.GenerationSoftware,Kicad,Pcbnew,(5.1.5-0-10_14)
FMAT,2
INCH
T1C0.0300
T2C0.0315
T3C0.0433
T4C0.0472
T5C0.0551
%
G90
G05
T1
X3.8543Y-3.4764
X3.937Y-3.5591
X4.0197Y-3.4764
T2
X4.2362Y-3.7008
X4.2362Y-3.8976
X3.8425Y-3.8661
X4.0394Y-3.8661
X4.3819Y-3.6299
X4.3819Y-3.9299
X4.3307Y-3.3346
X4.3307Y-3.4331
X3.5591Y-3.4055
X3.5591Y-3.7055
X3.5591Y-3.1654
X3.5591Y-3.2638
T3
X3.563Y-3.837
X3.563Y-3.937
X3.563Y-4.037
T5
X3.737Y-3.0866
X3.937Y-3.0866
X4.137Y-3.0866
T4
G00X4.1457Y-2.7756
M15
G01X4.1457Y-2.7913
M16
G05
G00X4.3661Y-2.7756
M15
G01X4.3661Y-2.7913
M16
G05
G00X3.8256Y-2.7756
M15
G01X3.8256Y-2.7913
M16
G05
G00X4.0472Y-2.7756
M15
G01X4.0472Y-2.7913
M16
G05
G00X4.4685Y-2.7756
M15
G01X4.4685Y-2.7913
M16
G05
G00X3.5039Y-2.7756
M15
G01X3.5039Y-2.7913
M16
G05
G00X3.637Y-4.2638
M15
G01X3.637Y-4.2795
M16
G05
G00X3.737Y-4.2638
M15
G01X3.737Y-4.2795
M16
G05
G00X3.837Y-4.2638
M15
G01X3.837Y-4.2795
M16
G05
G00X3.937Y-4.2638
M15
G01X3.937Y-4.2795
M16
G05
G00X4.037Y-4.2638
M15
G01X4.037Y-4.2795
M16
G05
G00X4.137Y-4.2638
M15
G01X4.137Y-4.2795
M16
G05
G00X4.237Y-4.2638
M15
G01X4.237Y-4.2795
M16
G05
G00X3.4016Y-2.7756
M15
G01X3.4016Y-2.7913
M16
G05
G00X3.7244Y-2.7756
M15
G01X3.7244Y-2.7913
M16
G05
T0
M30
