G04 #@! TF.GenerationSoftware,KiCad,Pcbnew,(5.1.5-0-10_14)*
G04 #@! TF.CreationDate,2021-09-14T17:31:05+02:00*
G04 #@! TF.ProjectId,npnium,6e706e69-756d-42e6-9b69-6361645f7063,rev?*
G04 #@! TF.SameCoordinates,Original*
G04 #@! TF.FileFunction,Copper,L2,Bot*
G04 #@! TF.FilePolarity,Positive*
%FSLAX46Y46*%
G04 Gerber Fmt 4.6, Leading zero omitted, Abs format (unit mm)*
G04 Created by KiCad (PCBNEW (5.1.5-0-10_14)) date 2021-09-14 17:31:05*
%MOMM*%
%LPD*%
G04 APERTURE LIST*
%ADD10O,1.600000X3.000000*%
%ADD11O,2.540000X2.540000*%
%ADD12R,2.540000X2.540000*%
%ADD13O,1.930400X1.930400*%
%ADD14R,1.930400X1.930400*%
%ADD15O,1.600000X1.600000*%
%ADD16C,1.600000*%
%ADD17C,1.524000*%
%ADD18R,1.600000X1.600000*%
%ADD19C,0.254000*%
G04 APERTURE END LIST*
D10*
X97170000Y-70700000D03*
X94600000Y-70700000D03*
D11*
X105080000Y-78400000D03*
X100000000Y-78400000D03*
D12*
X94920000Y-78400000D03*
D13*
X90500000Y-102540000D03*
X90500000Y-100000000D03*
D14*
X90500000Y-97460000D03*
D15*
X111300000Y-99820000D03*
D16*
X111300000Y-92200000D03*
D15*
X90400000Y-94120000D03*
D16*
X90400000Y-86500000D03*
D17*
X97900000Y-88300000D03*
X100000000Y-90400000D03*
X102100000Y-88300000D03*
D10*
X107620000Y-108500000D03*
X105080000Y-108500000D03*
X102540000Y-108500000D03*
X92380000Y-108500000D03*
X94920000Y-108500000D03*
X97460000Y-108500000D03*
X100000000Y-108500000D03*
X105300000Y-70700000D03*
X113500000Y-70700000D03*
X86400000Y-70700000D03*
X102800000Y-70700000D03*
X110900000Y-70700000D03*
X89000000Y-70700000D03*
D16*
X90400000Y-80400000D03*
D18*
X90400000Y-82900000D03*
D16*
X110000000Y-84700000D03*
D18*
X110000000Y-87200000D03*
D16*
X107600000Y-94000000D03*
X107600000Y-99000000D03*
X102600000Y-98200000D03*
X97600000Y-98200000D03*
D19*
G36*
X85848192Y-68667818D02*
G01*
X85598899Y-68801068D01*
X85380392Y-68980393D01*
X85201068Y-69198900D01*
X85067818Y-69448193D01*
X84985764Y-69718692D01*
X84965000Y-69929509D01*
X84965000Y-71470492D01*
X84985764Y-71681309D01*
X85067819Y-71951808D01*
X85201069Y-72201101D01*
X85380393Y-72419608D01*
X85598900Y-72598932D01*
X85848193Y-72732182D01*
X86118692Y-72814236D01*
X86400000Y-72841943D01*
X86681309Y-72814236D01*
X86951808Y-72732182D01*
X87201101Y-72598932D01*
X87419608Y-72419608D01*
X87598932Y-72201101D01*
X87700515Y-72011053D01*
X87722834Y-72066483D01*
X87877399Y-72302839D01*
X88075105Y-72504500D01*
X88308354Y-72663715D01*
X88568182Y-72774367D01*
X88650961Y-72791904D01*
X88873000Y-72669915D01*
X88873000Y-70827000D01*
X89127000Y-70827000D01*
X89127000Y-72669915D01*
X89349039Y-72791904D01*
X89431818Y-72774367D01*
X89691646Y-72663715D01*
X89924895Y-72504500D01*
X90122601Y-72302839D01*
X90277166Y-72066483D01*
X90382650Y-71804514D01*
X90435000Y-71527000D01*
X90435000Y-70827000D01*
X93165000Y-70827000D01*
X93165000Y-71527000D01*
X93217350Y-71804514D01*
X93322834Y-72066483D01*
X93477399Y-72302839D01*
X93675105Y-72504500D01*
X93908354Y-72663715D01*
X94168182Y-72774367D01*
X94250961Y-72791904D01*
X94473000Y-72669915D01*
X94473000Y-70827000D01*
X93165000Y-70827000D01*
X90435000Y-70827000D01*
X89127000Y-70827000D01*
X88873000Y-70827000D01*
X88853000Y-70827000D01*
X88853000Y-70573000D01*
X88873000Y-70573000D01*
X88873000Y-70553000D01*
X89127000Y-70553000D01*
X89127000Y-70573000D01*
X90435000Y-70573000D01*
X90435000Y-69873000D01*
X90382650Y-69595486D01*
X90277166Y-69333517D01*
X90122601Y-69097161D01*
X89924895Y-68895500D01*
X89691646Y-68736285D01*
X89512517Y-68660000D01*
X94087483Y-68660000D01*
X93908354Y-68736285D01*
X93675105Y-68895500D01*
X93477399Y-69097161D01*
X93322834Y-69333517D01*
X93217350Y-69595486D01*
X93165000Y-69873000D01*
X93165000Y-70573000D01*
X94473000Y-70573000D01*
X94473000Y-70553000D01*
X94727000Y-70553000D01*
X94727000Y-70573000D01*
X94747000Y-70573000D01*
X94747000Y-70827000D01*
X94727000Y-70827000D01*
X94727000Y-72669915D01*
X94949039Y-72791904D01*
X95031818Y-72774367D01*
X95291646Y-72663715D01*
X95524895Y-72504500D01*
X95722601Y-72302839D01*
X95877166Y-72066483D01*
X95886596Y-72043063D01*
X95971069Y-72201101D01*
X96150393Y-72419608D01*
X96368900Y-72598932D01*
X96618193Y-72732182D01*
X96888692Y-72814236D01*
X97170000Y-72841943D01*
X97451309Y-72814236D01*
X97721808Y-72732182D01*
X97971101Y-72598932D01*
X98189608Y-72419608D01*
X98368932Y-72201101D01*
X98502182Y-71951808D01*
X98584236Y-71681309D01*
X98605000Y-71470492D01*
X98605000Y-70827000D01*
X101365000Y-70827000D01*
X101365000Y-71527000D01*
X101417350Y-71804514D01*
X101522834Y-72066483D01*
X101677399Y-72302839D01*
X101875105Y-72504500D01*
X102108354Y-72663715D01*
X102368182Y-72774367D01*
X102450961Y-72791904D01*
X102673000Y-72669915D01*
X102673000Y-70827000D01*
X101365000Y-70827000D01*
X98605000Y-70827000D01*
X98605000Y-69929508D01*
X98584236Y-69718691D01*
X98502182Y-69448192D01*
X98368932Y-69198899D01*
X98189607Y-68980392D01*
X97971100Y-68801068D01*
X97721807Y-68667818D01*
X97696034Y-68660000D01*
X102287483Y-68660000D01*
X102108354Y-68736285D01*
X101875105Y-68895500D01*
X101677399Y-69097161D01*
X101522834Y-69333517D01*
X101417350Y-69595486D01*
X101365000Y-69873000D01*
X101365000Y-70573000D01*
X102673000Y-70573000D01*
X102673000Y-70553000D01*
X102927000Y-70553000D01*
X102927000Y-70573000D01*
X102947000Y-70573000D01*
X102947000Y-70827000D01*
X102927000Y-70827000D01*
X102927000Y-72669915D01*
X103149039Y-72791904D01*
X103231818Y-72774367D01*
X103491646Y-72663715D01*
X103724895Y-72504500D01*
X103922601Y-72302839D01*
X104050725Y-72106915D01*
X104101069Y-72201101D01*
X104280393Y-72419608D01*
X104498900Y-72598932D01*
X104748193Y-72732182D01*
X105018692Y-72814236D01*
X105300000Y-72841943D01*
X105581309Y-72814236D01*
X105851808Y-72732182D01*
X106101101Y-72598932D01*
X106319608Y-72419608D01*
X106498932Y-72201101D01*
X106632182Y-71951808D01*
X106714236Y-71681309D01*
X106735000Y-71470492D01*
X106735000Y-70827000D01*
X109465000Y-70827000D01*
X109465000Y-71527000D01*
X109517350Y-71804514D01*
X109622834Y-72066483D01*
X109777399Y-72302839D01*
X109975105Y-72504500D01*
X110208354Y-72663715D01*
X110468182Y-72774367D01*
X110550961Y-72791904D01*
X110773000Y-72669915D01*
X110773000Y-70827000D01*
X109465000Y-70827000D01*
X106735000Y-70827000D01*
X106735000Y-69929508D01*
X106714236Y-69718691D01*
X106632182Y-69448192D01*
X106498932Y-69198899D01*
X106319607Y-68980392D01*
X106101100Y-68801068D01*
X105851807Y-68667818D01*
X105826034Y-68660000D01*
X110387483Y-68660000D01*
X110208354Y-68736285D01*
X109975105Y-68895500D01*
X109777399Y-69097161D01*
X109622834Y-69333517D01*
X109517350Y-69595486D01*
X109465000Y-69873000D01*
X109465000Y-70573000D01*
X110773000Y-70573000D01*
X110773000Y-70553000D01*
X111027000Y-70553000D01*
X111027000Y-70573000D01*
X111047000Y-70573000D01*
X111047000Y-70827000D01*
X111027000Y-70827000D01*
X111027000Y-72669915D01*
X111249039Y-72791904D01*
X111331818Y-72774367D01*
X111591646Y-72663715D01*
X111824895Y-72504500D01*
X112022601Y-72302839D01*
X112177166Y-72066483D01*
X112199486Y-72011052D01*
X112301069Y-72201101D01*
X112480393Y-72419608D01*
X112698900Y-72598932D01*
X112948193Y-72732182D01*
X113218692Y-72814236D01*
X113500000Y-72841943D01*
X113781309Y-72814236D01*
X114051808Y-72732182D01*
X114301101Y-72598932D01*
X114519608Y-72419608D01*
X114698932Y-72201101D01*
X114832182Y-71951808D01*
X114914236Y-71681309D01*
X114935000Y-71470492D01*
X114935000Y-69929508D01*
X114914236Y-69718691D01*
X114832182Y-69448192D01*
X114698932Y-69198899D01*
X114519607Y-68980392D01*
X114301100Y-68801068D01*
X114051807Y-68667818D01*
X114026034Y-68660000D01*
X119340000Y-68660000D01*
X119340001Y-111340000D01*
X80660000Y-111340000D01*
X80660000Y-108627000D01*
X90945000Y-108627000D01*
X90945000Y-109327000D01*
X90997350Y-109604514D01*
X91102834Y-109866483D01*
X91257399Y-110102839D01*
X91455105Y-110304500D01*
X91688354Y-110463715D01*
X91948182Y-110574367D01*
X92030961Y-110591904D01*
X92253000Y-110469915D01*
X92253000Y-108627000D01*
X90945000Y-108627000D01*
X80660000Y-108627000D01*
X80660000Y-107673000D01*
X90945000Y-107673000D01*
X90945000Y-108373000D01*
X92253000Y-108373000D01*
X92253000Y-106530085D01*
X92507000Y-106530085D01*
X92507000Y-108373000D01*
X92527000Y-108373000D01*
X92527000Y-108627000D01*
X92507000Y-108627000D01*
X92507000Y-110469915D01*
X92729039Y-110591904D01*
X92811818Y-110574367D01*
X93071646Y-110463715D01*
X93304895Y-110304500D01*
X93502601Y-110102839D01*
X93652735Y-109873258D01*
X93721069Y-110001101D01*
X93900393Y-110219608D01*
X94118900Y-110398932D01*
X94368193Y-110532182D01*
X94638692Y-110614236D01*
X94920000Y-110641943D01*
X95201309Y-110614236D01*
X95471808Y-110532182D01*
X95721101Y-110398932D01*
X95939608Y-110219608D01*
X96118932Y-110001101D01*
X96190001Y-109868141D01*
X96261069Y-110001101D01*
X96440393Y-110219608D01*
X96658900Y-110398932D01*
X96908193Y-110532182D01*
X97178692Y-110614236D01*
X97460000Y-110641943D01*
X97741309Y-110614236D01*
X98011808Y-110532182D01*
X98261101Y-110398932D01*
X98479608Y-110219608D01*
X98658932Y-110001101D01*
X98730001Y-109868141D01*
X98801069Y-110001101D01*
X98980393Y-110219608D01*
X99198900Y-110398932D01*
X99448193Y-110532182D01*
X99718692Y-110614236D01*
X100000000Y-110641943D01*
X100281309Y-110614236D01*
X100551808Y-110532182D01*
X100801101Y-110398932D01*
X101019608Y-110219608D01*
X101198932Y-110001101D01*
X101270001Y-109868141D01*
X101341069Y-110001101D01*
X101520393Y-110219608D01*
X101738900Y-110398932D01*
X101988193Y-110532182D01*
X102258692Y-110614236D01*
X102540000Y-110641943D01*
X102821309Y-110614236D01*
X103091808Y-110532182D01*
X103341101Y-110398932D01*
X103559608Y-110219608D01*
X103738932Y-110001101D01*
X103810001Y-109868141D01*
X103881069Y-110001101D01*
X104060393Y-110219608D01*
X104278900Y-110398932D01*
X104528193Y-110532182D01*
X104798692Y-110614236D01*
X105080000Y-110641943D01*
X105361309Y-110614236D01*
X105631808Y-110532182D01*
X105881101Y-110398932D01*
X106099608Y-110219608D01*
X106278932Y-110001101D01*
X106350001Y-109868141D01*
X106421069Y-110001101D01*
X106600393Y-110219608D01*
X106818900Y-110398932D01*
X107068193Y-110532182D01*
X107338692Y-110614236D01*
X107620000Y-110641943D01*
X107901309Y-110614236D01*
X108171808Y-110532182D01*
X108421101Y-110398932D01*
X108639608Y-110219608D01*
X108818932Y-110001101D01*
X108952182Y-109751808D01*
X109034236Y-109481309D01*
X109055000Y-109270492D01*
X109055000Y-107729508D01*
X109034236Y-107518691D01*
X108952182Y-107248192D01*
X108818932Y-106998899D01*
X108639607Y-106780392D01*
X108421100Y-106601068D01*
X108171807Y-106467818D01*
X107901308Y-106385764D01*
X107620000Y-106358057D01*
X107338691Y-106385764D01*
X107068192Y-106467818D01*
X106818899Y-106601068D01*
X106600392Y-106780393D01*
X106421068Y-106998900D01*
X106350000Y-107131858D01*
X106278932Y-106998899D01*
X106099607Y-106780392D01*
X105881100Y-106601068D01*
X105631807Y-106467818D01*
X105361308Y-106385764D01*
X105080000Y-106358057D01*
X104798691Y-106385764D01*
X104528192Y-106467818D01*
X104278899Y-106601068D01*
X104060392Y-106780393D01*
X103881068Y-106998900D01*
X103810000Y-107131858D01*
X103738932Y-106998899D01*
X103559607Y-106780392D01*
X103341100Y-106601068D01*
X103091807Y-106467818D01*
X102821308Y-106385764D01*
X102540000Y-106358057D01*
X102258691Y-106385764D01*
X101988192Y-106467818D01*
X101738899Y-106601068D01*
X101520392Y-106780393D01*
X101341068Y-106998900D01*
X101270000Y-107131858D01*
X101198932Y-106998899D01*
X101019607Y-106780392D01*
X100801100Y-106601068D01*
X100551807Y-106467818D01*
X100281308Y-106385764D01*
X100000000Y-106358057D01*
X99718691Y-106385764D01*
X99448192Y-106467818D01*
X99198899Y-106601068D01*
X98980392Y-106780393D01*
X98801068Y-106998900D01*
X98730000Y-107131858D01*
X98658932Y-106998899D01*
X98479607Y-106780392D01*
X98261100Y-106601068D01*
X98011807Y-106467818D01*
X97741308Y-106385764D01*
X97460000Y-106358057D01*
X97178691Y-106385764D01*
X96908192Y-106467818D01*
X96658899Y-106601068D01*
X96440392Y-106780393D01*
X96261068Y-106998900D01*
X96190000Y-107131858D01*
X96118932Y-106998899D01*
X95939607Y-106780392D01*
X95721100Y-106601068D01*
X95471807Y-106467818D01*
X95201308Y-106385764D01*
X94920000Y-106358057D01*
X94638691Y-106385764D01*
X94368192Y-106467818D01*
X94118899Y-106601068D01*
X93900392Y-106780393D01*
X93721068Y-106998900D01*
X93652735Y-107126742D01*
X93502601Y-106897161D01*
X93304895Y-106695500D01*
X93071646Y-106536285D01*
X92811818Y-106425633D01*
X92729039Y-106408096D01*
X92507000Y-106530085D01*
X92253000Y-106530085D01*
X92030961Y-106408096D01*
X91948182Y-106425633D01*
X91688354Y-106536285D01*
X91455105Y-106695500D01*
X91257399Y-106897161D01*
X91102834Y-107133517D01*
X90997350Y-107395486D01*
X90945000Y-107673000D01*
X80660000Y-107673000D01*
X80660000Y-102914974D01*
X88944349Y-102914974D01*
X89047394Y-103211261D01*
X89206262Y-103481752D01*
X89414848Y-103716052D01*
X89665135Y-103905157D01*
X89947506Y-104041800D01*
X90125027Y-104095646D01*
X90373000Y-103975844D01*
X90373000Y-102667000D01*
X90627000Y-102667000D01*
X90627000Y-103975844D01*
X90874973Y-104095646D01*
X91052494Y-104041800D01*
X91334865Y-103905157D01*
X91585152Y-103716052D01*
X91793738Y-103481752D01*
X91952606Y-103211261D01*
X92055651Y-102914974D01*
X91936407Y-102667000D01*
X90627000Y-102667000D01*
X90373000Y-102667000D01*
X89063593Y-102667000D01*
X88944349Y-102914974D01*
X80660000Y-102914974D01*
X80660000Y-100374974D01*
X88944349Y-100374974D01*
X89047394Y-100671261D01*
X89206262Y-100941752D01*
X89414848Y-101176052D01*
X89539191Y-101270000D01*
X89414848Y-101363948D01*
X89206262Y-101598248D01*
X89047394Y-101868739D01*
X88944349Y-102165026D01*
X89063593Y-102413000D01*
X90373000Y-102413000D01*
X90373000Y-100127000D01*
X90627000Y-100127000D01*
X90627000Y-102413000D01*
X91936407Y-102413000D01*
X92055651Y-102165026D01*
X91952606Y-101868739D01*
X91793738Y-101598248D01*
X91585152Y-101363948D01*
X91460809Y-101270000D01*
X91585152Y-101176052D01*
X91793738Y-100941752D01*
X91952606Y-100671261D01*
X92055651Y-100374974D01*
X91936407Y-100127000D01*
X90627000Y-100127000D01*
X90373000Y-100127000D01*
X89063593Y-100127000D01*
X88944349Y-100374974D01*
X80660000Y-100374974D01*
X80660000Y-96494800D01*
X88896728Y-96494800D01*
X88896728Y-98425200D01*
X88908988Y-98549682D01*
X88945298Y-98669380D01*
X89004263Y-98779694D01*
X89083615Y-98876385D01*
X89180306Y-98955737D01*
X89259729Y-98998190D01*
X89206262Y-99058248D01*
X89047394Y-99328739D01*
X88944349Y-99625026D01*
X89063593Y-99873000D01*
X90373000Y-99873000D01*
X90373000Y-99853000D01*
X90627000Y-99853000D01*
X90627000Y-99873000D01*
X91936407Y-99873000D01*
X92055651Y-99625026D01*
X91952606Y-99328739D01*
X91793738Y-99058248D01*
X91740271Y-98998190D01*
X91819694Y-98955737D01*
X91916385Y-98876385D01*
X91995737Y-98779694D01*
X92054702Y-98669380D01*
X92091012Y-98549682D01*
X92103272Y-98425200D01*
X92103272Y-98058665D01*
X96165000Y-98058665D01*
X96165000Y-98341335D01*
X96220147Y-98618574D01*
X96328320Y-98879727D01*
X96485363Y-99114759D01*
X96685241Y-99314637D01*
X96920273Y-99471680D01*
X97181426Y-99579853D01*
X97458665Y-99635000D01*
X97741335Y-99635000D01*
X98018574Y-99579853D01*
X98279727Y-99471680D01*
X98514759Y-99314637D01*
X98714637Y-99114759D01*
X98871680Y-98879727D01*
X98979853Y-98618574D01*
X99035000Y-98341335D01*
X99035000Y-98058665D01*
X101165000Y-98058665D01*
X101165000Y-98341335D01*
X101220147Y-98618574D01*
X101328320Y-98879727D01*
X101485363Y-99114759D01*
X101685241Y-99314637D01*
X101920273Y-99471680D01*
X102181426Y-99579853D01*
X102458665Y-99635000D01*
X102741335Y-99635000D01*
X103018574Y-99579853D01*
X103279727Y-99471680D01*
X103514759Y-99314637D01*
X103714637Y-99114759D01*
X103871680Y-98879727D01*
X103880404Y-98858665D01*
X106165000Y-98858665D01*
X106165000Y-99141335D01*
X106220147Y-99418574D01*
X106328320Y-99679727D01*
X106485363Y-99914759D01*
X106685241Y-100114637D01*
X106920273Y-100271680D01*
X107181426Y-100379853D01*
X107458665Y-100435000D01*
X107741335Y-100435000D01*
X108018574Y-100379853D01*
X108279727Y-100271680D01*
X108433338Y-100169040D01*
X109908091Y-100169040D01*
X110002930Y-100433881D01*
X110147615Y-100675131D01*
X110336586Y-100883519D01*
X110562580Y-101051037D01*
X110816913Y-101171246D01*
X110950961Y-101211904D01*
X111173000Y-101089915D01*
X111173000Y-99947000D01*
X111427000Y-99947000D01*
X111427000Y-101089915D01*
X111649039Y-101211904D01*
X111783087Y-101171246D01*
X112037420Y-101051037D01*
X112263414Y-100883519D01*
X112452385Y-100675131D01*
X112597070Y-100433881D01*
X112691909Y-100169040D01*
X112570624Y-99947000D01*
X111427000Y-99947000D01*
X111173000Y-99947000D01*
X110029376Y-99947000D01*
X109908091Y-100169040D01*
X108433338Y-100169040D01*
X108514759Y-100114637D01*
X108714637Y-99914759D01*
X108871680Y-99679727D01*
X108958154Y-99470960D01*
X109908091Y-99470960D01*
X110029376Y-99693000D01*
X111173000Y-99693000D01*
X111173000Y-98550085D01*
X111427000Y-98550085D01*
X111427000Y-99693000D01*
X112570624Y-99693000D01*
X112691909Y-99470960D01*
X112597070Y-99206119D01*
X112452385Y-98964869D01*
X112263414Y-98756481D01*
X112037420Y-98588963D01*
X111783087Y-98468754D01*
X111649039Y-98428096D01*
X111427000Y-98550085D01*
X111173000Y-98550085D01*
X110950961Y-98428096D01*
X110816913Y-98468754D01*
X110562580Y-98588963D01*
X110336586Y-98756481D01*
X110147615Y-98964869D01*
X110002930Y-99206119D01*
X109908091Y-99470960D01*
X108958154Y-99470960D01*
X108979853Y-99418574D01*
X109035000Y-99141335D01*
X109035000Y-98858665D01*
X108979853Y-98581426D01*
X108871680Y-98320273D01*
X108714637Y-98085241D01*
X108514759Y-97885363D01*
X108279727Y-97728320D01*
X108018574Y-97620147D01*
X107741335Y-97565000D01*
X107458665Y-97565000D01*
X107181426Y-97620147D01*
X106920273Y-97728320D01*
X106685241Y-97885363D01*
X106485363Y-98085241D01*
X106328320Y-98320273D01*
X106220147Y-98581426D01*
X106165000Y-98858665D01*
X103880404Y-98858665D01*
X103979853Y-98618574D01*
X104035000Y-98341335D01*
X104035000Y-98058665D01*
X103979853Y-97781426D01*
X103871680Y-97520273D01*
X103714637Y-97285241D01*
X103514759Y-97085363D01*
X103279727Y-96928320D01*
X103018574Y-96820147D01*
X102741335Y-96765000D01*
X102458665Y-96765000D01*
X102181426Y-96820147D01*
X101920273Y-96928320D01*
X101685241Y-97085363D01*
X101485363Y-97285241D01*
X101328320Y-97520273D01*
X101220147Y-97781426D01*
X101165000Y-98058665D01*
X99035000Y-98058665D01*
X98979853Y-97781426D01*
X98871680Y-97520273D01*
X98714637Y-97285241D01*
X98514759Y-97085363D01*
X98279727Y-96928320D01*
X98018574Y-96820147D01*
X97741335Y-96765000D01*
X97458665Y-96765000D01*
X97181426Y-96820147D01*
X96920273Y-96928320D01*
X96685241Y-97085363D01*
X96485363Y-97285241D01*
X96328320Y-97520273D01*
X96220147Y-97781426D01*
X96165000Y-98058665D01*
X92103272Y-98058665D01*
X92103272Y-96494800D01*
X92091012Y-96370318D01*
X92054702Y-96250620D01*
X91995737Y-96140306D01*
X91916385Y-96043615D01*
X91819694Y-95964263D01*
X91709380Y-95905298D01*
X91589682Y-95868988D01*
X91465200Y-95856728D01*
X89534800Y-95856728D01*
X89410318Y-95868988D01*
X89290620Y-95905298D01*
X89180306Y-95964263D01*
X89083615Y-96043615D01*
X89004263Y-96140306D01*
X88945298Y-96250620D01*
X88908988Y-96370318D01*
X88896728Y-96494800D01*
X80660000Y-96494800D01*
X80660000Y-93978665D01*
X88965000Y-93978665D01*
X88965000Y-94261335D01*
X89020147Y-94538574D01*
X89128320Y-94799727D01*
X89285363Y-95034759D01*
X89485241Y-95234637D01*
X89720273Y-95391680D01*
X89981426Y-95499853D01*
X90258665Y-95555000D01*
X90541335Y-95555000D01*
X90818574Y-95499853D01*
X91079727Y-95391680D01*
X91314759Y-95234637D01*
X91514637Y-95034759D01*
X91671680Y-94799727D01*
X91779853Y-94538574D01*
X91835000Y-94261335D01*
X91835000Y-93978665D01*
X91811131Y-93858665D01*
X106165000Y-93858665D01*
X106165000Y-94141335D01*
X106220147Y-94418574D01*
X106328320Y-94679727D01*
X106485363Y-94914759D01*
X106685241Y-95114637D01*
X106920273Y-95271680D01*
X107181426Y-95379853D01*
X107458665Y-95435000D01*
X107741335Y-95435000D01*
X108018574Y-95379853D01*
X108279727Y-95271680D01*
X108514759Y-95114637D01*
X108714637Y-94914759D01*
X108871680Y-94679727D01*
X108979853Y-94418574D01*
X109035000Y-94141335D01*
X109035000Y-93858665D01*
X108979853Y-93581426D01*
X108871680Y-93320273D01*
X108714637Y-93085241D01*
X108514759Y-92885363D01*
X108279727Y-92728320D01*
X108018574Y-92620147D01*
X107741335Y-92565000D01*
X107458665Y-92565000D01*
X107181426Y-92620147D01*
X106920273Y-92728320D01*
X106685241Y-92885363D01*
X106485363Y-93085241D01*
X106328320Y-93320273D01*
X106220147Y-93581426D01*
X106165000Y-93858665D01*
X91811131Y-93858665D01*
X91779853Y-93701426D01*
X91671680Y-93440273D01*
X91514637Y-93205241D01*
X91314759Y-93005363D01*
X91079727Y-92848320D01*
X90818574Y-92740147D01*
X90541335Y-92685000D01*
X90258665Y-92685000D01*
X89981426Y-92740147D01*
X89720273Y-92848320D01*
X89485241Y-93005363D01*
X89285363Y-93205241D01*
X89128320Y-93440273D01*
X89020147Y-93701426D01*
X88965000Y-93978665D01*
X80660000Y-93978665D01*
X80660000Y-92058665D01*
X109865000Y-92058665D01*
X109865000Y-92341335D01*
X109920147Y-92618574D01*
X110028320Y-92879727D01*
X110185363Y-93114759D01*
X110385241Y-93314637D01*
X110620273Y-93471680D01*
X110881426Y-93579853D01*
X111158665Y-93635000D01*
X111441335Y-93635000D01*
X111718574Y-93579853D01*
X111979727Y-93471680D01*
X112214759Y-93314637D01*
X112414637Y-93114759D01*
X112571680Y-92879727D01*
X112679853Y-92618574D01*
X112735000Y-92341335D01*
X112735000Y-92058665D01*
X112679853Y-91781426D01*
X112571680Y-91520273D01*
X112414637Y-91285241D01*
X112214759Y-91085363D01*
X111979727Y-90928320D01*
X111718574Y-90820147D01*
X111441335Y-90765000D01*
X111158665Y-90765000D01*
X110881426Y-90820147D01*
X110620273Y-90928320D01*
X110385241Y-91085363D01*
X110185363Y-91285241D01*
X110028320Y-91520273D01*
X109920147Y-91781426D01*
X109865000Y-92058665D01*
X80660000Y-92058665D01*
X80660000Y-90262408D01*
X98603000Y-90262408D01*
X98603000Y-90537592D01*
X98656686Y-90807490D01*
X98761995Y-91061727D01*
X98914880Y-91290535D01*
X99109465Y-91485120D01*
X99338273Y-91638005D01*
X99592510Y-91743314D01*
X99862408Y-91797000D01*
X100137592Y-91797000D01*
X100407490Y-91743314D01*
X100661727Y-91638005D01*
X100890535Y-91485120D01*
X101085120Y-91290535D01*
X101238005Y-91061727D01*
X101343314Y-90807490D01*
X101397000Y-90537592D01*
X101397000Y-90262408D01*
X101343314Y-89992510D01*
X101238005Y-89738273D01*
X101085120Y-89509465D01*
X100890535Y-89314880D01*
X100661727Y-89161995D01*
X100407490Y-89056686D01*
X100137592Y-89003000D01*
X99862408Y-89003000D01*
X99592510Y-89056686D01*
X99338273Y-89161995D01*
X99109465Y-89314880D01*
X98914880Y-89509465D01*
X98761995Y-89738273D01*
X98656686Y-89992510D01*
X98603000Y-90262408D01*
X80660000Y-90262408D01*
X80660000Y-88162408D01*
X96503000Y-88162408D01*
X96503000Y-88437592D01*
X96556686Y-88707490D01*
X96661995Y-88961727D01*
X96814880Y-89190535D01*
X97009465Y-89385120D01*
X97238273Y-89538005D01*
X97492510Y-89643314D01*
X97762408Y-89697000D01*
X98037592Y-89697000D01*
X98307490Y-89643314D01*
X98561727Y-89538005D01*
X98790535Y-89385120D01*
X98985120Y-89190535D01*
X99138005Y-88961727D01*
X99243314Y-88707490D01*
X99297000Y-88437592D01*
X99297000Y-88162408D01*
X100703000Y-88162408D01*
X100703000Y-88437592D01*
X100756686Y-88707490D01*
X100861995Y-88961727D01*
X101014880Y-89190535D01*
X101209465Y-89385120D01*
X101438273Y-89538005D01*
X101692510Y-89643314D01*
X101962408Y-89697000D01*
X102237592Y-89697000D01*
X102507490Y-89643314D01*
X102761727Y-89538005D01*
X102990535Y-89385120D01*
X103185120Y-89190535D01*
X103338005Y-88961727D01*
X103443314Y-88707490D01*
X103497000Y-88437592D01*
X103497000Y-88162408D01*
X103443314Y-87892510D01*
X103338005Y-87638273D01*
X103185120Y-87409465D01*
X102990535Y-87214880D01*
X102761727Y-87061995D01*
X102507490Y-86956686D01*
X102237592Y-86903000D01*
X101962408Y-86903000D01*
X101692510Y-86956686D01*
X101438273Y-87061995D01*
X101209465Y-87214880D01*
X101014880Y-87409465D01*
X100861995Y-87638273D01*
X100756686Y-87892510D01*
X100703000Y-88162408D01*
X99297000Y-88162408D01*
X99243314Y-87892510D01*
X99138005Y-87638273D01*
X98985120Y-87409465D01*
X98790535Y-87214880D01*
X98561727Y-87061995D01*
X98307490Y-86956686D01*
X98037592Y-86903000D01*
X97762408Y-86903000D01*
X97492510Y-86956686D01*
X97238273Y-87061995D01*
X97009465Y-87214880D01*
X96814880Y-87409465D01*
X96661995Y-87638273D01*
X96556686Y-87892510D01*
X96503000Y-88162408D01*
X80660000Y-88162408D01*
X80660000Y-86358665D01*
X88965000Y-86358665D01*
X88965000Y-86641335D01*
X89020147Y-86918574D01*
X89128320Y-87179727D01*
X89285363Y-87414759D01*
X89485241Y-87614637D01*
X89720273Y-87771680D01*
X89981426Y-87879853D01*
X90258665Y-87935000D01*
X90541335Y-87935000D01*
X90818574Y-87879853D01*
X91079727Y-87771680D01*
X91314759Y-87614637D01*
X91514637Y-87414759D01*
X91671680Y-87179727D01*
X91779853Y-86918574D01*
X91835000Y-86641335D01*
X91835000Y-86400000D01*
X108561928Y-86400000D01*
X108561928Y-88000000D01*
X108574188Y-88124482D01*
X108610498Y-88244180D01*
X108669463Y-88354494D01*
X108748815Y-88451185D01*
X108845506Y-88530537D01*
X108955820Y-88589502D01*
X109075518Y-88625812D01*
X109200000Y-88638072D01*
X110800000Y-88638072D01*
X110924482Y-88625812D01*
X111044180Y-88589502D01*
X111154494Y-88530537D01*
X111251185Y-88451185D01*
X111330537Y-88354494D01*
X111389502Y-88244180D01*
X111425812Y-88124482D01*
X111438072Y-88000000D01*
X111438072Y-86400000D01*
X111425812Y-86275518D01*
X111389502Y-86155820D01*
X111330537Y-86045506D01*
X111251185Y-85948815D01*
X111154494Y-85869463D01*
X111044180Y-85810498D01*
X110924482Y-85774188D01*
X110800000Y-85761928D01*
X110792785Y-85761928D01*
X110813097Y-85692702D01*
X110000000Y-84879605D01*
X109186903Y-85692702D01*
X109207215Y-85761928D01*
X109200000Y-85761928D01*
X109075518Y-85774188D01*
X108955820Y-85810498D01*
X108845506Y-85869463D01*
X108748815Y-85948815D01*
X108669463Y-86045506D01*
X108610498Y-86155820D01*
X108574188Y-86275518D01*
X108561928Y-86400000D01*
X91835000Y-86400000D01*
X91835000Y-86358665D01*
X91779853Y-86081426D01*
X91671680Y-85820273D01*
X91514637Y-85585241D01*
X91314759Y-85385363D01*
X91079727Y-85228320D01*
X90818574Y-85120147D01*
X90541335Y-85065000D01*
X90258665Y-85065000D01*
X89981426Y-85120147D01*
X89720273Y-85228320D01*
X89485241Y-85385363D01*
X89285363Y-85585241D01*
X89128320Y-85820273D01*
X89020147Y-86081426D01*
X88965000Y-86358665D01*
X80660000Y-86358665D01*
X80660000Y-84770512D01*
X108559783Y-84770512D01*
X108601213Y-85050130D01*
X108696397Y-85316292D01*
X108763329Y-85441514D01*
X109007298Y-85513097D01*
X109820395Y-84700000D01*
X110179605Y-84700000D01*
X110992702Y-85513097D01*
X111236671Y-85441514D01*
X111357571Y-85186004D01*
X111426300Y-84911816D01*
X111440217Y-84629488D01*
X111398787Y-84349870D01*
X111303603Y-84083708D01*
X111236671Y-83958486D01*
X110992702Y-83886903D01*
X110179605Y-84700000D01*
X109820395Y-84700000D01*
X109007298Y-83886903D01*
X108763329Y-83958486D01*
X108642429Y-84213996D01*
X108573700Y-84488184D01*
X108559783Y-84770512D01*
X80660000Y-84770512D01*
X80660000Y-82100000D01*
X88961928Y-82100000D01*
X88961928Y-83700000D01*
X88974188Y-83824482D01*
X89010498Y-83944180D01*
X89069463Y-84054494D01*
X89148815Y-84151185D01*
X89245506Y-84230537D01*
X89355820Y-84289502D01*
X89475518Y-84325812D01*
X89600000Y-84338072D01*
X91200000Y-84338072D01*
X91324482Y-84325812D01*
X91444180Y-84289502D01*
X91554494Y-84230537D01*
X91651185Y-84151185D01*
X91730537Y-84054494D01*
X91789502Y-83944180D01*
X91825812Y-83824482D01*
X91837353Y-83707298D01*
X109186903Y-83707298D01*
X110000000Y-84520395D01*
X110813097Y-83707298D01*
X110741514Y-83463329D01*
X110486004Y-83342429D01*
X110211816Y-83273700D01*
X109929488Y-83259783D01*
X109649870Y-83301213D01*
X109383708Y-83396397D01*
X109258486Y-83463329D01*
X109186903Y-83707298D01*
X91837353Y-83707298D01*
X91838072Y-83700000D01*
X91838072Y-82100000D01*
X91825812Y-81975518D01*
X91789502Y-81855820D01*
X91730537Y-81745506D01*
X91651185Y-81648815D01*
X91554494Y-81569463D01*
X91444180Y-81510498D01*
X91324482Y-81474188D01*
X91200000Y-81461928D01*
X91192785Y-81461928D01*
X91213097Y-81392702D01*
X90400000Y-80579605D01*
X89586903Y-81392702D01*
X89607215Y-81461928D01*
X89600000Y-81461928D01*
X89475518Y-81474188D01*
X89355820Y-81510498D01*
X89245506Y-81569463D01*
X89148815Y-81648815D01*
X89069463Y-81745506D01*
X89010498Y-81855820D01*
X88974188Y-81975518D01*
X88961928Y-82100000D01*
X80660000Y-82100000D01*
X80660000Y-80470512D01*
X88959783Y-80470512D01*
X89001213Y-80750130D01*
X89096397Y-81016292D01*
X89163329Y-81141514D01*
X89407298Y-81213097D01*
X90220395Y-80400000D01*
X90579605Y-80400000D01*
X91392702Y-81213097D01*
X91636671Y-81141514D01*
X91757571Y-80886004D01*
X91826300Y-80611816D01*
X91840217Y-80329488D01*
X91798787Y-80049870D01*
X91703603Y-79783708D01*
X91636671Y-79658486D01*
X91392702Y-79586903D01*
X90579605Y-80400000D01*
X90220395Y-80400000D01*
X89407298Y-79586903D01*
X89163329Y-79658486D01*
X89042429Y-79913996D01*
X88973700Y-80188184D01*
X88959783Y-80470512D01*
X80660000Y-80470512D01*
X80660000Y-79407298D01*
X89586903Y-79407298D01*
X90400000Y-80220395D01*
X91213097Y-79407298D01*
X91141514Y-79163329D01*
X90886004Y-79042429D01*
X90611816Y-78973700D01*
X90329488Y-78959783D01*
X90049870Y-79001213D01*
X89783708Y-79096397D01*
X89658486Y-79163329D01*
X89586903Y-79407298D01*
X80660000Y-79407298D01*
X80660000Y-77130000D01*
X93011928Y-77130000D01*
X93011928Y-79670000D01*
X93024188Y-79794482D01*
X93060498Y-79914180D01*
X93119463Y-80024494D01*
X93198815Y-80121185D01*
X93295506Y-80200537D01*
X93405820Y-80259502D01*
X93525518Y-80295812D01*
X93650000Y-80308072D01*
X96190000Y-80308072D01*
X96314482Y-80295812D01*
X96434180Y-80259502D01*
X96544494Y-80200537D01*
X96641185Y-80121185D01*
X96720537Y-80024494D01*
X96779502Y-79914180D01*
X96815812Y-79794482D01*
X96828072Y-79670000D01*
X96828072Y-78212374D01*
X98095000Y-78212374D01*
X98095000Y-78587626D01*
X98168209Y-78955668D01*
X98311811Y-79302356D01*
X98520290Y-79614366D01*
X98785634Y-79879710D01*
X99097644Y-80088189D01*
X99444332Y-80231791D01*
X99812374Y-80305000D01*
X100187626Y-80305000D01*
X100555668Y-80231791D01*
X100902356Y-80088189D01*
X101214366Y-79879710D01*
X101479710Y-79614366D01*
X101688189Y-79302356D01*
X101831791Y-78955668D01*
X101905000Y-78587626D01*
X101905000Y-78212374D01*
X103175000Y-78212374D01*
X103175000Y-78587626D01*
X103248209Y-78955668D01*
X103391811Y-79302356D01*
X103600290Y-79614366D01*
X103865634Y-79879710D01*
X104177644Y-80088189D01*
X104524332Y-80231791D01*
X104892374Y-80305000D01*
X105267626Y-80305000D01*
X105635668Y-80231791D01*
X105982356Y-80088189D01*
X106294366Y-79879710D01*
X106559710Y-79614366D01*
X106768189Y-79302356D01*
X106911791Y-78955668D01*
X106985000Y-78587626D01*
X106985000Y-78212374D01*
X106911791Y-77844332D01*
X106768189Y-77497644D01*
X106559710Y-77185634D01*
X106294366Y-76920290D01*
X105982356Y-76711811D01*
X105635668Y-76568209D01*
X105267626Y-76495000D01*
X104892374Y-76495000D01*
X104524332Y-76568209D01*
X104177644Y-76711811D01*
X103865634Y-76920290D01*
X103600290Y-77185634D01*
X103391811Y-77497644D01*
X103248209Y-77844332D01*
X103175000Y-78212374D01*
X101905000Y-78212374D01*
X101831791Y-77844332D01*
X101688189Y-77497644D01*
X101479710Y-77185634D01*
X101214366Y-76920290D01*
X100902356Y-76711811D01*
X100555668Y-76568209D01*
X100187626Y-76495000D01*
X99812374Y-76495000D01*
X99444332Y-76568209D01*
X99097644Y-76711811D01*
X98785634Y-76920290D01*
X98520290Y-77185634D01*
X98311811Y-77497644D01*
X98168209Y-77844332D01*
X98095000Y-78212374D01*
X96828072Y-78212374D01*
X96828072Y-77130000D01*
X96815812Y-77005518D01*
X96779502Y-76885820D01*
X96720537Y-76775506D01*
X96641185Y-76678815D01*
X96544494Y-76599463D01*
X96434180Y-76540498D01*
X96314482Y-76504188D01*
X96190000Y-76491928D01*
X93650000Y-76491928D01*
X93525518Y-76504188D01*
X93405820Y-76540498D01*
X93295506Y-76599463D01*
X93198815Y-76678815D01*
X93119463Y-76775506D01*
X93060498Y-76885820D01*
X93024188Y-77005518D01*
X93011928Y-77130000D01*
X80660000Y-77130000D01*
X80660000Y-68660000D01*
X85873965Y-68660000D01*
X85848192Y-68667818D01*
G37*
X85848192Y-68667818D02*
X85598899Y-68801068D01*
X85380392Y-68980393D01*
X85201068Y-69198900D01*
X85067818Y-69448193D01*
X84985764Y-69718692D01*
X84965000Y-69929509D01*
X84965000Y-71470492D01*
X84985764Y-71681309D01*
X85067819Y-71951808D01*
X85201069Y-72201101D01*
X85380393Y-72419608D01*
X85598900Y-72598932D01*
X85848193Y-72732182D01*
X86118692Y-72814236D01*
X86400000Y-72841943D01*
X86681309Y-72814236D01*
X86951808Y-72732182D01*
X87201101Y-72598932D01*
X87419608Y-72419608D01*
X87598932Y-72201101D01*
X87700515Y-72011053D01*
X87722834Y-72066483D01*
X87877399Y-72302839D01*
X88075105Y-72504500D01*
X88308354Y-72663715D01*
X88568182Y-72774367D01*
X88650961Y-72791904D01*
X88873000Y-72669915D01*
X88873000Y-70827000D01*
X89127000Y-70827000D01*
X89127000Y-72669915D01*
X89349039Y-72791904D01*
X89431818Y-72774367D01*
X89691646Y-72663715D01*
X89924895Y-72504500D01*
X90122601Y-72302839D01*
X90277166Y-72066483D01*
X90382650Y-71804514D01*
X90435000Y-71527000D01*
X90435000Y-70827000D01*
X93165000Y-70827000D01*
X93165000Y-71527000D01*
X93217350Y-71804514D01*
X93322834Y-72066483D01*
X93477399Y-72302839D01*
X93675105Y-72504500D01*
X93908354Y-72663715D01*
X94168182Y-72774367D01*
X94250961Y-72791904D01*
X94473000Y-72669915D01*
X94473000Y-70827000D01*
X93165000Y-70827000D01*
X90435000Y-70827000D01*
X89127000Y-70827000D01*
X88873000Y-70827000D01*
X88853000Y-70827000D01*
X88853000Y-70573000D01*
X88873000Y-70573000D01*
X88873000Y-70553000D01*
X89127000Y-70553000D01*
X89127000Y-70573000D01*
X90435000Y-70573000D01*
X90435000Y-69873000D01*
X90382650Y-69595486D01*
X90277166Y-69333517D01*
X90122601Y-69097161D01*
X89924895Y-68895500D01*
X89691646Y-68736285D01*
X89512517Y-68660000D01*
X94087483Y-68660000D01*
X93908354Y-68736285D01*
X93675105Y-68895500D01*
X93477399Y-69097161D01*
X93322834Y-69333517D01*
X93217350Y-69595486D01*
X93165000Y-69873000D01*
X93165000Y-70573000D01*
X94473000Y-70573000D01*
X94473000Y-70553000D01*
X94727000Y-70553000D01*
X94727000Y-70573000D01*
X94747000Y-70573000D01*
X94747000Y-70827000D01*
X94727000Y-70827000D01*
X94727000Y-72669915D01*
X94949039Y-72791904D01*
X95031818Y-72774367D01*
X95291646Y-72663715D01*
X95524895Y-72504500D01*
X95722601Y-72302839D01*
X95877166Y-72066483D01*
X95886596Y-72043063D01*
X95971069Y-72201101D01*
X96150393Y-72419608D01*
X96368900Y-72598932D01*
X96618193Y-72732182D01*
X96888692Y-72814236D01*
X97170000Y-72841943D01*
X97451309Y-72814236D01*
X97721808Y-72732182D01*
X97971101Y-72598932D01*
X98189608Y-72419608D01*
X98368932Y-72201101D01*
X98502182Y-71951808D01*
X98584236Y-71681309D01*
X98605000Y-71470492D01*
X98605000Y-70827000D01*
X101365000Y-70827000D01*
X101365000Y-71527000D01*
X101417350Y-71804514D01*
X101522834Y-72066483D01*
X101677399Y-72302839D01*
X101875105Y-72504500D01*
X102108354Y-72663715D01*
X102368182Y-72774367D01*
X102450961Y-72791904D01*
X102673000Y-72669915D01*
X102673000Y-70827000D01*
X101365000Y-70827000D01*
X98605000Y-70827000D01*
X98605000Y-69929508D01*
X98584236Y-69718691D01*
X98502182Y-69448192D01*
X98368932Y-69198899D01*
X98189607Y-68980392D01*
X97971100Y-68801068D01*
X97721807Y-68667818D01*
X97696034Y-68660000D01*
X102287483Y-68660000D01*
X102108354Y-68736285D01*
X101875105Y-68895500D01*
X101677399Y-69097161D01*
X101522834Y-69333517D01*
X101417350Y-69595486D01*
X101365000Y-69873000D01*
X101365000Y-70573000D01*
X102673000Y-70573000D01*
X102673000Y-70553000D01*
X102927000Y-70553000D01*
X102927000Y-70573000D01*
X102947000Y-70573000D01*
X102947000Y-70827000D01*
X102927000Y-70827000D01*
X102927000Y-72669915D01*
X103149039Y-72791904D01*
X103231818Y-72774367D01*
X103491646Y-72663715D01*
X103724895Y-72504500D01*
X103922601Y-72302839D01*
X104050725Y-72106915D01*
X104101069Y-72201101D01*
X104280393Y-72419608D01*
X104498900Y-72598932D01*
X104748193Y-72732182D01*
X105018692Y-72814236D01*
X105300000Y-72841943D01*
X105581309Y-72814236D01*
X105851808Y-72732182D01*
X106101101Y-72598932D01*
X106319608Y-72419608D01*
X106498932Y-72201101D01*
X106632182Y-71951808D01*
X106714236Y-71681309D01*
X106735000Y-71470492D01*
X106735000Y-70827000D01*
X109465000Y-70827000D01*
X109465000Y-71527000D01*
X109517350Y-71804514D01*
X109622834Y-72066483D01*
X109777399Y-72302839D01*
X109975105Y-72504500D01*
X110208354Y-72663715D01*
X110468182Y-72774367D01*
X110550961Y-72791904D01*
X110773000Y-72669915D01*
X110773000Y-70827000D01*
X109465000Y-70827000D01*
X106735000Y-70827000D01*
X106735000Y-69929508D01*
X106714236Y-69718691D01*
X106632182Y-69448192D01*
X106498932Y-69198899D01*
X106319607Y-68980392D01*
X106101100Y-68801068D01*
X105851807Y-68667818D01*
X105826034Y-68660000D01*
X110387483Y-68660000D01*
X110208354Y-68736285D01*
X109975105Y-68895500D01*
X109777399Y-69097161D01*
X109622834Y-69333517D01*
X109517350Y-69595486D01*
X109465000Y-69873000D01*
X109465000Y-70573000D01*
X110773000Y-70573000D01*
X110773000Y-70553000D01*
X111027000Y-70553000D01*
X111027000Y-70573000D01*
X111047000Y-70573000D01*
X111047000Y-70827000D01*
X111027000Y-70827000D01*
X111027000Y-72669915D01*
X111249039Y-72791904D01*
X111331818Y-72774367D01*
X111591646Y-72663715D01*
X111824895Y-72504500D01*
X112022601Y-72302839D01*
X112177166Y-72066483D01*
X112199486Y-72011052D01*
X112301069Y-72201101D01*
X112480393Y-72419608D01*
X112698900Y-72598932D01*
X112948193Y-72732182D01*
X113218692Y-72814236D01*
X113500000Y-72841943D01*
X113781309Y-72814236D01*
X114051808Y-72732182D01*
X114301101Y-72598932D01*
X114519608Y-72419608D01*
X114698932Y-72201101D01*
X114832182Y-71951808D01*
X114914236Y-71681309D01*
X114935000Y-71470492D01*
X114935000Y-69929508D01*
X114914236Y-69718691D01*
X114832182Y-69448192D01*
X114698932Y-69198899D01*
X114519607Y-68980392D01*
X114301100Y-68801068D01*
X114051807Y-68667818D01*
X114026034Y-68660000D01*
X119340000Y-68660000D01*
X119340001Y-111340000D01*
X80660000Y-111340000D01*
X80660000Y-108627000D01*
X90945000Y-108627000D01*
X90945000Y-109327000D01*
X90997350Y-109604514D01*
X91102834Y-109866483D01*
X91257399Y-110102839D01*
X91455105Y-110304500D01*
X91688354Y-110463715D01*
X91948182Y-110574367D01*
X92030961Y-110591904D01*
X92253000Y-110469915D01*
X92253000Y-108627000D01*
X90945000Y-108627000D01*
X80660000Y-108627000D01*
X80660000Y-107673000D01*
X90945000Y-107673000D01*
X90945000Y-108373000D01*
X92253000Y-108373000D01*
X92253000Y-106530085D01*
X92507000Y-106530085D01*
X92507000Y-108373000D01*
X92527000Y-108373000D01*
X92527000Y-108627000D01*
X92507000Y-108627000D01*
X92507000Y-110469915D01*
X92729039Y-110591904D01*
X92811818Y-110574367D01*
X93071646Y-110463715D01*
X93304895Y-110304500D01*
X93502601Y-110102839D01*
X93652735Y-109873258D01*
X93721069Y-110001101D01*
X93900393Y-110219608D01*
X94118900Y-110398932D01*
X94368193Y-110532182D01*
X94638692Y-110614236D01*
X94920000Y-110641943D01*
X95201309Y-110614236D01*
X95471808Y-110532182D01*
X95721101Y-110398932D01*
X95939608Y-110219608D01*
X96118932Y-110001101D01*
X96190001Y-109868141D01*
X96261069Y-110001101D01*
X96440393Y-110219608D01*
X96658900Y-110398932D01*
X96908193Y-110532182D01*
X97178692Y-110614236D01*
X97460000Y-110641943D01*
X97741309Y-110614236D01*
X98011808Y-110532182D01*
X98261101Y-110398932D01*
X98479608Y-110219608D01*
X98658932Y-110001101D01*
X98730001Y-109868141D01*
X98801069Y-110001101D01*
X98980393Y-110219608D01*
X99198900Y-110398932D01*
X99448193Y-110532182D01*
X99718692Y-110614236D01*
X100000000Y-110641943D01*
X100281309Y-110614236D01*
X100551808Y-110532182D01*
X100801101Y-110398932D01*
X101019608Y-110219608D01*
X101198932Y-110001101D01*
X101270001Y-109868141D01*
X101341069Y-110001101D01*
X101520393Y-110219608D01*
X101738900Y-110398932D01*
X101988193Y-110532182D01*
X102258692Y-110614236D01*
X102540000Y-110641943D01*
X102821309Y-110614236D01*
X103091808Y-110532182D01*
X103341101Y-110398932D01*
X103559608Y-110219608D01*
X103738932Y-110001101D01*
X103810001Y-109868141D01*
X103881069Y-110001101D01*
X104060393Y-110219608D01*
X104278900Y-110398932D01*
X104528193Y-110532182D01*
X104798692Y-110614236D01*
X105080000Y-110641943D01*
X105361309Y-110614236D01*
X105631808Y-110532182D01*
X105881101Y-110398932D01*
X106099608Y-110219608D01*
X106278932Y-110001101D01*
X106350001Y-109868141D01*
X106421069Y-110001101D01*
X106600393Y-110219608D01*
X106818900Y-110398932D01*
X107068193Y-110532182D01*
X107338692Y-110614236D01*
X107620000Y-110641943D01*
X107901309Y-110614236D01*
X108171808Y-110532182D01*
X108421101Y-110398932D01*
X108639608Y-110219608D01*
X108818932Y-110001101D01*
X108952182Y-109751808D01*
X109034236Y-109481309D01*
X109055000Y-109270492D01*
X109055000Y-107729508D01*
X109034236Y-107518691D01*
X108952182Y-107248192D01*
X108818932Y-106998899D01*
X108639607Y-106780392D01*
X108421100Y-106601068D01*
X108171807Y-106467818D01*
X107901308Y-106385764D01*
X107620000Y-106358057D01*
X107338691Y-106385764D01*
X107068192Y-106467818D01*
X106818899Y-106601068D01*
X106600392Y-106780393D01*
X106421068Y-106998900D01*
X106350000Y-107131858D01*
X106278932Y-106998899D01*
X106099607Y-106780392D01*
X105881100Y-106601068D01*
X105631807Y-106467818D01*
X105361308Y-106385764D01*
X105080000Y-106358057D01*
X104798691Y-106385764D01*
X104528192Y-106467818D01*
X104278899Y-106601068D01*
X104060392Y-106780393D01*
X103881068Y-106998900D01*
X103810000Y-107131858D01*
X103738932Y-106998899D01*
X103559607Y-106780392D01*
X103341100Y-106601068D01*
X103091807Y-106467818D01*
X102821308Y-106385764D01*
X102540000Y-106358057D01*
X102258691Y-106385764D01*
X101988192Y-106467818D01*
X101738899Y-106601068D01*
X101520392Y-106780393D01*
X101341068Y-106998900D01*
X101270000Y-107131858D01*
X101198932Y-106998899D01*
X101019607Y-106780392D01*
X100801100Y-106601068D01*
X100551807Y-106467818D01*
X100281308Y-106385764D01*
X100000000Y-106358057D01*
X99718691Y-106385764D01*
X99448192Y-106467818D01*
X99198899Y-106601068D01*
X98980392Y-106780393D01*
X98801068Y-106998900D01*
X98730000Y-107131858D01*
X98658932Y-106998899D01*
X98479607Y-106780392D01*
X98261100Y-106601068D01*
X98011807Y-106467818D01*
X97741308Y-106385764D01*
X97460000Y-106358057D01*
X97178691Y-106385764D01*
X96908192Y-106467818D01*
X96658899Y-106601068D01*
X96440392Y-106780393D01*
X96261068Y-106998900D01*
X96190000Y-107131858D01*
X96118932Y-106998899D01*
X95939607Y-106780392D01*
X95721100Y-106601068D01*
X95471807Y-106467818D01*
X95201308Y-106385764D01*
X94920000Y-106358057D01*
X94638691Y-106385764D01*
X94368192Y-106467818D01*
X94118899Y-106601068D01*
X93900392Y-106780393D01*
X93721068Y-106998900D01*
X93652735Y-107126742D01*
X93502601Y-106897161D01*
X93304895Y-106695500D01*
X93071646Y-106536285D01*
X92811818Y-106425633D01*
X92729039Y-106408096D01*
X92507000Y-106530085D01*
X92253000Y-106530085D01*
X92030961Y-106408096D01*
X91948182Y-106425633D01*
X91688354Y-106536285D01*
X91455105Y-106695500D01*
X91257399Y-106897161D01*
X91102834Y-107133517D01*
X90997350Y-107395486D01*
X90945000Y-107673000D01*
X80660000Y-107673000D01*
X80660000Y-102914974D01*
X88944349Y-102914974D01*
X89047394Y-103211261D01*
X89206262Y-103481752D01*
X89414848Y-103716052D01*
X89665135Y-103905157D01*
X89947506Y-104041800D01*
X90125027Y-104095646D01*
X90373000Y-103975844D01*
X90373000Y-102667000D01*
X90627000Y-102667000D01*
X90627000Y-103975844D01*
X90874973Y-104095646D01*
X91052494Y-104041800D01*
X91334865Y-103905157D01*
X91585152Y-103716052D01*
X91793738Y-103481752D01*
X91952606Y-103211261D01*
X92055651Y-102914974D01*
X91936407Y-102667000D01*
X90627000Y-102667000D01*
X90373000Y-102667000D01*
X89063593Y-102667000D01*
X88944349Y-102914974D01*
X80660000Y-102914974D01*
X80660000Y-100374974D01*
X88944349Y-100374974D01*
X89047394Y-100671261D01*
X89206262Y-100941752D01*
X89414848Y-101176052D01*
X89539191Y-101270000D01*
X89414848Y-101363948D01*
X89206262Y-101598248D01*
X89047394Y-101868739D01*
X88944349Y-102165026D01*
X89063593Y-102413000D01*
X90373000Y-102413000D01*
X90373000Y-100127000D01*
X90627000Y-100127000D01*
X90627000Y-102413000D01*
X91936407Y-102413000D01*
X92055651Y-102165026D01*
X91952606Y-101868739D01*
X91793738Y-101598248D01*
X91585152Y-101363948D01*
X91460809Y-101270000D01*
X91585152Y-101176052D01*
X91793738Y-100941752D01*
X91952606Y-100671261D01*
X92055651Y-100374974D01*
X91936407Y-100127000D01*
X90627000Y-100127000D01*
X90373000Y-100127000D01*
X89063593Y-100127000D01*
X88944349Y-100374974D01*
X80660000Y-100374974D01*
X80660000Y-96494800D01*
X88896728Y-96494800D01*
X88896728Y-98425200D01*
X88908988Y-98549682D01*
X88945298Y-98669380D01*
X89004263Y-98779694D01*
X89083615Y-98876385D01*
X89180306Y-98955737D01*
X89259729Y-98998190D01*
X89206262Y-99058248D01*
X89047394Y-99328739D01*
X88944349Y-99625026D01*
X89063593Y-99873000D01*
X90373000Y-99873000D01*
X90373000Y-99853000D01*
X90627000Y-99853000D01*
X90627000Y-99873000D01*
X91936407Y-99873000D01*
X92055651Y-99625026D01*
X91952606Y-99328739D01*
X91793738Y-99058248D01*
X91740271Y-98998190D01*
X91819694Y-98955737D01*
X91916385Y-98876385D01*
X91995737Y-98779694D01*
X92054702Y-98669380D01*
X92091012Y-98549682D01*
X92103272Y-98425200D01*
X92103272Y-98058665D01*
X96165000Y-98058665D01*
X96165000Y-98341335D01*
X96220147Y-98618574D01*
X96328320Y-98879727D01*
X96485363Y-99114759D01*
X96685241Y-99314637D01*
X96920273Y-99471680D01*
X97181426Y-99579853D01*
X97458665Y-99635000D01*
X97741335Y-99635000D01*
X98018574Y-99579853D01*
X98279727Y-99471680D01*
X98514759Y-99314637D01*
X98714637Y-99114759D01*
X98871680Y-98879727D01*
X98979853Y-98618574D01*
X99035000Y-98341335D01*
X99035000Y-98058665D01*
X101165000Y-98058665D01*
X101165000Y-98341335D01*
X101220147Y-98618574D01*
X101328320Y-98879727D01*
X101485363Y-99114759D01*
X101685241Y-99314637D01*
X101920273Y-99471680D01*
X102181426Y-99579853D01*
X102458665Y-99635000D01*
X102741335Y-99635000D01*
X103018574Y-99579853D01*
X103279727Y-99471680D01*
X103514759Y-99314637D01*
X103714637Y-99114759D01*
X103871680Y-98879727D01*
X103880404Y-98858665D01*
X106165000Y-98858665D01*
X106165000Y-99141335D01*
X106220147Y-99418574D01*
X106328320Y-99679727D01*
X106485363Y-99914759D01*
X106685241Y-100114637D01*
X106920273Y-100271680D01*
X107181426Y-100379853D01*
X107458665Y-100435000D01*
X107741335Y-100435000D01*
X108018574Y-100379853D01*
X108279727Y-100271680D01*
X108433338Y-100169040D01*
X109908091Y-100169040D01*
X110002930Y-100433881D01*
X110147615Y-100675131D01*
X110336586Y-100883519D01*
X110562580Y-101051037D01*
X110816913Y-101171246D01*
X110950961Y-101211904D01*
X111173000Y-101089915D01*
X111173000Y-99947000D01*
X111427000Y-99947000D01*
X111427000Y-101089915D01*
X111649039Y-101211904D01*
X111783087Y-101171246D01*
X112037420Y-101051037D01*
X112263414Y-100883519D01*
X112452385Y-100675131D01*
X112597070Y-100433881D01*
X112691909Y-100169040D01*
X112570624Y-99947000D01*
X111427000Y-99947000D01*
X111173000Y-99947000D01*
X110029376Y-99947000D01*
X109908091Y-100169040D01*
X108433338Y-100169040D01*
X108514759Y-100114637D01*
X108714637Y-99914759D01*
X108871680Y-99679727D01*
X108958154Y-99470960D01*
X109908091Y-99470960D01*
X110029376Y-99693000D01*
X111173000Y-99693000D01*
X111173000Y-98550085D01*
X111427000Y-98550085D01*
X111427000Y-99693000D01*
X112570624Y-99693000D01*
X112691909Y-99470960D01*
X112597070Y-99206119D01*
X112452385Y-98964869D01*
X112263414Y-98756481D01*
X112037420Y-98588963D01*
X111783087Y-98468754D01*
X111649039Y-98428096D01*
X111427000Y-98550085D01*
X111173000Y-98550085D01*
X110950961Y-98428096D01*
X110816913Y-98468754D01*
X110562580Y-98588963D01*
X110336586Y-98756481D01*
X110147615Y-98964869D01*
X110002930Y-99206119D01*
X109908091Y-99470960D01*
X108958154Y-99470960D01*
X108979853Y-99418574D01*
X109035000Y-99141335D01*
X109035000Y-98858665D01*
X108979853Y-98581426D01*
X108871680Y-98320273D01*
X108714637Y-98085241D01*
X108514759Y-97885363D01*
X108279727Y-97728320D01*
X108018574Y-97620147D01*
X107741335Y-97565000D01*
X107458665Y-97565000D01*
X107181426Y-97620147D01*
X106920273Y-97728320D01*
X106685241Y-97885363D01*
X106485363Y-98085241D01*
X106328320Y-98320273D01*
X106220147Y-98581426D01*
X106165000Y-98858665D01*
X103880404Y-98858665D01*
X103979853Y-98618574D01*
X104035000Y-98341335D01*
X104035000Y-98058665D01*
X103979853Y-97781426D01*
X103871680Y-97520273D01*
X103714637Y-97285241D01*
X103514759Y-97085363D01*
X103279727Y-96928320D01*
X103018574Y-96820147D01*
X102741335Y-96765000D01*
X102458665Y-96765000D01*
X102181426Y-96820147D01*
X101920273Y-96928320D01*
X101685241Y-97085363D01*
X101485363Y-97285241D01*
X101328320Y-97520273D01*
X101220147Y-97781426D01*
X101165000Y-98058665D01*
X99035000Y-98058665D01*
X98979853Y-97781426D01*
X98871680Y-97520273D01*
X98714637Y-97285241D01*
X98514759Y-97085363D01*
X98279727Y-96928320D01*
X98018574Y-96820147D01*
X97741335Y-96765000D01*
X97458665Y-96765000D01*
X97181426Y-96820147D01*
X96920273Y-96928320D01*
X96685241Y-97085363D01*
X96485363Y-97285241D01*
X96328320Y-97520273D01*
X96220147Y-97781426D01*
X96165000Y-98058665D01*
X92103272Y-98058665D01*
X92103272Y-96494800D01*
X92091012Y-96370318D01*
X92054702Y-96250620D01*
X91995737Y-96140306D01*
X91916385Y-96043615D01*
X91819694Y-95964263D01*
X91709380Y-95905298D01*
X91589682Y-95868988D01*
X91465200Y-95856728D01*
X89534800Y-95856728D01*
X89410318Y-95868988D01*
X89290620Y-95905298D01*
X89180306Y-95964263D01*
X89083615Y-96043615D01*
X89004263Y-96140306D01*
X88945298Y-96250620D01*
X88908988Y-96370318D01*
X88896728Y-96494800D01*
X80660000Y-96494800D01*
X80660000Y-93978665D01*
X88965000Y-93978665D01*
X88965000Y-94261335D01*
X89020147Y-94538574D01*
X89128320Y-94799727D01*
X89285363Y-95034759D01*
X89485241Y-95234637D01*
X89720273Y-95391680D01*
X89981426Y-95499853D01*
X90258665Y-95555000D01*
X90541335Y-95555000D01*
X90818574Y-95499853D01*
X91079727Y-95391680D01*
X91314759Y-95234637D01*
X91514637Y-95034759D01*
X91671680Y-94799727D01*
X91779853Y-94538574D01*
X91835000Y-94261335D01*
X91835000Y-93978665D01*
X91811131Y-93858665D01*
X106165000Y-93858665D01*
X106165000Y-94141335D01*
X106220147Y-94418574D01*
X106328320Y-94679727D01*
X106485363Y-94914759D01*
X106685241Y-95114637D01*
X106920273Y-95271680D01*
X107181426Y-95379853D01*
X107458665Y-95435000D01*
X107741335Y-95435000D01*
X108018574Y-95379853D01*
X108279727Y-95271680D01*
X108514759Y-95114637D01*
X108714637Y-94914759D01*
X108871680Y-94679727D01*
X108979853Y-94418574D01*
X109035000Y-94141335D01*
X109035000Y-93858665D01*
X108979853Y-93581426D01*
X108871680Y-93320273D01*
X108714637Y-93085241D01*
X108514759Y-92885363D01*
X108279727Y-92728320D01*
X108018574Y-92620147D01*
X107741335Y-92565000D01*
X107458665Y-92565000D01*
X107181426Y-92620147D01*
X106920273Y-92728320D01*
X106685241Y-92885363D01*
X106485363Y-93085241D01*
X106328320Y-93320273D01*
X106220147Y-93581426D01*
X106165000Y-93858665D01*
X91811131Y-93858665D01*
X91779853Y-93701426D01*
X91671680Y-93440273D01*
X91514637Y-93205241D01*
X91314759Y-93005363D01*
X91079727Y-92848320D01*
X90818574Y-92740147D01*
X90541335Y-92685000D01*
X90258665Y-92685000D01*
X89981426Y-92740147D01*
X89720273Y-92848320D01*
X89485241Y-93005363D01*
X89285363Y-93205241D01*
X89128320Y-93440273D01*
X89020147Y-93701426D01*
X88965000Y-93978665D01*
X80660000Y-93978665D01*
X80660000Y-92058665D01*
X109865000Y-92058665D01*
X109865000Y-92341335D01*
X109920147Y-92618574D01*
X110028320Y-92879727D01*
X110185363Y-93114759D01*
X110385241Y-93314637D01*
X110620273Y-93471680D01*
X110881426Y-93579853D01*
X111158665Y-93635000D01*
X111441335Y-93635000D01*
X111718574Y-93579853D01*
X111979727Y-93471680D01*
X112214759Y-93314637D01*
X112414637Y-93114759D01*
X112571680Y-92879727D01*
X112679853Y-92618574D01*
X112735000Y-92341335D01*
X112735000Y-92058665D01*
X112679853Y-91781426D01*
X112571680Y-91520273D01*
X112414637Y-91285241D01*
X112214759Y-91085363D01*
X111979727Y-90928320D01*
X111718574Y-90820147D01*
X111441335Y-90765000D01*
X111158665Y-90765000D01*
X110881426Y-90820147D01*
X110620273Y-90928320D01*
X110385241Y-91085363D01*
X110185363Y-91285241D01*
X110028320Y-91520273D01*
X109920147Y-91781426D01*
X109865000Y-92058665D01*
X80660000Y-92058665D01*
X80660000Y-90262408D01*
X98603000Y-90262408D01*
X98603000Y-90537592D01*
X98656686Y-90807490D01*
X98761995Y-91061727D01*
X98914880Y-91290535D01*
X99109465Y-91485120D01*
X99338273Y-91638005D01*
X99592510Y-91743314D01*
X99862408Y-91797000D01*
X100137592Y-91797000D01*
X100407490Y-91743314D01*
X100661727Y-91638005D01*
X100890535Y-91485120D01*
X101085120Y-91290535D01*
X101238005Y-91061727D01*
X101343314Y-90807490D01*
X101397000Y-90537592D01*
X101397000Y-90262408D01*
X101343314Y-89992510D01*
X101238005Y-89738273D01*
X101085120Y-89509465D01*
X100890535Y-89314880D01*
X100661727Y-89161995D01*
X100407490Y-89056686D01*
X100137592Y-89003000D01*
X99862408Y-89003000D01*
X99592510Y-89056686D01*
X99338273Y-89161995D01*
X99109465Y-89314880D01*
X98914880Y-89509465D01*
X98761995Y-89738273D01*
X98656686Y-89992510D01*
X98603000Y-90262408D01*
X80660000Y-90262408D01*
X80660000Y-88162408D01*
X96503000Y-88162408D01*
X96503000Y-88437592D01*
X96556686Y-88707490D01*
X96661995Y-88961727D01*
X96814880Y-89190535D01*
X97009465Y-89385120D01*
X97238273Y-89538005D01*
X97492510Y-89643314D01*
X97762408Y-89697000D01*
X98037592Y-89697000D01*
X98307490Y-89643314D01*
X98561727Y-89538005D01*
X98790535Y-89385120D01*
X98985120Y-89190535D01*
X99138005Y-88961727D01*
X99243314Y-88707490D01*
X99297000Y-88437592D01*
X99297000Y-88162408D01*
X100703000Y-88162408D01*
X100703000Y-88437592D01*
X100756686Y-88707490D01*
X100861995Y-88961727D01*
X101014880Y-89190535D01*
X101209465Y-89385120D01*
X101438273Y-89538005D01*
X101692510Y-89643314D01*
X101962408Y-89697000D01*
X102237592Y-89697000D01*
X102507490Y-89643314D01*
X102761727Y-89538005D01*
X102990535Y-89385120D01*
X103185120Y-89190535D01*
X103338005Y-88961727D01*
X103443314Y-88707490D01*
X103497000Y-88437592D01*
X103497000Y-88162408D01*
X103443314Y-87892510D01*
X103338005Y-87638273D01*
X103185120Y-87409465D01*
X102990535Y-87214880D01*
X102761727Y-87061995D01*
X102507490Y-86956686D01*
X102237592Y-86903000D01*
X101962408Y-86903000D01*
X101692510Y-86956686D01*
X101438273Y-87061995D01*
X101209465Y-87214880D01*
X101014880Y-87409465D01*
X100861995Y-87638273D01*
X100756686Y-87892510D01*
X100703000Y-88162408D01*
X99297000Y-88162408D01*
X99243314Y-87892510D01*
X99138005Y-87638273D01*
X98985120Y-87409465D01*
X98790535Y-87214880D01*
X98561727Y-87061995D01*
X98307490Y-86956686D01*
X98037592Y-86903000D01*
X97762408Y-86903000D01*
X97492510Y-86956686D01*
X97238273Y-87061995D01*
X97009465Y-87214880D01*
X96814880Y-87409465D01*
X96661995Y-87638273D01*
X96556686Y-87892510D01*
X96503000Y-88162408D01*
X80660000Y-88162408D01*
X80660000Y-86358665D01*
X88965000Y-86358665D01*
X88965000Y-86641335D01*
X89020147Y-86918574D01*
X89128320Y-87179727D01*
X89285363Y-87414759D01*
X89485241Y-87614637D01*
X89720273Y-87771680D01*
X89981426Y-87879853D01*
X90258665Y-87935000D01*
X90541335Y-87935000D01*
X90818574Y-87879853D01*
X91079727Y-87771680D01*
X91314759Y-87614637D01*
X91514637Y-87414759D01*
X91671680Y-87179727D01*
X91779853Y-86918574D01*
X91835000Y-86641335D01*
X91835000Y-86400000D01*
X108561928Y-86400000D01*
X108561928Y-88000000D01*
X108574188Y-88124482D01*
X108610498Y-88244180D01*
X108669463Y-88354494D01*
X108748815Y-88451185D01*
X108845506Y-88530537D01*
X108955820Y-88589502D01*
X109075518Y-88625812D01*
X109200000Y-88638072D01*
X110800000Y-88638072D01*
X110924482Y-88625812D01*
X111044180Y-88589502D01*
X111154494Y-88530537D01*
X111251185Y-88451185D01*
X111330537Y-88354494D01*
X111389502Y-88244180D01*
X111425812Y-88124482D01*
X111438072Y-88000000D01*
X111438072Y-86400000D01*
X111425812Y-86275518D01*
X111389502Y-86155820D01*
X111330537Y-86045506D01*
X111251185Y-85948815D01*
X111154494Y-85869463D01*
X111044180Y-85810498D01*
X110924482Y-85774188D01*
X110800000Y-85761928D01*
X110792785Y-85761928D01*
X110813097Y-85692702D01*
X110000000Y-84879605D01*
X109186903Y-85692702D01*
X109207215Y-85761928D01*
X109200000Y-85761928D01*
X109075518Y-85774188D01*
X108955820Y-85810498D01*
X108845506Y-85869463D01*
X108748815Y-85948815D01*
X108669463Y-86045506D01*
X108610498Y-86155820D01*
X108574188Y-86275518D01*
X108561928Y-86400000D01*
X91835000Y-86400000D01*
X91835000Y-86358665D01*
X91779853Y-86081426D01*
X91671680Y-85820273D01*
X91514637Y-85585241D01*
X91314759Y-85385363D01*
X91079727Y-85228320D01*
X90818574Y-85120147D01*
X90541335Y-85065000D01*
X90258665Y-85065000D01*
X89981426Y-85120147D01*
X89720273Y-85228320D01*
X89485241Y-85385363D01*
X89285363Y-85585241D01*
X89128320Y-85820273D01*
X89020147Y-86081426D01*
X88965000Y-86358665D01*
X80660000Y-86358665D01*
X80660000Y-84770512D01*
X108559783Y-84770512D01*
X108601213Y-85050130D01*
X108696397Y-85316292D01*
X108763329Y-85441514D01*
X109007298Y-85513097D01*
X109820395Y-84700000D01*
X110179605Y-84700000D01*
X110992702Y-85513097D01*
X111236671Y-85441514D01*
X111357571Y-85186004D01*
X111426300Y-84911816D01*
X111440217Y-84629488D01*
X111398787Y-84349870D01*
X111303603Y-84083708D01*
X111236671Y-83958486D01*
X110992702Y-83886903D01*
X110179605Y-84700000D01*
X109820395Y-84700000D01*
X109007298Y-83886903D01*
X108763329Y-83958486D01*
X108642429Y-84213996D01*
X108573700Y-84488184D01*
X108559783Y-84770512D01*
X80660000Y-84770512D01*
X80660000Y-82100000D01*
X88961928Y-82100000D01*
X88961928Y-83700000D01*
X88974188Y-83824482D01*
X89010498Y-83944180D01*
X89069463Y-84054494D01*
X89148815Y-84151185D01*
X89245506Y-84230537D01*
X89355820Y-84289502D01*
X89475518Y-84325812D01*
X89600000Y-84338072D01*
X91200000Y-84338072D01*
X91324482Y-84325812D01*
X91444180Y-84289502D01*
X91554494Y-84230537D01*
X91651185Y-84151185D01*
X91730537Y-84054494D01*
X91789502Y-83944180D01*
X91825812Y-83824482D01*
X91837353Y-83707298D01*
X109186903Y-83707298D01*
X110000000Y-84520395D01*
X110813097Y-83707298D01*
X110741514Y-83463329D01*
X110486004Y-83342429D01*
X110211816Y-83273700D01*
X109929488Y-83259783D01*
X109649870Y-83301213D01*
X109383708Y-83396397D01*
X109258486Y-83463329D01*
X109186903Y-83707298D01*
X91837353Y-83707298D01*
X91838072Y-83700000D01*
X91838072Y-82100000D01*
X91825812Y-81975518D01*
X91789502Y-81855820D01*
X91730537Y-81745506D01*
X91651185Y-81648815D01*
X91554494Y-81569463D01*
X91444180Y-81510498D01*
X91324482Y-81474188D01*
X91200000Y-81461928D01*
X91192785Y-81461928D01*
X91213097Y-81392702D01*
X90400000Y-80579605D01*
X89586903Y-81392702D01*
X89607215Y-81461928D01*
X89600000Y-81461928D01*
X89475518Y-81474188D01*
X89355820Y-81510498D01*
X89245506Y-81569463D01*
X89148815Y-81648815D01*
X89069463Y-81745506D01*
X89010498Y-81855820D01*
X88974188Y-81975518D01*
X88961928Y-82100000D01*
X80660000Y-82100000D01*
X80660000Y-80470512D01*
X88959783Y-80470512D01*
X89001213Y-80750130D01*
X89096397Y-81016292D01*
X89163329Y-81141514D01*
X89407298Y-81213097D01*
X90220395Y-80400000D01*
X90579605Y-80400000D01*
X91392702Y-81213097D01*
X91636671Y-81141514D01*
X91757571Y-80886004D01*
X91826300Y-80611816D01*
X91840217Y-80329488D01*
X91798787Y-80049870D01*
X91703603Y-79783708D01*
X91636671Y-79658486D01*
X91392702Y-79586903D01*
X90579605Y-80400000D01*
X90220395Y-80400000D01*
X89407298Y-79586903D01*
X89163329Y-79658486D01*
X89042429Y-79913996D01*
X88973700Y-80188184D01*
X88959783Y-80470512D01*
X80660000Y-80470512D01*
X80660000Y-79407298D01*
X89586903Y-79407298D01*
X90400000Y-80220395D01*
X91213097Y-79407298D01*
X91141514Y-79163329D01*
X90886004Y-79042429D01*
X90611816Y-78973700D01*
X90329488Y-78959783D01*
X90049870Y-79001213D01*
X89783708Y-79096397D01*
X89658486Y-79163329D01*
X89586903Y-79407298D01*
X80660000Y-79407298D01*
X80660000Y-77130000D01*
X93011928Y-77130000D01*
X93011928Y-79670000D01*
X93024188Y-79794482D01*
X93060498Y-79914180D01*
X93119463Y-80024494D01*
X93198815Y-80121185D01*
X93295506Y-80200537D01*
X93405820Y-80259502D01*
X93525518Y-80295812D01*
X93650000Y-80308072D01*
X96190000Y-80308072D01*
X96314482Y-80295812D01*
X96434180Y-80259502D01*
X96544494Y-80200537D01*
X96641185Y-80121185D01*
X96720537Y-80024494D01*
X96779502Y-79914180D01*
X96815812Y-79794482D01*
X96828072Y-79670000D01*
X96828072Y-78212374D01*
X98095000Y-78212374D01*
X98095000Y-78587626D01*
X98168209Y-78955668D01*
X98311811Y-79302356D01*
X98520290Y-79614366D01*
X98785634Y-79879710D01*
X99097644Y-80088189D01*
X99444332Y-80231791D01*
X99812374Y-80305000D01*
X100187626Y-80305000D01*
X100555668Y-80231791D01*
X100902356Y-80088189D01*
X101214366Y-79879710D01*
X101479710Y-79614366D01*
X101688189Y-79302356D01*
X101831791Y-78955668D01*
X101905000Y-78587626D01*
X101905000Y-78212374D01*
X103175000Y-78212374D01*
X103175000Y-78587626D01*
X103248209Y-78955668D01*
X103391811Y-79302356D01*
X103600290Y-79614366D01*
X103865634Y-79879710D01*
X104177644Y-80088189D01*
X104524332Y-80231791D01*
X104892374Y-80305000D01*
X105267626Y-80305000D01*
X105635668Y-80231791D01*
X105982356Y-80088189D01*
X106294366Y-79879710D01*
X106559710Y-79614366D01*
X106768189Y-79302356D01*
X106911791Y-78955668D01*
X106985000Y-78587626D01*
X106985000Y-78212374D01*
X106911791Y-77844332D01*
X106768189Y-77497644D01*
X106559710Y-77185634D01*
X106294366Y-76920290D01*
X105982356Y-76711811D01*
X105635668Y-76568209D01*
X105267626Y-76495000D01*
X104892374Y-76495000D01*
X104524332Y-76568209D01*
X104177644Y-76711811D01*
X103865634Y-76920290D01*
X103600290Y-77185634D01*
X103391811Y-77497644D01*
X103248209Y-77844332D01*
X103175000Y-78212374D01*
X101905000Y-78212374D01*
X101831791Y-77844332D01*
X101688189Y-77497644D01*
X101479710Y-77185634D01*
X101214366Y-76920290D01*
X100902356Y-76711811D01*
X100555668Y-76568209D01*
X100187626Y-76495000D01*
X99812374Y-76495000D01*
X99444332Y-76568209D01*
X99097644Y-76711811D01*
X98785634Y-76920290D01*
X98520290Y-77185634D01*
X98311811Y-77497644D01*
X98168209Y-77844332D01*
X98095000Y-78212374D01*
X96828072Y-78212374D01*
X96828072Y-77130000D01*
X96815812Y-77005518D01*
X96779502Y-76885820D01*
X96720537Y-76775506D01*
X96641185Y-76678815D01*
X96544494Y-76599463D01*
X96434180Y-76540498D01*
X96314482Y-76504188D01*
X96190000Y-76491928D01*
X93650000Y-76491928D01*
X93525518Y-76504188D01*
X93405820Y-76540498D01*
X93295506Y-76599463D01*
X93198815Y-76678815D01*
X93119463Y-76775506D01*
X93060498Y-76885820D01*
X93024188Y-77005518D01*
X93011928Y-77130000D01*
X80660000Y-77130000D01*
X80660000Y-68660000D01*
X85873965Y-68660000D01*
X85848192Y-68667818D01*
M02*
