G04 #@! TF.GenerationSoftware,KiCad,Pcbnew,(5.1.5-0-10_14)*
G04 #@! TF.CreationDate,2021-09-14T17:31:05+02:00*
G04 #@! TF.ProjectId,npnium,6e706e69-756d-42e6-9b69-6361645f7063,rev?*
G04 #@! TF.SameCoordinates,Original*
G04 #@! TF.FileFunction,Legend,Top*
G04 #@! TF.FilePolarity,Positive*
%FSLAX46Y46*%
G04 Gerber Fmt 4.6, Leading zero omitted, Abs format (unit mm)*
G04 Created by KiCad (PCBNEW (5.1.5-0-10_14)) date 2021-09-14 17:31:05*
%MOMM*%
%LPD*%
G04 APERTURE LIST*
%ADD10C,0.130000*%
%ADD11C,0.120000*%
%ADD12C,0.127000*%
%ADD13C,0.100000*%
%ADD14C,0.150000*%
%ADD15C,0.097536*%
%ADD16C,0.065024*%
G04 APERTURE END LIST*
D10*
X117471428Y-101874976D02*
X116671428Y-101874976D01*
X117433333Y-101874976D02*
X117471428Y-101951166D01*
X117471428Y-102103547D01*
X117433333Y-102179738D01*
X117395238Y-102217833D01*
X117319047Y-102255928D01*
X117090476Y-102255928D01*
X117014285Y-102217833D01*
X116976190Y-102179738D01*
X116938095Y-102103547D01*
X116938095Y-101951166D01*
X116976190Y-101874976D01*
X116976190Y-102903547D02*
X116938095Y-102827357D01*
X116938095Y-102674976D01*
X116976190Y-102598785D01*
X117052380Y-102560690D01*
X117357142Y-102560690D01*
X117433333Y-102598785D01*
X117471428Y-102674976D01*
X117471428Y-102827357D01*
X117433333Y-102903547D01*
X117357142Y-102941642D01*
X117280952Y-102941642D01*
X117204761Y-102560690D01*
X116938095Y-103627357D02*
X117738095Y-103627357D01*
X116976190Y-103627357D02*
X116938095Y-103551166D01*
X116938095Y-103398785D01*
X116976190Y-103322595D01*
X117014285Y-103284500D01*
X117090476Y-103246404D01*
X117319047Y-103246404D01*
X117395238Y-103284500D01*
X117433333Y-103322595D01*
X117471428Y-103398785D01*
X117471428Y-103551166D01*
X117433333Y-103627357D01*
X116938095Y-104351166D02*
X117357142Y-104351166D01*
X117433333Y-104313071D01*
X117471428Y-104236880D01*
X117471428Y-104084500D01*
X117433333Y-104008309D01*
X116976190Y-104351166D02*
X116938095Y-104274976D01*
X116938095Y-104084500D01*
X116976190Y-104008309D01*
X117052380Y-103970214D01*
X117128571Y-103970214D01*
X117204761Y-104008309D01*
X117242857Y-104084500D01*
X117242857Y-104274976D01*
X117280952Y-104351166D01*
X116938095Y-104846404D02*
X116976190Y-104770214D01*
X117052380Y-104732119D01*
X117738095Y-104732119D01*
X116938095Y-105151166D02*
X117471428Y-105151166D01*
X117395238Y-105151166D02*
X117433333Y-105189261D01*
X117471428Y-105265452D01*
X117471428Y-105379738D01*
X117433333Y-105455928D01*
X117357142Y-105494023D01*
X116938095Y-105494023D01*
X117357142Y-105494023D02*
X117433333Y-105532119D01*
X117471428Y-105608309D01*
X117471428Y-105722595D01*
X117433333Y-105798785D01*
X117357142Y-105836880D01*
X116938095Y-105836880D01*
X116938095Y-106560690D02*
X117357142Y-106560690D01*
X117433333Y-106522595D01*
X117471428Y-106446404D01*
X117471428Y-106294023D01*
X117433333Y-106217833D01*
X116976190Y-106560690D02*
X116938095Y-106484500D01*
X116938095Y-106294023D01*
X116976190Y-106217833D01*
X117052380Y-106179738D01*
X117128571Y-106179738D01*
X117204761Y-106217833D01*
X117242857Y-106294023D01*
X117242857Y-106484500D01*
X117280952Y-106560690D01*
X116938095Y-106941642D02*
X117471428Y-106941642D01*
X117319047Y-106941642D02*
X117395238Y-106979738D01*
X117433333Y-107017833D01*
X117471428Y-107094023D01*
X117471428Y-107170214D01*
X116938095Y-107436880D02*
X117738095Y-107436880D01*
X117242857Y-107513071D02*
X116938095Y-107741642D01*
X117471428Y-107741642D02*
X117166666Y-107436880D01*
X117471428Y-107970214D02*
X117471428Y-108274976D01*
X117738095Y-108084500D02*
X117052380Y-108084500D01*
X116976190Y-108122595D01*
X116938095Y-108198785D01*
X116938095Y-108274976D01*
X117014285Y-108541642D02*
X116976190Y-108579738D01*
X116938095Y-108541642D01*
X116976190Y-108503547D01*
X117014285Y-108541642D01*
X116938095Y-108541642D01*
X116976190Y-109265452D02*
X116938095Y-109189261D01*
X116938095Y-109036880D01*
X116976190Y-108960690D01*
X117014285Y-108922595D01*
X117090476Y-108884500D01*
X117319047Y-108884500D01*
X117395238Y-108922595D01*
X117433333Y-108960690D01*
X117471428Y-109036880D01*
X117471428Y-109189261D01*
X117433333Y-109265452D01*
X116938095Y-109722595D02*
X116976190Y-109646404D01*
X117014285Y-109608309D01*
X117090476Y-109570214D01*
X117319047Y-109570214D01*
X117395238Y-109608309D01*
X117433333Y-109646404D01*
X117471428Y-109722595D01*
X117471428Y-109836880D01*
X117433333Y-109913071D01*
X117395238Y-109951166D01*
X117319047Y-109989261D01*
X117090476Y-109989261D01*
X117014285Y-109951166D01*
X116976190Y-109913071D01*
X116938095Y-109836880D01*
X116938095Y-109722595D01*
X116938095Y-110332119D02*
X117471428Y-110332119D01*
X117395238Y-110332119D02*
X117433333Y-110370214D01*
X117471428Y-110446404D01*
X117471428Y-110560690D01*
X117433333Y-110636880D01*
X117357142Y-110674976D01*
X116938095Y-110674976D01*
X117357142Y-110674976D02*
X117433333Y-110713071D01*
X117471428Y-110789261D01*
X117471428Y-110903547D01*
X117433333Y-110979738D01*
X117357142Y-111017833D01*
X116938095Y-111017833D01*
X118238095Y-101874976D02*
X119038095Y-101874976D01*
X119038095Y-102179738D01*
X119000000Y-102255928D01*
X118961904Y-102294023D01*
X118885714Y-102332119D01*
X118771428Y-102332119D01*
X118695238Y-102294023D01*
X118657142Y-102255928D01*
X118619047Y-102179738D01*
X118619047Y-101874976D01*
X118276190Y-102979738D02*
X118238095Y-102903547D01*
X118238095Y-102751166D01*
X118276190Y-102674976D01*
X118352380Y-102636880D01*
X118657142Y-102636880D01*
X118733333Y-102674976D01*
X118771428Y-102751166D01*
X118771428Y-102903547D01*
X118733333Y-102979738D01*
X118657142Y-103017833D01*
X118580952Y-103017833D01*
X118504761Y-102636880D01*
X118238095Y-103703547D02*
X119038095Y-103703547D01*
X118276190Y-103703547D02*
X118238095Y-103627357D01*
X118238095Y-103474976D01*
X118276190Y-103398785D01*
X118314285Y-103360690D01*
X118390476Y-103322595D01*
X118619047Y-103322595D01*
X118695238Y-103360690D01*
X118733333Y-103398785D01*
X118771428Y-103474976D01*
X118771428Y-103627357D01*
X118733333Y-103703547D01*
X118238095Y-104427357D02*
X118657142Y-104427357D01*
X118733333Y-104389261D01*
X118771428Y-104313071D01*
X118771428Y-104160690D01*
X118733333Y-104084500D01*
X118276190Y-104427357D02*
X118238095Y-104351166D01*
X118238095Y-104160690D01*
X118276190Y-104084500D01*
X118352380Y-104046404D01*
X118428571Y-104046404D01*
X118504761Y-104084500D01*
X118542857Y-104160690D01*
X118542857Y-104351166D01*
X118580952Y-104427357D01*
X118238095Y-104922595D02*
X118276190Y-104846404D01*
X118352380Y-104808309D01*
X119038095Y-104808309D01*
X118238095Y-105836880D02*
X119038095Y-105836880D01*
X118466666Y-106103547D01*
X119038095Y-106370214D01*
X118238095Y-106370214D01*
X118238095Y-107094023D02*
X118657142Y-107094023D01*
X118733333Y-107055928D01*
X118771428Y-106979738D01*
X118771428Y-106827357D01*
X118733333Y-106751166D01*
X118276190Y-107094023D02*
X118238095Y-107017833D01*
X118238095Y-106827357D01*
X118276190Y-106751166D01*
X118352380Y-106713071D01*
X118428571Y-106713071D01*
X118504761Y-106751166D01*
X118542857Y-106827357D01*
X118542857Y-107017833D01*
X118580952Y-107094023D01*
X118238095Y-107474976D02*
X118771428Y-107474976D01*
X118619047Y-107474976D02*
X118695238Y-107513071D01*
X118733333Y-107551166D01*
X118771428Y-107627357D01*
X118771428Y-107703547D01*
X118238095Y-107970214D02*
X119038095Y-107970214D01*
X118542857Y-108046404D02*
X118238095Y-108274976D01*
X118771428Y-108274976D02*
X118466666Y-107970214D01*
X118771428Y-108503547D02*
X118771428Y-108808309D01*
X119038095Y-108617833D02*
X118352380Y-108617833D01*
X118276190Y-108655928D01*
X118238095Y-108732119D01*
X118238095Y-108808309D01*
X118238095Y-109684500D02*
X119038095Y-109684500D01*
X119038095Y-109874976D01*
X119000000Y-109989261D01*
X118923809Y-110065452D01*
X118847619Y-110103547D01*
X118695238Y-110141642D01*
X118580952Y-110141642D01*
X118428571Y-110103547D01*
X118352380Y-110065452D01*
X118276190Y-109989261D01*
X118238095Y-109874976D01*
X118238095Y-109684500D01*
X118238095Y-110484500D02*
X119038095Y-110484500D01*
X118619047Y-111017833D02*
X118238095Y-111017833D01*
X119038095Y-110751166D02*
X118619047Y-111017833D01*
X119038095Y-111284500D01*
D11*
X95900000Y-69110000D02*
X97230000Y-69110000D01*
X95903500Y-70763500D02*
X95900000Y-69110000D01*
X95890000Y-72276500D02*
X98430000Y-72280000D01*
X93330000Y-69110000D02*
X94660000Y-69110000D01*
X93333500Y-70763500D02*
X93330000Y-69110000D01*
X93320000Y-72276500D02*
X95860000Y-72280000D01*
D12*
X93396000Y-76876000D02*
X93396000Y-79924000D01*
X96444000Y-76876000D02*
X93396000Y-76876000D01*
X96444000Y-79924000D02*
X96444000Y-76876000D01*
X98476000Y-76876000D02*
X98476000Y-79924000D01*
X101524000Y-76876000D02*
X98476000Y-76876000D01*
X101524000Y-79924000D02*
X101524000Y-76876000D01*
X103556000Y-76876000D02*
X103556000Y-79924000D01*
X106604000Y-76876000D02*
X103556000Y-76876000D01*
X106604000Y-79924000D02*
X106604000Y-76876000D01*
X96444000Y-79924000D02*
X93396000Y-79924000D01*
X101524000Y-79924000D02*
X98476000Y-79924000D01*
X106604000Y-79924000D02*
X103556000Y-79924000D01*
D13*
X88200000Y-103320000D02*
X92800000Y-103320000D01*
X92800000Y-96680000D02*
X92800000Y-103320000D01*
X88200000Y-96680000D02*
X92800000Y-96680000D01*
X88200000Y-103320000D02*
X88200000Y-96680000D01*
X92700000Y-97400000D02*
G75*
G03X92700000Y-97400000I-600000J0D01*
G01*
X91800000Y-97700000D02*
X92400000Y-97100000D01*
D11*
X109930000Y-99280000D02*
X110260000Y-99280000D01*
X109930000Y-92740000D02*
X109930000Y-99280000D01*
X110260000Y-92740000D02*
X109930000Y-92740000D01*
X112670000Y-99280000D02*
X112340000Y-99280000D01*
X112670000Y-92740000D02*
X112670000Y-99280000D01*
X112340000Y-92740000D02*
X112670000Y-92740000D01*
X89030000Y-93580000D02*
X89360000Y-93580000D01*
X89030000Y-87040000D02*
X89030000Y-93580000D01*
X89360000Y-87040000D02*
X89030000Y-87040000D01*
X91770000Y-93580000D02*
X91440000Y-93580000D01*
X91770000Y-87040000D02*
X91770000Y-93580000D01*
X91440000Y-87040000D02*
X91770000Y-87040000D01*
X105900000Y-88300000D02*
G75*
G03X105900000Y-88300000I-5900000J0D01*
G01*
X104000000Y-88300000D02*
G75*
G03X104000000Y-88300000I-4000000J0D01*
G01*
X106350000Y-106910000D02*
X107680000Y-106910000D01*
X106340000Y-110076500D02*
X108880000Y-110080000D01*
X106353500Y-108563500D02*
X106350000Y-106910000D01*
X103800000Y-110076500D02*
X106340000Y-110080000D01*
X103813500Y-108563500D02*
X103810000Y-106910000D01*
X103810000Y-106910000D02*
X105140000Y-106910000D01*
X101273500Y-108563500D02*
X101270000Y-106910000D01*
X101270000Y-106910000D02*
X102600000Y-106910000D01*
X101260000Y-110076500D02*
X103800000Y-110080000D01*
X91110000Y-106910000D02*
X92440000Y-106910000D01*
X91113500Y-108563500D02*
X91110000Y-106910000D01*
X91100000Y-110076500D02*
X93640000Y-110080000D01*
X93650000Y-106910000D02*
X94980000Y-106910000D01*
X93653500Y-108563500D02*
X93650000Y-106910000D01*
X93640000Y-110076500D02*
X96180000Y-110080000D01*
X96190000Y-106910000D02*
X97520000Y-106910000D01*
X96193500Y-108563500D02*
X96190000Y-106910000D01*
X96180000Y-110076500D02*
X98720000Y-110080000D01*
X98730000Y-106910000D02*
X100060000Y-106910000D01*
X98733500Y-108563500D02*
X98730000Y-106910000D01*
X98720000Y-110076500D02*
X101260000Y-110080000D01*
X104030000Y-69110000D02*
X105360000Y-69110000D01*
X104033500Y-70763500D02*
X104030000Y-69110000D01*
X104020000Y-72276500D02*
X106560000Y-72280000D01*
X112230000Y-69110000D02*
X113560000Y-69110000D01*
X112233500Y-70763500D02*
X112230000Y-69110000D01*
X112220000Y-72276500D02*
X114760000Y-72280000D01*
X85130000Y-69110000D02*
X86460000Y-69110000D01*
X85133500Y-70763500D02*
X85130000Y-69110000D01*
X85120000Y-72276500D02*
X87660000Y-72280000D01*
X101530000Y-69110000D02*
X102860000Y-69110000D01*
X101533500Y-70763500D02*
X101530000Y-69110000D01*
X101520000Y-72276500D02*
X104060000Y-72280000D01*
X109630000Y-69110000D02*
X110960000Y-69110000D01*
X109633500Y-70763500D02*
X109630000Y-69110000D01*
X109620000Y-72276500D02*
X112160000Y-72280000D01*
X87730000Y-69110000D02*
X89060000Y-69110000D01*
X87733500Y-70763500D02*
X87730000Y-69110000D01*
X87720000Y-72276500D02*
X90260000Y-72280000D01*
X88675000Y-84204775D02*
X89175000Y-84204775D01*
X88925000Y-84454775D02*
X88925000Y-83954775D01*
X90116000Y-79049000D02*
X90684000Y-79049000D01*
X89882000Y-79089000D02*
X90918000Y-79089000D01*
X89723000Y-79129000D02*
X91077000Y-79129000D01*
X89595000Y-79169000D02*
X91205000Y-79169000D01*
X89485000Y-79209000D02*
X91315000Y-79209000D01*
X89389000Y-79249000D02*
X91411000Y-79249000D01*
X89302000Y-79289000D02*
X91498000Y-79289000D01*
X89222000Y-79329000D02*
X91578000Y-79329000D01*
X91440000Y-79369000D02*
X91651000Y-79369000D01*
X89149000Y-79369000D02*
X89360000Y-79369000D01*
X91440000Y-79409000D02*
X91719000Y-79409000D01*
X89081000Y-79409000D02*
X89360000Y-79409000D01*
X91440000Y-79449000D02*
X91783000Y-79449000D01*
X89017000Y-79449000D02*
X89360000Y-79449000D01*
X91440000Y-79489000D02*
X91843000Y-79489000D01*
X88957000Y-79489000D02*
X89360000Y-79489000D01*
X91440000Y-79529000D02*
X91900000Y-79529000D01*
X88900000Y-79529000D02*
X89360000Y-79529000D01*
X91440000Y-79569000D02*
X91954000Y-79569000D01*
X88846000Y-79569000D02*
X89360000Y-79569000D01*
X91440000Y-79609000D02*
X92005000Y-79609000D01*
X88795000Y-79609000D02*
X89360000Y-79609000D01*
X91440000Y-79649000D02*
X92053000Y-79649000D01*
X88747000Y-79649000D02*
X89360000Y-79649000D01*
X91440000Y-79689000D02*
X92099000Y-79689000D01*
X88701000Y-79689000D02*
X89360000Y-79689000D01*
X91440000Y-79729000D02*
X92143000Y-79729000D01*
X88657000Y-79729000D02*
X89360000Y-79729000D01*
X91440000Y-79769000D02*
X92185000Y-79769000D01*
X88615000Y-79769000D02*
X89360000Y-79769000D01*
X91440000Y-79809000D02*
X92226000Y-79809000D01*
X88574000Y-79809000D02*
X89360000Y-79809000D01*
X91440000Y-79849000D02*
X92264000Y-79849000D01*
X88536000Y-79849000D02*
X89360000Y-79849000D01*
X91440000Y-79889000D02*
X92301000Y-79889000D01*
X88499000Y-79889000D02*
X89360000Y-79889000D01*
X91440000Y-79929000D02*
X92337000Y-79929000D01*
X88463000Y-79929000D02*
X89360000Y-79929000D01*
X91440000Y-79969000D02*
X92371000Y-79969000D01*
X88429000Y-79969000D02*
X89360000Y-79969000D01*
X91440000Y-80009000D02*
X92404000Y-80009000D01*
X88396000Y-80009000D02*
X89360000Y-80009000D01*
X91440000Y-80049000D02*
X92435000Y-80049000D01*
X88365000Y-80049000D02*
X89360000Y-80049000D01*
X91440000Y-80089000D02*
X92465000Y-80089000D01*
X88335000Y-80089000D02*
X89360000Y-80089000D01*
X91440000Y-80129000D02*
X92495000Y-80129000D01*
X88305000Y-80129000D02*
X89360000Y-80129000D01*
X91440000Y-80169000D02*
X92522000Y-80169000D01*
X88278000Y-80169000D02*
X89360000Y-80169000D01*
X91440000Y-80209000D02*
X92549000Y-80209000D01*
X88251000Y-80209000D02*
X89360000Y-80209000D01*
X91440000Y-80249000D02*
X92575000Y-80249000D01*
X88225000Y-80249000D02*
X89360000Y-80249000D01*
X91440000Y-80289000D02*
X92600000Y-80289000D01*
X88200000Y-80289000D02*
X89360000Y-80289000D01*
X91440000Y-80329000D02*
X92624000Y-80329000D01*
X88176000Y-80329000D02*
X89360000Y-80329000D01*
X91440000Y-80369000D02*
X92647000Y-80369000D01*
X88153000Y-80369000D02*
X89360000Y-80369000D01*
X91440000Y-80409000D02*
X92668000Y-80409000D01*
X88132000Y-80409000D02*
X89360000Y-80409000D01*
X91440000Y-80449000D02*
X92690000Y-80449000D01*
X88110000Y-80449000D02*
X89360000Y-80449000D01*
X91440000Y-80489000D02*
X92710000Y-80489000D01*
X88090000Y-80489000D02*
X89360000Y-80489000D01*
X91440000Y-80529000D02*
X92729000Y-80529000D01*
X88071000Y-80529000D02*
X89360000Y-80529000D01*
X91440000Y-80569000D02*
X92748000Y-80569000D01*
X88052000Y-80569000D02*
X89360000Y-80569000D01*
X91440000Y-80609000D02*
X92765000Y-80609000D01*
X88035000Y-80609000D02*
X89360000Y-80609000D01*
X91440000Y-80649000D02*
X92782000Y-80649000D01*
X88018000Y-80649000D02*
X89360000Y-80649000D01*
X91440000Y-80689000D02*
X92798000Y-80689000D01*
X88002000Y-80689000D02*
X89360000Y-80689000D01*
X91440000Y-80729000D02*
X92814000Y-80729000D01*
X87986000Y-80729000D02*
X89360000Y-80729000D01*
X91440000Y-80769000D02*
X92828000Y-80769000D01*
X87972000Y-80769000D02*
X89360000Y-80769000D01*
X91440000Y-80809000D02*
X92842000Y-80809000D01*
X87958000Y-80809000D02*
X89360000Y-80809000D01*
X91440000Y-80849000D02*
X92855000Y-80849000D01*
X87945000Y-80849000D02*
X89360000Y-80849000D01*
X91440000Y-80889000D02*
X92868000Y-80889000D01*
X87932000Y-80889000D02*
X89360000Y-80889000D01*
X91440000Y-80929000D02*
X92880000Y-80929000D01*
X87920000Y-80929000D02*
X89360000Y-80929000D01*
X91440000Y-80970000D02*
X92891000Y-80970000D01*
X87909000Y-80970000D02*
X89360000Y-80970000D01*
X91440000Y-81010000D02*
X92901000Y-81010000D01*
X87899000Y-81010000D02*
X89360000Y-81010000D01*
X91440000Y-81050000D02*
X92911000Y-81050000D01*
X87889000Y-81050000D02*
X89360000Y-81050000D01*
X91440000Y-81090000D02*
X92920000Y-81090000D01*
X87880000Y-81090000D02*
X89360000Y-81090000D01*
X91440000Y-81130000D02*
X92928000Y-81130000D01*
X87872000Y-81130000D02*
X89360000Y-81130000D01*
X91440000Y-81170000D02*
X92936000Y-81170000D01*
X87864000Y-81170000D02*
X89360000Y-81170000D01*
X91440000Y-81210000D02*
X92943000Y-81210000D01*
X87857000Y-81210000D02*
X89360000Y-81210000D01*
X91440000Y-81250000D02*
X92950000Y-81250000D01*
X87850000Y-81250000D02*
X89360000Y-81250000D01*
X91440000Y-81290000D02*
X92956000Y-81290000D01*
X87844000Y-81290000D02*
X89360000Y-81290000D01*
X91440000Y-81330000D02*
X92961000Y-81330000D01*
X87839000Y-81330000D02*
X89360000Y-81330000D01*
X91440000Y-81370000D02*
X92965000Y-81370000D01*
X87835000Y-81370000D02*
X89360000Y-81370000D01*
X91440000Y-81410000D02*
X92969000Y-81410000D01*
X87831000Y-81410000D02*
X89360000Y-81410000D01*
X87827000Y-81450000D02*
X92973000Y-81450000D01*
X87824000Y-81490000D02*
X92976000Y-81490000D01*
X87822000Y-81530000D02*
X92978000Y-81530000D01*
X87821000Y-81570000D02*
X92979000Y-81570000D01*
X87820000Y-81610000D02*
X92980000Y-81610000D01*
X87820000Y-81650000D02*
X92980000Y-81650000D01*
X93020000Y-81650000D02*
G75*
G03X93020000Y-81650000I-2620000J0D01*
G01*
X108275000Y-88504775D02*
X108775000Y-88504775D01*
X108525000Y-88754775D02*
X108525000Y-88254775D01*
X109716000Y-83349000D02*
X110284000Y-83349000D01*
X109482000Y-83389000D02*
X110518000Y-83389000D01*
X109323000Y-83429000D02*
X110677000Y-83429000D01*
X109195000Y-83469000D02*
X110805000Y-83469000D01*
X109085000Y-83509000D02*
X110915000Y-83509000D01*
X108989000Y-83549000D02*
X111011000Y-83549000D01*
X108902000Y-83589000D02*
X111098000Y-83589000D01*
X108822000Y-83629000D02*
X111178000Y-83629000D01*
X111040000Y-83669000D02*
X111251000Y-83669000D01*
X108749000Y-83669000D02*
X108960000Y-83669000D01*
X111040000Y-83709000D02*
X111319000Y-83709000D01*
X108681000Y-83709000D02*
X108960000Y-83709000D01*
X111040000Y-83749000D02*
X111383000Y-83749000D01*
X108617000Y-83749000D02*
X108960000Y-83749000D01*
X111040000Y-83789000D02*
X111443000Y-83789000D01*
X108557000Y-83789000D02*
X108960000Y-83789000D01*
X111040000Y-83829000D02*
X111500000Y-83829000D01*
X108500000Y-83829000D02*
X108960000Y-83829000D01*
X111040000Y-83869000D02*
X111554000Y-83869000D01*
X108446000Y-83869000D02*
X108960000Y-83869000D01*
X111040000Y-83909000D02*
X111605000Y-83909000D01*
X108395000Y-83909000D02*
X108960000Y-83909000D01*
X111040000Y-83949000D02*
X111653000Y-83949000D01*
X108347000Y-83949000D02*
X108960000Y-83949000D01*
X111040000Y-83989000D02*
X111699000Y-83989000D01*
X108301000Y-83989000D02*
X108960000Y-83989000D01*
X111040000Y-84029000D02*
X111743000Y-84029000D01*
X108257000Y-84029000D02*
X108960000Y-84029000D01*
X111040000Y-84069000D02*
X111785000Y-84069000D01*
X108215000Y-84069000D02*
X108960000Y-84069000D01*
X111040000Y-84109000D02*
X111826000Y-84109000D01*
X108174000Y-84109000D02*
X108960000Y-84109000D01*
X111040000Y-84149000D02*
X111864000Y-84149000D01*
X108136000Y-84149000D02*
X108960000Y-84149000D01*
X111040000Y-84189000D02*
X111901000Y-84189000D01*
X108099000Y-84189000D02*
X108960000Y-84189000D01*
X111040000Y-84229000D02*
X111937000Y-84229000D01*
X108063000Y-84229000D02*
X108960000Y-84229000D01*
X111040000Y-84269000D02*
X111971000Y-84269000D01*
X108029000Y-84269000D02*
X108960000Y-84269000D01*
X111040000Y-84309000D02*
X112004000Y-84309000D01*
X107996000Y-84309000D02*
X108960000Y-84309000D01*
X111040000Y-84349000D02*
X112035000Y-84349000D01*
X107965000Y-84349000D02*
X108960000Y-84349000D01*
X111040000Y-84389000D02*
X112065000Y-84389000D01*
X107935000Y-84389000D02*
X108960000Y-84389000D01*
X111040000Y-84429000D02*
X112095000Y-84429000D01*
X107905000Y-84429000D02*
X108960000Y-84429000D01*
X111040000Y-84469000D02*
X112122000Y-84469000D01*
X107878000Y-84469000D02*
X108960000Y-84469000D01*
X111040000Y-84509000D02*
X112149000Y-84509000D01*
X107851000Y-84509000D02*
X108960000Y-84509000D01*
X111040000Y-84549000D02*
X112175000Y-84549000D01*
X107825000Y-84549000D02*
X108960000Y-84549000D01*
X111040000Y-84589000D02*
X112200000Y-84589000D01*
X107800000Y-84589000D02*
X108960000Y-84589000D01*
X111040000Y-84629000D02*
X112224000Y-84629000D01*
X107776000Y-84629000D02*
X108960000Y-84629000D01*
X111040000Y-84669000D02*
X112247000Y-84669000D01*
X107753000Y-84669000D02*
X108960000Y-84669000D01*
X111040000Y-84709000D02*
X112268000Y-84709000D01*
X107732000Y-84709000D02*
X108960000Y-84709000D01*
X111040000Y-84749000D02*
X112290000Y-84749000D01*
X107710000Y-84749000D02*
X108960000Y-84749000D01*
X111040000Y-84789000D02*
X112310000Y-84789000D01*
X107690000Y-84789000D02*
X108960000Y-84789000D01*
X111040000Y-84829000D02*
X112329000Y-84829000D01*
X107671000Y-84829000D02*
X108960000Y-84829000D01*
X111040000Y-84869000D02*
X112348000Y-84869000D01*
X107652000Y-84869000D02*
X108960000Y-84869000D01*
X111040000Y-84909000D02*
X112365000Y-84909000D01*
X107635000Y-84909000D02*
X108960000Y-84909000D01*
X111040000Y-84949000D02*
X112382000Y-84949000D01*
X107618000Y-84949000D02*
X108960000Y-84949000D01*
X111040000Y-84989000D02*
X112398000Y-84989000D01*
X107602000Y-84989000D02*
X108960000Y-84989000D01*
X111040000Y-85029000D02*
X112414000Y-85029000D01*
X107586000Y-85029000D02*
X108960000Y-85029000D01*
X111040000Y-85069000D02*
X112428000Y-85069000D01*
X107572000Y-85069000D02*
X108960000Y-85069000D01*
X111040000Y-85109000D02*
X112442000Y-85109000D01*
X107558000Y-85109000D02*
X108960000Y-85109000D01*
X111040000Y-85149000D02*
X112455000Y-85149000D01*
X107545000Y-85149000D02*
X108960000Y-85149000D01*
X111040000Y-85189000D02*
X112468000Y-85189000D01*
X107532000Y-85189000D02*
X108960000Y-85189000D01*
X111040000Y-85229000D02*
X112480000Y-85229000D01*
X107520000Y-85229000D02*
X108960000Y-85229000D01*
X111040000Y-85270000D02*
X112491000Y-85270000D01*
X107509000Y-85270000D02*
X108960000Y-85270000D01*
X111040000Y-85310000D02*
X112501000Y-85310000D01*
X107499000Y-85310000D02*
X108960000Y-85310000D01*
X111040000Y-85350000D02*
X112511000Y-85350000D01*
X107489000Y-85350000D02*
X108960000Y-85350000D01*
X111040000Y-85390000D02*
X112520000Y-85390000D01*
X107480000Y-85390000D02*
X108960000Y-85390000D01*
X111040000Y-85430000D02*
X112528000Y-85430000D01*
X107472000Y-85430000D02*
X108960000Y-85430000D01*
X111040000Y-85470000D02*
X112536000Y-85470000D01*
X107464000Y-85470000D02*
X108960000Y-85470000D01*
X111040000Y-85510000D02*
X112543000Y-85510000D01*
X107457000Y-85510000D02*
X108960000Y-85510000D01*
X111040000Y-85550000D02*
X112550000Y-85550000D01*
X107450000Y-85550000D02*
X108960000Y-85550000D01*
X111040000Y-85590000D02*
X112556000Y-85590000D01*
X107444000Y-85590000D02*
X108960000Y-85590000D01*
X111040000Y-85630000D02*
X112561000Y-85630000D01*
X107439000Y-85630000D02*
X108960000Y-85630000D01*
X111040000Y-85670000D02*
X112565000Y-85670000D01*
X107435000Y-85670000D02*
X108960000Y-85670000D01*
X111040000Y-85710000D02*
X112569000Y-85710000D01*
X107431000Y-85710000D02*
X108960000Y-85710000D01*
X107427000Y-85750000D02*
X112573000Y-85750000D01*
X107424000Y-85790000D02*
X112576000Y-85790000D01*
X107422000Y-85830000D02*
X112578000Y-85830000D01*
X107421000Y-85870000D02*
X112579000Y-85870000D01*
X107420000Y-85910000D02*
X112580000Y-85910000D01*
X107420000Y-85950000D02*
X112580000Y-85950000D01*
X112620000Y-85950000D02*
G75*
G03X112620000Y-85950000I-2620000J0D01*
G01*
X108655000Y-93830000D02*
X109321000Y-93830000D01*
X105879000Y-93830000D02*
X106545000Y-93830000D01*
X108655000Y-99170000D02*
X109321000Y-99170000D01*
X105879000Y-99170000D02*
X106545000Y-99170000D01*
X109321000Y-99170000D02*
X109321000Y-93830000D01*
X105879000Y-99170000D02*
X105879000Y-93830000D01*
X102770000Y-99255000D02*
X102770000Y-99921000D01*
X102770000Y-96479000D02*
X102770000Y-97145000D01*
X97430000Y-99255000D02*
X97430000Y-99921000D01*
X97430000Y-96479000D02*
X97430000Y-97145000D01*
X97430000Y-99921000D02*
X102770000Y-99921000D01*
X97430000Y-96479000D02*
X102770000Y-96479000D01*
X97431904Y-75093428D02*
X97431904Y-74941047D01*
X97393809Y-74864857D01*
X97355714Y-74826761D01*
X97241428Y-74750571D01*
X97089047Y-74712476D01*
X96784285Y-74712476D01*
X96708095Y-74750571D01*
X96670000Y-74788666D01*
X96631904Y-74864857D01*
X96631904Y-75017238D01*
X96670000Y-75093428D01*
X96708095Y-75131523D01*
X96784285Y-75169619D01*
X96974761Y-75169619D01*
X97050952Y-75131523D01*
X97089047Y-75093428D01*
X97127142Y-75017238D01*
X97127142Y-74864857D01*
X97089047Y-74788666D01*
X97050952Y-74750571D01*
X96974761Y-74712476D01*
X96631904Y-74483904D02*
X97431904Y-74217238D01*
X96631904Y-73950571D01*
X94100000Y-74712476D02*
X94061904Y-74788666D01*
X94061904Y-74902952D01*
X94100000Y-75017238D01*
X94176190Y-75093428D01*
X94252380Y-75131523D01*
X94404761Y-75169619D01*
X94519047Y-75169619D01*
X94671428Y-75131523D01*
X94747619Y-75093428D01*
X94823809Y-75017238D01*
X94861904Y-74902952D01*
X94861904Y-74826761D01*
X94823809Y-74712476D01*
X94785714Y-74674380D01*
X94519047Y-74674380D01*
X94519047Y-74826761D01*
X94861904Y-74331523D02*
X94061904Y-74331523D01*
X94861904Y-73874380D01*
X94061904Y-73874380D01*
X94861904Y-73493428D02*
X94061904Y-73493428D01*
X94061904Y-73302952D01*
X94100000Y-73188666D01*
X94176190Y-73112476D01*
X94252380Y-73074380D01*
X94404761Y-73036285D01*
X94519047Y-73036285D01*
X94671428Y-73074380D01*
X94747619Y-73112476D01*
X94823809Y-73188666D01*
X94861904Y-73302952D01*
X94861904Y-73493428D01*
D14*
X98309523Y-81741666D02*
X98785714Y-81741666D01*
X98214285Y-82027380D02*
X98547619Y-81027380D01*
X98880952Y-82027380D01*
X99738095Y-82027380D02*
X99166666Y-82027380D01*
X99452380Y-82027380D02*
X99452380Y-81027380D01*
X99357142Y-81170238D01*
X99261904Y-81265476D01*
X99166666Y-81313095D01*
X100357142Y-81027380D02*
X100452380Y-81027380D01*
X100547619Y-81075000D01*
X100595238Y-81122619D01*
X100642857Y-81217857D01*
X100690476Y-81408333D01*
X100690476Y-81646428D01*
X100642857Y-81836904D01*
X100595238Y-81932142D01*
X100547619Y-81979761D01*
X100452380Y-82027380D01*
X100357142Y-82027380D01*
X100261904Y-81979761D01*
X100214285Y-81932142D01*
X100166666Y-81836904D01*
X100119047Y-81646428D01*
X100119047Y-81408333D01*
X100166666Y-81217857D01*
X100214285Y-81122619D01*
X100261904Y-81075000D01*
X100357142Y-81027380D01*
X101119047Y-82027380D02*
X101119047Y-81027380D01*
X101690476Y-82027380D02*
X101261904Y-81455952D01*
X101690476Y-81027380D02*
X101119047Y-81598809D01*
D15*
X93870617Y-81289310D02*
X93429382Y-81289310D01*
X93650000Y-81289310D02*
X93650000Y-80517150D01*
X93576460Y-80627459D01*
X93502921Y-80700998D01*
X93429382Y-80737767D01*
D13*
X89352380Y-100595238D02*
X88876190Y-100928571D01*
X89352380Y-101166666D02*
X88352380Y-101166666D01*
X88352380Y-100785714D01*
X88400000Y-100690476D01*
X88447619Y-100642857D01*
X88542857Y-100595238D01*
X88685714Y-100595238D01*
X88780952Y-100642857D01*
X88828571Y-100690476D01*
X88876190Y-100785714D01*
X88876190Y-101166666D01*
X88352380Y-100309523D02*
X89352380Y-99976190D01*
X88352380Y-99642857D01*
X89352380Y-98785714D02*
X89352380Y-99357142D01*
X89352380Y-99071428D02*
X88352380Y-99071428D01*
X88495238Y-99166666D01*
X88590476Y-99261904D01*
X88638095Y-99357142D01*
D16*
X89349310Y-97279382D02*
X89349310Y-97720617D01*
X89349310Y-97500000D02*
X88577150Y-97500000D01*
X88687459Y-97573539D01*
X88760998Y-97647078D01*
X88797767Y-97720617D01*
D14*
X114122380Y-96176666D02*
X113646190Y-96510000D01*
X114122380Y-96748095D02*
X113122380Y-96748095D01*
X113122380Y-96367142D01*
X113170000Y-96271904D01*
X113217619Y-96224285D01*
X113312857Y-96176666D01*
X113455714Y-96176666D01*
X113550952Y-96224285D01*
X113598571Y-96271904D01*
X113646190Y-96367142D01*
X113646190Y-96748095D01*
X113217619Y-95795714D02*
X113170000Y-95748095D01*
X113122380Y-95652857D01*
X113122380Y-95414761D01*
X113170000Y-95319523D01*
X113217619Y-95271904D01*
X113312857Y-95224285D01*
X113408095Y-95224285D01*
X113550952Y-95271904D01*
X114122380Y-95843333D01*
X114122380Y-95224285D01*
X93222380Y-90476666D02*
X92746190Y-90810000D01*
X93222380Y-91048095D02*
X92222380Y-91048095D01*
X92222380Y-90667142D01*
X92270000Y-90571904D01*
X92317619Y-90524285D01*
X92412857Y-90476666D01*
X92555714Y-90476666D01*
X92650952Y-90524285D01*
X92698571Y-90571904D01*
X92746190Y-90667142D01*
X92746190Y-91048095D01*
X93222380Y-89524285D02*
X93222380Y-90095714D01*
X93222380Y-89810000D02*
X92222380Y-89810000D01*
X92365238Y-89905238D01*
X92460476Y-90000476D01*
X92508095Y-90095714D01*
X94704761Y-93847619D02*
X94609523Y-93800000D01*
X94514285Y-93704761D01*
X94371428Y-93561904D01*
X94276190Y-93514285D01*
X94180952Y-93514285D01*
X94228571Y-93752380D02*
X94133333Y-93704761D01*
X94038095Y-93609523D01*
X93990476Y-93419047D01*
X93990476Y-93085714D01*
X94038095Y-92895238D01*
X94133333Y-92800000D01*
X94228571Y-92752380D01*
X94419047Y-92752380D01*
X94514285Y-92800000D01*
X94609523Y-92895238D01*
X94657142Y-93085714D01*
X94657142Y-93419047D01*
X94609523Y-93609523D01*
X94514285Y-93704761D01*
X94419047Y-93752380D01*
X94228571Y-93752380D01*
X95609523Y-93752380D02*
X95038095Y-93752380D01*
X95323809Y-93752380D02*
X95323809Y-92752380D01*
X95228571Y-92895238D01*
X95133333Y-92990476D01*
X95038095Y-93038095D01*
X101885714Y-86728571D02*
X102219047Y-86728571D01*
X102361904Y-87252380D02*
X101885714Y-87252380D01*
X101885714Y-86252380D01*
X102361904Y-86252380D01*
X100071428Y-88828571D02*
X100214285Y-88876190D01*
X100261904Y-88923809D01*
X100309523Y-89019047D01*
X100309523Y-89161904D01*
X100261904Y-89257142D01*
X100214285Y-89304761D01*
X100119047Y-89352380D01*
X99738095Y-89352380D01*
X99738095Y-88352380D01*
X100071428Y-88352380D01*
X100166666Y-88400000D01*
X100214285Y-88447619D01*
X100261904Y-88542857D01*
X100261904Y-88638095D01*
X100214285Y-88733333D01*
X100166666Y-88780952D01*
X100071428Y-88828571D01*
X99738095Y-88828571D01*
X98209523Y-87157142D02*
X98161904Y-87204761D01*
X98019047Y-87252380D01*
X97923809Y-87252380D01*
X97780952Y-87204761D01*
X97685714Y-87109523D01*
X97638095Y-87014285D01*
X97590476Y-86823809D01*
X97590476Y-86680952D01*
X97638095Y-86490476D01*
X97685714Y-86395238D01*
X97780952Y-86300000D01*
X97923809Y-86252380D01*
X98019047Y-86252380D01*
X98161904Y-86300000D01*
X98209523Y-86347619D01*
D11*
X107562857Y-105932857D02*
X107562857Y-106199523D01*
X107981904Y-106199523D02*
X107181904Y-106199523D01*
X107181904Y-105818571D01*
X107181904Y-105590000D02*
X107981904Y-105056666D01*
X107181904Y-105056666D02*
X107981904Y-105590000D01*
X108058095Y-104942380D02*
X108058095Y-104332857D01*
X107181904Y-103990000D02*
X107181904Y-103837619D01*
X107220000Y-103761428D01*
X107296190Y-103685238D01*
X107448571Y-103647142D01*
X107715238Y-103647142D01*
X107867619Y-103685238D01*
X107943809Y-103761428D01*
X107981904Y-103837619D01*
X107981904Y-103990000D01*
X107943809Y-104066190D01*
X107867619Y-104142380D01*
X107715238Y-104180476D01*
X107448571Y-104180476D01*
X107296190Y-104142380D01*
X107220000Y-104066190D01*
X107181904Y-103990000D01*
X107181904Y-103304285D02*
X107829523Y-103304285D01*
X107905714Y-103266190D01*
X107943809Y-103228095D01*
X107981904Y-103151904D01*
X107981904Y-102999523D01*
X107943809Y-102923333D01*
X107905714Y-102885238D01*
X107829523Y-102847142D01*
X107181904Y-102847142D01*
X107181904Y-102580476D02*
X107181904Y-102123333D01*
X107981904Y-102351904D02*
X107181904Y-102351904D01*
X105441904Y-106199523D02*
X104641904Y-106199523D01*
X104641904Y-105894761D01*
X104680000Y-105818571D01*
X104718095Y-105780476D01*
X104794285Y-105742380D01*
X104908571Y-105742380D01*
X104984761Y-105780476D01*
X105022857Y-105818571D01*
X105060952Y-105894761D01*
X105060952Y-106199523D01*
X105022857Y-105399523D02*
X105022857Y-105132857D01*
X105441904Y-105018571D02*
X105441904Y-105399523D01*
X104641904Y-105399523D01*
X104641904Y-105018571D01*
X105441904Y-104675714D02*
X104641904Y-104675714D01*
X104641904Y-104485238D01*
X104680000Y-104370952D01*
X104756190Y-104294761D01*
X104832380Y-104256666D01*
X104984761Y-104218571D01*
X105099047Y-104218571D01*
X105251428Y-104256666D01*
X105327619Y-104294761D01*
X105403809Y-104370952D01*
X105441904Y-104485238D01*
X105441904Y-104675714D01*
X105213333Y-103913809D02*
X105213333Y-103532857D01*
X105441904Y-103990000D02*
X104641904Y-103723333D01*
X105441904Y-103456666D01*
X105441904Y-102809047D02*
X105441904Y-103190000D01*
X104641904Y-103190000D01*
X105518095Y-102732857D02*
X105518095Y-102123333D01*
X104641904Y-101780476D02*
X104641904Y-101628095D01*
X104680000Y-101551904D01*
X104756190Y-101475714D01*
X104908571Y-101437619D01*
X105175238Y-101437619D01*
X105327619Y-101475714D01*
X105403809Y-101551904D01*
X105441904Y-101628095D01*
X105441904Y-101780476D01*
X105403809Y-101856666D01*
X105327619Y-101932857D01*
X105175238Y-101970952D01*
X104908571Y-101970952D01*
X104756190Y-101932857D01*
X104680000Y-101856666D01*
X104641904Y-101780476D01*
X104641904Y-101094761D02*
X105289523Y-101094761D01*
X105365714Y-101056666D01*
X105403809Y-101018571D01*
X105441904Y-100942380D01*
X105441904Y-100790000D01*
X105403809Y-100713809D01*
X105365714Y-100675714D01*
X105289523Y-100637619D01*
X104641904Y-100637619D01*
X104641904Y-100370952D02*
X104641904Y-99913809D01*
X105441904Y-100142380D02*
X104641904Y-100142380D01*
X102482857Y-105932857D02*
X102482857Y-106199523D01*
X102901904Y-106199523D02*
X102101904Y-106199523D01*
X102101904Y-105818571D01*
X102101904Y-105590000D02*
X102901904Y-105056666D01*
X102101904Y-105056666D02*
X102901904Y-105590000D01*
X102978095Y-104942380D02*
X102978095Y-104332857D01*
X102901904Y-104142380D02*
X102101904Y-104142380D01*
X102901904Y-103761428D02*
X102101904Y-103761428D01*
X102901904Y-103304285D01*
X102101904Y-103304285D01*
X100361904Y-106199523D02*
X99561904Y-106199523D01*
X99561904Y-105894761D01*
X99600000Y-105818571D01*
X99638095Y-105780476D01*
X99714285Y-105742380D01*
X99828571Y-105742380D01*
X99904761Y-105780476D01*
X99942857Y-105818571D01*
X99980952Y-105894761D01*
X99980952Y-106199523D01*
X99942857Y-105399523D02*
X99942857Y-105132857D01*
X100361904Y-105018571D02*
X100361904Y-105399523D01*
X99561904Y-105399523D01*
X99561904Y-105018571D01*
X100361904Y-104675714D02*
X99561904Y-104675714D01*
X99561904Y-104485238D01*
X99600000Y-104370952D01*
X99676190Y-104294761D01*
X99752380Y-104256666D01*
X99904761Y-104218571D01*
X100019047Y-104218571D01*
X100171428Y-104256666D01*
X100247619Y-104294761D01*
X100323809Y-104370952D01*
X100361904Y-104485238D01*
X100361904Y-104675714D01*
X100133333Y-103913809D02*
X100133333Y-103532857D01*
X100361904Y-103990000D02*
X99561904Y-103723333D01*
X100361904Y-103456666D01*
X100361904Y-102809047D02*
X100361904Y-103190000D01*
X99561904Y-103190000D01*
X100438095Y-102732857D02*
X100438095Y-102123333D01*
X100361904Y-101932857D02*
X99561904Y-101932857D01*
X100361904Y-101551904D02*
X99561904Y-101551904D01*
X100361904Y-101094761D01*
X99561904Y-101094761D01*
X97821904Y-105818571D02*
X97821904Y-106199523D01*
X97021904Y-106199523D01*
X97402857Y-105551904D02*
X97402857Y-105285238D01*
X97821904Y-105170952D02*
X97821904Y-105551904D01*
X97021904Y-105551904D01*
X97021904Y-105170952D01*
X97821904Y-104828095D02*
X97021904Y-104828095D01*
X97021904Y-104637619D01*
X97060000Y-104523333D01*
X97136190Y-104447142D01*
X97212380Y-104409047D01*
X97364761Y-104370952D01*
X97479047Y-104370952D01*
X97631428Y-104409047D01*
X97707619Y-104447142D01*
X97783809Y-104523333D01*
X97821904Y-104637619D01*
X97821904Y-104828095D01*
X97517142Y-104028095D02*
X97517142Y-103418571D01*
X97821904Y-103723333D02*
X97212380Y-103723333D01*
X95281904Y-106161428D02*
X95281904Y-106009047D01*
X95243809Y-105932857D01*
X95205714Y-105894761D01*
X95091428Y-105818571D01*
X94939047Y-105780476D01*
X94634285Y-105780476D01*
X94558095Y-105818571D01*
X94520000Y-105856666D01*
X94481904Y-105932857D01*
X94481904Y-106085238D01*
X94520000Y-106161428D01*
X94558095Y-106199523D01*
X94634285Y-106237619D01*
X94824761Y-106237619D01*
X94900952Y-106199523D01*
X94939047Y-106161428D01*
X94977142Y-106085238D01*
X94977142Y-105932857D01*
X94939047Y-105856666D01*
X94900952Y-105818571D01*
X94824761Y-105780476D01*
X94481904Y-105551904D02*
X95281904Y-105285238D01*
X94481904Y-105018571D01*
X91980000Y-105780476D02*
X91941904Y-105856666D01*
X91941904Y-105970952D01*
X91980000Y-106085238D01*
X92056190Y-106161428D01*
X92132380Y-106199523D01*
X92284761Y-106237619D01*
X92399047Y-106237619D01*
X92551428Y-106199523D01*
X92627619Y-106161428D01*
X92703809Y-106085238D01*
X92741904Y-105970952D01*
X92741904Y-105894761D01*
X92703809Y-105780476D01*
X92665714Y-105742380D01*
X92399047Y-105742380D01*
X92399047Y-105894761D01*
X92741904Y-105399523D02*
X91941904Y-105399523D01*
X92741904Y-104942380D01*
X91941904Y-104942380D01*
X92741904Y-104561428D02*
X91941904Y-104561428D01*
X91941904Y-104370952D01*
X91980000Y-104256666D01*
X92056190Y-104180476D01*
X92132380Y-104142380D01*
X92284761Y-104104285D01*
X92399047Y-104104285D01*
X92551428Y-104142380D01*
X92627619Y-104180476D01*
X92703809Y-104256666D01*
X92741904Y-104370952D01*
X92741904Y-104561428D01*
X105561904Y-75050571D02*
X105561904Y-75431523D01*
X104761904Y-75431523D01*
X105142857Y-74783904D02*
X105142857Y-74517238D01*
X105561904Y-74402952D02*
X105561904Y-74783904D01*
X104761904Y-74783904D01*
X104761904Y-74402952D01*
X105561904Y-74060095D02*
X104761904Y-74060095D01*
X104761904Y-73869619D01*
X104800000Y-73755333D01*
X104876190Y-73679142D01*
X104952380Y-73641047D01*
X105104761Y-73602952D01*
X105219047Y-73602952D01*
X105371428Y-73641047D01*
X105447619Y-73679142D01*
X105523809Y-73755333D01*
X105561904Y-73869619D01*
X105561904Y-74060095D01*
X105257142Y-73260095D02*
X105257142Y-72650571D01*
X105561904Y-72955333D02*
X104952380Y-72955333D01*
X113761904Y-78931523D02*
X112961904Y-78931523D01*
X112961904Y-78626761D01*
X113000000Y-78550571D01*
X113038095Y-78512476D01*
X113114285Y-78474380D01*
X113228571Y-78474380D01*
X113304761Y-78512476D01*
X113342857Y-78550571D01*
X113380952Y-78626761D01*
X113380952Y-78931523D01*
X113342857Y-78131523D02*
X113342857Y-77864857D01*
X113761904Y-77750571D02*
X113761904Y-78131523D01*
X112961904Y-78131523D01*
X112961904Y-77750571D01*
X113761904Y-77407714D02*
X112961904Y-77407714D01*
X112961904Y-77217238D01*
X113000000Y-77102952D01*
X113076190Y-77026761D01*
X113152380Y-76988666D01*
X113304761Y-76950571D01*
X113419047Y-76950571D01*
X113571428Y-76988666D01*
X113647619Y-77026761D01*
X113723809Y-77102952D01*
X113761904Y-77217238D01*
X113761904Y-77407714D01*
X113533333Y-76645809D02*
X113533333Y-76264857D01*
X113761904Y-76722000D02*
X112961904Y-76455333D01*
X113761904Y-76188666D01*
X113761904Y-75541047D02*
X113761904Y-75922000D01*
X112961904Y-75922000D01*
X113838095Y-75464857D02*
X113838095Y-74855333D01*
X112961904Y-74512476D02*
X112961904Y-74360095D01*
X113000000Y-74283904D01*
X113076190Y-74207714D01*
X113228571Y-74169619D01*
X113495238Y-74169619D01*
X113647619Y-74207714D01*
X113723809Y-74283904D01*
X113761904Y-74360095D01*
X113761904Y-74512476D01*
X113723809Y-74588666D01*
X113647619Y-74664857D01*
X113495238Y-74702952D01*
X113228571Y-74702952D01*
X113076190Y-74664857D01*
X113000000Y-74588666D01*
X112961904Y-74512476D01*
X112961904Y-73826761D02*
X113609523Y-73826761D01*
X113685714Y-73788666D01*
X113723809Y-73750571D01*
X113761904Y-73674380D01*
X113761904Y-73522000D01*
X113723809Y-73445809D01*
X113685714Y-73407714D01*
X113609523Y-73369619D01*
X112961904Y-73369619D01*
X112961904Y-73102952D02*
X112961904Y-72645809D01*
X113761904Y-72874380D02*
X112961904Y-72874380D01*
X86761904Y-77831523D02*
X85961904Y-77831523D01*
X85961904Y-77526761D01*
X86000000Y-77450571D01*
X86038095Y-77412476D01*
X86114285Y-77374380D01*
X86228571Y-77374380D01*
X86304761Y-77412476D01*
X86342857Y-77450571D01*
X86380952Y-77526761D01*
X86380952Y-77831523D01*
X86342857Y-77031523D02*
X86342857Y-76764857D01*
X86761904Y-76650571D02*
X86761904Y-77031523D01*
X85961904Y-77031523D01*
X85961904Y-76650571D01*
X86761904Y-76307714D02*
X85961904Y-76307714D01*
X85961904Y-76117238D01*
X86000000Y-76002952D01*
X86076190Y-75926761D01*
X86152380Y-75888666D01*
X86304761Y-75850571D01*
X86419047Y-75850571D01*
X86571428Y-75888666D01*
X86647619Y-75926761D01*
X86723809Y-76002952D01*
X86761904Y-76117238D01*
X86761904Y-76307714D01*
X86533333Y-75545809D02*
X86533333Y-75164857D01*
X86761904Y-75622000D02*
X85961904Y-75355333D01*
X86761904Y-75088666D01*
X86761904Y-74441047D02*
X86761904Y-74822000D01*
X85961904Y-74822000D01*
X86838095Y-74364857D02*
X86838095Y-73755333D01*
X86761904Y-73564857D02*
X85961904Y-73564857D01*
X86761904Y-73183904D02*
X85961904Y-73183904D01*
X86761904Y-72726761D01*
X85961904Y-72726761D01*
X103061904Y-75050571D02*
X103061904Y-75431523D01*
X102261904Y-75431523D01*
X102642857Y-74783904D02*
X102642857Y-74517238D01*
X103061904Y-74402952D02*
X103061904Y-74783904D01*
X102261904Y-74783904D01*
X102261904Y-74402952D01*
X103061904Y-74060095D02*
X102261904Y-74060095D01*
X102261904Y-73869619D01*
X102300000Y-73755333D01*
X102376190Y-73679142D01*
X102452380Y-73641047D01*
X102604761Y-73602952D01*
X102719047Y-73602952D01*
X102871428Y-73641047D01*
X102947619Y-73679142D01*
X103023809Y-73755333D01*
X103061904Y-73869619D01*
X103061904Y-74060095D01*
X102757142Y-73260095D02*
X102757142Y-72650571D01*
X110361904Y-77902952D02*
X110933333Y-77902952D01*
X111047619Y-77941047D01*
X111123809Y-78017238D01*
X111161904Y-78131523D01*
X111161904Y-78207714D01*
X110933333Y-77560095D02*
X110933333Y-77179142D01*
X111161904Y-77636285D02*
X110361904Y-77369619D01*
X111161904Y-77102952D01*
X111085714Y-76379142D02*
X111123809Y-76417238D01*
X111161904Y-76531523D01*
X111161904Y-76607714D01*
X111123809Y-76722000D01*
X111047619Y-76798190D01*
X110971428Y-76836285D01*
X110819047Y-76874380D01*
X110704761Y-76874380D01*
X110552380Y-76836285D01*
X110476190Y-76798190D01*
X110400000Y-76722000D01*
X110361904Y-76607714D01*
X110361904Y-76531523D01*
X110400000Y-76417238D01*
X110438095Y-76379142D01*
X111161904Y-76036285D02*
X110361904Y-76036285D01*
X111161904Y-75579142D02*
X110704761Y-75922000D01*
X110361904Y-75579142D02*
X110819047Y-76036285D01*
X111238095Y-75426761D02*
X111238095Y-74817238D01*
X110400000Y-74207714D02*
X110361904Y-74283904D01*
X110361904Y-74398190D01*
X110400000Y-74512476D01*
X110476190Y-74588666D01*
X110552380Y-74626761D01*
X110704761Y-74664857D01*
X110819047Y-74664857D01*
X110971428Y-74626761D01*
X111047619Y-74588666D01*
X111123809Y-74512476D01*
X111161904Y-74398190D01*
X111161904Y-74322000D01*
X111123809Y-74207714D01*
X111085714Y-74169619D01*
X110819047Y-74169619D01*
X110819047Y-74322000D01*
X111161904Y-73826761D02*
X110361904Y-73826761D01*
X111161904Y-73369619D01*
X110361904Y-73369619D01*
X111161904Y-72988666D02*
X110361904Y-72988666D01*
X110361904Y-72798190D01*
X110400000Y-72683904D01*
X110476190Y-72607714D01*
X110552380Y-72569619D01*
X110704761Y-72531523D01*
X110819047Y-72531523D01*
X110971428Y-72569619D01*
X111047619Y-72607714D01*
X111123809Y-72683904D01*
X111161904Y-72798190D01*
X111161904Y-72988666D01*
X88561904Y-78102952D02*
X89133333Y-78102952D01*
X89247619Y-78141047D01*
X89323809Y-78217238D01*
X89361904Y-78331523D01*
X89361904Y-78407714D01*
X89133333Y-77760095D02*
X89133333Y-77379142D01*
X89361904Y-77836285D02*
X88561904Y-77569619D01*
X89361904Y-77302952D01*
X89285714Y-76579142D02*
X89323809Y-76617238D01*
X89361904Y-76731523D01*
X89361904Y-76807714D01*
X89323809Y-76922000D01*
X89247619Y-76998190D01*
X89171428Y-77036285D01*
X89019047Y-77074380D01*
X88904761Y-77074380D01*
X88752380Y-77036285D01*
X88676190Y-76998190D01*
X88600000Y-76922000D01*
X88561904Y-76807714D01*
X88561904Y-76731523D01*
X88600000Y-76617238D01*
X88638095Y-76579142D01*
X89361904Y-76236285D02*
X88561904Y-76236285D01*
X89361904Y-75779142D02*
X88904761Y-76122000D01*
X88561904Y-75779142D02*
X89019047Y-76236285D01*
X89438095Y-75626761D02*
X89438095Y-75017238D01*
X88600000Y-74407714D02*
X88561904Y-74483904D01*
X88561904Y-74598190D01*
X88600000Y-74712476D01*
X88676190Y-74788666D01*
X88752380Y-74826761D01*
X88904761Y-74864857D01*
X89019047Y-74864857D01*
X89171428Y-74826761D01*
X89247619Y-74788666D01*
X89323809Y-74712476D01*
X89361904Y-74598190D01*
X89361904Y-74522000D01*
X89323809Y-74407714D01*
X89285714Y-74369619D01*
X89019047Y-74369619D01*
X89019047Y-74522000D01*
X89361904Y-74026761D02*
X88561904Y-74026761D01*
X89361904Y-73569619D01*
X88561904Y-73569619D01*
X89361904Y-73188666D02*
X88561904Y-73188666D01*
X88561904Y-72998190D01*
X88600000Y-72883904D01*
X88676190Y-72807714D01*
X88752380Y-72769619D01*
X88904761Y-72731523D01*
X89019047Y-72731523D01*
X89171428Y-72769619D01*
X89247619Y-72807714D01*
X89323809Y-72883904D01*
X89361904Y-72998190D01*
X89361904Y-73188666D01*
D14*
X87007142Y-82269047D02*
X87054761Y-82316666D01*
X87102380Y-82459523D01*
X87102380Y-82554761D01*
X87054761Y-82697619D01*
X86959523Y-82792857D01*
X86864285Y-82840476D01*
X86673809Y-82888095D01*
X86530952Y-82888095D01*
X86340476Y-82840476D01*
X86245238Y-82792857D01*
X86150000Y-82697619D01*
X86102380Y-82554761D01*
X86102380Y-82459523D01*
X86150000Y-82316666D01*
X86197619Y-82269047D01*
X86435714Y-81840476D02*
X87435714Y-81840476D01*
X86483333Y-81840476D02*
X86435714Y-81745238D01*
X86435714Y-81554761D01*
X86483333Y-81459523D01*
X86530952Y-81411904D01*
X86626190Y-81364285D01*
X86911904Y-81364285D01*
X87007142Y-81411904D01*
X87054761Y-81459523D01*
X87102380Y-81554761D01*
X87102380Y-81745238D01*
X87054761Y-81840476D01*
X87102380Y-80411904D02*
X87102380Y-80983333D01*
X87102380Y-80697619D02*
X86102380Y-80697619D01*
X86245238Y-80792857D01*
X86340476Y-80888095D01*
X86388095Y-80983333D01*
X106607142Y-86116666D02*
X106654761Y-86164285D01*
X106702380Y-86307142D01*
X106702380Y-86402380D01*
X106654761Y-86545238D01*
X106559523Y-86640476D01*
X106464285Y-86688095D01*
X106273809Y-86735714D01*
X106130952Y-86735714D01*
X105940476Y-86688095D01*
X105845238Y-86640476D01*
X105750000Y-86545238D01*
X105702380Y-86402380D01*
X105702380Y-86307142D01*
X105750000Y-86164285D01*
X105797619Y-86116666D01*
X105702380Y-85783333D02*
X105702380Y-85164285D01*
X106083333Y-85497619D01*
X106083333Y-85354761D01*
X106130952Y-85259523D01*
X106178571Y-85211904D01*
X106273809Y-85164285D01*
X106511904Y-85164285D01*
X106607142Y-85211904D01*
X106654761Y-85259523D01*
X106702380Y-85354761D01*
X106702380Y-85640476D01*
X106654761Y-85735714D01*
X106607142Y-85783333D01*
X105107142Y-96666666D02*
X105154761Y-96714285D01*
X105202380Y-96857142D01*
X105202380Y-96952380D01*
X105154761Y-97095238D01*
X105059523Y-97190476D01*
X104964285Y-97238095D01*
X104773809Y-97285714D01*
X104630952Y-97285714D01*
X104440476Y-97238095D01*
X104345238Y-97190476D01*
X104250000Y-97095238D01*
X104202380Y-96952380D01*
X104202380Y-96857142D01*
X104250000Y-96714285D01*
X104297619Y-96666666D01*
X104297619Y-96285714D02*
X104250000Y-96238095D01*
X104202380Y-96142857D01*
X104202380Y-95904761D01*
X104250000Y-95809523D01*
X104297619Y-95761904D01*
X104392857Y-95714285D01*
X104488095Y-95714285D01*
X104630952Y-95761904D01*
X105202380Y-96333333D01*
X105202380Y-95714285D01*
X99933333Y-95707142D02*
X99885714Y-95754761D01*
X99742857Y-95802380D01*
X99647619Y-95802380D01*
X99504761Y-95754761D01*
X99409523Y-95659523D01*
X99361904Y-95564285D01*
X99314285Y-95373809D01*
X99314285Y-95230952D01*
X99361904Y-95040476D01*
X99409523Y-94945238D01*
X99504761Y-94850000D01*
X99647619Y-94802380D01*
X99742857Y-94802380D01*
X99885714Y-94850000D01*
X99933333Y-94897619D01*
X100885714Y-95802380D02*
X100314285Y-95802380D01*
X100600000Y-95802380D02*
X100600000Y-94802380D01*
X100504761Y-94945238D01*
X100409523Y-95040476D01*
X100314285Y-95088095D01*
X98222000Y-62589428D02*
X97714000Y-61863714D01*
X97351142Y-62589428D02*
X97351142Y-61065428D01*
X97931714Y-61065428D01*
X98076857Y-61138000D01*
X98149428Y-61210571D01*
X98222000Y-61355714D01*
X98222000Y-61573428D01*
X98149428Y-61718571D01*
X98076857Y-61791142D01*
X97931714Y-61863714D01*
X97351142Y-61863714D01*
X99455714Y-62516857D02*
X99310571Y-62589428D01*
X99020285Y-62589428D01*
X98875142Y-62516857D01*
X98802571Y-62371714D01*
X98802571Y-61791142D01*
X98875142Y-61646000D01*
X99020285Y-61573428D01*
X99310571Y-61573428D01*
X99455714Y-61646000D01*
X99528285Y-61791142D01*
X99528285Y-61936285D01*
X98802571Y-62081428D01*
X99963714Y-61573428D02*
X100544285Y-61573428D01*
X100181428Y-62589428D02*
X100181428Y-61283142D01*
X100254000Y-61138000D01*
X100399142Y-61065428D01*
X100544285Y-61065428D01*
X101270000Y-61065428D02*
X101270000Y-61428285D01*
X100907142Y-61283142D02*
X101270000Y-61428285D01*
X101632857Y-61283142D01*
X101052285Y-61718571D02*
X101270000Y-61428285D01*
X101487714Y-61718571D01*
X102431142Y-61065428D02*
X102431142Y-61428285D01*
X102068285Y-61283142D02*
X102431142Y-61428285D01*
X102794000Y-61283142D01*
X102213428Y-61718571D02*
X102431142Y-61428285D01*
X102648857Y-61718571D01*
X97242285Y-61065428D02*
X97750285Y-62589428D01*
X98258285Y-61065428D01*
X99419428Y-62589428D02*
X99419428Y-61791142D01*
X99346857Y-61646000D01*
X99201714Y-61573428D01*
X98911428Y-61573428D01*
X98766285Y-61646000D01*
X99419428Y-62516857D02*
X99274285Y-62589428D01*
X98911428Y-62589428D01*
X98766285Y-62516857D01*
X98693714Y-62371714D01*
X98693714Y-62226571D01*
X98766285Y-62081428D01*
X98911428Y-62008857D01*
X99274285Y-62008857D01*
X99419428Y-61936285D01*
X100362857Y-62589428D02*
X100217714Y-62516857D01*
X100145142Y-62371714D01*
X100145142Y-61065428D01*
X101161142Y-61065428D02*
X101161142Y-61428285D01*
X100798285Y-61283142D02*
X101161142Y-61428285D01*
X101524000Y-61283142D01*
X100943428Y-61718571D02*
X101161142Y-61428285D01*
X101378857Y-61718571D01*
X102322285Y-61065428D02*
X102322285Y-61428285D01*
X101959428Y-61283142D02*
X102322285Y-61428285D01*
X102685142Y-61283142D01*
X102104571Y-61718571D02*
X102322285Y-61428285D01*
X102540000Y-61718571D01*
X113866666Y-16952380D02*
X113533333Y-16476190D01*
X113295238Y-16952380D02*
X113295238Y-15952380D01*
X113676190Y-15952380D01*
X113771428Y-16000000D01*
X113819047Y-16047619D01*
X113866666Y-16142857D01*
X113866666Y-16285714D01*
X113819047Y-16380952D01*
X113771428Y-16428571D01*
X113676190Y-16476190D01*
X113295238Y-16476190D01*
X114295238Y-16428571D02*
X114628571Y-16428571D01*
X114771428Y-16952380D02*
X114295238Y-16952380D01*
X114295238Y-15952380D01*
X114771428Y-15952380D01*
X115533333Y-16428571D02*
X115200000Y-16428571D01*
X115200000Y-16952380D02*
X115200000Y-15952380D01*
X115676190Y-15952380D01*
X116200000Y-15952380D02*
X116200000Y-16190476D01*
X115961904Y-16095238D02*
X116200000Y-16190476D01*
X116438095Y-16095238D01*
X116057142Y-16380952D02*
X116200000Y-16190476D01*
X116342857Y-16380952D01*
X116961904Y-15952380D02*
X116961904Y-16190476D01*
X116723809Y-16095238D02*
X116961904Y-16190476D01*
X117200000Y-16095238D01*
X116819047Y-16380952D02*
X116961904Y-16190476D01*
X117104761Y-16380952D01*
X85752380Y-17333333D02*
X85276190Y-17666666D01*
X85752380Y-17904761D02*
X84752380Y-17904761D01*
X84752380Y-17523809D01*
X84800000Y-17428571D01*
X84847619Y-17380952D01*
X84942857Y-17333333D01*
X85085714Y-17333333D01*
X85180952Y-17380952D01*
X85228571Y-17428571D01*
X85276190Y-17523809D01*
X85276190Y-17904761D01*
X85228571Y-16904761D02*
X85228571Y-16571428D01*
X85752380Y-16428571D02*
X85752380Y-16904761D01*
X84752380Y-16904761D01*
X84752380Y-16428571D01*
X85228571Y-15666666D02*
X85228571Y-16000000D01*
X85752380Y-16000000D02*
X84752380Y-16000000D01*
X84752380Y-15523809D01*
X84752380Y-15000000D02*
X84990476Y-15000000D01*
X84895238Y-15238095D02*
X84990476Y-15000000D01*
X84895238Y-14761904D01*
X85180952Y-15142857D02*
X84990476Y-15000000D01*
X85180952Y-14857142D01*
X84752380Y-14238095D02*
X84990476Y-14238095D01*
X84895238Y-14476190D02*
X84990476Y-14238095D01*
X84895238Y-14000000D01*
X85180952Y-14380952D02*
X84990476Y-14238095D01*
X85180952Y-14095238D01*
X114752380Y-44433333D02*
X114276190Y-44766666D01*
X114752380Y-45004761D02*
X113752380Y-45004761D01*
X113752380Y-44623809D01*
X113800000Y-44528571D01*
X113847619Y-44480952D01*
X113942857Y-44433333D01*
X114085714Y-44433333D01*
X114180952Y-44480952D01*
X114228571Y-44528571D01*
X114276190Y-44623809D01*
X114276190Y-45004761D01*
X114228571Y-44004761D02*
X114228571Y-43671428D01*
X114752380Y-43528571D02*
X114752380Y-44004761D01*
X113752380Y-44004761D01*
X113752380Y-43528571D01*
X114228571Y-42766666D02*
X114228571Y-43100000D01*
X114752380Y-43100000D02*
X113752380Y-43100000D01*
X113752380Y-42623809D01*
X113752380Y-42100000D02*
X113990476Y-42100000D01*
X113895238Y-42338095D02*
X113990476Y-42100000D01*
X113895238Y-41861904D01*
X114180952Y-42242857D02*
X113990476Y-42100000D01*
X114180952Y-41957142D01*
X113752380Y-41338095D02*
X113990476Y-41338095D01*
X113895238Y-41576190D02*
X113990476Y-41338095D01*
X113895238Y-41100000D01*
X114180952Y-41480952D02*
X113990476Y-41338095D01*
X114180952Y-41195238D01*
X84752380Y-44433333D02*
X84276190Y-44766666D01*
X84752380Y-45004761D02*
X83752380Y-45004761D01*
X83752380Y-44623809D01*
X83800000Y-44528571D01*
X83847619Y-44480952D01*
X83942857Y-44433333D01*
X84085714Y-44433333D01*
X84180952Y-44480952D01*
X84228571Y-44528571D01*
X84276190Y-44623809D01*
X84276190Y-45004761D01*
X84228571Y-44004761D02*
X84228571Y-43671428D01*
X84752380Y-43528571D02*
X84752380Y-44004761D01*
X83752380Y-44004761D01*
X83752380Y-43528571D01*
X84228571Y-42766666D02*
X84228571Y-43100000D01*
X84752380Y-43100000D02*
X83752380Y-43100000D01*
X83752380Y-42623809D01*
X83752380Y-42100000D02*
X83990476Y-42100000D01*
X83895238Y-42338095D02*
X83990476Y-42100000D01*
X83895238Y-41861904D01*
X84180952Y-42242857D02*
X83990476Y-42100000D01*
X84180952Y-41957142D01*
X83752380Y-41338095D02*
X83990476Y-41338095D01*
X83895238Y-41576190D02*
X83990476Y-41338095D01*
X83895238Y-41100000D01*
X84180952Y-41480952D02*
X83990476Y-41338095D01*
X84180952Y-41195238D01*
M02*
