G04 #@! TF.GenerationSoftware,KiCad,Pcbnew,(5.1.5-0-10_14)*
G04 #@! TF.CreationDate,2021-09-14T17:31:05+02:00*
G04 #@! TF.ProjectId,npnium,6e706e69-756d-42e6-9b69-6361645f7063,rev?*
G04 #@! TF.SameCoordinates,Original*
G04 #@! TF.FileFunction,Soldermask,Top*
G04 #@! TF.FilePolarity,Negative*
%FSLAX46Y46*%
G04 Gerber Fmt 4.6, Leading zero omitted, Abs format (unit mm)*
G04 Created by KiCad (PCBNEW (5.1.5-0-10_14)) date 2021-09-14 17:31:05*
%MOMM*%
%LPD*%
G04 APERTURE LIST*
%ADD10C,0.180000*%
%ADD11C,0.150000*%
%ADD12C,0.100000*%
G04 APERTURE END LIST*
D10*
X119221428Y-68559857D02*
X119221428Y-69417000D01*
X117721428Y-68988428D02*
X119221428Y-68988428D01*
X117721428Y-69917000D02*
X118721428Y-69917000D01*
X118435714Y-69917000D02*
X118578571Y-69988428D01*
X118650000Y-70059857D01*
X118721428Y-70202714D01*
X118721428Y-70345571D01*
X117792857Y-71417000D02*
X117721428Y-71274142D01*
X117721428Y-70988428D01*
X117792857Y-70845571D01*
X117935714Y-70774142D01*
X118507142Y-70774142D01*
X118650000Y-70845571D01*
X118721428Y-70988428D01*
X118721428Y-71274142D01*
X118650000Y-71417000D01*
X118507142Y-71488428D01*
X118364285Y-71488428D01*
X118221428Y-70774142D01*
X117721428Y-72131285D02*
X119221428Y-72131285D01*
X118650000Y-72131285D02*
X118721428Y-72274142D01*
X118721428Y-72559857D01*
X118650000Y-72702714D01*
X118578571Y-72774142D01*
X118435714Y-72845571D01*
X118007142Y-72845571D01*
X117864285Y-72774142D01*
X117792857Y-72702714D01*
X117721428Y-72559857D01*
X117721428Y-72274142D01*
X117792857Y-72131285D01*
X117721428Y-73488428D02*
X119221428Y-73488428D01*
X118650000Y-73488428D02*
X118721428Y-73631285D01*
X118721428Y-73917000D01*
X118650000Y-74059857D01*
X118578571Y-74131285D01*
X118435714Y-74202714D01*
X118007142Y-74202714D01*
X117864285Y-74131285D01*
X117792857Y-74059857D01*
X117721428Y-73917000D01*
X117721428Y-73631285D01*
X117792857Y-73488428D01*
X117721428Y-74845571D02*
X119221428Y-74845571D01*
X118650000Y-74845571D02*
X118721428Y-74988428D01*
X118721428Y-75274142D01*
X118650000Y-75417000D01*
X118578571Y-75488428D01*
X118435714Y-75559857D01*
X118007142Y-75559857D01*
X117864285Y-75488428D01*
X117792857Y-75417000D01*
X117721428Y-75274142D01*
X117721428Y-74988428D01*
X117792857Y-74845571D01*
X117721428Y-76417000D02*
X117792857Y-76274142D01*
X117935714Y-76202714D01*
X119221428Y-76202714D01*
X117792857Y-77559857D02*
X117721428Y-77417000D01*
X117721428Y-77131285D01*
X117792857Y-76988428D01*
X117935714Y-76917000D01*
X118507142Y-76917000D01*
X118650000Y-76988428D01*
X118721428Y-77131285D01*
X118721428Y-77417000D01*
X118650000Y-77559857D01*
X118507142Y-77631285D01*
X118364285Y-77631285D01*
X118221428Y-76917000D01*
D11*
X116814285Y-68640357D02*
X116147619Y-68878452D01*
X116814285Y-69116547D01*
X116147619Y-70021309D02*
X116147619Y-69449880D01*
X116147619Y-69735595D02*
X117147619Y-69735595D01*
X117004761Y-69640357D01*
X116909523Y-69545119D01*
X116861904Y-69449880D01*
D12*
G36*
X92546822Y-106961313D02*
G01*
X92707241Y-107009976D01*
X92855077Y-107088995D01*
X92984659Y-107195341D01*
X93091004Y-107324922D01*
X93091005Y-107324924D01*
X93170024Y-107472758D01*
X93218687Y-107633177D01*
X93231000Y-107758196D01*
X93231000Y-109241804D01*
X93218687Y-109366823D01*
X93170024Y-109527242D01*
X93099114Y-109659906D01*
X93091004Y-109675078D01*
X92984659Y-109804659D01*
X92855078Y-109911004D01*
X92855076Y-109911005D01*
X92707242Y-109990024D01*
X92546823Y-110038687D01*
X92380000Y-110055117D01*
X92213178Y-110038687D01*
X92052759Y-109990024D01*
X91904925Y-109911005D01*
X91904923Y-109911004D01*
X91775342Y-109804659D01*
X91668997Y-109675078D01*
X91660887Y-109659906D01*
X91589977Y-109527242D01*
X91541314Y-109366823D01*
X91529001Y-109241804D01*
X91529000Y-107758197D01*
X91541313Y-107633178D01*
X91589976Y-107472759D01*
X91668995Y-107324923D01*
X91775341Y-107195341D01*
X91904922Y-107088996D01*
X91920094Y-107080886D01*
X92052758Y-107009976D01*
X92213177Y-106961313D01*
X92380000Y-106944883D01*
X92546822Y-106961313D01*
G37*
G36*
X95086822Y-106961313D02*
G01*
X95247241Y-107009976D01*
X95395077Y-107088995D01*
X95524659Y-107195341D01*
X95631004Y-107324922D01*
X95631005Y-107324924D01*
X95710024Y-107472758D01*
X95758687Y-107633177D01*
X95771000Y-107758196D01*
X95771000Y-109241804D01*
X95758687Y-109366823D01*
X95710024Y-109527242D01*
X95639114Y-109659906D01*
X95631004Y-109675078D01*
X95524659Y-109804659D01*
X95395078Y-109911004D01*
X95395076Y-109911005D01*
X95247242Y-109990024D01*
X95086823Y-110038687D01*
X94920000Y-110055117D01*
X94753178Y-110038687D01*
X94592759Y-109990024D01*
X94444925Y-109911005D01*
X94444923Y-109911004D01*
X94315342Y-109804659D01*
X94208997Y-109675078D01*
X94200887Y-109659906D01*
X94129977Y-109527242D01*
X94081314Y-109366823D01*
X94069001Y-109241804D01*
X94069000Y-107758197D01*
X94081313Y-107633178D01*
X94129976Y-107472759D01*
X94208995Y-107324923D01*
X94315341Y-107195341D01*
X94444922Y-107088996D01*
X94460094Y-107080886D01*
X94592758Y-107009976D01*
X94753177Y-106961313D01*
X94920000Y-106944883D01*
X95086822Y-106961313D01*
G37*
G36*
X97626822Y-106961313D02*
G01*
X97787241Y-107009976D01*
X97935077Y-107088995D01*
X98064659Y-107195341D01*
X98171004Y-107324922D01*
X98171005Y-107324924D01*
X98250024Y-107472758D01*
X98298687Y-107633177D01*
X98311000Y-107758196D01*
X98311000Y-109241804D01*
X98298687Y-109366823D01*
X98250024Y-109527242D01*
X98179114Y-109659906D01*
X98171004Y-109675078D01*
X98064659Y-109804659D01*
X97935078Y-109911004D01*
X97935076Y-109911005D01*
X97787242Y-109990024D01*
X97626823Y-110038687D01*
X97460000Y-110055117D01*
X97293178Y-110038687D01*
X97132759Y-109990024D01*
X96984925Y-109911005D01*
X96984923Y-109911004D01*
X96855342Y-109804659D01*
X96748997Y-109675078D01*
X96740887Y-109659906D01*
X96669977Y-109527242D01*
X96621314Y-109366823D01*
X96609001Y-109241804D01*
X96609000Y-107758197D01*
X96621313Y-107633178D01*
X96669976Y-107472759D01*
X96748995Y-107324923D01*
X96855341Y-107195341D01*
X96984922Y-107088996D01*
X97000094Y-107080886D01*
X97132758Y-107009976D01*
X97293177Y-106961313D01*
X97460000Y-106944883D01*
X97626822Y-106961313D01*
G37*
G36*
X100166822Y-106961313D02*
G01*
X100327241Y-107009976D01*
X100475077Y-107088995D01*
X100604659Y-107195341D01*
X100711004Y-107324922D01*
X100711005Y-107324924D01*
X100790024Y-107472758D01*
X100838687Y-107633177D01*
X100851000Y-107758196D01*
X100851000Y-109241804D01*
X100838687Y-109366823D01*
X100790024Y-109527242D01*
X100719114Y-109659906D01*
X100711004Y-109675078D01*
X100604659Y-109804659D01*
X100475078Y-109911004D01*
X100475076Y-109911005D01*
X100327242Y-109990024D01*
X100166823Y-110038687D01*
X100000000Y-110055117D01*
X99833178Y-110038687D01*
X99672759Y-109990024D01*
X99524925Y-109911005D01*
X99524923Y-109911004D01*
X99395342Y-109804659D01*
X99288997Y-109675078D01*
X99280887Y-109659906D01*
X99209977Y-109527242D01*
X99161314Y-109366823D01*
X99149001Y-109241804D01*
X99149000Y-107758197D01*
X99161313Y-107633178D01*
X99209976Y-107472759D01*
X99288995Y-107324923D01*
X99395341Y-107195341D01*
X99524922Y-107088996D01*
X99540094Y-107080886D01*
X99672758Y-107009976D01*
X99833177Y-106961313D01*
X100000000Y-106944883D01*
X100166822Y-106961313D01*
G37*
G36*
X102706822Y-106961313D02*
G01*
X102867241Y-107009976D01*
X103015077Y-107088995D01*
X103144659Y-107195341D01*
X103251004Y-107324922D01*
X103251005Y-107324924D01*
X103330024Y-107472758D01*
X103378687Y-107633177D01*
X103391000Y-107758196D01*
X103391000Y-109241804D01*
X103378687Y-109366823D01*
X103330024Y-109527242D01*
X103259114Y-109659906D01*
X103251004Y-109675078D01*
X103144659Y-109804659D01*
X103015078Y-109911004D01*
X103015076Y-109911005D01*
X102867242Y-109990024D01*
X102706823Y-110038687D01*
X102540000Y-110055117D01*
X102373178Y-110038687D01*
X102212759Y-109990024D01*
X102064925Y-109911005D01*
X102064923Y-109911004D01*
X101935342Y-109804659D01*
X101828997Y-109675078D01*
X101820887Y-109659906D01*
X101749977Y-109527242D01*
X101701314Y-109366823D01*
X101689001Y-109241804D01*
X101689000Y-107758197D01*
X101701313Y-107633178D01*
X101749976Y-107472759D01*
X101828995Y-107324923D01*
X101935341Y-107195341D01*
X102064922Y-107088996D01*
X102080094Y-107080886D01*
X102212758Y-107009976D01*
X102373177Y-106961313D01*
X102540000Y-106944883D01*
X102706822Y-106961313D01*
G37*
G36*
X105246822Y-106961313D02*
G01*
X105407241Y-107009976D01*
X105555077Y-107088995D01*
X105684659Y-107195341D01*
X105791004Y-107324922D01*
X105791005Y-107324924D01*
X105870024Y-107472758D01*
X105918687Y-107633177D01*
X105931000Y-107758196D01*
X105931000Y-109241804D01*
X105918687Y-109366823D01*
X105870024Y-109527242D01*
X105799114Y-109659906D01*
X105791004Y-109675078D01*
X105684659Y-109804659D01*
X105555078Y-109911004D01*
X105555076Y-109911005D01*
X105407242Y-109990024D01*
X105246823Y-110038687D01*
X105080000Y-110055117D01*
X104913178Y-110038687D01*
X104752759Y-109990024D01*
X104604925Y-109911005D01*
X104604923Y-109911004D01*
X104475342Y-109804659D01*
X104368997Y-109675078D01*
X104360887Y-109659906D01*
X104289977Y-109527242D01*
X104241314Y-109366823D01*
X104229001Y-109241804D01*
X104229000Y-107758197D01*
X104241313Y-107633178D01*
X104289976Y-107472759D01*
X104368995Y-107324923D01*
X104475341Y-107195341D01*
X104604922Y-107088996D01*
X104620094Y-107080886D01*
X104752758Y-107009976D01*
X104913177Y-106961313D01*
X105080000Y-106944883D01*
X105246822Y-106961313D01*
G37*
G36*
X107786822Y-106961313D02*
G01*
X107947241Y-107009976D01*
X108095077Y-107088995D01*
X108224659Y-107195341D01*
X108331004Y-107324922D01*
X108331005Y-107324924D01*
X108410024Y-107472758D01*
X108458687Y-107633177D01*
X108471000Y-107758196D01*
X108471000Y-109241804D01*
X108458687Y-109366823D01*
X108410024Y-109527242D01*
X108339114Y-109659906D01*
X108331004Y-109675078D01*
X108224659Y-109804659D01*
X108095078Y-109911004D01*
X108095076Y-109911005D01*
X107947242Y-109990024D01*
X107786823Y-110038687D01*
X107620000Y-110055117D01*
X107453178Y-110038687D01*
X107292759Y-109990024D01*
X107144925Y-109911005D01*
X107144923Y-109911004D01*
X107015342Y-109804659D01*
X106908997Y-109675078D01*
X106900887Y-109659906D01*
X106829977Y-109527242D01*
X106781314Y-109366823D01*
X106769001Y-109241804D01*
X106769000Y-107758197D01*
X106781313Y-107633178D01*
X106829976Y-107472759D01*
X106908995Y-107324923D01*
X107015341Y-107195341D01*
X107144922Y-107088996D01*
X107160094Y-107080886D01*
X107292758Y-107009976D01*
X107453177Y-106961313D01*
X107620000Y-106944883D01*
X107786822Y-106961313D01*
G37*
G36*
X90796415Y-101562851D02*
G01*
X90981350Y-101639454D01*
X90981351Y-101639455D01*
X91147790Y-101750666D01*
X91289334Y-101892210D01*
X91289335Y-101892212D01*
X91400546Y-102058650D01*
X91477149Y-102243585D01*
X91516200Y-102439912D01*
X91516200Y-102640088D01*
X91477149Y-102836415D01*
X91400546Y-103021350D01*
X91400545Y-103021351D01*
X91289334Y-103187790D01*
X91147790Y-103329334D01*
X91064004Y-103385318D01*
X90981350Y-103440546D01*
X90796415Y-103517149D01*
X90600088Y-103556200D01*
X90399912Y-103556200D01*
X90203585Y-103517149D01*
X90018650Y-103440546D01*
X89935996Y-103385318D01*
X89852210Y-103329334D01*
X89710666Y-103187790D01*
X89599455Y-103021351D01*
X89599454Y-103021350D01*
X89522851Y-102836415D01*
X89483800Y-102640088D01*
X89483800Y-102439912D01*
X89522851Y-102243585D01*
X89599454Y-102058650D01*
X89710665Y-101892212D01*
X89710666Y-101892210D01*
X89852210Y-101750666D01*
X90018649Y-101639455D01*
X90018650Y-101639454D01*
X90203585Y-101562851D01*
X90399912Y-101523800D01*
X90600088Y-101523800D01*
X90796415Y-101562851D01*
G37*
G36*
X90796415Y-99022851D02*
G01*
X90981350Y-99099454D01*
X90981351Y-99099455D01*
X91147790Y-99210666D01*
X91289334Y-99352210D01*
X91332558Y-99416900D01*
X91400546Y-99518650D01*
X91477149Y-99703585D01*
X91516200Y-99899912D01*
X91516200Y-100100088D01*
X91477149Y-100296415D01*
X91400546Y-100481350D01*
X91400545Y-100481351D01*
X91289334Y-100647790D01*
X91147790Y-100789334D01*
X91064004Y-100845318D01*
X90981350Y-100900546D01*
X90796415Y-100977149D01*
X90600088Y-101016200D01*
X90399912Y-101016200D01*
X90203585Y-100977149D01*
X90018650Y-100900546D01*
X89935996Y-100845318D01*
X89852210Y-100789334D01*
X89710666Y-100647790D01*
X89599455Y-100481351D01*
X89599454Y-100481350D01*
X89522851Y-100296415D01*
X89483800Y-100100088D01*
X89483800Y-99899912D01*
X89522851Y-99703585D01*
X89599454Y-99518650D01*
X89667442Y-99416900D01*
X89710666Y-99352210D01*
X89852210Y-99210666D01*
X90018649Y-99099455D01*
X90018650Y-99099454D01*
X90203585Y-99022851D01*
X90399912Y-98983800D01*
X90600088Y-98983800D01*
X90796415Y-99022851D01*
G37*
G36*
X111548228Y-99001703D02*
G01*
X111703100Y-99065853D01*
X111842481Y-99158985D01*
X111961015Y-99277519D01*
X112054147Y-99416900D01*
X112118297Y-99571772D01*
X112151000Y-99736184D01*
X112151000Y-99903816D01*
X112118297Y-100068228D01*
X112054147Y-100223100D01*
X111961015Y-100362481D01*
X111842481Y-100481015D01*
X111703100Y-100574147D01*
X111548228Y-100638297D01*
X111383816Y-100671000D01*
X111216184Y-100671000D01*
X111051772Y-100638297D01*
X110896900Y-100574147D01*
X110757519Y-100481015D01*
X110638985Y-100362481D01*
X110545853Y-100223100D01*
X110481703Y-100068228D01*
X110449000Y-99903816D01*
X110449000Y-99736184D01*
X110481703Y-99571772D01*
X110545853Y-99416900D01*
X110638985Y-99277519D01*
X110757519Y-99158985D01*
X110896900Y-99065853D01*
X111051772Y-99001703D01*
X111216184Y-98969000D01*
X111383816Y-98969000D01*
X111548228Y-99001703D01*
G37*
G36*
X107848228Y-98181703D02*
G01*
X108003100Y-98245853D01*
X108142481Y-98338985D01*
X108261015Y-98457519D01*
X108354147Y-98596900D01*
X108418297Y-98751772D01*
X108451000Y-98916184D01*
X108451000Y-99083816D01*
X108418297Y-99248228D01*
X108354147Y-99403100D01*
X108261015Y-99542481D01*
X108142481Y-99661015D01*
X108003100Y-99754147D01*
X107848228Y-99818297D01*
X107683816Y-99851000D01*
X107516184Y-99851000D01*
X107351772Y-99818297D01*
X107196900Y-99754147D01*
X107057519Y-99661015D01*
X106938985Y-99542481D01*
X106845853Y-99403100D01*
X106781703Y-99248228D01*
X106749000Y-99083816D01*
X106749000Y-98916184D01*
X106781703Y-98751772D01*
X106845853Y-98596900D01*
X106938985Y-98457519D01*
X107057519Y-98338985D01*
X107196900Y-98245853D01*
X107351772Y-98181703D01*
X107516184Y-98149000D01*
X107683816Y-98149000D01*
X107848228Y-98181703D01*
G37*
G36*
X97848228Y-97381703D02*
G01*
X98003100Y-97445853D01*
X98142481Y-97538985D01*
X98261015Y-97657519D01*
X98354147Y-97796900D01*
X98418297Y-97951772D01*
X98451000Y-98116184D01*
X98451000Y-98283816D01*
X98418297Y-98448228D01*
X98354147Y-98603100D01*
X98261015Y-98742481D01*
X98142481Y-98861015D01*
X98003100Y-98954147D01*
X97848228Y-99018297D01*
X97683816Y-99051000D01*
X97516184Y-99051000D01*
X97351772Y-99018297D01*
X97196900Y-98954147D01*
X97057519Y-98861015D01*
X96938985Y-98742481D01*
X96845853Y-98603100D01*
X96781703Y-98448228D01*
X96749000Y-98283816D01*
X96749000Y-98116184D01*
X96781703Y-97951772D01*
X96845853Y-97796900D01*
X96938985Y-97657519D01*
X97057519Y-97538985D01*
X97196900Y-97445853D01*
X97351772Y-97381703D01*
X97516184Y-97349000D01*
X97683816Y-97349000D01*
X97848228Y-97381703D01*
G37*
G36*
X102848228Y-97381703D02*
G01*
X103003100Y-97445853D01*
X103142481Y-97538985D01*
X103261015Y-97657519D01*
X103354147Y-97796900D01*
X103418297Y-97951772D01*
X103451000Y-98116184D01*
X103451000Y-98283816D01*
X103418297Y-98448228D01*
X103354147Y-98603100D01*
X103261015Y-98742481D01*
X103142481Y-98861015D01*
X103003100Y-98954147D01*
X102848228Y-99018297D01*
X102683816Y-99051000D01*
X102516184Y-99051000D01*
X102351772Y-99018297D01*
X102196900Y-98954147D01*
X102057519Y-98861015D01*
X101938985Y-98742481D01*
X101845853Y-98603100D01*
X101781703Y-98448228D01*
X101749000Y-98283816D01*
X101749000Y-98116184D01*
X101781703Y-97951772D01*
X101845853Y-97796900D01*
X101938985Y-97657519D01*
X102057519Y-97538985D01*
X102196900Y-97445853D01*
X102351772Y-97381703D01*
X102516184Y-97349000D01*
X102683816Y-97349000D01*
X102848228Y-97381703D01*
G37*
G36*
X91516200Y-98476200D02*
G01*
X89483800Y-98476200D01*
X89483800Y-96443800D01*
X91516200Y-96443800D01*
X91516200Y-98476200D01*
G37*
G36*
X90648228Y-93301703D02*
G01*
X90803100Y-93365853D01*
X90942481Y-93458985D01*
X91061015Y-93577519D01*
X91154147Y-93716900D01*
X91218297Y-93871772D01*
X91251000Y-94036184D01*
X91251000Y-94203816D01*
X91218297Y-94368228D01*
X91154147Y-94523100D01*
X91061015Y-94662481D01*
X90942481Y-94781015D01*
X90803100Y-94874147D01*
X90648228Y-94938297D01*
X90483816Y-94971000D01*
X90316184Y-94971000D01*
X90151772Y-94938297D01*
X89996900Y-94874147D01*
X89857519Y-94781015D01*
X89738985Y-94662481D01*
X89645853Y-94523100D01*
X89581703Y-94368228D01*
X89549000Y-94203816D01*
X89549000Y-94036184D01*
X89581703Y-93871772D01*
X89645853Y-93716900D01*
X89738985Y-93577519D01*
X89857519Y-93458985D01*
X89996900Y-93365853D01*
X90151772Y-93301703D01*
X90316184Y-93269000D01*
X90483816Y-93269000D01*
X90648228Y-93301703D01*
G37*
G36*
X107848228Y-93181703D02*
G01*
X108003100Y-93245853D01*
X108142481Y-93338985D01*
X108261015Y-93457519D01*
X108354147Y-93596900D01*
X108418297Y-93751772D01*
X108451000Y-93916184D01*
X108451000Y-94083816D01*
X108418297Y-94248228D01*
X108354147Y-94403100D01*
X108261015Y-94542481D01*
X108142481Y-94661015D01*
X108003100Y-94754147D01*
X107848228Y-94818297D01*
X107683816Y-94851000D01*
X107516184Y-94851000D01*
X107351772Y-94818297D01*
X107196900Y-94754147D01*
X107057519Y-94661015D01*
X106938985Y-94542481D01*
X106845853Y-94403100D01*
X106781703Y-94248228D01*
X106749000Y-94083816D01*
X106749000Y-93916184D01*
X106781703Y-93751772D01*
X106845853Y-93596900D01*
X106938985Y-93457519D01*
X107057519Y-93338985D01*
X107196900Y-93245853D01*
X107351772Y-93181703D01*
X107516184Y-93149000D01*
X107683816Y-93149000D01*
X107848228Y-93181703D01*
G37*
G36*
X111548228Y-91381703D02*
G01*
X111703100Y-91445853D01*
X111842481Y-91538985D01*
X111961015Y-91657519D01*
X112054147Y-91796900D01*
X112118297Y-91951772D01*
X112151000Y-92116184D01*
X112151000Y-92283816D01*
X112118297Y-92448228D01*
X112054147Y-92603100D01*
X111961015Y-92742481D01*
X111842481Y-92861015D01*
X111703100Y-92954147D01*
X111548228Y-93018297D01*
X111383816Y-93051000D01*
X111216184Y-93051000D01*
X111051772Y-93018297D01*
X110896900Y-92954147D01*
X110757519Y-92861015D01*
X110638985Y-92742481D01*
X110545853Y-92603100D01*
X110481703Y-92448228D01*
X110449000Y-92283816D01*
X110449000Y-92116184D01*
X110481703Y-91951772D01*
X110545853Y-91796900D01*
X110638985Y-91657519D01*
X110757519Y-91538985D01*
X110896900Y-91445853D01*
X111051772Y-91381703D01*
X111216184Y-91349000D01*
X111383816Y-91349000D01*
X111548228Y-91381703D01*
G37*
G36*
X100237142Y-89618242D02*
G01*
X100385101Y-89679529D01*
X100518255Y-89768499D01*
X100631501Y-89881745D01*
X100720471Y-90014899D01*
X100781758Y-90162858D01*
X100813000Y-90319925D01*
X100813000Y-90480075D01*
X100781758Y-90637142D01*
X100720471Y-90785101D01*
X100631501Y-90918255D01*
X100518255Y-91031501D01*
X100385101Y-91120471D01*
X100237142Y-91181758D01*
X100080075Y-91213000D01*
X99919925Y-91213000D01*
X99762858Y-91181758D01*
X99614899Y-91120471D01*
X99481745Y-91031501D01*
X99368499Y-90918255D01*
X99279529Y-90785101D01*
X99218242Y-90637142D01*
X99187000Y-90480075D01*
X99187000Y-90319925D01*
X99218242Y-90162858D01*
X99279529Y-90014899D01*
X99368499Y-89881745D01*
X99481745Y-89768499D01*
X99614899Y-89679529D01*
X99762858Y-89618242D01*
X99919925Y-89587000D01*
X100080075Y-89587000D01*
X100237142Y-89618242D01*
G37*
G36*
X102337142Y-87518242D02*
G01*
X102485101Y-87579529D01*
X102618255Y-87668499D01*
X102731501Y-87781745D01*
X102820471Y-87914899D01*
X102881758Y-88062858D01*
X102913000Y-88219925D01*
X102913000Y-88380075D01*
X102881758Y-88537142D01*
X102820471Y-88685101D01*
X102731501Y-88818255D01*
X102618255Y-88931501D01*
X102485101Y-89020471D01*
X102337142Y-89081758D01*
X102180075Y-89113000D01*
X102019925Y-89113000D01*
X101862858Y-89081758D01*
X101714899Y-89020471D01*
X101581745Y-88931501D01*
X101468499Y-88818255D01*
X101379529Y-88685101D01*
X101318242Y-88537142D01*
X101287000Y-88380075D01*
X101287000Y-88219925D01*
X101318242Y-88062858D01*
X101379529Y-87914899D01*
X101468499Y-87781745D01*
X101581745Y-87668499D01*
X101714899Y-87579529D01*
X101862858Y-87518242D01*
X102019925Y-87487000D01*
X102180075Y-87487000D01*
X102337142Y-87518242D01*
G37*
G36*
X98137142Y-87518242D02*
G01*
X98285101Y-87579529D01*
X98418255Y-87668499D01*
X98531501Y-87781745D01*
X98620471Y-87914899D01*
X98681758Y-88062858D01*
X98713000Y-88219925D01*
X98713000Y-88380075D01*
X98681758Y-88537142D01*
X98620471Y-88685101D01*
X98531501Y-88818255D01*
X98418255Y-88931501D01*
X98285101Y-89020471D01*
X98137142Y-89081758D01*
X97980075Y-89113000D01*
X97819925Y-89113000D01*
X97662858Y-89081758D01*
X97514899Y-89020471D01*
X97381745Y-88931501D01*
X97268499Y-88818255D01*
X97179529Y-88685101D01*
X97118242Y-88537142D01*
X97087000Y-88380075D01*
X97087000Y-88219925D01*
X97118242Y-88062858D01*
X97179529Y-87914899D01*
X97268499Y-87781745D01*
X97381745Y-87668499D01*
X97514899Y-87579529D01*
X97662858Y-87518242D01*
X97819925Y-87487000D01*
X97980075Y-87487000D01*
X98137142Y-87518242D01*
G37*
G36*
X110851000Y-88051000D02*
G01*
X109149000Y-88051000D01*
X109149000Y-86349000D01*
X110851000Y-86349000D01*
X110851000Y-88051000D01*
G37*
G36*
X90648228Y-85681703D02*
G01*
X90803100Y-85745853D01*
X90942481Y-85838985D01*
X91061015Y-85957519D01*
X91154147Y-86096900D01*
X91218297Y-86251772D01*
X91251000Y-86416184D01*
X91251000Y-86583816D01*
X91218297Y-86748228D01*
X91154147Y-86903100D01*
X91061015Y-87042481D01*
X90942481Y-87161015D01*
X90803100Y-87254147D01*
X90648228Y-87318297D01*
X90483816Y-87351000D01*
X90316184Y-87351000D01*
X90151772Y-87318297D01*
X89996900Y-87254147D01*
X89857519Y-87161015D01*
X89738985Y-87042481D01*
X89645853Y-86903100D01*
X89581703Y-86748228D01*
X89549000Y-86583816D01*
X89549000Y-86416184D01*
X89581703Y-86251772D01*
X89645853Y-86096900D01*
X89738985Y-85957519D01*
X89857519Y-85838985D01*
X89996900Y-85745853D01*
X90151772Y-85681703D01*
X90316184Y-85649000D01*
X90483816Y-85649000D01*
X90648228Y-85681703D01*
G37*
G36*
X110248228Y-83881703D02*
G01*
X110403100Y-83945853D01*
X110542481Y-84038985D01*
X110661015Y-84157519D01*
X110754147Y-84296900D01*
X110818297Y-84451772D01*
X110851000Y-84616184D01*
X110851000Y-84783816D01*
X110818297Y-84948228D01*
X110754147Y-85103100D01*
X110661015Y-85242481D01*
X110542481Y-85361015D01*
X110403100Y-85454147D01*
X110248228Y-85518297D01*
X110083816Y-85551000D01*
X109916184Y-85551000D01*
X109751772Y-85518297D01*
X109596900Y-85454147D01*
X109457519Y-85361015D01*
X109338985Y-85242481D01*
X109245853Y-85103100D01*
X109181703Y-84948228D01*
X109149000Y-84783816D01*
X109149000Y-84616184D01*
X109181703Y-84451772D01*
X109245853Y-84296900D01*
X109338985Y-84157519D01*
X109457519Y-84038985D01*
X109596900Y-83945853D01*
X109751772Y-83881703D01*
X109916184Y-83849000D01*
X110083816Y-83849000D01*
X110248228Y-83881703D01*
G37*
G36*
X91251000Y-83751000D02*
G01*
X89549000Y-83751000D01*
X89549000Y-82049000D01*
X91251000Y-82049000D01*
X91251000Y-83751000D01*
G37*
G36*
X90648228Y-79581703D02*
G01*
X90803100Y-79645853D01*
X90942481Y-79738985D01*
X91061015Y-79857519D01*
X91154147Y-79996900D01*
X91218297Y-80151772D01*
X91251000Y-80316184D01*
X91251000Y-80483816D01*
X91218297Y-80648228D01*
X91154147Y-80803100D01*
X91061015Y-80942481D01*
X90942481Y-81061015D01*
X90803100Y-81154147D01*
X90648228Y-81218297D01*
X90483816Y-81251000D01*
X90316184Y-81251000D01*
X90151772Y-81218297D01*
X89996900Y-81154147D01*
X89857519Y-81061015D01*
X89738985Y-80942481D01*
X89645853Y-80803100D01*
X89581703Y-80648228D01*
X89549000Y-80483816D01*
X89549000Y-80316184D01*
X89581703Y-80151772D01*
X89645853Y-79996900D01*
X89738985Y-79857519D01*
X89857519Y-79738985D01*
X89996900Y-79645853D01*
X90151772Y-79581703D01*
X90316184Y-79549000D01*
X90483816Y-79549000D01*
X90648228Y-79581703D01*
G37*
G36*
X96241000Y-79721000D02*
G01*
X93599000Y-79721000D01*
X93599000Y-77079000D01*
X96241000Y-77079000D01*
X96241000Y-79721000D01*
G37*
G36*
X100257715Y-77104383D02*
G01*
X100385322Y-77129765D01*
X100526148Y-77188097D01*
X100625727Y-77229344D01*
X100625728Y-77229345D01*
X100842089Y-77373912D01*
X101026088Y-77557911D01*
X101122685Y-77702479D01*
X101170656Y-77774273D01*
X101211903Y-77873852D01*
X101270235Y-78014678D01*
X101321000Y-78269893D01*
X101321000Y-78530107D01*
X101270235Y-78785322D01*
X101211903Y-78926148D01*
X101170656Y-79025727D01*
X101170655Y-79025728D01*
X101026088Y-79242089D01*
X100842089Y-79426088D01*
X100697521Y-79522685D01*
X100625727Y-79570656D01*
X100526148Y-79611903D01*
X100385322Y-79670235D01*
X100257715Y-79695617D01*
X100130109Y-79721000D01*
X99869891Y-79721000D01*
X99742285Y-79695617D01*
X99614678Y-79670235D01*
X99473852Y-79611903D01*
X99374273Y-79570656D01*
X99302479Y-79522685D01*
X99157911Y-79426088D01*
X98973912Y-79242089D01*
X98829345Y-79025728D01*
X98829344Y-79025727D01*
X98788097Y-78926148D01*
X98729765Y-78785322D01*
X98679000Y-78530107D01*
X98679000Y-78269893D01*
X98729765Y-78014678D01*
X98788097Y-77873852D01*
X98829344Y-77774273D01*
X98877315Y-77702479D01*
X98973912Y-77557911D01*
X99157911Y-77373912D01*
X99374272Y-77229345D01*
X99374273Y-77229344D01*
X99473852Y-77188097D01*
X99614678Y-77129765D01*
X99742285Y-77104383D01*
X99869891Y-77079000D01*
X100130109Y-77079000D01*
X100257715Y-77104383D01*
G37*
G36*
X105337715Y-77104383D02*
G01*
X105465322Y-77129765D01*
X105606148Y-77188097D01*
X105705727Y-77229344D01*
X105705728Y-77229345D01*
X105922089Y-77373912D01*
X106106088Y-77557911D01*
X106202685Y-77702479D01*
X106250656Y-77774273D01*
X106291903Y-77873852D01*
X106350235Y-78014678D01*
X106401000Y-78269893D01*
X106401000Y-78530107D01*
X106350235Y-78785322D01*
X106291903Y-78926148D01*
X106250656Y-79025727D01*
X106250655Y-79025728D01*
X106106088Y-79242089D01*
X105922089Y-79426088D01*
X105777521Y-79522685D01*
X105705727Y-79570656D01*
X105606148Y-79611903D01*
X105465322Y-79670235D01*
X105337715Y-79695617D01*
X105210109Y-79721000D01*
X104949891Y-79721000D01*
X104822285Y-79695617D01*
X104694678Y-79670235D01*
X104553852Y-79611903D01*
X104454273Y-79570656D01*
X104382479Y-79522685D01*
X104237911Y-79426088D01*
X104053912Y-79242089D01*
X103909345Y-79025728D01*
X103909344Y-79025727D01*
X103868097Y-78926148D01*
X103809765Y-78785322D01*
X103759000Y-78530107D01*
X103759000Y-78269893D01*
X103809765Y-78014678D01*
X103868097Y-77873852D01*
X103909344Y-77774273D01*
X103957315Y-77702479D01*
X104053912Y-77557911D01*
X104237911Y-77373912D01*
X104454272Y-77229345D01*
X104454273Y-77229344D01*
X104553852Y-77188097D01*
X104694678Y-77129765D01*
X104822285Y-77104383D01*
X104949891Y-77079000D01*
X105210109Y-77079000D01*
X105337715Y-77104383D01*
G37*
G36*
X94766822Y-69161313D02*
G01*
X94927241Y-69209976D01*
X95075077Y-69288995D01*
X95204659Y-69395341D01*
X95311004Y-69524922D01*
X95311005Y-69524924D01*
X95390024Y-69672758D01*
X95438687Y-69833177D01*
X95451000Y-69958196D01*
X95451000Y-71441804D01*
X95438687Y-71566823D01*
X95390024Y-71727242D01*
X95319114Y-71859906D01*
X95311004Y-71875078D01*
X95204659Y-72004659D01*
X95075078Y-72111004D01*
X95075076Y-72111005D01*
X94927242Y-72190024D01*
X94766823Y-72238687D01*
X94600000Y-72255117D01*
X94433178Y-72238687D01*
X94272759Y-72190024D01*
X94124925Y-72111005D01*
X94124923Y-72111004D01*
X93995342Y-72004659D01*
X93888997Y-71875078D01*
X93880887Y-71859906D01*
X93809977Y-71727242D01*
X93761314Y-71566823D01*
X93749001Y-71441804D01*
X93749000Y-69958197D01*
X93761313Y-69833178D01*
X93809976Y-69672759D01*
X93888995Y-69524923D01*
X93995341Y-69395341D01*
X94124922Y-69288996D01*
X94140094Y-69280886D01*
X94272758Y-69209976D01*
X94433177Y-69161313D01*
X94600000Y-69144883D01*
X94766822Y-69161313D01*
G37*
G36*
X113666822Y-69161313D02*
G01*
X113827241Y-69209976D01*
X113975077Y-69288995D01*
X114104659Y-69395341D01*
X114211004Y-69524922D01*
X114211005Y-69524924D01*
X114290024Y-69672758D01*
X114338687Y-69833177D01*
X114351000Y-69958196D01*
X114351000Y-71441804D01*
X114338687Y-71566823D01*
X114290024Y-71727242D01*
X114219114Y-71859906D01*
X114211004Y-71875078D01*
X114104659Y-72004659D01*
X113975078Y-72111004D01*
X113975076Y-72111005D01*
X113827242Y-72190024D01*
X113666823Y-72238687D01*
X113500000Y-72255117D01*
X113333178Y-72238687D01*
X113172759Y-72190024D01*
X113024925Y-72111005D01*
X113024923Y-72111004D01*
X112895342Y-72004659D01*
X112788997Y-71875078D01*
X112780887Y-71859906D01*
X112709977Y-71727242D01*
X112661314Y-71566823D01*
X112649001Y-71441804D01*
X112649000Y-69958197D01*
X112661313Y-69833178D01*
X112709976Y-69672759D01*
X112788995Y-69524923D01*
X112895341Y-69395341D01*
X113024922Y-69288996D01*
X113040094Y-69280886D01*
X113172758Y-69209976D01*
X113333177Y-69161313D01*
X113500000Y-69144883D01*
X113666822Y-69161313D01*
G37*
G36*
X111066822Y-69161313D02*
G01*
X111227241Y-69209976D01*
X111375077Y-69288995D01*
X111504659Y-69395341D01*
X111611004Y-69524922D01*
X111611005Y-69524924D01*
X111690024Y-69672758D01*
X111738687Y-69833177D01*
X111751000Y-69958196D01*
X111751000Y-71441804D01*
X111738687Y-71566823D01*
X111690024Y-71727242D01*
X111619114Y-71859906D01*
X111611004Y-71875078D01*
X111504659Y-72004659D01*
X111375078Y-72111004D01*
X111375076Y-72111005D01*
X111227242Y-72190024D01*
X111066823Y-72238687D01*
X110900000Y-72255117D01*
X110733178Y-72238687D01*
X110572759Y-72190024D01*
X110424925Y-72111005D01*
X110424923Y-72111004D01*
X110295342Y-72004659D01*
X110188997Y-71875078D01*
X110180887Y-71859906D01*
X110109977Y-71727242D01*
X110061314Y-71566823D01*
X110049001Y-71441804D01*
X110049000Y-69958197D01*
X110061313Y-69833178D01*
X110109976Y-69672759D01*
X110188995Y-69524923D01*
X110295341Y-69395341D01*
X110424922Y-69288996D01*
X110440094Y-69280886D01*
X110572758Y-69209976D01*
X110733177Y-69161313D01*
X110900000Y-69144883D01*
X111066822Y-69161313D01*
G37*
G36*
X105466822Y-69161313D02*
G01*
X105627241Y-69209976D01*
X105775077Y-69288995D01*
X105904659Y-69395341D01*
X106011004Y-69524922D01*
X106011005Y-69524924D01*
X106090024Y-69672758D01*
X106138687Y-69833177D01*
X106151000Y-69958196D01*
X106151000Y-71441804D01*
X106138687Y-71566823D01*
X106090024Y-71727242D01*
X106019114Y-71859906D01*
X106011004Y-71875078D01*
X105904659Y-72004659D01*
X105775078Y-72111004D01*
X105775076Y-72111005D01*
X105627242Y-72190024D01*
X105466823Y-72238687D01*
X105300000Y-72255117D01*
X105133178Y-72238687D01*
X104972759Y-72190024D01*
X104824925Y-72111005D01*
X104824923Y-72111004D01*
X104695342Y-72004659D01*
X104588997Y-71875078D01*
X104580887Y-71859906D01*
X104509977Y-71727242D01*
X104461314Y-71566823D01*
X104449001Y-71441804D01*
X104449000Y-69958197D01*
X104461313Y-69833178D01*
X104509976Y-69672759D01*
X104588995Y-69524923D01*
X104695341Y-69395341D01*
X104824922Y-69288996D01*
X104840094Y-69280886D01*
X104972758Y-69209976D01*
X105133177Y-69161313D01*
X105300000Y-69144883D01*
X105466822Y-69161313D01*
G37*
G36*
X102966822Y-69161313D02*
G01*
X103127241Y-69209976D01*
X103275077Y-69288995D01*
X103404659Y-69395341D01*
X103511004Y-69524922D01*
X103511005Y-69524924D01*
X103590024Y-69672758D01*
X103638687Y-69833177D01*
X103651000Y-69958196D01*
X103651000Y-71441804D01*
X103638687Y-71566823D01*
X103590024Y-71727242D01*
X103519114Y-71859906D01*
X103511004Y-71875078D01*
X103404659Y-72004659D01*
X103275078Y-72111004D01*
X103275076Y-72111005D01*
X103127242Y-72190024D01*
X102966823Y-72238687D01*
X102800000Y-72255117D01*
X102633178Y-72238687D01*
X102472759Y-72190024D01*
X102324925Y-72111005D01*
X102324923Y-72111004D01*
X102195342Y-72004659D01*
X102088997Y-71875078D01*
X102080887Y-71859906D01*
X102009977Y-71727242D01*
X101961314Y-71566823D01*
X101949001Y-71441804D01*
X101949000Y-69958197D01*
X101961313Y-69833178D01*
X102009976Y-69672759D01*
X102088995Y-69524923D01*
X102195341Y-69395341D01*
X102324922Y-69288996D01*
X102340094Y-69280886D01*
X102472758Y-69209976D01*
X102633177Y-69161313D01*
X102800000Y-69144883D01*
X102966822Y-69161313D01*
G37*
G36*
X97336822Y-69161313D02*
G01*
X97497241Y-69209976D01*
X97645077Y-69288995D01*
X97774659Y-69395341D01*
X97881004Y-69524922D01*
X97881005Y-69524924D01*
X97960024Y-69672758D01*
X98008687Y-69833177D01*
X98021000Y-69958196D01*
X98021000Y-71441804D01*
X98008687Y-71566823D01*
X97960024Y-71727242D01*
X97889114Y-71859906D01*
X97881004Y-71875078D01*
X97774659Y-72004659D01*
X97645078Y-72111004D01*
X97645076Y-72111005D01*
X97497242Y-72190024D01*
X97336823Y-72238687D01*
X97170000Y-72255117D01*
X97003178Y-72238687D01*
X96842759Y-72190024D01*
X96694925Y-72111005D01*
X96694923Y-72111004D01*
X96565342Y-72004659D01*
X96458997Y-71875078D01*
X96450887Y-71859906D01*
X96379977Y-71727242D01*
X96331314Y-71566823D01*
X96319001Y-71441804D01*
X96319000Y-69958197D01*
X96331313Y-69833178D01*
X96379976Y-69672759D01*
X96458995Y-69524923D01*
X96565341Y-69395341D01*
X96694922Y-69288996D01*
X96710094Y-69280886D01*
X96842758Y-69209976D01*
X97003177Y-69161313D01*
X97170000Y-69144883D01*
X97336822Y-69161313D01*
G37*
G36*
X89166822Y-69161313D02*
G01*
X89327241Y-69209976D01*
X89475077Y-69288995D01*
X89604659Y-69395341D01*
X89711004Y-69524922D01*
X89711005Y-69524924D01*
X89790024Y-69672758D01*
X89838687Y-69833177D01*
X89851000Y-69958196D01*
X89851000Y-71441804D01*
X89838687Y-71566823D01*
X89790024Y-71727242D01*
X89719114Y-71859906D01*
X89711004Y-71875078D01*
X89604659Y-72004659D01*
X89475078Y-72111004D01*
X89475076Y-72111005D01*
X89327242Y-72190024D01*
X89166823Y-72238687D01*
X89000000Y-72255117D01*
X88833178Y-72238687D01*
X88672759Y-72190024D01*
X88524925Y-72111005D01*
X88524923Y-72111004D01*
X88395342Y-72004659D01*
X88288997Y-71875078D01*
X88280887Y-71859906D01*
X88209977Y-71727242D01*
X88161314Y-71566823D01*
X88149001Y-71441804D01*
X88149000Y-69958197D01*
X88161313Y-69833178D01*
X88209976Y-69672759D01*
X88288995Y-69524923D01*
X88395341Y-69395341D01*
X88524922Y-69288996D01*
X88540094Y-69280886D01*
X88672758Y-69209976D01*
X88833177Y-69161313D01*
X89000000Y-69144883D01*
X89166822Y-69161313D01*
G37*
G36*
X86566822Y-69161313D02*
G01*
X86727241Y-69209976D01*
X86875077Y-69288995D01*
X87004659Y-69395341D01*
X87111004Y-69524922D01*
X87111005Y-69524924D01*
X87190024Y-69672758D01*
X87238687Y-69833177D01*
X87251000Y-69958196D01*
X87251000Y-71441804D01*
X87238687Y-71566823D01*
X87190024Y-71727242D01*
X87119114Y-71859906D01*
X87111004Y-71875078D01*
X87004659Y-72004659D01*
X86875078Y-72111004D01*
X86875076Y-72111005D01*
X86727242Y-72190024D01*
X86566823Y-72238687D01*
X86400000Y-72255117D01*
X86233178Y-72238687D01*
X86072759Y-72190024D01*
X85924925Y-72111005D01*
X85924923Y-72111004D01*
X85795342Y-72004659D01*
X85688997Y-71875078D01*
X85680887Y-71859906D01*
X85609977Y-71727242D01*
X85561314Y-71566823D01*
X85549001Y-71441804D01*
X85549000Y-69958197D01*
X85561313Y-69833178D01*
X85609976Y-69672759D01*
X85688995Y-69524923D01*
X85795341Y-69395341D01*
X85924922Y-69288996D01*
X85940094Y-69280886D01*
X86072758Y-69209976D01*
X86233177Y-69161313D01*
X86400000Y-69144883D01*
X86566822Y-69161313D01*
G37*
M02*
