M48
; DRILL file {KiCad (5.1.5-0-10_14)} date 2021 December 30, Thursday 15:58:43
; FORMAT={-:-/ absolute / metric / decimal}
; #@! TF.CreationDate,2021-12-30T15:58:43+01:00
; #@! TF.GenerationSoftware,Kicad,Pcbnew,(5.1.5-0-10_14)
; #@! TF.FileFunction,Plated,1,2,PTH
FMAT,2
METRIC
T1C0.762
T2C0.800
T3C1.100
T4C1.200
T5C1.400
%
G90
G05
T1
X80.96Y-100.0
X83.5Y-97.46
X86.04Y-100.0
X113.96Y-100.0
X116.5Y-97.46
X119.04Y-100.0
T2
X96.08Y-88.9
X103.7Y-88.9
X97.4Y-94.5
X102.4Y-94.5
X82.3Y-110.5
X84.8Y-110.5
X96.08Y-100.0
X103.7Y-100.0
X115.1Y-110.5
X117.6Y-110.5
X98.7Y-81.9
X101.2Y-81.9
T3
X113.96Y-88.9
X116.5Y-88.9
X119.04Y-88.9
X80.96Y-88.9
X83.5Y-88.9
X86.04Y-88.9
T5
X78.42Y-78.4
X83.5Y-78.4
X88.58Y-78.4
X111.42Y-78.4
X116.5Y-78.4
X121.58Y-78.4
T4
X92.2Y-110.7G85X92.2Y-111.1
G05
X106.7Y-78.2G85X106.7Y-78.6
G05
X94.8Y-110.7G85X94.8Y-111.1
G05
X124.6Y-78.2G85X124.6Y-78.6
G05
X93.3Y-78.2G85X93.3Y-78.6
G05
X97.4Y-110.7G85X97.4Y-111.1
G05
X72.8Y-78.2G85X72.8Y-78.6
G05
X95.8Y-78.2G85X95.8Y-78.6
G05
X104.1Y-78.2G85X104.1Y-78.6
G05
X75.4Y-78.2G85X75.4Y-78.6
G05
X102.6Y-110.7G85X102.6Y-111.1
G05
X100.0Y-110.7G85X100.0Y-111.1
G05
X127.2Y-78.2G85X127.2Y-78.6
G05
X105.2Y-110.7G85X105.2Y-111.1
G05
X107.8Y-110.7G85X107.8Y-111.1
G05
T0
M30
