%FSLAX45Y45*%
G04 Gerber Fmt 4.5, Leading zero omitted, Abs format (unit mm)*
G04 Created by KiCad (PCBNEW (5.1.5-0-10_14)) date 2021-12-30 15:58:44*
%MOMM*%
%LPD*%
G04 APERTURE LIST*
%TA.AperFunction,Profile*%
%ADD10C,0.050000*%
%TD*%
%ADD11C,0.200000*%
%ADD12C,0.300000*%
G04 APERTURE END LIST*
D10*
X12900000Y-7400000D02*
X7100000Y-7400000D01*
X12900000Y-11600000D02*
X12900000Y-7400000D01*
X7100000Y-11600000D02*
X12900000Y-11600000D01*
X7100000Y-7400000D02*
X7100000Y-11600000D01*
D11*
D12*
X7383928Y-12068214D02*
X7383928Y-11768214D01*
X7455357Y-11768214D01*
X7498214Y-11782500D01*
X7526786Y-11811071D01*
X7541071Y-11839643D01*
X7555357Y-11896786D01*
X7555357Y-11939643D01*
X7541071Y-11996786D01*
X7526786Y-12025357D01*
X7498214Y-12053929D01*
X7455357Y-12068214D01*
X7383928Y-12068214D01*
X7683928Y-12068214D02*
X7683928Y-11868214D01*
X7683928Y-11925357D02*
X7698214Y-11896786D01*
X7712500Y-11882500D01*
X7741071Y-11868214D01*
X7769643Y-11868214D01*
X7869643Y-12068214D02*
X7869643Y-11868214D01*
X7869643Y-11768214D02*
X7855357Y-11782500D01*
X7869643Y-11796786D01*
X7883928Y-11782500D01*
X7869643Y-11768214D01*
X7869643Y-11796786D01*
X8055357Y-12068214D02*
X8026786Y-12053929D01*
X8012500Y-12025357D01*
X8012500Y-11768214D01*
X8212500Y-12068214D02*
X8183928Y-12053929D01*
X8169643Y-12025357D01*
X8169643Y-11768214D01*
X8555357Y-12068214D02*
X8555357Y-11768214D01*
X8655357Y-11982500D01*
X8755357Y-11768214D01*
X8755357Y-12068214D01*
X9026786Y-12068214D02*
X9026786Y-11911071D01*
X9012500Y-11882500D01*
X8983928Y-11868214D01*
X8926786Y-11868214D01*
X8898214Y-11882500D01*
X9026786Y-12053929D02*
X8998214Y-12068214D01*
X8926786Y-12068214D01*
X8898214Y-12053929D01*
X8883928Y-12025357D01*
X8883928Y-11996786D01*
X8898214Y-11968214D01*
X8926786Y-11953929D01*
X8998214Y-11953929D01*
X9026786Y-11939643D01*
X9169643Y-11868214D02*
X9169643Y-12168214D01*
X9169643Y-11882500D02*
X9198214Y-11868214D01*
X9255357Y-11868214D01*
X9283928Y-11882500D01*
X9298214Y-11896786D01*
X9312500Y-11925357D01*
X9312500Y-12011071D01*
X9298214Y-12039643D01*
X9283928Y-12053929D01*
X9255357Y-12068214D01*
X9198214Y-12068214D01*
X9169643Y-12053929D01*
X9441071Y-12039643D02*
X9455357Y-12053929D01*
X9441071Y-12068214D01*
X9426786Y-12053929D01*
X9441071Y-12039643D01*
X9441071Y-12068214D01*
X9441071Y-11882500D02*
X9455357Y-11896786D01*
X9441071Y-11911071D01*
X9426786Y-11896786D01*
X9441071Y-11882500D01*
X9441071Y-11911071D01*
M02*
