G04 #@! TF.GenerationSoftware,KiCad,Pcbnew,(5.1.5-0-10_14)*
G04 #@! TF.CreationDate,2021-09-14T17:42:55+02:00*
G04 #@! TF.ProjectId,npnium,6e706e69-756d-42e6-9b69-6361645f7063,rev?*
G04 #@! TF.SameCoordinates,Original*
G04 #@! TF.FileFunction,Copper,L1,Top*
G04 #@! TF.FilePolarity,Positive*
%FSLAX46Y46*%
G04 Gerber Fmt 4.6, Leading zero omitted, Abs format (unit mm)*
G04 Created by KiCad (PCBNEW (5.1.5-0-10_14)) date 2021-09-14 17:42:55*
%MOMM*%
%LPD*%
G04 APERTURE LIST*
%ADD10C,1.600000*%
%ADD11R,1.600000X1.600000*%
%ADD12O,1.930400X1.930400*%
%ADD13R,1.930400X1.930400*%
%ADD14O,1.600000X1.600000*%
%ADD15C,1.524000*%
%ADD16O,1.600000X3.000000*%
%ADD17O,2.540000X2.540000*%
%ADD18R,2.540000X2.540000*%
%ADD19C,0.400000*%
%ADD20C,0.800000*%
G04 APERTURE END LIST*
D10*
X115100000Y-110500000D03*
D11*
X117600000Y-110500000D03*
D12*
X119040000Y-88900000D03*
X116500000Y-88900000D03*
D13*
X113960000Y-88900000D03*
D12*
X86040000Y-88900000D03*
X83500000Y-88900000D03*
D13*
X80960000Y-88900000D03*
D14*
X96080000Y-88900000D03*
D10*
X103700000Y-88900000D03*
D14*
X96080000Y-100000000D03*
D10*
X103700000Y-100000000D03*
D15*
X114400000Y-100000000D03*
X116500000Y-102100000D03*
X118600000Y-100000000D03*
X81400000Y-100000000D03*
X83500000Y-102100000D03*
X85600000Y-100000000D03*
D16*
X106700000Y-78400000D03*
X127200000Y-78400000D03*
X100000000Y-110900000D03*
X104100000Y-78400000D03*
X97400000Y-110900000D03*
X124600000Y-78400000D03*
X105200000Y-110900000D03*
X75400000Y-78400000D03*
X72800000Y-78400000D03*
X94800000Y-110900000D03*
X92200000Y-110900000D03*
X107800000Y-110900000D03*
X102600000Y-110900000D03*
X95800000Y-78400000D03*
X93300000Y-78400000D03*
D10*
X98700000Y-81900000D03*
D11*
X101200000Y-81900000D03*
D10*
X97400000Y-94500000D03*
X102400000Y-94500000D03*
X84800000Y-110500000D03*
D11*
X82300000Y-110500000D03*
D17*
X111420000Y-78400000D03*
X116500000Y-78400000D03*
D18*
X121580000Y-78400000D03*
D17*
X78420000Y-78400000D03*
X83500000Y-78400000D03*
D18*
X88580000Y-78400000D03*
D19*
X82300000Y-103300000D02*
X83500000Y-102100000D01*
X82300000Y-110500000D02*
X82300000Y-103300000D01*
X83500000Y-102100000D02*
X93980000Y-102100000D01*
X93980000Y-102100000D02*
X96080000Y-100000000D01*
X103700000Y-88900000D02*
X113960000Y-88900000D01*
X103700000Y-95700000D02*
X103700000Y-90031370D01*
X102800000Y-96600000D02*
X103700000Y-95700000D01*
X103700000Y-90031370D02*
X103700000Y-88900000D01*
X99500000Y-96600000D02*
X102800000Y-96600000D01*
X97400000Y-94500000D02*
X99500000Y-96600000D01*
X101100000Y-87500000D02*
X110200000Y-78400000D01*
X110200000Y-78400000D02*
X111420000Y-78400000D01*
X101100000Y-93200000D02*
X101100000Y-87500000D01*
X102400000Y-94500000D02*
X101100000Y-93200000D01*
D20*
X95280001Y-88100001D02*
X96080000Y-88900000D01*
X82585201Y-87274799D02*
X94454799Y-87274799D01*
X94454799Y-87274799D02*
X95280001Y-88100001D01*
X80960000Y-88900000D02*
X82585201Y-87274799D01*
X96080000Y-78680000D02*
X95800000Y-78400000D01*
X96080000Y-88900000D02*
X96080000Y-78680000D01*
X97700000Y-78400000D02*
X95800000Y-78400000D01*
X101200000Y-81900000D02*
X97700000Y-78400000D01*
X79200000Y-112000000D02*
X79200000Y-92425200D01*
X88800000Y-112000000D02*
X79200000Y-112000000D01*
X80960000Y-90665200D02*
X80960000Y-88900000D01*
X89300000Y-109000000D02*
X89300000Y-111500000D01*
X94800000Y-110900000D02*
X94800000Y-109100000D01*
X90200000Y-108100000D02*
X89300000Y-109000000D01*
X93800000Y-108100000D02*
X90200000Y-108100000D01*
X79200000Y-92425200D02*
X80960000Y-90665200D01*
X89300000Y-111500000D02*
X88800000Y-112000000D01*
X94800000Y-109100000D02*
X93800000Y-108100000D01*
X97400000Y-113200000D02*
X97400000Y-110900000D01*
X78900000Y-84800000D02*
X76000000Y-87700000D01*
X89500000Y-84800000D02*
X78900000Y-84800000D01*
X91300000Y-83000000D02*
X89500000Y-84800000D01*
X76000000Y-87700000D02*
X76000000Y-113200000D01*
X91300000Y-76100000D02*
X91300000Y-83000000D01*
X104900000Y-75900000D02*
X91500000Y-75900000D01*
X91500000Y-75900000D02*
X91300000Y-76100000D01*
X106700000Y-77700000D02*
X104900000Y-75900000D01*
X76000000Y-113200000D02*
X97400000Y-113200000D01*
X106700000Y-78400000D02*
X106700000Y-77700000D01*
D19*
X83500000Y-97900000D02*
X83500000Y-88900000D01*
X81400000Y-100000000D02*
X83500000Y-97900000D01*
X83500000Y-88900000D02*
X86040000Y-88900000D01*
X82161999Y-99238001D02*
X81400000Y-100000000D01*
X83500000Y-97900000D02*
X82161999Y-99238001D01*
X115300000Y-103300000D02*
X102400000Y-103300000D01*
X97000000Y-97900000D02*
X83500000Y-97900000D01*
X102400000Y-103300000D02*
X97000000Y-97900000D01*
X116500000Y-102100000D02*
X115300000Y-103300000D01*
X116500000Y-97900000D02*
X116500000Y-88900000D01*
X114400000Y-100000000D02*
X116500000Y-97900000D01*
X116500000Y-88900000D02*
X119040000Y-88900000D01*
X100000000Y-112800000D02*
X100000000Y-110900000D01*
X73300000Y-114600000D02*
X98200000Y-114600000D01*
X73200000Y-114500000D02*
X73300000Y-114600000D01*
X98200000Y-114600000D02*
X100000000Y-112800000D01*
X73200000Y-78800000D02*
X73200000Y-114500000D01*
X72800000Y-78400000D02*
X73200000Y-78800000D01*
X113839990Y-115460010D02*
X117600000Y-111700000D01*
X71960010Y-115460010D02*
X113839990Y-115460010D01*
X71500000Y-115000000D02*
X71960010Y-115460010D01*
X117600000Y-111700000D02*
X117600000Y-110500000D01*
X71500000Y-76800000D02*
X71500000Y-115000000D01*
X72000000Y-76300000D02*
X71500000Y-76800000D01*
X74060010Y-76760010D02*
X73600000Y-76300000D01*
X73600000Y-76300000D02*
X72000000Y-76300000D01*
X74060010Y-79621913D02*
X74060010Y-76760010D01*
X74798107Y-80360010D02*
X74060010Y-79621913D01*
X79439990Y-80360010D02*
X74798107Y-80360010D01*
X81400000Y-78400000D02*
X79439990Y-80360010D01*
X83500000Y-78400000D02*
X81400000Y-78400000D01*
X126300000Y-79300000D02*
X127200000Y-78400000D01*
X126300000Y-103700000D02*
X126300000Y-79300000D01*
X124600000Y-105400000D02*
X126300000Y-103700000D01*
X108800000Y-105400000D02*
X124600000Y-105400000D01*
X105200000Y-109000000D02*
X108800000Y-105400000D01*
X105200000Y-110900000D02*
X105200000Y-109000000D01*
X117522370Y-100000000D02*
X118600000Y-100000000D01*
X115569437Y-101222001D02*
X116791438Y-100000000D01*
X116791438Y-100000000D02*
X117522370Y-100000000D01*
X104922001Y-101222001D02*
X115569437Y-101222001D01*
X103700000Y-100000000D02*
X104922001Y-101222001D01*
X121200000Y-97400000D02*
X121200000Y-85619598D01*
X108100000Y-74500000D02*
X82334990Y-74485010D01*
X82334990Y-74485010D02*
X78420000Y-78400000D01*
X110080402Y-74500000D02*
X108100000Y-74500000D01*
X121200000Y-85619598D02*
X110080402Y-74500000D01*
X118600000Y-100000000D02*
X121200000Y-97400000D01*
X100700000Y-105200000D02*
X102600000Y-107100000D01*
X102600000Y-107100000D02*
X102600000Y-110900000D01*
X87800000Y-105200000D02*
X100700000Y-105200000D01*
X84800000Y-108200000D02*
X87800000Y-105200000D01*
X84800000Y-110500000D02*
X84800000Y-108200000D01*
X116500000Y-76400000D02*
X116500000Y-78400000D01*
X118300000Y-74600000D02*
X116500000Y-76400000D01*
X127600000Y-74600000D02*
X118300000Y-74600000D01*
X128460010Y-75460010D02*
X127600000Y-74600000D01*
X127339990Y-108160010D02*
X128460010Y-107039990D01*
X111739990Y-108160010D02*
X127339990Y-108160010D01*
X128460010Y-107039990D02*
X128460010Y-75460010D01*
X109000000Y-110900000D02*
X111739990Y-108160010D01*
X107800000Y-110900000D02*
X109000000Y-110900000D01*
M02*
