G04 #@! TF.GenerationSoftware,KiCad,Pcbnew,(5.1.5-0-10_14)*
G04 #@! TF.CreationDate,2021-09-14T17:42:55+02:00*
G04 #@! TF.ProjectId,npnium,6e706e69-756d-42e6-9b69-6361645f7063,rev?*
G04 #@! TF.SameCoordinates,Original*
G04 #@! TF.FileFunction,Copper,L2,Bot*
G04 #@! TF.FilePolarity,Positive*
%FSLAX46Y46*%
G04 Gerber Fmt 4.6, Leading zero omitted, Abs format (unit mm)*
G04 Created by KiCad (PCBNEW (5.1.5-0-10_14)) date 2021-09-14 17:42:55*
%MOMM*%
%LPD*%
G04 APERTURE LIST*
%ADD10C,1.600000*%
%ADD11R,1.600000X1.600000*%
%ADD12O,1.930400X1.930400*%
%ADD13R,1.930400X1.930400*%
%ADD14O,1.600000X1.600000*%
%ADD15C,1.524000*%
%ADD16O,1.600000X3.000000*%
%ADD17O,2.540000X2.540000*%
%ADD18R,2.540000X2.540000*%
%ADD19C,0.254000*%
G04 APERTURE END LIST*
D10*
X115100000Y-110500000D03*
D11*
X117600000Y-110500000D03*
D12*
X119040000Y-88900000D03*
X116500000Y-88900000D03*
D13*
X113960000Y-88900000D03*
D12*
X86040000Y-88900000D03*
X83500000Y-88900000D03*
D13*
X80960000Y-88900000D03*
D14*
X96080000Y-88900000D03*
D10*
X103700000Y-88900000D03*
D14*
X96080000Y-100000000D03*
D10*
X103700000Y-100000000D03*
D15*
X114400000Y-100000000D03*
X116500000Y-102100000D03*
X118600000Y-100000000D03*
X81400000Y-100000000D03*
X83500000Y-102100000D03*
X85600000Y-100000000D03*
D16*
X106700000Y-78400000D03*
X127200000Y-78400000D03*
X100000000Y-110900000D03*
X104100000Y-78400000D03*
X97400000Y-110900000D03*
X124600000Y-78400000D03*
X105200000Y-110900000D03*
X75400000Y-78400000D03*
X72800000Y-78400000D03*
X94800000Y-110900000D03*
X92200000Y-110900000D03*
X107800000Y-110900000D03*
X102600000Y-110900000D03*
X95800000Y-78400000D03*
X93300000Y-78400000D03*
D10*
X98700000Y-81900000D03*
D11*
X101200000Y-81900000D03*
D10*
X97400000Y-94500000D03*
X102400000Y-94500000D03*
X84800000Y-110500000D03*
D11*
X82300000Y-110500000D03*
D17*
X111420000Y-78400000D03*
X116500000Y-78400000D03*
D18*
X121580000Y-78400000D03*
D17*
X78420000Y-78400000D03*
X83500000Y-78400000D03*
D18*
X88580000Y-78400000D03*
D19*
G36*
X128340001Y-76827092D02*
G01*
X128219607Y-76680392D01*
X128001100Y-76501068D01*
X127751807Y-76367818D01*
X127481308Y-76285764D01*
X127200000Y-76258057D01*
X126918691Y-76285764D01*
X126648192Y-76367818D01*
X126398899Y-76501068D01*
X126180392Y-76680393D01*
X126001068Y-76898900D01*
X125899485Y-77088947D01*
X125877166Y-77033517D01*
X125722601Y-76797161D01*
X125524895Y-76595500D01*
X125291646Y-76436285D01*
X125031818Y-76325633D01*
X124949039Y-76308096D01*
X124727000Y-76430085D01*
X124727000Y-78273000D01*
X124747000Y-78273000D01*
X124747000Y-78527000D01*
X124727000Y-78527000D01*
X124727000Y-80369915D01*
X124949039Y-80491904D01*
X125031818Y-80474367D01*
X125291646Y-80363715D01*
X125524895Y-80204500D01*
X125722601Y-80002839D01*
X125877166Y-79766483D01*
X125899486Y-79711052D01*
X126001069Y-79901101D01*
X126180393Y-80119608D01*
X126398900Y-80298932D01*
X126648193Y-80432182D01*
X126918692Y-80514236D01*
X127200000Y-80541943D01*
X127481309Y-80514236D01*
X127751808Y-80432182D01*
X128001101Y-80298932D01*
X128219608Y-80119608D01*
X128340001Y-79972909D01*
X128340000Y-115340000D01*
X71660000Y-115340000D01*
X71660000Y-109700000D01*
X80861928Y-109700000D01*
X80861928Y-111300000D01*
X80874188Y-111424482D01*
X80910498Y-111544180D01*
X80969463Y-111654494D01*
X81048815Y-111751185D01*
X81145506Y-111830537D01*
X81255820Y-111889502D01*
X81375518Y-111925812D01*
X81500000Y-111938072D01*
X83100000Y-111938072D01*
X83224482Y-111925812D01*
X83344180Y-111889502D01*
X83454494Y-111830537D01*
X83551185Y-111751185D01*
X83630537Y-111654494D01*
X83689502Y-111544180D01*
X83718661Y-111448057D01*
X83885241Y-111614637D01*
X84120273Y-111771680D01*
X84381426Y-111879853D01*
X84658665Y-111935000D01*
X84941335Y-111935000D01*
X85218574Y-111879853D01*
X85479727Y-111771680D01*
X85714759Y-111614637D01*
X85914637Y-111414759D01*
X86071680Y-111179727D01*
X86134941Y-111027000D01*
X90765000Y-111027000D01*
X90765000Y-111727000D01*
X90817350Y-112004514D01*
X90922834Y-112266483D01*
X91077399Y-112502839D01*
X91275105Y-112704500D01*
X91508354Y-112863715D01*
X91768182Y-112974367D01*
X91850961Y-112991904D01*
X92073000Y-112869915D01*
X92073000Y-111027000D01*
X90765000Y-111027000D01*
X86134941Y-111027000D01*
X86179853Y-110918574D01*
X86235000Y-110641335D01*
X86235000Y-110358665D01*
X86179853Y-110081426D01*
X86176363Y-110073000D01*
X90765000Y-110073000D01*
X90765000Y-110773000D01*
X92073000Y-110773000D01*
X92073000Y-108930085D01*
X92327000Y-108930085D01*
X92327000Y-110773000D01*
X92347000Y-110773000D01*
X92347000Y-111027000D01*
X92327000Y-111027000D01*
X92327000Y-112869915D01*
X92549039Y-112991904D01*
X92631818Y-112974367D01*
X92891646Y-112863715D01*
X93124895Y-112704500D01*
X93322601Y-112502839D01*
X93477166Y-112266483D01*
X93499486Y-112211052D01*
X93601069Y-112401101D01*
X93780393Y-112619608D01*
X93998900Y-112798932D01*
X94248193Y-112932182D01*
X94518692Y-113014236D01*
X94800000Y-113041943D01*
X95081309Y-113014236D01*
X95351808Y-112932182D01*
X95601101Y-112798932D01*
X95819608Y-112619608D01*
X95998932Y-112401101D01*
X96100001Y-112212015D01*
X96201069Y-112401101D01*
X96380393Y-112619608D01*
X96598900Y-112798932D01*
X96848193Y-112932182D01*
X97118692Y-113014236D01*
X97400000Y-113041943D01*
X97681309Y-113014236D01*
X97951808Y-112932182D01*
X98201101Y-112798932D01*
X98419608Y-112619608D01*
X98598932Y-112401101D01*
X98700001Y-112212015D01*
X98801069Y-112401101D01*
X98980393Y-112619608D01*
X99198900Y-112798932D01*
X99448193Y-112932182D01*
X99718692Y-113014236D01*
X100000000Y-113041943D01*
X100281309Y-113014236D01*
X100551808Y-112932182D01*
X100801101Y-112798932D01*
X101019608Y-112619608D01*
X101198932Y-112401101D01*
X101300001Y-112212015D01*
X101401069Y-112401101D01*
X101580393Y-112619608D01*
X101798900Y-112798932D01*
X102048193Y-112932182D01*
X102318692Y-113014236D01*
X102600000Y-113041943D01*
X102881309Y-113014236D01*
X103151808Y-112932182D01*
X103401101Y-112798932D01*
X103619608Y-112619608D01*
X103798932Y-112401101D01*
X103900001Y-112212015D01*
X104001069Y-112401101D01*
X104180393Y-112619608D01*
X104398900Y-112798932D01*
X104648193Y-112932182D01*
X104918692Y-113014236D01*
X105200000Y-113041943D01*
X105481309Y-113014236D01*
X105751808Y-112932182D01*
X106001101Y-112798932D01*
X106219608Y-112619608D01*
X106398932Y-112401101D01*
X106500001Y-112212015D01*
X106601069Y-112401101D01*
X106780393Y-112619608D01*
X106998900Y-112798932D01*
X107248193Y-112932182D01*
X107518692Y-113014236D01*
X107800000Y-113041943D01*
X108081309Y-113014236D01*
X108351808Y-112932182D01*
X108601101Y-112798932D01*
X108819608Y-112619608D01*
X108998932Y-112401101D01*
X109132182Y-112151808D01*
X109214236Y-111881309D01*
X109235000Y-111670492D01*
X109235000Y-111492702D01*
X114286903Y-111492702D01*
X114358486Y-111736671D01*
X114613996Y-111857571D01*
X114888184Y-111926300D01*
X115170512Y-111940217D01*
X115450130Y-111898787D01*
X115716292Y-111803603D01*
X115841514Y-111736671D01*
X115913097Y-111492702D01*
X115100000Y-110679605D01*
X114286903Y-111492702D01*
X109235000Y-111492702D01*
X109235000Y-110570512D01*
X113659783Y-110570512D01*
X113701213Y-110850130D01*
X113796397Y-111116292D01*
X113863329Y-111241514D01*
X114107298Y-111313097D01*
X114920395Y-110500000D01*
X115279605Y-110500000D01*
X116092702Y-111313097D01*
X116161928Y-111292785D01*
X116161928Y-111300000D01*
X116174188Y-111424482D01*
X116210498Y-111544180D01*
X116269463Y-111654494D01*
X116348815Y-111751185D01*
X116445506Y-111830537D01*
X116555820Y-111889502D01*
X116675518Y-111925812D01*
X116800000Y-111938072D01*
X118400000Y-111938072D01*
X118524482Y-111925812D01*
X118644180Y-111889502D01*
X118754494Y-111830537D01*
X118851185Y-111751185D01*
X118930537Y-111654494D01*
X118989502Y-111544180D01*
X119025812Y-111424482D01*
X119038072Y-111300000D01*
X119038072Y-109700000D01*
X119025812Y-109575518D01*
X118989502Y-109455820D01*
X118930537Y-109345506D01*
X118851185Y-109248815D01*
X118754494Y-109169463D01*
X118644180Y-109110498D01*
X118524482Y-109074188D01*
X118400000Y-109061928D01*
X116800000Y-109061928D01*
X116675518Y-109074188D01*
X116555820Y-109110498D01*
X116445506Y-109169463D01*
X116348815Y-109248815D01*
X116269463Y-109345506D01*
X116210498Y-109455820D01*
X116174188Y-109575518D01*
X116161928Y-109700000D01*
X116161928Y-109707215D01*
X116092702Y-109686903D01*
X115279605Y-110500000D01*
X114920395Y-110500000D01*
X114107298Y-109686903D01*
X113863329Y-109758486D01*
X113742429Y-110013996D01*
X113673700Y-110288184D01*
X113659783Y-110570512D01*
X109235000Y-110570512D01*
X109235000Y-110129508D01*
X109214236Y-109918691D01*
X109132182Y-109648192D01*
X109056873Y-109507298D01*
X114286903Y-109507298D01*
X115100000Y-110320395D01*
X115913097Y-109507298D01*
X115841514Y-109263329D01*
X115586004Y-109142429D01*
X115311816Y-109073700D01*
X115029488Y-109059783D01*
X114749870Y-109101213D01*
X114483708Y-109196397D01*
X114358486Y-109263329D01*
X114286903Y-109507298D01*
X109056873Y-109507298D01*
X108998932Y-109398899D01*
X108819607Y-109180392D01*
X108601100Y-109001068D01*
X108351807Y-108867818D01*
X108081308Y-108785764D01*
X107800000Y-108758057D01*
X107518691Y-108785764D01*
X107248192Y-108867818D01*
X106998899Y-109001068D01*
X106780392Y-109180393D01*
X106601068Y-109398900D01*
X106500000Y-109587984D01*
X106398932Y-109398899D01*
X106219607Y-109180392D01*
X106001100Y-109001068D01*
X105751807Y-108867818D01*
X105481308Y-108785764D01*
X105200000Y-108758057D01*
X104918691Y-108785764D01*
X104648192Y-108867818D01*
X104398899Y-109001068D01*
X104180392Y-109180393D01*
X104001068Y-109398900D01*
X103900000Y-109587984D01*
X103798932Y-109398899D01*
X103619607Y-109180392D01*
X103401100Y-109001068D01*
X103151807Y-108867818D01*
X102881308Y-108785764D01*
X102600000Y-108758057D01*
X102318691Y-108785764D01*
X102048192Y-108867818D01*
X101798899Y-109001068D01*
X101580392Y-109180393D01*
X101401068Y-109398900D01*
X101300000Y-109587984D01*
X101198932Y-109398899D01*
X101019607Y-109180392D01*
X100801100Y-109001068D01*
X100551807Y-108867818D01*
X100281308Y-108785764D01*
X100000000Y-108758057D01*
X99718691Y-108785764D01*
X99448192Y-108867818D01*
X99198899Y-109001068D01*
X98980392Y-109180393D01*
X98801068Y-109398900D01*
X98700000Y-109587984D01*
X98598932Y-109398899D01*
X98419607Y-109180392D01*
X98201100Y-109001068D01*
X97951807Y-108867818D01*
X97681308Y-108785764D01*
X97400000Y-108758057D01*
X97118691Y-108785764D01*
X96848192Y-108867818D01*
X96598899Y-109001068D01*
X96380392Y-109180393D01*
X96201068Y-109398900D01*
X96100000Y-109587984D01*
X95998932Y-109398899D01*
X95819607Y-109180392D01*
X95601100Y-109001068D01*
X95351807Y-108867818D01*
X95081308Y-108785764D01*
X94800000Y-108758057D01*
X94518691Y-108785764D01*
X94248192Y-108867818D01*
X93998899Y-109001068D01*
X93780392Y-109180393D01*
X93601068Y-109398900D01*
X93499485Y-109588947D01*
X93477166Y-109533517D01*
X93322601Y-109297161D01*
X93124895Y-109095500D01*
X92891646Y-108936285D01*
X92631818Y-108825633D01*
X92549039Y-108808096D01*
X92327000Y-108930085D01*
X92073000Y-108930085D01*
X91850961Y-108808096D01*
X91768182Y-108825633D01*
X91508354Y-108936285D01*
X91275105Y-109095500D01*
X91077399Y-109297161D01*
X90922834Y-109533517D01*
X90817350Y-109795486D01*
X90765000Y-110073000D01*
X86176363Y-110073000D01*
X86071680Y-109820273D01*
X85914637Y-109585241D01*
X85714759Y-109385363D01*
X85479727Y-109228320D01*
X85218574Y-109120147D01*
X84941335Y-109065000D01*
X84658665Y-109065000D01*
X84381426Y-109120147D01*
X84120273Y-109228320D01*
X83885241Y-109385363D01*
X83718661Y-109551943D01*
X83689502Y-109455820D01*
X83630537Y-109345506D01*
X83551185Y-109248815D01*
X83454494Y-109169463D01*
X83344180Y-109110498D01*
X83224482Y-109074188D01*
X83100000Y-109061928D01*
X81500000Y-109061928D01*
X81375518Y-109074188D01*
X81255820Y-109110498D01*
X81145506Y-109169463D01*
X81048815Y-109248815D01*
X80969463Y-109345506D01*
X80910498Y-109455820D01*
X80874188Y-109575518D01*
X80861928Y-109700000D01*
X71660000Y-109700000D01*
X71660000Y-101962408D01*
X82103000Y-101962408D01*
X82103000Y-102237592D01*
X82156686Y-102507490D01*
X82261995Y-102761727D01*
X82414880Y-102990535D01*
X82609465Y-103185120D01*
X82838273Y-103338005D01*
X83092510Y-103443314D01*
X83362408Y-103497000D01*
X83637592Y-103497000D01*
X83907490Y-103443314D01*
X84161727Y-103338005D01*
X84390535Y-103185120D01*
X84585120Y-102990535D01*
X84738005Y-102761727D01*
X84843314Y-102507490D01*
X84897000Y-102237592D01*
X84897000Y-101962408D01*
X115103000Y-101962408D01*
X115103000Y-102237592D01*
X115156686Y-102507490D01*
X115261995Y-102761727D01*
X115414880Y-102990535D01*
X115609465Y-103185120D01*
X115838273Y-103338005D01*
X116092510Y-103443314D01*
X116362408Y-103497000D01*
X116637592Y-103497000D01*
X116907490Y-103443314D01*
X117161727Y-103338005D01*
X117390535Y-103185120D01*
X117585120Y-102990535D01*
X117738005Y-102761727D01*
X117843314Y-102507490D01*
X117897000Y-102237592D01*
X117897000Y-101962408D01*
X117843314Y-101692510D01*
X117738005Y-101438273D01*
X117585120Y-101209465D01*
X117390535Y-101014880D01*
X117161727Y-100861995D01*
X116907490Y-100756686D01*
X116637592Y-100703000D01*
X116362408Y-100703000D01*
X116092510Y-100756686D01*
X115838273Y-100861995D01*
X115609465Y-101014880D01*
X115414880Y-101209465D01*
X115261995Y-101438273D01*
X115156686Y-101692510D01*
X115103000Y-101962408D01*
X84897000Y-101962408D01*
X84843314Y-101692510D01*
X84738005Y-101438273D01*
X84585120Y-101209465D01*
X84390535Y-101014880D01*
X84316731Y-100965565D01*
X84814040Y-100965565D01*
X84881020Y-101205656D01*
X85130048Y-101322756D01*
X85397135Y-101389023D01*
X85672017Y-101401910D01*
X85944133Y-101360922D01*
X86203023Y-101267636D01*
X86318980Y-101205656D01*
X86385960Y-100965565D01*
X85600000Y-100179605D01*
X84814040Y-100965565D01*
X84316731Y-100965565D01*
X84161727Y-100861995D01*
X83907490Y-100756686D01*
X83637592Y-100703000D01*
X83362408Y-100703000D01*
X83092510Y-100756686D01*
X82838273Y-100861995D01*
X82609465Y-101014880D01*
X82414880Y-101209465D01*
X82261995Y-101438273D01*
X82156686Y-101692510D01*
X82103000Y-101962408D01*
X71660000Y-101962408D01*
X71660000Y-99862408D01*
X80003000Y-99862408D01*
X80003000Y-100137592D01*
X80056686Y-100407490D01*
X80161995Y-100661727D01*
X80314880Y-100890535D01*
X80509465Y-101085120D01*
X80738273Y-101238005D01*
X80992510Y-101343314D01*
X81262408Y-101397000D01*
X81537592Y-101397000D01*
X81807490Y-101343314D01*
X82061727Y-101238005D01*
X82290535Y-101085120D01*
X82485120Y-100890535D01*
X82638005Y-100661727D01*
X82743314Y-100407490D01*
X82797000Y-100137592D01*
X82797000Y-100072017D01*
X84198090Y-100072017D01*
X84239078Y-100344133D01*
X84332364Y-100603023D01*
X84394344Y-100718980D01*
X84634435Y-100785960D01*
X85420395Y-100000000D01*
X85779605Y-100000000D01*
X86565565Y-100785960D01*
X86805656Y-100718980D01*
X86922756Y-100469952D01*
X86989023Y-100202865D01*
X87001910Y-99927983D01*
X86991469Y-99858665D01*
X94645000Y-99858665D01*
X94645000Y-100141335D01*
X94700147Y-100418574D01*
X94808320Y-100679727D01*
X94965363Y-100914759D01*
X95165241Y-101114637D01*
X95400273Y-101271680D01*
X95661426Y-101379853D01*
X95938665Y-101435000D01*
X96221335Y-101435000D01*
X96498574Y-101379853D01*
X96759727Y-101271680D01*
X96994759Y-101114637D01*
X97194637Y-100914759D01*
X97351680Y-100679727D01*
X97459853Y-100418574D01*
X97515000Y-100141335D01*
X97515000Y-99858665D01*
X102265000Y-99858665D01*
X102265000Y-100141335D01*
X102320147Y-100418574D01*
X102428320Y-100679727D01*
X102585363Y-100914759D01*
X102785241Y-101114637D01*
X103020273Y-101271680D01*
X103281426Y-101379853D01*
X103558665Y-101435000D01*
X103841335Y-101435000D01*
X104118574Y-101379853D01*
X104379727Y-101271680D01*
X104614759Y-101114637D01*
X104814637Y-100914759D01*
X104971680Y-100679727D01*
X105079853Y-100418574D01*
X105135000Y-100141335D01*
X105135000Y-99862408D01*
X113003000Y-99862408D01*
X113003000Y-100137592D01*
X113056686Y-100407490D01*
X113161995Y-100661727D01*
X113314880Y-100890535D01*
X113509465Y-101085120D01*
X113738273Y-101238005D01*
X113992510Y-101343314D01*
X114262408Y-101397000D01*
X114537592Y-101397000D01*
X114807490Y-101343314D01*
X115061727Y-101238005D01*
X115290535Y-101085120D01*
X115485120Y-100890535D01*
X115638005Y-100661727D01*
X115743314Y-100407490D01*
X115797000Y-100137592D01*
X115797000Y-99862408D01*
X117203000Y-99862408D01*
X117203000Y-100137592D01*
X117256686Y-100407490D01*
X117361995Y-100661727D01*
X117514880Y-100890535D01*
X117709465Y-101085120D01*
X117938273Y-101238005D01*
X118192510Y-101343314D01*
X118462408Y-101397000D01*
X118737592Y-101397000D01*
X119007490Y-101343314D01*
X119261727Y-101238005D01*
X119490535Y-101085120D01*
X119685120Y-100890535D01*
X119838005Y-100661727D01*
X119943314Y-100407490D01*
X119997000Y-100137592D01*
X119997000Y-99862408D01*
X119943314Y-99592510D01*
X119838005Y-99338273D01*
X119685120Y-99109465D01*
X119490535Y-98914880D01*
X119261727Y-98761995D01*
X119007490Y-98656686D01*
X118737592Y-98603000D01*
X118462408Y-98603000D01*
X118192510Y-98656686D01*
X117938273Y-98761995D01*
X117709465Y-98914880D01*
X117514880Y-99109465D01*
X117361995Y-99338273D01*
X117256686Y-99592510D01*
X117203000Y-99862408D01*
X115797000Y-99862408D01*
X115743314Y-99592510D01*
X115638005Y-99338273D01*
X115485120Y-99109465D01*
X115290535Y-98914880D01*
X115061727Y-98761995D01*
X114807490Y-98656686D01*
X114537592Y-98603000D01*
X114262408Y-98603000D01*
X113992510Y-98656686D01*
X113738273Y-98761995D01*
X113509465Y-98914880D01*
X113314880Y-99109465D01*
X113161995Y-99338273D01*
X113056686Y-99592510D01*
X113003000Y-99862408D01*
X105135000Y-99862408D01*
X105135000Y-99858665D01*
X105079853Y-99581426D01*
X104971680Y-99320273D01*
X104814637Y-99085241D01*
X104614759Y-98885363D01*
X104379727Y-98728320D01*
X104118574Y-98620147D01*
X103841335Y-98565000D01*
X103558665Y-98565000D01*
X103281426Y-98620147D01*
X103020273Y-98728320D01*
X102785241Y-98885363D01*
X102585363Y-99085241D01*
X102428320Y-99320273D01*
X102320147Y-99581426D01*
X102265000Y-99858665D01*
X97515000Y-99858665D01*
X97459853Y-99581426D01*
X97351680Y-99320273D01*
X97194637Y-99085241D01*
X96994759Y-98885363D01*
X96759727Y-98728320D01*
X96498574Y-98620147D01*
X96221335Y-98565000D01*
X95938665Y-98565000D01*
X95661426Y-98620147D01*
X95400273Y-98728320D01*
X95165241Y-98885363D01*
X94965363Y-99085241D01*
X94808320Y-99320273D01*
X94700147Y-99581426D01*
X94645000Y-99858665D01*
X86991469Y-99858665D01*
X86960922Y-99655867D01*
X86867636Y-99396977D01*
X86805656Y-99281020D01*
X86565565Y-99214040D01*
X85779605Y-100000000D01*
X85420395Y-100000000D01*
X84634435Y-99214040D01*
X84394344Y-99281020D01*
X84277244Y-99530048D01*
X84210977Y-99797135D01*
X84198090Y-100072017D01*
X82797000Y-100072017D01*
X82797000Y-99862408D01*
X82743314Y-99592510D01*
X82638005Y-99338273D01*
X82485120Y-99109465D01*
X82410090Y-99034435D01*
X84814040Y-99034435D01*
X85600000Y-99820395D01*
X86385960Y-99034435D01*
X86318980Y-98794344D01*
X86069952Y-98677244D01*
X85802865Y-98610977D01*
X85527983Y-98598090D01*
X85255867Y-98639078D01*
X84996977Y-98732364D01*
X84881020Y-98794344D01*
X84814040Y-99034435D01*
X82410090Y-99034435D01*
X82290535Y-98914880D01*
X82061727Y-98761995D01*
X81807490Y-98656686D01*
X81537592Y-98603000D01*
X81262408Y-98603000D01*
X80992510Y-98656686D01*
X80738273Y-98761995D01*
X80509465Y-98914880D01*
X80314880Y-99109465D01*
X80161995Y-99338273D01*
X80056686Y-99592510D01*
X80003000Y-99862408D01*
X71660000Y-99862408D01*
X71660000Y-94358665D01*
X95965000Y-94358665D01*
X95965000Y-94641335D01*
X96020147Y-94918574D01*
X96128320Y-95179727D01*
X96285363Y-95414759D01*
X96485241Y-95614637D01*
X96720273Y-95771680D01*
X96981426Y-95879853D01*
X97258665Y-95935000D01*
X97541335Y-95935000D01*
X97818574Y-95879853D01*
X98079727Y-95771680D01*
X98314759Y-95614637D01*
X98514637Y-95414759D01*
X98671680Y-95179727D01*
X98779853Y-94918574D01*
X98835000Y-94641335D01*
X98835000Y-94358665D01*
X100965000Y-94358665D01*
X100965000Y-94641335D01*
X101020147Y-94918574D01*
X101128320Y-95179727D01*
X101285363Y-95414759D01*
X101485241Y-95614637D01*
X101720273Y-95771680D01*
X101981426Y-95879853D01*
X102258665Y-95935000D01*
X102541335Y-95935000D01*
X102818574Y-95879853D01*
X103079727Y-95771680D01*
X103314759Y-95614637D01*
X103514637Y-95414759D01*
X103671680Y-95179727D01*
X103779853Y-94918574D01*
X103835000Y-94641335D01*
X103835000Y-94358665D01*
X103779853Y-94081426D01*
X103671680Y-93820273D01*
X103514637Y-93585241D01*
X103314759Y-93385363D01*
X103079727Y-93228320D01*
X102818574Y-93120147D01*
X102541335Y-93065000D01*
X102258665Y-93065000D01*
X101981426Y-93120147D01*
X101720273Y-93228320D01*
X101485241Y-93385363D01*
X101285363Y-93585241D01*
X101128320Y-93820273D01*
X101020147Y-94081426D01*
X100965000Y-94358665D01*
X98835000Y-94358665D01*
X98779853Y-94081426D01*
X98671680Y-93820273D01*
X98514637Y-93585241D01*
X98314759Y-93385363D01*
X98079727Y-93228320D01*
X97818574Y-93120147D01*
X97541335Y-93065000D01*
X97258665Y-93065000D01*
X96981426Y-93120147D01*
X96720273Y-93228320D01*
X96485241Y-93385363D01*
X96285363Y-93585241D01*
X96128320Y-93820273D01*
X96020147Y-94081426D01*
X95965000Y-94358665D01*
X71660000Y-94358665D01*
X71660000Y-87934800D01*
X79356728Y-87934800D01*
X79356728Y-89865200D01*
X79368988Y-89989682D01*
X79405298Y-90109380D01*
X79464263Y-90219694D01*
X79543615Y-90316385D01*
X79640306Y-90395737D01*
X79750620Y-90454702D01*
X79870318Y-90491012D01*
X79994800Y-90503272D01*
X81925200Y-90503272D01*
X82049682Y-90491012D01*
X82169380Y-90454702D01*
X82279694Y-90395737D01*
X82376385Y-90316385D01*
X82455737Y-90219694D01*
X82492327Y-90151239D01*
X82742021Y-90318079D01*
X83033239Y-90438706D01*
X83342394Y-90500200D01*
X83657606Y-90500200D01*
X83966761Y-90438706D01*
X84257979Y-90318079D01*
X84520068Y-90142957D01*
X84742957Y-89920068D01*
X84770000Y-89879595D01*
X84797043Y-89920068D01*
X85019932Y-90142957D01*
X85282021Y-90318079D01*
X85573239Y-90438706D01*
X85882394Y-90500200D01*
X86197606Y-90500200D01*
X86506761Y-90438706D01*
X86797979Y-90318079D01*
X87060068Y-90142957D01*
X87282957Y-89920068D01*
X87458079Y-89657979D01*
X87578706Y-89366761D01*
X87640200Y-89057606D01*
X87640200Y-88758665D01*
X94645000Y-88758665D01*
X94645000Y-89041335D01*
X94700147Y-89318574D01*
X94808320Y-89579727D01*
X94965363Y-89814759D01*
X95165241Y-90014637D01*
X95400273Y-90171680D01*
X95661426Y-90279853D01*
X95938665Y-90335000D01*
X96221335Y-90335000D01*
X96498574Y-90279853D01*
X96759727Y-90171680D01*
X96994759Y-90014637D01*
X97194637Y-89814759D01*
X97351680Y-89579727D01*
X97459853Y-89318574D01*
X97515000Y-89041335D01*
X97515000Y-88758665D01*
X102265000Y-88758665D01*
X102265000Y-89041335D01*
X102320147Y-89318574D01*
X102428320Y-89579727D01*
X102585363Y-89814759D01*
X102785241Y-90014637D01*
X103020273Y-90171680D01*
X103281426Y-90279853D01*
X103558665Y-90335000D01*
X103841335Y-90335000D01*
X104118574Y-90279853D01*
X104379727Y-90171680D01*
X104614759Y-90014637D01*
X104814637Y-89814759D01*
X104971680Y-89579727D01*
X105079853Y-89318574D01*
X105135000Y-89041335D01*
X105135000Y-88758665D01*
X105079853Y-88481426D01*
X104971680Y-88220273D01*
X104814637Y-87985241D01*
X104764196Y-87934800D01*
X112356728Y-87934800D01*
X112356728Y-89865200D01*
X112368988Y-89989682D01*
X112405298Y-90109380D01*
X112464263Y-90219694D01*
X112543615Y-90316385D01*
X112640306Y-90395737D01*
X112750620Y-90454702D01*
X112870318Y-90491012D01*
X112994800Y-90503272D01*
X114925200Y-90503272D01*
X115049682Y-90491012D01*
X115169380Y-90454702D01*
X115279694Y-90395737D01*
X115376385Y-90316385D01*
X115455737Y-90219694D01*
X115492327Y-90151239D01*
X115742021Y-90318079D01*
X116033239Y-90438706D01*
X116342394Y-90500200D01*
X116657606Y-90500200D01*
X116966761Y-90438706D01*
X117257979Y-90318079D01*
X117520068Y-90142957D01*
X117742957Y-89920068D01*
X117770000Y-89879595D01*
X117797043Y-89920068D01*
X118019932Y-90142957D01*
X118282021Y-90318079D01*
X118573239Y-90438706D01*
X118882394Y-90500200D01*
X119197606Y-90500200D01*
X119506761Y-90438706D01*
X119797979Y-90318079D01*
X120060068Y-90142957D01*
X120282957Y-89920068D01*
X120458079Y-89657979D01*
X120578706Y-89366761D01*
X120640200Y-89057606D01*
X120640200Y-88742394D01*
X120578706Y-88433239D01*
X120458079Y-88142021D01*
X120282957Y-87879932D01*
X120060068Y-87657043D01*
X119797979Y-87481921D01*
X119506761Y-87361294D01*
X119197606Y-87299800D01*
X118882394Y-87299800D01*
X118573239Y-87361294D01*
X118282021Y-87481921D01*
X118019932Y-87657043D01*
X117797043Y-87879932D01*
X117770000Y-87920405D01*
X117742957Y-87879932D01*
X117520068Y-87657043D01*
X117257979Y-87481921D01*
X116966761Y-87361294D01*
X116657606Y-87299800D01*
X116342394Y-87299800D01*
X116033239Y-87361294D01*
X115742021Y-87481921D01*
X115492327Y-87648761D01*
X115455737Y-87580306D01*
X115376385Y-87483615D01*
X115279694Y-87404263D01*
X115169380Y-87345298D01*
X115049682Y-87308988D01*
X114925200Y-87296728D01*
X112994800Y-87296728D01*
X112870318Y-87308988D01*
X112750620Y-87345298D01*
X112640306Y-87404263D01*
X112543615Y-87483615D01*
X112464263Y-87580306D01*
X112405298Y-87690620D01*
X112368988Y-87810318D01*
X112356728Y-87934800D01*
X104764196Y-87934800D01*
X104614759Y-87785363D01*
X104379727Y-87628320D01*
X104118574Y-87520147D01*
X103841335Y-87465000D01*
X103558665Y-87465000D01*
X103281426Y-87520147D01*
X103020273Y-87628320D01*
X102785241Y-87785363D01*
X102585363Y-87985241D01*
X102428320Y-88220273D01*
X102320147Y-88481426D01*
X102265000Y-88758665D01*
X97515000Y-88758665D01*
X97459853Y-88481426D01*
X97351680Y-88220273D01*
X97194637Y-87985241D01*
X96994759Y-87785363D01*
X96759727Y-87628320D01*
X96498574Y-87520147D01*
X96221335Y-87465000D01*
X95938665Y-87465000D01*
X95661426Y-87520147D01*
X95400273Y-87628320D01*
X95165241Y-87785363D01*
X94965363Y-87985241D01*
X94808320Y-88220273D01*
X94700147Y-88481426D01*
X94645000Y-88758665D01*
X87640200Y-88758665D01*
X87640200Y-88742394D01*
X87578706Y-88433239D01*
X87458079Y-88142021D01*
X87282957Y-87879932D01*
X87060068Y-87657043D01*
X86797979Y-87481921D01*
X86506761Y-87361294D01*
X86197606Y-87299800D01*
X85882394Y-87299800D01*
X85573239Y-87361294D01*
X85282021Y-87481921D01*
X85019932Y-87657043D01*
X84797043Y-87879932D01*
X84770000Y-87920405D01*
X84742957Y-87879932D01*
X84520068Y-87657043D01*
X84257979Y-87481921D01*
X83966761Y-87361294D01*
X83657606Y-87299800D01*
X83342394Y-87299800D01*
X83033239Y-87361294D01*
X82742021Y-87481921D01*
X82492327Y-87648761D01*
X82455737Y-87580306D01*
X82376385Y-87483615D01*
X82279694Y-87404263D01*
X82169380Y-87345298D01*
X82049682Y-87308988D01*
X81925200Y-87296728D01*
X79994800Y-87296728D01*
X79870318Y-87308988D01*
X79750620Y-87345298D01*
X79640306Y-87404263D01*
X79543615Y-87483615D01*
X79464263Y-87580306D01*
X79405298Y-87690620D01*
X79368988Y-87810318D01*
X79356728Y-87934800D01*
X71660000Y-87934800D01*
X71660000Y-82892702D01*
X97886903Y-82892702D01*
X97958486Y-83136671D01*
X98213996Y-83257571D01*
X98488184Y-83326300D01*
X98770512Y-83340217D01*
X99050130Y-83298787D01*
X99316292Y-83203603D01*
X99441514Y-83136671D01*
X99513097Y-82892702D01*
X98700000Y-82079605D01*
X97886903Y-82892702D01*
X71660000Y-82892702D01*
X71660000Y-81970512D01*
X97259783Y-81970512D01*
X97301213Y-82250130D01*
X97396397Y-82516292D01*
X97463329Y-82641514D01*
X97707298Y-82713097D01*
X98520395Y-81900000D01*
X98879605Y-81900000D01*
X99692702Y-82713097D01*
X99761928Y-82692785D01*
X99761928Y-82700000D01*
X99774188Y-82824482D01*
X99810498Y-82944180D01*
X99869463Y-83054494D01*
X99948815Y-83151185D01*
X100045506Y-83230537D01*
X100155820Y-83289502D01*
X100275518Y-83325812D01*
X100400000Y-83338072D01*
X102000000Y-83338072D01*
X102124482Y-83325812D01*
X102244180Y-83289502D01*
X102354494Y-83230537D01*
X102451185Y-83151185D01*
X102530537Y-83054494D01*
X102589502Y-82944180D01*
X102625812Y-82824482D01*
X102638072Y-82700000D01*
X102638072Y-81100000D01*
X102625812Y-80975518D01*
X102589502Y-80855820D01*
X102530537Y-80745506D01*
X102451185Y-80648815D01*
X102354494Y-80569463D01*
X102244180Y-80510498D01*
X102124482Y-80474188D01*
X102000000Y-80461928D01*
X100400000Y-80461928D01*
X100275518Y-80474188D01*
X100155820Y-80510498D01*
X100045506Y-80569463D01*
X99948815Y-80648815D01*
X99869463Y-80745506D01*
X99810498Y-80855820D01*
X99774188Y-80975518D01*
X99761928Y-81100000D01*
X99761928Y-81107215D01*
X99692702Y-81086903D01*
X98879605Y-81900000D01*
X98520395Y-81900000D01*
X97707298Y-81086903D01*
X97463329Y-81158486D01*
X97342429Y-81413996D01*
X97273700Y-81688184D01*
X97259783Y-81970512D01*
X71660000Y-81970512D01*
X71660000Y-80907298D01*
X97886903Y-80907298D01*
X98700000Y-81720395D01*
X99513097Y-80907298D01*
X99441514Y-80663329D01*
X99186004Y-80542429D01*
X98911816Y-80473700D01*
X98629488Y-80459783D01*
X98349870Y-80501213D01*
X98083708Y-80596397D01*
X97958486Y-80663329D01*
X97886903Y-80907298D01*
X71660000Y-80907298D01*
X71660000Y-79972909D01*
X71780393Y-80119608D01*
X71998900Y-80298932D01*
X72248193Y-80432182D01*
X72518692Y-80514236D01*
X72800000Y-80541943D01*
X73081309Y-80514236D01*
X73351808Y-80432182D01*
X73601101Y-80298932D01*
X73819608Y-80119608D01*
X73998932Y-79901101D01*
X74100515Y-79711053D01*
X74122834Y-79766483D01*
X74277399Y-80002839D01*
X74475105Y-80204500D01*
X74708354Y-80363715D01*
X74968182Y-80474367D01*
X75050961Y-80491904D01*
X75273000Y-80369915D01*
X75273000Y-78527000D01*
X75253000Y-78527000D01*
X75253000Y-78273000D01*
X75273000Y-78273000D01*
X75273000Y-76430085D01*
X75527000Y-76430085D01*
X75527000Y-78273000D01*
X75547000Y-78273000D01*
X75547000Y-78527000D01*
X75527000Y-78527000D01*
X75527000Y-80369915D01*
X75749039Y-80491904D01*
X75831818Y-80474367D01*
X76091646Y-80363715D01*
X76324895Y-80204500D01*
X76522601Y-80002839D01*
X76677166Y-79766483D01*
X76782650Y-79504514D01*
X76801196Y-79406198D01*
X76940290Y-79614366D01*
X77205634Y-79879710D01*
X77517644Y-80088189D01*
X77864332Y-80231791D01*
X78232374Y-80305000D01*
X78607626Y-80305000D01*
X78975668Y-80231791D01*
X79322356Y-80088189D01*
X79634366Y-79879710D01*
X79899710Y-79614366D01*
X80108189Y-79302356D01*
X80251791Y-78955668D01*
X80325000Y-78587626D01*
X80325000Y-78212374D01*
X81595000Y-78212374D01*
X81595000Y-78587626D01*
X81668209Y-78955668D01*
X81811811Y-79302356D01*
X82020290Y-79614366D01*
X82285634Y-79879710D01*
X82597644Y-80088189D01*
X82944332Y-80231791D01*
X83312374Y-80305000D01*
X83687626Y-80305000D01*
X84055668Y-80231791D01*
X84402356Y-80088189D01*
X84714366Y-79879710D01*
X84924076Y-79670000D01*
X86671928Y-79670000D01*
X86684188Y-79794482D01*
X86720498Y-79914180D01*
X86779463Y-80024494D01*
X86858815Y-80121185D01*
X86955506Y-80200537D01*
X87065820Y-80259502D01*
X87185518Y-80295812D01*
X87310000Y-80308072D01*
X88294250Y-80305000D01*
X88453000Y-80146250D01*
X88453000Y-78527000D01*
X88707000Y-78527000D01*
X88707000Y-80146250D01*
X88865750Y-80305000D01*
X89850000Y-80308072D01*
X89974482Y-80295812D01*
X90094180Y-80259502D01*
X90204494Y-80200537D01*
X90301185Y-80121185D01*
X90380537Y-80024494D01*
X90439502Y-79914180D01*
X90475812Y-79794482D01*
X90488072Y-79670000D01*
X90485000Y-78685750D01*
X90326250Y-78527000D01*
X91865000Y-78527000D01*
X91865000Y-79227000D01*
X91917350Y-79504514D01*
X92022834Y-79766483D01*
X92177399Y-80002839D01*
X92375105Y-80204500D01*
X92608354Y-80363715D01*
X92868182Y-80474367D01*
X92950961Y-80491904D01*
X93173000Y-80369915D01*
X93173000Y-78527000D01*
X91865000Y-78527000D01*
X90326250Y-78527000D01*
X88707000Y-78527000D01*
X88453000Y-78527000D01*
X86833750Y-78527000D01*
X86675000Y-78685750D01*
X86671928Y-79670000D01*
X84924076Y-79670000D01*
X84979710Y-79614366D01*
X85188189Y-79302356D01*
X85331791Y-78955668D01*
X85405000Y-78587626D01*
X85405000Y-78212374D01*
X85331791Y-77844332D01*
X85188189Y-77497644D01*
X84979710Y-77185634D01*
X84924076Y-77130000D01*
X86671928Y-77130000D01*
X86675000Y-78114250D01*
X86833750Y-78273000D01*
X88453000Y-78273000D01*
X88453000Y-76653750D01*
X88707000Y-76653750D01*
X88707000Y-78273000D01*
X90326250Y-78273000D01*
X90485000Y-78114250D01*
X90486689Y-77573000D01*
X91865000Y-77573000D01*
X91865000Y-78273000D01*
X93173000Y-78273000D01*
X93173000Y-76430085D01*
X93427000Y-76430085D01*
X93427000Y-78273000D01*
X93447000Y-78273000D01*
X93447000Y-78527000D01*
X93427000Y-78527000D01*
X93427000Y-80369915D01*
X93649039Y-80491904D01*
X93731818Y-80474367D01*
X93991646Y-80363715D01*
X94224895Y-80204500D01*
X94422601Y-80002839D01*
X94550725Y-79806915D01*
X94601069Y-79901101D01*
X94780393Y-80119608D01*
X94998900Y-80298932D01*
X95248193Y-80432182D01*
X95518692Y-80514236D01*
X95800000Y-80541943D01*
X96081309Y-80514236D01*
X96351808Y-80432182D01*
X96601101Y-80298932D01*
X96819608Y-80119608D01*
X96998932Y-79901101D01*
X97132182Y-79651808D01*
X97214236Y-79381309D01*
X97235000Y-79170492D01*
X97235000Y-78527000D01*
X102665000Y-78527000D01*
X102665000Y-79227000D01*
X102717350Y-79504514D01*
X102822834Y-79766483D01*
X102977399Y-80002839D01*
X103175105Y-80204500D01*
X103408354Y-80363715D01*
X103668182Y-80474367D01*
X103750961Y-80491904D01*
X103973000Y-80369915D01*
X103973000Y-78527000D01*
X102665000Y-78527000D01*
X97235000Y-78527000D01*
X97235000Y-77629508D01*
X97229435Y-77573000D01*
X102665000Y-77573000D01*
X102665000Y-78273000D01*
X103973000Y-78273000D01*
X103973000Y-76430085D01*
X104227000Y-76430085D01*
X104227000Y-78273000D01*
X104247000Y-78273000D01*
X104247000Y-78527000D01*
X104227000Y-78527000D01*
X104227000Y-80369915D01*
X104449039Y-80491904D01*
X104531818Y-80474367D01*
X104791646Y-80363715D01*
X105024895Y-80204500D01*
X105222601Y-80002839D01*
X105377166Y-79766483D01*
X105399486Y-79711052D01*
X105501069Y-79901101D01*
X105680393Y-80119608D01*
X105898900Y-80298932D01*
X106148193Y-80432182D01*
X106418692Y-80514236D01*
X106700000Y-80541943D01*
X106981309Y-80514236D01*
X107251808Y-80432182D01*
X107501101Y-80298932D01*
X107719608Y-80119608D01*
X107898932Y-79901101D01*
X108032182Y-79651808D01*
X108114236Y-79381309D01*
X108135000Y-79170492D01*
X108135000Y-78212374D01*
X109515000Y-78212374D01*
X109515000Y-78587626D01*
X109588209Y-78955668D01*
X109731811Y-79302356D01*
X109940290Y-79614366D01*
X110205634Y-79879710D01*
X110517644Y-80088189D01*
X110864332Y-80231791D01*
X111232374Y-80305000D01*
X111607626Y-80305000D01*
X111975668Y-80231791D01*
X112322356Y-80088189D01*
X112634366Y-79879710D01*
X112899710Y-79614366D01*
X113108189Y-79302356D01*
X113251791Y-78955668D01*
X113325000Y-78587626D01*
X113325000Y-78212374D01*
X114595000Y-78212374D01*
X114595000Y-78587626D01*
X114668209Y-78955668D01*
X114811811Y-79302356D01*
X115020290Y-79614366D01*
X115285634Y-79879710D01*
X115597644Y-80088189D01*
X115944332Y-80231791D01*
X116312374Y-80305000D01*
X116687626Y-80305000D01*
X117055668Y-80231791D01*
X117402356Y-80088189D01*
X117714366Y-79879710D01*
X117924076Y-79670000D01*
X119671928Y-79670000D01*
X119684188Y-79794482D01*
X119720498Y-79914180D01*
X119779463Y-80024494D01*
X119858815Y-80121185D01*
X119955506Y-80200537D01*
X120065820Y-80259502D01*
X120185518Y-80295812D01*
X120310000Y-80308072D01*
X121294250Y-80305000D01*
X121453000Y-80146250D01*
X121453000Y-78527000D01*
X121707000Y-78527000D01*
X121707000Y-80146250D01*
X121865750Y-80305000D01*
X122850000Y-80308072D01*
X122974482Y-80295812D01*
X123094180Y-80259502D01*
X123204494Y-80200537D01*
X123301185Y-80121185D01*
X123380537Y-80024494D01*
X123430470Y-79931077D01*
X123477399Y-80002839D01*
X123675105Y-80204500D01*
X123908354Y-80363715D01*
X124168182Y-80474367D01*
X124250961Y-80491904D01*
X124473000Y-80369915D01*
X124473000Y-78527000D01*
X121707000Y-78527000D01*
X121453000Y-78527000D01*
X119833750Y-78527000D01*
X119675000Y-78685750D01*
X119671928Y-79670000D01*
X117924076Y-79670000D01*
X117979710Y-79614366D01*
X118188189Y-79302356D01*
X118331791Y-78955668D01*
X118405000Y-78587626D01*
X118405000Y-78212374D01*
X118331791Y-77844332D01*
X118188189Y-77497644D01*
X117979710Y-77185634D01*
X117924076Y-77130000D01*
X119671928Y-77130000D01*
X119675000Y-78114250D01*
X119833750Y-78273000D01*
X121453000Y-78273000D01*
X121453000Y-76653750D01*
X121707000Y-76653750D01*
X121707000Y-78273000D01*
X124473000Y-78273000D01*
X124473000Y-76430085D01*
X124250961Y-76308096D01*
X124168182Y-76325633D01*
X123908354Y-76436285D01*
X123675105Y-76595500D01*
X123477399Y-76797161D01*
X123430470Y-76868923D01*
X123380537Y-76775506D01*
X123301185Y-76678815D01*
X123204494Y-76599463D01*
X123094180Y-76540498D01*
X122974482Y-76504188D01*
X122850000Y-76491928D01*
X121865750Y-76495000D01*
X121707000Y-76653750D01*
X121453000Y-76653750D01*
X121294250Y-76495000D01*
X120310000Y-76491928D01*
X120185518Y-76504188D01*
X120065820Y-76540498D01*
X119955506Y-76599463D01*
X119858815Y-76678815D01*
X119779463Y-76775506D01*
X119720498Y-76885820D01*
X119684188Y-77005518D01*
X119671928Y-77130000D01*
X117924076Y-77130000D01*
X117714366Y-76920290D01*
X117402356Y-76711811D01*
X117055668Y-76568209D01*
X116687626Y-76495000D01*
X116312374Y-76495000D01*
X115944332Y-76568209D01*
X115597644Y-76711811D01*
X115285634Y-76920290D01*
X115020290Y-77185634D01*
X114811811Y-77497644D01*
X114668209Y-77844332D01*
X114595000Y-78212374D01*
X113325000Y-78212374D01*
X113251791Y-77844332D01*
X113108189Y-77497644D01*
X112899710Y-77185634D01*
X112634366Y-76920290D01*
X112322356Y-76711811D01*
X111975668Y-76568209D01*
X111607626Y-76495000D01*
X111232374Y-76495000D01*
X110864332Y-76568209D01*
X110517644Y-76711811D01*
X110205634Y-76920290D01*
X109940290Y-77185634D01*
X109731811Y-77497644D01*
X109588209Y-77844332D01*
X109515000Y-78212374D01*
X108135000Y-78212374D01*
X108135000Y-77629508D01*
X108114236Y-77418691D01*
X108032182Y-77148192D01*
X107898932Y-76898899D01*
X107719607Y-76680392D01*
X107501100Y-76501068D01*
X107251807Y-76367818D01*
X106981308Y-76285764D01*
X106700000Y-76258057D01*
X106418691Y-76285764D01*
X106148192Y-76367818D01*
X105898899Y-76501068D01*
X105680392Y-76680393D01*
X105501068Y-76898900D01*
X105399485Y-77088947D01*
X105377166Y-77033517D01*
X105222601Y-76797161D01*
X105024895Y-76595500D01*
X104791646Y-76436285D01*
X104531818Y-76325633D01*
X104449039Y-76308096D01*
X104227000Y-76430085D01*
X103973000Y-76430085D01*
X103750961Y-76308096D01*
X103668182Y-76325633D01*
X103408354Y-76436285D01*
X103175105Y-76595500D01*
X102977399Y-76797161D01*
X102822834Y-77033517D01*
X102717350Y-77295486D01*
X102665000Y-77573000D01*
X97229435Y-77573000D01*
X97214236Y-77418691D01*
X97132182Y-77148192D01*
X96998932Y-76898899D01*
X96819607Y-76680392D01*
X96601100Y-76501068D01*
X96351807Y-76367818D01*
X96081308Y-76285764D01*
X95800000Y-76258057D01*
X95518691Y-76285764D01*
X95248192Y-76367818D01*
X94998899Y-76501068D01*
X94780392Y-76680393D01*
X94601068Y-76898900D01*
X94550725Y-76993085D01*
X94422601Y-76797161D01*
X94224895Y-76595500D01*
X93991646Y-76436285D01*
X93731818Y-76325633D01*
X93649039Y-76308096D01*
X93427000Y-76430085D01*
X93173000Y-76430085D01*
X92950961Y-76308096D01*
X92868182Y-76325633D01*
X92608354Y-76436285D01*
X92375105Y-76595500D01*
X92177399Y-76797161D01*
X92022834Y-77033517D01*
X91917350Y-77295486D01*
X91865000Y-77573000D01*
X90486689Y-77573000D01*
X90488072Y-77130000D01*
X90475812Y-77005518D01*
X90439502Y-76885820D01*
X90380537Y-76775506D01*
X90301185Y-76678815D01*
X90204494Y-76599463D01*
X90094180Y-76540498D01*
X89974482Y-76504188D01*
X89850000Y-76491928D01*
X88865750Y-76495000D01*
X88707000Y-76653750D01*
X88453000Y-76653750D01*
X88294250Y-76495000D01*
X87310000Y-76491928D01*
X87185518Y-76504188D01*
X87065820Y-76540498D01*
X86955506Y-76599463D01*
X86858815Y-76678815D01*
X86779463Y-76775506D01*
X86720498Y-76885820D01*
X86684188Y-77005518D01*
X86671928Y-77130000D01*
X84924076Y-77130000D01*
X84714366Y-76920290D01*
X84402356Y-76711811D01*
X84055668Y-76568209D01*
X83687626Y-76495000D01*
X83312374Y-76495000D01*
X82944332Y-76568209D01*
X82597644Y-76711811D01*
X82285634Y-76920290D01*
X82020290Y-77185634D01*
X81811811Y-77497644D01*
X81668209Y-77844332D01*
X81595000Y-78212374D01*
X80325000Y-78212374D01*
X80251791Y-77844332D01*
X80108189Y-77497644D01*
X79899710Y-77185634D01*
X79634366Y-76920290D01*
X79322356Y-76711811D01*
X78975668Y-76568209D01*
X78607626Y-76495000D01*
X78232374Y-76495000D01*
X77864332Y-76568209D01*
X77517644Y-76711811D01*
X77205634Y-76920290D01*
X76940290Y-77185634D01*
X76801196Y-77393802D01*
X76782650Y-77295486D01*
X76677166Y-77033517D01*
X76522601Y-76797161D01*
X76324895Y-76595500D01*
X76091646Y-76436285D01*
X75831818Y-76325633D01*
X75749039Y-76308096D01*
X75527000Y-76430085D01*
X75273000Y-76430085D01*
X75050961Y-76308096D01*
X74968182Y-76325633D01*
X74708354Y-76436285D01*
X74475105Y-76595500D01*
X74277399Y-76797161D01*
X74122834Y-77033517D01*
X74100515Y-77088947D01*
X73998932Y-76898899D01*
X73819607Y-76680392D01*
X73601100Y-76501068D01*
X73351807Y-76367818D01*
X73081308Y-76285764D01*
X72800000Y-76258057D01*
X72518691Y-76285764D01*
X72248192Y-76367818D01*
X71998899Y-76501068D01*
X71780392Y-76680393D01*
X71660000Y-76827091D01*
X71660000Y-74660000D01*
X128340001Y-74660000D01*
X128340001Y-76827092D01*
G37*
X128340001Y-76827092D02*
X128219607Y-76680392D01*
X128001100Y-76501068D01*
X127751807Y-76367818D01*
X127481308Y-76285764D01*
X127200000Y-76258057D01*
X126918691Y-76285764D01*
X126648192Y-76367818D01*
X126398899Y-76501068D01*
X126180392Y-76680393D01*
X126001068Y-76898900D01*
X125899485Y-77088947D01*
X125877166Y-77033517D01*
X125722601Y-76797161D01*
X125524895Y-76595500D01*
X125291646Y-76436285D01*
X125031818Y-76325633D01*
X124949039Y-76308096D01*
X124727000Y-76430085D01*
X124727000Y-78273000D01*
X124747000Y-78273000D01*
X124747000Y-78527000D01*
X124727000Y-78527000D01*
X124727000Y-80369915D01*
X124949039Y-80491904D01*
X125031818Y-80474367D01*
X125291646Y-80363715D01*
X125524895Y-80204500D01*
X125722601Y-80002839D01*
X125877166Y-79766483D01*
X125899486Y-79711052D01*
X126001069Y-79901101D01*
X126180393Y-80119608D01*
X126398900Y-80298932D01*
X126648193Y-80432182D01*
X126918692Y-80514236D01*
X127200000Y-80541943D01*
X127481309Y-80514236D01*
X127751808Y-80432182D01*
X128001101Y-80298932D01*
X128219608Y-80119608D01*
X128340001Y-79972909D01*
X128340000Y-115340000D01*
X71660000Y-115340000D01*
X71660000Y-109700000D01*
X80861928Y-109700000D01*
X80861928Y-111300000D01*
X80874188Y-111424482D01*
X80910498Y-111544180D01*
X80969463Y-111654494D01*
X81048815Y-111751185D01*
X81145506Y-111830537D01*
X81255820Y-111889502D01*
X81375518Y-111925812D01*
X81500000Y-111938072D01*
X83100000Y-111938072D01*
X83224482Y-111925812D01*
X83344180Y-111889502D01*
X83454494Y-111830537D01*
X83551185Y-111751185D01*
X83630537Y-111654494D01*
X83689502Y-111544180D01*
X83718661Y-111448057D01*
X83885241Y-111614637D01*
X84120273Y-111771680D01*
X84381426Y-111879853D01*
X84658665Y-111935000D01*
X84941335Y-111935000D01*
X85218574Y-111879853D01*
X85479727Y-111771680D01*
X85714759Y-111614637D01*
X85914637Y-111414759D01*
X86071680Y-111179727D01*
X86134941Y-111027000D01*
X90765000Y-111027000D01*
X90765000Y-111727000D01*
X90817350Y-112004514D01*
X90922834Y-112266483D01*
X91077399Y-112502839D01*
X91275105Y-112704500D01*
X91508354Y-112863715D01*
X91768182Y-112974367D01*
X91850961Y-112991904D01*
X92073000Y-112869915D01*
X92073000Y-111027000D01*
X90765000Y-111027000D01*
X86134941Y-111027000D01*
X86179853Y-110918574D01*
X86235000Y-110641335D01*
X86235000Y-110358665D01*
X86179853Y-110081426D01*
X86176363Y-110073000D01*
X90765000Y-110073000D01*
X90765000Y-110773000D01*
X92073000Y-110773000D01*
X92073000Y-108930085D01*
X92327000Y-108930085D01*
X92327000Y-110773000D01*
X92347000Y-110773000D01*
X92347000Y-111027000D01*
X92327000Y-111027000D01*
X92327000Y-112869915D01*
X92549039Y-112991904D01*
X92631818Y-112974367D01*
X92891646Y-112863715D01*
X93124895Y-112704500D01*
X93322601Y-112502839D01*
X93477166Y-112266483D01*
X93499486Y-112211052D01*
X93601069Y-112401101D01*
X93780393Y-112619608D01*
X93998900Y-112798932D01*
X94248193Y-112932182D01*
X94518692Y-113014236D01*
X94800000Y-113041943D01*
X95081309Y-113014236D01*
X95351808Y-112932182D01*
X95601101Y-112798932D01*
X95819608Y-112619608D01*
X95998932Y-112401101D01*
X96100001Y-112212015D01*
X96201069Y-112401101D01*
X96380393Y-112619608D01*
X96598900Y-112798932D01*
X96848193Y-112932182D01*
X97118692Y-113014236D01*
X97400000Y-113041943D01*
X97681309Y-113014236D01*
X97951808Y-112932182D01*
X98201101Y-112798932D01*
X98419608Y-112619608D01*
X98598932Y-112401101D01*
X98700001Y-112212015D01*
X98801069Y-112401101D01*
X98980393Y-112619608D01*
X99198900Y-112798932D01*
X99448193Y-112932182D01*
X99718692Y-113014236D01*
X100000000Y-113041943D01*
X100281309Y-113014236D01*
X100551808Y-112932182D01*
X100801101Y-112798932D01*
X101019608Y-112619608D01*
X101198932Y-112401101D01*
X101300001Y-112212015D01*
X101401069Y-112401101D01*
X101580393Y-112619608D01*
X101798900Y-112798932D01*
X102048193Y-112932182D01*
X102318692Y-113014236D01*
X102600000Y-113041943D01*
X102881309Y-113014236D01*
X103151808Y-112932182D01*
X103401101Y-112798932D01*
X103619608Y-112619608D01*
X103798932Y-112401101D01*
X103900001Y-112212015D01*
X104001069Y-112401101D01*
X104180393Y-112619608D01*
X104398900Y-112798932D01*
X104648193Y-112932182D01*
X104918692Y-113014236D01*
X105200000Y-113041943D01*
X105481309Y-113014236D01*
X105751808Y-112932182D01*
X106001101Y-112798932D01*
X106219608Y-112619608D01*
X106398932Y-112401101D01*
X106500001Y-112212015D01*
X106601069Y-112401101D01*
X106780393Y-112619608D01*
X106998900Y-112798932D01*
X107248193Y-112932182D01*
X107518692Y-113014236D01*
X107800000Y-113041943D01*
X108081309Y-113014236D01*
X108351808Y-112932182D01*
X108601101Y-112798932D01*
X108819608Y-112619608D01*
X108998932Y-112401101D01*
X109132182Y-112151808D01*
X109214236Y-111881309D01*
X109235000Y-111670492D01*
X109235000Y-111492702D01*
X114286903Y-111492702D01*
X114358486Y-111736671D01*
X114613996Y-111857571D01*
X114888184Y-111926300D01*
X115170512Y-111940217D01*
X115450130Y-111898787D01*
X115716292Y-111803603D01*
X115841514Y-111736671D01*
X115913097Y-111492702D01*
X115100000Y-110679605D01*
X114286903Y-111492702D01*
X109235000Y-111492702D01*
X109235000Y-110570512D01*
X113659783Y-110570512D01*
X113701213Y-110850130D01*
X113796397Y-111116292D01*
X113863329Y-111241514D01*
X114107298Y-111313097D01*
X114920395Y-110500000D01*
X115279605Y-110500000D01*
X116092702Y-111313097D01*
X116161928Y-111292785D01*
X116161928Y-111300000D01*
X116174188Y-111424482D01*
X116210498Y-111544180D01*
X116269463Y-111654494D01*
X116348815Y-111751185D01*
X116445506Y-111830537D01*
X116555820Y-111889502D01*
X116675518Y-111925812D01*
X116800000Y-111938072D01*
X118400000Y-111938072D01*
X118524482Y-111925812D01*
X118644180Y-111889502D01*
X118754494Y-111830537D01*
X118851185Y-111751185D01*
X118930537Y-111654494D01*
X118989502Y-111544180D01*
X119025812Y-111424482D01*
X119038072Y-111300000D01*
X119038072Y-109700000D01*
X119025812Y-109575518D01*
X118989502Y-109455820D01*
X118930537Y-109345506D01*
X118851185Y-109248815D01*
X118754494Y-109169463D01*
X118644180Y-109110498D01*
X118524482Y-109074188D01*
X118400000Y-109061928D01*
X116800000Y-109061928D01*
X116675518Y-109074188D01*
X116555820Y-109110498D01*
X116445506Y-109169463D01*
X116348815Y-109248815D01*
X116269463Y-109345506D01*
X116210498Y-109455820D01*
X116174188Y-109575518D01*
X116161928Y-109700000D01*
X116161928Y-109707215D01*
X116092702Y-109686903D01*
X115279605Y-110500000D01*
X114920395Y-110500000D01*
X114107298Y-109686903D01*
X113863329Y-109758486D01*
X113742429Y-110013996D01*
X113673700Y-110288184D01*
X113659783Y-110570512D01*
X109235000Y-110570512D01*
X109235000Y-110129508D01*
X109214236Y-109918691D01*
X109132182Y-109648192D01*
X109056873Y-109507298D01*
X114286903Y-109507298D01*
X115100000Y-110320395D01*
X115913097Y-109507298D01*
X115841514Y-109263329D01*
X115586004Y-109142429D01*
X115311816Y-109073700D01*
X115029488Y-109059783D01*
X114749870Y-109101213D01*
X114483708Y-109196397D01*
X114358486Y-109263329D01*
X114286903Y-109507298D01*
X109056873Y-109507298D01*
X108998932Y-109398899D01*
X108819607Y-109180392D01*
X108601100Y-109001068D01*
X108351807Y-108867818D01*
X108081308Y-108785764D01*
X107800000Y-108758057D01*
X107518691Y-108785764D01*
X107248192Y-108867818D01*
X106998899Y-109001068D01*
X106780392Y-109180393D01*
X106601068Y-109398900D01*
X106500000Y-109587984D01*
X106398932Y-109398899D01*
X106219607Y-109180392D01*
X106001100Y-109001068D01*
X105751807Y-108867818D01*
X105481308Y-108785764D01*
X105200000Y-108758057D01*
X104918691Y-108785764D01*
X104648192Y-108867818D01*
X104398899Y-109001068D01*
X104180392Y-109180393D01*
X104001068Y-109398900D01*
X103900000Y-109587984D01*
X103798932Y-109398899D01*
X103619607Y-109180392D01*
X103401100Y-109001068D01*
X103151807Y-108867818D01*
X102881308Y-108785764D01*
X102600000Y-108758057D01*
X102318691Y-108785764D01*
X102048192Y-108867818D01*
X101798899Y-109001068D01*
X101580392Y-109180393D01*
X101401068Y-109398900D01*
X101300000Y-109587984D01*
X101198932Y-109398899D01*
X101019607Y-109180392D01*
X100801100Y-109001068D01*
X100551807Y-108867818D01*
X100281308Y-108785764D01*
X100000000Y-108758057D01*
X99718691Y-108785764D01*
X99448192Y-108867818D01*
X99198899Y-109001068D01*
X98980392Y-109180393D01*
X98801068Y-109398900D01*
X98700000Y-109587984D01*
X98598932Y-109398899D01*
X98419607Y-109180392D01*
X98201100Y-109001068D01*
X97951807Y-108867818D01*
X97681308Y-108785764D01*
X97400000Y-108758057D01*
X97118691Y-108785764D01*
X96848192Y-108867818D01*
X96598899Y-109001068D01*
X96380392Y-109180393D01*
X96201068Y-109398900D01*
X96100000Y-109587984D01*
X95998932Y-109398899D01*
X95819607Y-109180392D01*
X95601100Y-109001068D01*
X95351807Y-108867818D01*
X95081308Y-108785764D01*
X94800000Y-108758057D01*
X94518691Y-108785764D01*
X94248192Y-108867818D01*
X93998899Y-109001068D01*
X93780392Y-109180393D01*
X93601068Y-109398900D01*
X93499485Y-109588947D01*
X93477166Y-109533517D01*
X93322601Y-109297161D01*
X93124895Y-109095500D01*
X92891646Y-108936285D01*
X92631818Y-108825633D01*
X92549039Y-108808096D01*
X92327000Y-108930085D01*
X92073000Y-108930085D01*
X91850961Y-108808096D01*
X91768182Y-108825633D01*
X91508354Y-108936285D01*
X91275105Y-109095500D01*
X91077399Y-109297161D01*
X90922834Y-109533517D01*
X90817350Y-109795486D01*
X90765000Y-110073000D01*
X86176363Y-110073000D01*
X86071680Y-109820273D01*
X85914637Y-109585241D01*
X85714759Y-109385363D01*
X85479727Y-109228320D01*
X85218574Y-109120147D01*
X84941335Y-109065000D01*
X84658665Y-109065000D01*
X84381426Y-109120147D01*
X84120273Y-109228320D01*
X83885241Y-109385363D01*
X83718661Y-109551943D01*
X83689502Y-109455820D01*
X83630537Y-109345506D01*
X83551185Y-109248815D01*
X83454494Y-109169463D01*
X83344180Y-109110498D01*
X83224482Y-109074188D01*
X83100000Y-109061928D01*
X81500000Y-109061928D01*
X81375518Y-109074188D01*
X81255820Y-109110498D01*
X81145506Y-109169463D01*
X81048815Y-109248815D01*
X80969463Y-109345506D01*
X80910498Y-109455820D01*
X80874188Y-109575518D01*
X80861928Y-109700000D01*
X71660000Y-109700000D01*
X71660000Y-101962408D01*
X82103000Y-101962408D01*
X82103000Y-102237592D01*
X82156686Y-102507490D01*
X82261995Y-102761727D01*
X82414880Y-102990535D01*
X82609465Y-103185120D01*
X82838273Y-103338005D01*
X83092510Y-103443314D01*
X83362408Y-103497000D01*
X83637592Y-103497000D01*
X83907490Y-103443314D01*
X84161727Y-103338005D01*
X84390535Y-103185120D01*
X84585120Y-102990535D01*
X84738005Y-102761727D01*
X84843314Y-102507490D01*
X84897000Y-102237592D01*
X84897000Y-101962408D01*
X115103000Y-101962408D01*
X115103000Y-102237592D01*
X115156686Y-102507490D01*
X115261995Y-102761727D01*
X115414880Y-102990535D01*
X115609465Y-103185120D01*
X115838273Y-103338005D01*
X116092510Y-103443314D01*
X116362408Y-103497000D01*
X116637592Y-103497000D01*
X116907490Y-103443314D01*
X117161727Y-103338005D01*
X117390535Y-103185120D01*
X117585120Y-102990535D01*
X117738005Y-102761727D01*
X117843314Y-102507490D01*
X117897000Y-102237592D01*
X117897000Y-101962408D01*
X117843314Y-101692510D01*
X117738005Y-101438273D01*
X117585120Y-101209465D01*
X117390535Y-101014880D01*
X117161727Y-100861995D01*
X116907490Y-100756686D01*
X116637592Y-100703000D01*
X116362408Y-100703000D01*
X116092510Y-100756686D01*
X115838273Y-100861995D01*
X115609465Y-101014880D01*
X115414880Y-101209465D01*
X115261995Y-101438273D01*
X115156686Y-101692510D01*
X115103000Y-101962408D01*
X84897000Y-101962408D01*
X84843314Y-101692510D01*
X84738005Y-101438273D01*
X84585120Y-101209465D01*
X84390535Y-101014880D01*
X84316731Y-100965565D01*
X84814040Y-100965565D01*
X84881020Y-101205656D01*
X85130048Y-101322756D01*
X85397135Y-101389023D01*
X85672017Y-101401910D01*
X85944133Y-101360922D01*
X86203023Y-101267636D01*
X86318980Y-101205656D01*
X86385960Y-100965565D01*
X85600000Y-100179605D01*
X84814040Y-100965565D01*
X84316731Y-100965565D01*
X84161727Y-100861995D01*
X83907490Y-100756686D01*
X83637592Y-100703000D01*
X83362408Y-100703000D01*
X83092510Y-100756686D01*
X82838273Y-100861995D01*
X82609465Y-101014880D01*
X82414880Y-101209465D01*
X82261995Y-101438273D01*
X82156686Y-101692510D01*
X82103000Y-101962408D01*
X71660000Y-101962408D01*
X71660000Y-99862408D01*
X80003000Y-99862408D01*
X80003000Y-100137592D01*
X80056686Y-100407490D01*
X80161995Y-100661727D01*
X80314880Y-100890535D01*
X80509465Y-101085120D01*
X80738273Y-101238005D01*
X80992510Y-101343314D01*
X81262408Y-101397000D01*
X81537592Y-101397000D01*
X81807490Y-101343314D01*
X82061727Y-101238005D01*
X82290535Y-101085120D01*
X82485120Y-100890535D01*
X82638005Y-100661727D01*
X82743314Y-100407490D01*
X82797000Y-100137592D01*
X82797000Y-100072017D01*
X84198090Y-100072017D01*
X84239078Y-100344133D01*
X84332364Y-100603023D01*
X84394344Y-100718980D01*
X84634435Y-100785960D01*
X85420395Y-100000000D01*
X85779605Y-100000000D01*
X86565565Y-100785960D01*
X86805656Y-100718980D01*
X86922756Y-100469952D01*
X86989023Y-100202865D01*
X87001910Y-99927983D01*
X86991469Y-99858665D01*
X94645000Y-99858665D01*
X94645000Y-100141335D01*
X94700147Y-100418574D01*
X94808320Y-100679727D01*
X94965363Y-100914759D01*
X95165241Y-101114637D01*
X95400273Y-101271680D01*
X95661426Y-101379853D01*
X95938665Y-101435000D01*
X96221335Y-101435000D01*
X96498574Y-101379853D01*
X96759727Y-101271680D01*
X96994759Y-101114637D01*
X97194637Y-100914759D01*
X97351680Y-100679727D01*
X97459853Y-100418574D01*
X97515000Y-100141335D01*
X97515000Y-99858665D01*
X102265000Y-99858665D01*
X102265000Y-100141335D01*
X102320147Y-100418574D01*
X102428320Y-100679727D01*
X102585363Y-100914759D01*
X102785241Y-101114637D01*
X103020273Y-101271680D01*
X103281426Y-101379853D01*
X103558665Y-101435000D01*
X103841335Y-101435000D01*
X104118574Y-101379853D01*
X104379727Y-101271680D01*
X104614759Y-101114637D01*
X104814637Y-100914759D01*
X104971680Y-100679727D01*
X105079853Y-100418574D01*
X105135000Y-100141335D01*
X105135000Y-99862408D01*
X113003000Y-99862408D01*
X113003000Y-100137592D01*
X113056686Y-100407490D01*
X113161995Y-100661727D01*
X113314880Y-100890535D01*
X113509465Y-101085120D01*
X113738273Y-101238005D01*
X113992510Y-101343314D01*
X114262408Y-101397000D01*
X114537592Y-101397000D01*
X114807490Y-101343314D01*
X115061727Y-101238005D01*
X115290535Y-101085120D01*
X115485120Y-100890535D01*
X115638005Y-100661727D01*
X115743314Y-100407490D01*
X115797000Y-100137592D01*
X115797000Y-99862408D01*
X117203000Y-99862408D01*
X117203000Y-100137592D01*
X117256686Y-100407490D01*
X117361995Y-100661727D01*
X117514880Y-100890535D01*
X117709465Y-101085120D01*
X117938273Y-101238005D01*
X118192510Y-101343314D01*
X118462408Y-101397000D01*
X118737592Y-101397000D01*
X119007490Y-101343314D01*
X119261727Y-101238005D01*
X119490535Y-101085120D01*
X119685120Y-100890535D01*
X119838005Y-100661727D01*
X119943314Y-100407490D01*
X119997000Y-100137592D01*
X119997000Y-99862408D01*
X119943314Y-99592510D01*
X119838005Y-99338273D01*
X119685120Y-99109465D01*
X119490535Y-98914880D01*
X119261727Y-98761995D01*
X119007490Y-98656686D01*
X118737592Y-98603000D01*
X118462408Y-98603000D01*
X118192510Y-98656686D01*
X117938273Y-98761995D01*
X117709465Y-98914880D01*
X117514880Y-99109465D01*
X117361995Y-99338273D01*
X117256686Y-99592510D01*
X117203000Y-99862408D01*
X115797000Y-99862408D01*
X115743314Y-99592510D01*
X115638005Y-99338273D01*
X115485120Y-99109465D01*
X115290535Y-98914880D01*
X115061727Y-98761995D01*
X114807490Y-98656686D01*
X114537592Y-98603000D01*
X114262408Y-98603000D01*
X113992510Y-98656686D01*
X113738273Y-98761995D01*
X113509465Y-98914880D01*
X113314880Y-99109465D01*
X113161995Y-99338273D01*
X113056686Y-99592510D01*
X113003000Y-99862408D01*
X105135000Y-99862408D01*
X105135000Y-99858665D01*
X105079853Y-99581426D01*
X104971680Y-99320273D01*
X104814637Y-99085241D01*
X104614759Y-98885363D01*
X104379727Y-98728320D01*
X104118574Y-98620147D01*
X103841335Y-98565000D01*
X103558665Y-98565000D01*
X103281426Y-98620147D01*
X103020273Y-98728320D01*
X102785241Y-98885363D01*
X102585363Y-99085241D01*
X102428320Y-99320273D01*
X102320147Y-99581426D01*
X102265000Y-99858665D01*
X97515000Y-99858665D01*
X97459853Y-99581426D01*
X97351680Y-99320273D01*
X97194637Y-99085241D01*
X96994759Y-98885363D01*
X96759727Y-98728320D01*
X96498574Y-98620147D01*
X96221335Y-98565000D01*
X95938665Y-98565000D01*
X95661426Y-98620147D01*
X95400273Y-98728320D01*
X95165241Y-98885363D01*
X94965363Y-99085241D01*
X94808320Y-99320273D01*
X94700147Y-99581426D01*
X94645000Y-99858665D01*
X86991469Y-99858665D01*
X86960922Y-99655867D01*
X86867636Y-99396977D01*
X86805656Y-99281020D01*
X86565565Y-99214040D01*
X85779605Y-100000000D01*
X85420395Y-100000000D01*
X84634435Y-99214040D01*
X84394344Y-99281020D01*
X84277244Y-99530048D01*
X84210977Y-99797135D01*
X84198090Y-100072017D01*
X82797000Y-100072017D01*
X82797000Y-99862408D01*
X82743314Y-99592510D01*
X82638005Y-99338273D01*
X82485120Y-99109465D01*
X82410090Y-99034435D01*
X84814040Y-99034435D01*
X85600000Y-99820395D01*
X86385960Y-99034435D01*
X86318980Y-98794344D01*
X86069952Y-98677244D01*
X85802865Y-98610977D01*
X85527983Y-98598090D01*
X85255867Y-98639078D01*
X84996977Y-98732364D01*
X84881020Y-98794344D01*
X84814040Y-99034435D01*
X82410090Y-99034435D01*
X82290535Y-98914880D01*
X82061727Y-98761995D01*
X81807490Y-98656686D01*
X81537592Y-98603000D01*
X81262408Y-98603000D01*
X80992510Y-98656686D01*
X80738273Y-98761995D01*
X80509465Y-98914880D01*
X80314880Y-99109465D01*
X80161995Y-99338273D01*
X80056686Y-99592510D01*
X80003000Y-99862408D01*
X71660000Y-99862408D01*
X71660000Y-94358665D01*
X95965000Y-94358665D01*
X95965000Y-94641335D01*
X96020147Y-94918574D01*
X96128320Y-95179727D01*
X96285363Y-95414759D01*
X96485241Y-95614637D01*
X96720273Y-95771680D01*
X96981426Y-95879853D01*
X97258665Y-95935000D01*
X97541335Y-95935000D01*
X97818574Y-95879853D01*
X98079727Y-95771680D01*
X98314759Y-95614637D01*
X98514637Y-95414759D01*
X98671680Y-95179727D01*
X98779853Y-94918574D01*
X98835000Y-94641335D01*
X98835000Y-94358665D01*
X100965000Y-94358665D01*
X100965000Y-94641335D01*
X101020147Y-94918574D01*
X101128320Y-95179727D01*
X101285363Y-95414759D01*
X101485241Y-95614637D01*
X101720273Y-95771680D01*
X101981426Y-95879853D01*
X102258665Y-95935000D01*
X102541335Y-95935000D01*
X102818574Y-95879853D01*
X103079727Y-95771680D01*
X103314759Y-95614637D01*
X103514637Y-95414759D01*
X103671680Y-95179727D01*
X103779853Y-94918574D01*
X103835000Y-94641335D01*
X103835000Y-94358665D01*
X103779853Y-94081426D01*
X103671680Y-93820273D01*
X103514637Y-93585241D01*
X103314759Y-93385363D01*
X103079727Y-93228320D01*
X102818574Y-93120147D01*
X102541335Y-93065000D01*
X102258665Y-93065000D01*
X101981426Y-93120147D01*
X101720273Y-93228320D01*
X101485241Y-93385363D01*
X101285363Y-93585241D01*
X101128320Y-93820273D01*
X101020147Y-94081426D01*
X100965000Y-94358665D01*
X98835000Y-94358665D01*
X98779853Y-94081426D01*
X98671680Y-93820273D01*
X98514637Y-93585241D01*
X98314759Y-93385363D01*
X98079727Y-93228320D01*
X97818574Y-93120147D01*
X97541335Y-93065000D01*
X97258665Y-93065000D01*
X96981426Y-93120147D01*
X96720273Y-93228320D01*
X96485241Y-93385363D01*
X96285363Y-93585241D01*
X96128320Y-93820273D01*
X96020147Y-94081426D01*
X95965000Y-94358665D01*
X71660000Y-94358665D01*
X71660000Y-87934800D01*
X79356728Y-87934800D01*
X79356728Y-89865200D01*
X79368988Y-89989682D01*
X79405298Y-90109380D01*
X79464263Y-90219694D01*
X79543615Y-90316385D01*
X79640306Y-90395737D01*
X79750620Y-90454702D01*
X79870318Y-90491012D01*
X79994800Y-90503272D01*
X81925200Y-90503272D01*
X82049682Y-90491012D01*
X82169380Y-90454702D01*
X82279694Y-90395737D01*
X82376385Y-90316385D01*
X82455737Y-90219694D01*
X82492327Y-90151239D01*
X82742021Y-90318079D01*
X83033239Y-90438706D01*
X83342394Y-90500200D01*
X83657606Y-90500200D01*
X83966761Y-90438706D01*
X84257979Y-90318079D01*
X84520068Y-90142957D01*
X84742957Y-89920068D01*
X84770000Y-89879595D01*
X84797043Y-89920068D01*
X85019932Y-90142957D01*
X85282021Y-90318079D01*
X85573239Y-90438706D01*
X85882394Y-90500200D01*
X86197606Y-90500200D01*
X86506761Y-90438706D01*
X86797979Y-90318079D01*
X87060068Y-90142957D01*
X87282957Y-89920068D01*
X87458079Y-89657979D01*
X87578706Y-89366761D01*
X87640200Y-89057606D01*
X87640200Y-88758665D01*
X94645000Y-88758665D01*
X94645000Y-89041335D01*
X94700147Y-89318574D01*
X94808320Y-89579727D01*
X94965363Y-89814759D01*
X95165241Y-90014637D01*
X95400273Y-90171680D01*
X95661426Y-90279853D01*
X95938665Y-90335000D01*
X96221335Y-90335000D01*
X96498574Y-90279853D01*
X96759727Y-90171680D01*
X96994759Y-90014637D01*
X97194637Y-89814759D01*
X97351680Y-89579727D01*
X97459853Y-89318574D01*
X97515000Y-89041335D01*
X97515000Y-88758665D01*
X102265000Y-88758665D01*
X102265000Y-89041335D01*
X102320147Y-89318574D01*
X102428320Y-89579727D01*
X102585363Y-89814759D01*
X102785241Y-90014637D01*
X103020273Y-90171680D01*
X103281426Y-90279853D01*
X103558665Y-90335000D01*
X103841335Y-90335000D01*
X104118574Y-90279853D01*
X104379727Y-90171680D01*
X104614759Y-90014637D01*
X104814637Y-89814759D01*
X104971680Y-89579727D01*
X105079853Y-89318574D01*
X105135000Y-89041335D01*
X105135000Y-88758665D01*
X105079853Y-88481426D01*
X104971680Y-88220273D01*
X104814637Y-87985241D01*
X104764196Y-87934800D01*
X112356728Y-87934800D01*
X112356728Y-89865200D01*
X112368988Y-89989682D01*
X112405298Y-90109380D01*
X112464263Y-90219694D01*
X112543615Y-90316385D01*
X112640306Y-90395737D01*
X112750620Y-90454702D01*
X112870318Y-90491012D01*
X112994800Y-90503272D01*
X114925200Y-90503272D01*
X115049682Y-90491012D01*
X115169380Y-90454702D01*
X115279694Y-90395737D01*
X115376385Y-90316385D01*
X115455737Y-90219694D01*
X115492327Y-90151239D01*
X115742021Y-90318079D01*
X116033239Y-90438706D01*
X116342394Y-90500200D01*
X116657606Y-90500200D01*
X116966761Y-90438706D01*
X117257979Y-90318079D01*
X117520068Y-90142957D01*
X117742957Y-89920068D01*
X117770000Y-89879595D01*
X117797043Y-89920068D01*
X118019932Y-90142957D01*
X118282021Y-90318079D01*
X118573239Y-90438706D01*
X118882394Y-90500200D01*
X119197606Y-90500200D01*
X119506761Y-90438706D01*
X119797979Y-90318079D01*
X120060068Y-90142957D01*
X120282957Y-89920068D01*
X120458079Y-89657979D01*
X120578706Y-89366761D01*
X120640200Y-89057606D01*
X120640200Y-88742394D01*
X120578706Y-88433239D01*
X120458079Y-88142021D01*
X120282957Y-87879932D01*
X120060068Y-87657043D01*
X119797979Y-87481921D01*
X119506761Y-87361294D01*
X119197606Y-87299800D01*
X118882394Y-87299800D01*
X118573239Y-87361294D01*
X118282021Y-87481921D01*
X118019932Y-87657043D01*
X117797043Y-87879932D01*
X117770000Y-87920405D01*
X117742957Y-87879932D01*
X117520068Y-87657043D01*
X117257979Y-87481921D01*
X116966761Y-87361294D01*
X116657606Y-87299800D01*
X116342394Y-87299800D01*
X116033239Y-87361294D01*
X115742021Y-87481921D01*
X115492327Y-87648761D01*
X115455737Y-87580306D01*
X115376385Y-87483615D01*
X115279694Y-87404263D01*
X115169380Y-87345298D01*
X115049682Y-87308988D01*
X114925200Y-87296728D01*
X112994800Y-87296728D01*
X112870318Y-87308988D01*
X112750620Y-87345298D01*
X112640306Y-87404263D01*
X112543615Y-87483615D01*
X112464263Y-87580306D01*
X112405298Y-87690620D01*
X112368988Y-87810318D01*
X112356728Y-87934800D01*
X104764196Y-87934800D01*
X104614759Y-87785363D01*
X104379727Y-87628320D01*
X104118574Y-87520147D01*
X103841335Y-87465000D01*
X103558665Y-87465000D01*
X103281426Y-87520147D01*
X103020273Y-87628320D01*
X102785241Y-87785363D01*
X102585363Y-87985241D01*
X102428320Y-88220273D01*
X102320147Y-88481426D01*
X102265000Y-88758665D01*
X97515000Y-88758665D01*
X97459853Y-88481426D01*
X97351680Y-88220273D01*
X97194637Y-87985241D01*
X96994759Y-87785363D01*
X96759727Y-87628320D01*
X96498574Y-87520147D01*
X96221335Y-87465000D01*
X95938665Y-87465000D01*
X95661426Y-87520147D01*
X95400273Y-87628320D01*
X95165241Y-87785363D01*
X94965363Y-87985241D01*
X94808320Y-88220273D01*
X94700147Y-88481426D01*
X94645000Y-88758665D01*
X87640200Y-88758665D01*
X87640200Y-88742394D01*
X87578706Y-88433239D01*
X87458079Y-88142021D01*
X87282957Y-87879932D01*
X87060068Y-87657043D01*
X86797979Y-87481921D01*
X86506761Y-87361294D01*
X86197606Y-87299800D01*
X85882394Y-87299800D01*
X85573239Y-87361294D01*
X85282021Y-87481921D01*
X85019932Y-87657043D01*
X84797043Y-87879932D01*
X84770000Y-87920405D01*
X84742957Y-87879932D01*
X84520068Y-87657043D01*
X84257979Y-87481921D01*
X83966761Y-87361294D01*
X83657606Y-87299800D01*
X83342394Y-87299800D01*
X83033239Y-87361294D01*
X82742021Y-87481921D01*
X82492327Y-87648761D01*
X82455737Y-87580306D01*
X82376385Y-87483615D01*
X82279694Y-87404263D01*
X82169380Y-87345298D01*
X82049682Y-87308988D01*
X81925200Y-87296728D01*
X79994800Y-87296728D01*
X79870318Y-87308988D01*
X79750620Y-87345298D01*
X79640306Y-87404263D01*
X79543615Y-87483615D01*
X79464263Y-87580306D01*
X79405298Y-87690620D01*
X79368988Y-87810318D01*
X79356728Y-87934800D01*
X71660000Y-87934800D01*
X71660000Y-82892702D01*
X97886903Y-82892702D01*
X97958486Y-83136671D01*
X98213996Y-83257571D01*
X98488184Y-83326300D01*
X98770512Y-83340217D01*
X99050130Y-83298787D01*
X99316292Y-83203603D01*
X99441514Y-83136671D01*
X99513097Y-82892702D01*
X98700000Y-82079605D01*
X97886903Y-82892702D01*
X71660000Y-82892702D01*
X71660000Y-81970512D01*
X97259783Y-81970512D01*
X97301213Y-82250130D01*
X97396397Y-82516292D01*
X97463329Y-82641514D01*
X97707298Y-82713097D01*
X98520395Y-81900000D01*
X98879605Y-81900000D01*
X99692702Y-82713097D01*
X99761928Y-82692785D01*
X99761928Y-82700000D01*
X99774188Y-82824482D01*
X99810498Y-82944180D01*
X99869463Y-83054494D01*
X99948815Y-83151185D01*
X100045506Y-83230537D01*
X100155820Y-83289502D01*
X100275518Y-83325812D01*
X100400000Y-83338072D01*
X102000000Y-83338072D01*
X102124482Y-83325812D01*
X102244180Y-83289502D01*
X102354494Y-83230537D01*
X102451185Y-83151185D01*
X102530537Y-83054494D01*
X102589502Y-82944180D01*
X102625812Y-82824482D01*
X102638072Y-82700000D01*
X102638072Y-81100000D01*
X102625812Y-80975518D01*
X102589502Y-80855820D01*
X102530537Y-80745506D01*
X102451185Y-80648815D01*
X102354494Y-80569463D01*
X102244180Y-80510498D01*
X102124482Y-80474188D01*
X102000000Y-80461928D01*
X100400000Y-80461928D01*
X100275518Y-80474188D01*
X100155820Y-80510498D01*
X100045506Y-80569463D01*
X99948815Y-80648815D01*
X99869463Y-80745506D01*
X99810498Y-80855820D01*
X99774188Y-80975518D01*
X99761928Y-81100000D01*
X99761928Y-81107215D01*
X99692702Y-81086903D01*
X98879605Y-81900000D01*
X98520395Y-81900000D01*
X97707298Y-81086903D01*
X97463329Y-81158486D01*
X97342429Y-81413996D01*
X97273700Y-81688184D01*
X97259783Y-81970512D01*
X71660000Y-81970512D01*
X71660000Y-80907298D01*
X97886903Y-80907298D01*
X98700000Y-81720395D01*
X99513097Y-80907298D01*
X99441514Y-80663329D01*
X99186004Y-80542429D01*
X98911816Y-80473700D01*
X98629488Y-80459783D01*
X98349870Y-80501213D01*
X98083708Y-80596397D01*
X97958486Y-80663329D01*
X97886903Y-80907298D01*
X71660000Y-80907298D01*
X71660000Y-79972909D01*
X71780393Y-80119608D01*
X71998900Y-80298932D01*
X72248193Y-80432182D01*
X72518692Y-80514236D01*
X72800000Y-80541943D01*
X73081309Y-80514236D01*
X73351808Y-80432182D01*
X73601101Y-80298932D01*
X73819608Y-80119608D01*
X73998932Y-79901101D01*
X74100515Y-79711053D01*
X74122834Y-79766483D01*
X74277399Y-80002839D01*
X74475105Y-80204500D01*
X74708354Y-80363715D01*
X74968182Y-80474367D01*
X75050961Y-80491904D01*
X75273000Y-80369915D01*
X75273000Y-78527000D01*
X75253000Y-78527000D01*
X75253000Y-78273000D01*
X75273000Y-78273000D01*
X75273000Y-76430085D01*
X75527000Y-76430085D01*
X75527000Y-78273000D01*
X75547000Y-78273000D01*
X75547000Y-78527000D01*
X75527000Y-78527000D01*
X75527000Y-80369915D01*
X75749039Y-80491904D01*
X75831818Y-80474367D01*
X76091646Y-80363715D01*
X76324895Y-80204500D01*
X76522601Y-80002839D01*
X76677166Y-79766483D01*
X76782650Y-79504514D01*
X76801196Y-79406198D01*
X76940290Y-79614366D01*
X77205634Y-79879710D01*
X77517644Y-80088189D01*
X77864332Y-80231791D01*
X78232374Y-80305000D01*
X78607626Y-80305000D01*
X78975668Y-80231791D01*
X79322356Y-80088189D01*
X79634366Y-79879710D01*
X79899710Y-79614366D01*
X80108189Y-79302356D01*
X80251791Y-78955668D01*
X80325000Y-78587626D01*
X80325000Y-78212374D01*
X81595000Y-78212374D01*
X81595000Y-78587626D01*
X81668209Y-78955668D01*
X81811811Y-79302356D01*
X82020290Y-79614366D01*
X82285634Y-79879710D01*
X82597644Y-80088189D01*
X82944332Y-80231791D01*
X83312374Y-80305000D01*
X83687626Y-80305000D01*
X84055668Y-80231791D01*
X84402356Y-80088189D01*
X84714366Y-79879710D01*
X84924076Y-79670000D01*
X86671928Y-79670000D01*
X86684188Y-79794482D01*
X86720498Y-79914180D01*
X86779463Y-80024494D01*
X86858815Y-80121185D01*
X86955506Y-80200537D01*
X87065820Y-80259502D01*
X87185518Y-80295812D01*
X87310000Y-80308072D01*
X88294250Y-80305000D01*
X88453000Y-80146250D01*
X88453000Y-78527000D01*
X88707000Y-78527000D01*
X88707000Y-80146250D01*
X88865750Y-80305000D01*
X89850000Y-80308072D01*
X89974482Y-80295812D01*
X90094180Y-80259502D01*
X90204494Y-80200537D01*
X90301185Y-80121185D01*
X90380537Y-80024494D01*
X90439502Y-79914180D01*
X90475812Y-79794482D01*
X90488072Y-79670000D01*
X90485000Y-78685750D01*
X90326250Y-78527000D01*
X91865000Y-78527000D01*
X91865000Y-79227000D01*
X91917350Y-79504514D01*
X92022834Y-79766483D01*
X92177399Y-80002839D01*
X92375105Y-80204500D01*
X92608354Y-80363715D01*
X92868182Y-80474367D01*
X92950961Y-80491904D01*
X93173000Y-80369915D01*
X93173000Y-78527000D01*
X91865000Y-78527000D01*
X90326250Y-78527000D01*
X88707000Y-78527000D01*
X88453000Y-78527000D01*
X86833750Y-78527000D01*
X86675000Y-78685750D01*
X86671928Y-79670000D01*
X84924076Y-79670000D01*
X84979710Y-79614366D01*
X85188189Y-79302356D01*
X85331791Y-78955668D01*
X85405000Y-78587626D01*
X85405000Y-78212374D01*
X85331791Y-77844332D01*
X85188189Y-77497644D01*
X84979710Y-77185634D01*
X84924076Y-77130000D01*
X86671928Y-77130000D01*
X86675000Y-78114250D01*
X86833750Y-78273000D01*
X88453000Y-78273000D01*
X88453000Y-76653750D01*
X88707000Y-76653750D01*
X88707000Y-78273000D01*
X90326250Y-78273000D01*
X90485000Y-78114250D01*
X90486689Y-77573000D01*
X91865000Y-77573000D01*
X91865000Y-78273000D01*
X93173000Y-78273000D01*
X93173000Y-76430085D01*
X93427000Y-76430085D01*
X93427000Y-78273000D01*
X93447000Y-78273000D01*
X93447000Y-78527000D01*
X93427000Y-78527000D01*
X93427000Y-80369915D01*
X93649039Y-80491904D01*
X93731818Y-80474367D01*
X93991646Y-80363715D01*
X94224895Y-80204500D01*
X94422601Y-80002839D01*
X94550725Y-79806915D01*
X94601069Y-79901101D01*
X94780393Y-80119608D01*
X94998900Y-80298932D01*
X95248193Y-80432182D01*
X95518692Y-80514236D01*
X95800000Y-80541943D01*
X96081309Y-80514236D01*
X96351808Y-80432182D01*
X96601101Y-80298932D01*
X96819608Y-80119608D01*
X96998932Y-79901101D01*
X97132182Y-79651808D01*
X97214236Y-79381309D01*
X97235000Y-79170492D01*
X97235000Y-78527000D01*
X102665000Y-78527000D01*
X102665000Y-79227000D01*
X102717350Y-79504514D01*
X102822834Y-79766483D01*
X102977399Y-80002839D01*
X103175105Y-80204500D01*
X103408354Y-80363715D01*
X103668182Y-80474367D01*
X103750961Y-80491904D01*
X103973000Y-80369915D01*
X103973000Y-78527000D01*
X102665000Y-78527000D01*
X97235000Y-78527000D01*
X97235000Y-77629508D01*
X97229435Y-77573000D01*
X102665000Y-77573000D01*
X102665000Y-78273000D01*
X103973000Y-78273000D01*
X103973000Y-76430085D01*
X104227000Y-76430085D01*
X104227000Y-78273000D01*
X104247000Y-78273000D01*
X104247000Y-78527000D01*
X104227000Y-78527000D01*
X104227000Y-80369915D01*
X104449039Y-80491904D01*
X104531818Y-80474367D01*
X104791646Y-80363715D01*
X105024895Y-80204500D01*
X105222601Y-80002839D01*
X105377166Y-79766483D01*
X105399486Y-79711052D01*
X105501069Y-79901101D01*
X105680393Y-80119608D01*
X105898900Y-80298932D01*
X106148193Y-80432182D01*
X106418692Y-80514236D01*
X106700000Y-80541943D01*
X106981309Y-80514236D01*
X107251808Y-80432182D01*
X107501101Y-80298932D01*
X107719608Y-80119608D01*
X107898932Y-79901101D01*
X108032182Y-79651808D01*
X108114236Y-79381309D01*
X108135000Y-79170492D01*
X108135000Y-78212374D01*
X109515000Y-78212374D01*
X109515000Y-78587626D01*
X109588209Y-78955668D01*
X109731811Y-79302356D01*
X109940290Y-79614366D01*
X110205634Y-79879710D01*
X110517644Y-80088189D01*
X110864332Y-80231791D01*
X111232374Y-80305000D01*
X111607626Y-80305000D01*
X111975668Y-80231791D01*
X112322356Y-80088189D01*
X112634366Y-79879710D01*
X112899710Y-79614366D01*
X113108189Y-79302356D01*
X113251791Y-78955668D01*
X113325000Y-78587626D01*
X113325000Y-78212374D01*
X114595000Y-78212374D01*
X114595000Y-78587626D01*
X114668209Y-78955668D01*
X114811811Y-79302356D01*
X115020290Y-79614366D01*
X115285634Y-79879710D01*
X115597644Y-80088189D01*
X115944332Y-80231791D01*
X116312374Y-80305000D01*
X116687626Y-80305000D01*
X117055668Y-80231791D01*
X117402356Y-80088189D01*
X117714366Y-79879710D01*
X117924076Y-79670000D01*
X119671928Y-79670000D01*
X119684188Y-79794482D01*
X119720498Y-79914180D01*
X119779463Y-80024494D01*
X119858815Y-80121185D01*
X119955506Y-80200537D01*
X120065820Y-80259502D01*
X120185518Y-80295812D01*
X120310000Y-80308072D01*
X121294250Y-80305000D01*
X121453000Y-80146250D01*
X121453000Y-78527000D01*
X121707000Y-78527000D01*
X121707000Y-80146250D01*
X121865750Y-80305000D01*
X122850000Y-80308072D01*
X122974482Y-80295812D01*
X123094180Y-80259502D01*
X123204494Y-80200537D01*
X123301185Y-80121185D01*
X123380537Y-80024494D01*
X123430470Y-79931077D01*
X123477399Y-80002839D01*
X123675105Y-80204500D01*
X123908354Y-80363715D01*
X124168182Y-80474367D01*
X124250961Y-80491904D01*
X124473000Y-80369915D01*
X124473000Y-78527000D01*
X121707000Y-78527000D01*
X121453000Y-78527000D01*
X119833750Y-78527000D01*
X119675000Y-78685750D01*
X119671928Y-79670000D01*
X117924076Y-79670000D01*
X117979710Y-79614366D01*
X118188189Y-79302356D01*
X118331791Y-78955668D01*
X118405000Y-78587626D01*
X118405000Y-78212374D01*
X118331791Y-77844332D01*
X118188189Y-77497644D01*
X117979710Y-77185634D01*
X117924076Y-77130000D01*
X119671928Y-77130000D01*
X119675000Y-78114250D01*
X119833750Y-78273000D01*
X121453000Y-78273000D01*
X121453000Y-76653750D01*
X121707000Y-76653750D01*
X121707000Y-78273000D01*
X124473000Y-78273000D01*
X124473000Y-76430085D01*
X124250961Y-76308096D01*
X124168182Y-76325633D01*
X123908354Y-76436285D01*
X123675105Y-76595500D01*
X123477399Y-76797161D01*
X123430470Y-76868923D01*
X123380537Y-76775506D01*
X123301185Y-76678815D01*
X123204494Y-76599463D01*
X123094180Y-76540498D01*
X122974482Y-76504188D01*
X122850000Y-76491928D01*
X121865750Y-76495000D01*
X121707000Y-76653750D01*
X121453000Y-76653750D01*
X121294250Y-76495000D01*
X120310000Y-76491928D01*
X120185518Y-76504188D01*
X120065820Y-76540498D01*
X119955506Y-76599463D01*
X119858815Y-76678815D01*
X119779463Y-76775506D01*
X119720498Y-76885820D01*
X119684188Y-77005518D01*
X119671928Y-77130000D01*
X117924076Y-77130000D01*
X117714366Y-76920290D01*
X117402356Y-76711811D01*
X117055668Y-76568209D01*
X116687626Y-76495000D01*
X116312374Y-76495000D01*
X115944332Y-76568209D01*
X115597644Y-76711811D01*
X115285634Y-76920290D01*
X115020290Y-77185634D01*
X114811811Y-77497644D01*
X114668209Y-77844332D01*
X114595000Y-78212374D01*
X113325000Y-78212374D01*
X113251791Y-77844332D01*
X113108189Y-77497644D01*
X112899710Y-77185634D01*
X112634366Y-76920290D01*
X112322356Y-76711811D01*
X111975668Y-76568209D01*
X111607626Y-76495000D01*
X111232374Y-76495000D01*
X110864332Y-76568209D01*
X110517644Y-76711811D01*
X110205634Y-76920290D01*
X109940290Y-77185634D01*
X109731811Y-77497644D01*
X109588209Y-77844332D01*
X109515000Y-78212374D01*
X108135000Y-78212374D01*
X108135000Y-77629508D01*
X108114236Y-77418691D01*
X108032182Y-77148192D01*
X107898932Y-76898899D01*
X107719607Y-76680392D01*
X107501100Y-76501068D01*
X107251807Y-76367818D01*
X106981308Y-76285764D01*
X106700000Y-76258057D01*
X106418691Y-76285764D01*
X106148192Y-76367818D01*
X105898899Y-76501068D01*
X105680392Y-76680393D01*
X105501068Y-76898900D01*
X105399485Y-77088947D01*
X105377166Y-77033517D01*
X105222601Y-76797161D01*
X105024895Y-76595500D01*
X104791646Y-76436285D01*
X104531818Y-76325633D01*
X104449039Y-76308096D01*
X104227000Y-76430085D01*
X103973000Y-76430085D01*
X103750961Y-76308096D01*
X103668182Y-76325633D01*
X103408354Y-76436285D01*
X103175105Y-76595500D01*
X102977399Y-76797161D01*
X102822834Y-77033517D01*
X102717350Y-77295486D01*
X102665000Y-77573000D01*
X97229435Y-77573000D01*
X97214236Y-77418691D01*
X97132182Y-77148192D01*
X96998932Y-76898899D01*
X96819607Y-76680392D01*
X96601100Y-76501068D01*
X96351807Y-76367818D01*
X96081308Y-76285764D01*
X95800000Y-76258057D01*
X95518691Y-76285764D01*
X95248192Y-76367818D01*
X94998899Y-76501068D01*
X94780392Y-76680393D01*
X94601068Y-76898900D01*
X94550725Y-76993085D01*
X94422601Y-76797161D01*
X94224895Y-76595500D01*
X93991646Y-76436285D01*
X93731818Y-76325633D01*
X93649039Y-76308096D01*
X93427000Y-76430085D01*
X93173000Y-76430085D01*
X92950961Y-76308096D01*
X92868182Y-76325633D01*
X92608354Y-76436285D01*
X92375105Y-76595500D01*
X92177399Y-76797161D01*
X92022834Y-77033517D01*
X91917350Y-77295486D01*
X91865000Y-77573000D01*
X90486689Y-77573000D01*
X90488072Y-77130000D01*
X90475812Y-77005518D01*
X90439502Y-76885820D01*
X90380537Y-76775506D01*
X90301185Y-76678815D01*
X90204494Y-76599463D01*
X90094180Y-76540498D01*
X89974482Y-76504188D01*
X89850000Y-76491928D01*
X88865750Y-76495000D01*
X88707000Y-76653750D01*
X88453000Y-76653750D01*
X88294250Y-76495000D01*
X87310000Y-76491928D01*
X87185518Y-76504188D01*
X87065820Y-76540498D01*
X86955506Y-76599463D01*
X86858815Y-76678815D01*
X86779463Y-76775506D01*
X86720498Y-76885820D01*
X86684188Y-77005518D01*
X86671928Y-77130000D01*
X84924076Y-77130000D01*
X84714366Y-76920290D01*
X84402356Y-76711811D01*
X84055668Y-76568209D01*
X83687626Y-76495000D01*
X83312374Y-76495000D01*
X82944332Y-76568209D01*
X82597644Y-76711811D01*
X82285634Y-76920290D01*
X82020290Y-77185634D01*
X81811811Y-77497644D01*
X81668209Y-77844332D01*
X81595000Y-78212374D01*
X80325000Y-78212374D01*
X80251791Y-77844332D01*
X80108189Y-77497644D01*
X79899710Y-77185634D01*
X79634366Y-76920290D01*
X79322356Y-76711811D01*
X78975668Y-76568209D01*
X78607626Y-76495000D01*
X78232374Y-76495000D01*
X77864332Y-76568209D01*
X77517644Y-76711811D01*
X77205634Y-76920290D01*
X76940290Y-77185634D01*
X76801196Y-77393802D01*
X76782650Y-77295486D01*
X76677166Y-77033517D01*
X76522601Y-76797161D01*
X76324895Y-76595500D01*
X76091646Y-76436285D01*
X75831818Y-76325633D01*
X75749039Y-76308096D01*
X75527000Y-76430085D01*
X75273000Y-76430085D01*
X75050961Y-76308096D01*
X74968182Y-76325633D01*
X74708354Y-76436285D01*
X74475105Y-76595500D01*
X74277399Y-76797161D01*
X74122834Y-77033517D01*
X74100515Y-77088947D01*
X73998932Y-76898899D01*
X73819607Y-76680392D01*
X73601100Y-76501068D01*
X73351807Y-76367818D01*
X73081308Y-76285764D01*
X72800000Y-76258057D01*
X72518691Y-76285764D01*
X72248192Y-76367818D01*
X71998899Y-76501068D01*
X71780392Y-76680393D01*
X71660000Y-76827091D01*
X71660000Y-74660000D01*
X128340001Y-74660000D01*
X128340001Y-76827092D01*
M02*
