G04 #@! TF.GenerationSoftware,KiCad,Pcbnew,(5.1.5-0-10_14)*
G04 #@! TF.CreationDate,2021-12-30T16:01:06+01:00*
G04 #@! TF.ProjectId,npnium,6e706e69-756d-42e6-9b69-6361645f7063,rev?*
G04 #@! TF.SameCoordinates,Original*
G04 #@! TF.FileFunction,Legend,Top*
G04 #@! TF.FilePolarity,Positive*
%FSLAX46Y46*%
G04 Gerber Fmt 4.6, Leading zero omitted, Abs format (unit mm)*
G04 Created by KiCad (PCBNEW (5.1.5-0-10_14)) date 2021-12-30 16:01:06*
%MOMM*%
%LPD*%
G04 APERTURE LIST*
%ADD10C,0.325000*%
%ADD11C,0.120000*%
%ADD12C,0.100000*%
%ADD13C,0.127000*%
%ADD14C,0.150000*%
%ADD15C,0.500000*%
%ADD16C,0.065024*%
%ADD17C,0.110000*%
%ADD18C,0.097536*%
%ADD19C,1.626000*%
%ADD20C,1.702000*%
%ADD21R,1.702000X1.702000*%
%ADD22O,2.032400X2.032400*%
%ADD23R,2.032400X2.032400*%
%ADD24O,1.702000X1.702000*%
%ADD25O,1.702000X3.102000*%
%ADD26O,2.642000X2.642000*%
%ADD27R,2.642000X2.642000*%
G04 APERTURE END LIST*
D10*
X72011904Y-114641130D02*
X71950000Y-114579226D01*
X71888095Y-114455416D01*
X71888095Y-114145892D01*
X71950000Y-114022083D01*
X72011904Y-113960178D01*
X72135714Y-113898273D01*
X72259523Y-113898273D01*
X72445238Y-113960178D01*
X73188095Y-114703035D01*
X73188095Y-113898273D01*
X73188095Y-112288750D02*
X73188095Y-112350654D01*
X73126190Y-112474464D01*
X72940476Y-112660178D01*
X72569047Y-112969702D01*
X72383333Y-113093511D01*
X72197619Y-113155416D01*
X72073809Y-113155416D01*
X71950000Y-113093511D01*
X71888095Y-112969702D01*
X71888095Y-112907797D01*
X71950000Y-112783988D01*
X72073809Y-112722083D01*
X72135714Y-112722083D01*
X72259523Y-112783988D01*
X72321428Y-112845892D01*
X72569047Y-113217321D01*
X72630952Y-113279226D01*
X72754761Y-113341130D01*
X72940476Y-113341130D01*
X73064285Y-113279226D01*
X73126190Y-113217321D01*
X73188095Y-113093511D01*
X73188095Y-112907797D01*
X73126190Y-112783988D01*
X73064285Y-112722083D01*
X72816666Y-112536369D01*
X72630952Y-112474464D01*
X72507142Y-112474464D01*
X125450595Y-114679226D02*
X124150595Y-114679226D01*
X124150595Y-114183988D01*
X124212500Y-114060178D01*
X124274404Y-113998273D01*
X124398214Y-113936369D01*
X124583928Y-113936369D01*
X124707738Y-113998273D01*
X124769642Y-114060178D01*
X124831547Y-114183988D01*
X124831547Y-114679226D01*
X125388690Y-112883988D02*
X125450595Y-113007797D01*
X125450595Y-113255416D01*
X125388690Y-113379226D01*
X125264880Y-113441130D01*
X124769642Y-113441130D01*
X124645833Y-113379226D01*
X124583928Y-113255416D01*
X124583928Y-113007797D01*
X124645833Y-112883988D01*
X124769642Y-112822083D01*
X124893452Y-112822083D01*
X125017261Y-113441130D01*
X125450595Y-111707797D02*
X124150595Y-111707797D01*
X125388690Y-111707797D02*
X125450595Y-111831607D01*
X125450595Y-112079226D01*
X125388690Y-112203035D01*
X125326785Y-112264940D01*
X125202976Y-112326845D01*
X124831547Y-112326845D01*
X124707738Y-112264940D01*
X124645833Y-112203035D01*
X124583928Y-112079226D01*
X124583928Y-111831607D01*
X124645833Y-111707797D01*
X125450595Y-110531607D02*
X124769642Y-110531607D01*
X124645833Y-110593511D01*
X124583928Y-110717321D01*
X124583928Y-110964940D01*
X124645833Y-111088750D01*
X125388690Y-110531607D02*
X125450595Y-110655416D01*
X125450595Y-110964940D01*
X125388690Y-111088750D01*
X125264880Y-111150654D01*
X125141071Y-111150654D01*
X125017261Y-111088750D01*
X124955357Y-110964940D01*
X124955357Y-110655416D01*
X124893452Y-110531607D01*
X125450595Y-109726845D02*
X125388690Y-109850654D01*
X125264880Y-109912559D01*
X124150595Y-109912559D01*
X125450595Y-108241130D02*
X124150595Y-108241130D01*
X125079166Y-107807797D01*
X124150595Y-107374464D01*
X125450595Y-107374464D01*
X125450595Y-106198273D02*
X124769642Y-106198273D01*
X124645833Y-106260178D01*
X124583928Y-106383988D01*
X124583928Y-106631607D01*
X124645833Y-106755416D01*
X125388690Y-106198273D02*
X125450595Y-106322083D01*
X125450595Y-106631607D01*
X125388690Y-106755416D01*
X125264880Y-106817321D01*
X125141071Y-106817321D01*
X125017261Y-106755416D01*
X124955357Y-106631607D01*
X124955357Y-106322083D01*
X124893452Y-106198273D01*
X125450595Y-105579226D02*
X124583928Y-105579226D01*
X124831547Y-105579226D02*
X124707738Y-105517321D01*
X124645833Y-105455416D01*
X124583928Y-105331607D01*
X124583928Y-105207797D01*
X125450595Y-104774464D02*
X124150595Y-104774464D01*
X124955357Y-104650654D02*
X125450595Y-104279226D01*
X124583928Y-104279226D02*
X125079166Y-104774464D01*
X124583928Y-103907797D02*
X124583928Y-103412559D01*
X124150595Y-103722083D02*
X125264880Y-103722083D01*
X125388690Y-103660178D01*
X125450595Y-103536369D01*
X125450595Y-103412559D01*
X125450595Y-101988750D02*
X124150595Y-101988750D01*
X124150595Y-101679226D01*
X124212500Y-101493511D01*
X124336309Y-101369702D01*
X124460119Y-101307797D01*
X124707738Y-101245892D01*
X124893452Y-101245892D01*
X125141071Y-101307797D01*
X125264880Y-101369702D01*
X125388690Y-101493511D01*
X125450595Y-101679226D01*
X125450595Y-101988750D01*
X125450595Y-100688750D02*
X124150595Y-100688750D01*
X124831547Y-99822083D02*
X125450595Y-99822083D01*
X124150595Y-100255416D02*
X124831547Y-99822083D01*
X124150595Y-99388750D01*
X126858928Y-114679226D02*
X128158928Y-114679226D01*
X126920833Y-114679226D02*
X126858928Y-114555416D01*
X126858928Y-114307797D01*
X126920833Y-114183988D01*
X126982738Y-114122083D01*
X127106547Y-114060178D01*
X127477976Y-114060178D01*
X127601785Y-114122083D01*
X127663690Y-114183988D01*
X127725595Y-114307797D01*
X127725595Y-114555416D01*
X127663690Y-114679226D01*
X127663690Y-113007797D02*
X127725595Y-113131607D01*
X127725595Y-113379226D01*
X127663690Y-113503035D01*
X127539880Y-113564940D01*
X127044642Y-113564940D01*
X126920833Y-113503035D01*
X126858928Y-113379226D01*
X126858928Y-113131607D01*
X126920833Y-113007797D01*
X127044642Y-112945892D01*
X127168452Y-112945892D01*
X127292261Y-113564940D01*
X127725595Y-111831607D02*
X126425595Y-111831607D01*
X127663690Y-111831607D02*
X127725595Y-111955416D01*
X127725595Y-112203035D01*
X127663690Y-112326845D01*
X127601785Y-112388750D01*
X127477976Y-112450654D01*
X127106547Y-112450654D01*
X126982738Y-112388750D01*
X126920833Y-112326845D01*
X126858928Y-112203035D01*
X126858928Y-111955416D01*
X126920833Y-111831607D01*
X127725595Y-110655416D02*
X127044642Y-110655416D01*
X126920833Y-110717321D01*
X126858928Y-110841130D01*
X126858928Y-111088750D01*
X126920833Y-111212559D01*
X127663690Y-110655416D02*
X127725595Y-110779226D01*
X127725595Y-111088750D01*
X127663690Y-111212559D01*
X127539880Y-111274464D01*
X127416071Y-111274464D01*
X127292261Y-111212559D01*
X127230357Y-111088750D01*
X127230357Y-110779226D01*
X127168452Y-110655416D01*
X127725595Y-109850654D02*
X127663690Y-109974464D01*
X127539880Y-110036369D01*
X126425595Y-110036369D01*
X127725595Y-109355416D02*
X126858928Y-109355416D01*
X126982738Y-109355416D02*
X126920833Y-109293511D01*
X126858928Y-109169702D01*
X126858928Y-108983988D01*
X126920833Y-108860178D01*
X127044642Y-108798273D01*
X127725595Y-108798273D01*
X127044642Y-108798273D02*
X126920833Y-108736369D01*
X126858928Y-108612559D01*
X126858928Y-108426845D01*
X126920833Y-108303035D01*
X127044642Y-108241130D01*
X127725595Y-108241130D01*
X127725595Y-107064940D02*
X127044642Y-107064940D01*
X126920833Y-107126845D01*
X126858928Y-107250654D01*
X126858928Y-107498273D01*
X126920833Y-107622083D01*
X127663690Y-107064940D02*
X127725595Y-107188750D01*
X127725595Y-107498273D01*
X127663690Y-107622083D01*
X127539880Y-107683988D01*
X127416071Y-107683988D01*
X127292261Y-107622083D01*
X127230357Y-107498273D01*
X127230357Y-107188750D01*
X127168452Y-107064940D01*
X127725595Y-106445892D02*
X126858928Y-106445892D01*
X127106547Y-106445892D02*
X126982738Y-106383988D01*
X126920833Y-106322083D01*
X126858928Y-106198273D01*
X126858928Y-106074464D01*
X127725595Y-105641130D02*
X126425595Y-105641130D01*
X127230357Y-105517321D02*
X127725595Y-105145892D01*
X126858928Y-105145892D02*
X127354166Y-105641130D01*
X126858928Y-104774464D02*
X126858928Y-104279226D01*
X126425595Y-104588750D02*
X127539880Y-104588750D01*
X127663690Y-104526845D01*
X127725595Y-104403035D01*
X127725595Y-104279226D01*
X127601785Y-103845892D02*
X127663690Y-103783988D01*
X127725595Y-103845892D01*
X127663690Y-103907797D01*
X127601785Y-103845892D01*
X127725595Y-103845892D01*
X127663690Y-102669702D02*
X127725595Y-102793511D01*
X127725595Y-103041130D01*
X127663690Y-103164940D01*
X127601785Y-103226845D01*
X127477976Y-103288750D01*
X127106547Y-103288750D01*
X126982738Y-103226845D01*
X126920833Y-103164940D01*
X126858928Y-103041130D01*
X126858928Y-102793511D01*
X126920833Y-102669702D01*
X127725595Y-101926845D02*
X127663690Y-102050654D01*
X127601785Y-102112559D01*
X127477976Y-102174464D01*
X127106547Y-102174464D01*
X126982738Y-102112559D01*
X126920833Y-102050654D01*
X126858928Y-101926845D01*
X126858928Y-101741130D01*
X126920833Y-101617321D01*
X126982738Y-101555416D01*
X127106547Y-101493511D01*
X127477976Y-101493511D01*
X127601785Y-101555416D01*
X127663690Y-101617321D01*
X127725595Y-101741130D01*
X127725595Y-101926845D01*
X127725595Y-100936369D02*
X126858928Y-100936369D01*
X126982738Y-100936369D02*
X126920833Y-100874464D01*
X126858928Y-100750654D01*
X126858928Y-100564940D01*
X126920833Y-100441130D01*
X127044642Y-100379226D01*
X127725595Y-100379226D01*
X127044642Y-100379226D02*
X126920833Y-100317321D01*
X126858928Y-100193511D01*
X126858928Y-100007797D01*
X126920833Y-99883988D01*
X127044642Y-99822083D01*
X127725595Y-99822083D01*
D11*
X87500000Y-100000000D02*
G75*
G03X87500000Y-100000000I-4000000J0D01*
G01*
X120500000Y-100000000D02*
G75*
G03X120500000Y-100000000I-4000000J0D01*
G01*
X118904775Y-112225000D02*
X118904775Y-111725000D01*
X119154775Y-111975000D02*
X118654775Y-111975000D01*
X113749000Y-110784000D02*
X113749000Y-110216000D01*
X113789000Y-111018000D02*
X113789000Y-109982000D01*
X113829000Y-111177000D02*
X113829000Y-109823000D01*
X113869000Y-111305000D02*
X113869000Y-109695000D01*
X113909000Y-111415000D02*
X113909000Y-109585000D01*
X113949000Y-111511000D02*
X113949000Y-109489000D01*
X113989000Y-111598000D02*
X113989000Y-109402000D01*
X114029000Y-111678000D02*
X114029000Y-109322000D01*
X114069000Y-109460000D02*
X114069000Y-109249000D01*
X114069000Y-111751000D02*
X114069000Y-111540000D01*
X114109000Y-109460000D02*
X114109000Y-109181000D01*
X114109000Y-111819000D02*
X114109000Y-111540000D01*
X114149000Y-109460000D02*
X114149000Y-109117000D01*
X114149000Y-111883000D02*
X114149000Y-111540000D01*
X114189000Y-109460000D02*
X114189000Y-109057000D01*
X114189000Y-111943000D02*
X114189000Y-111540000D01*
X114229000Y-109460000D02*
X114229000Y-109000000D01*
X114229000Y-112000000D02*
X114229000Y-111540000D01*
X114269000Y-109460000D02*
X114269000Y-108946000D01*
X114269000Y-112054000D02*
X114269000Y-111540000D01*
X114309000Y-109460000D02*
X114309000Y-108895000D01*
X114309000Y-112105000D02*
X114309000Y-111540000D01*
X114349000Y-109460000D02*
X114349000Y-108847000D01*
X114349000Y-112153000D02*
X114349000Y-111540000D01*
X114389000Y-109460000D02*
X114389000Y-108801000D01*
X114389000Y-112199000D02*
X114389000Y-111540000D01*
X114429000Y-109460000D02*
X114429000Y-108757000D01*
X114429000Y-112243000D02*
X114429000Y-111540000D01*
X114469000Y-109460000D02*
X114469000Y-108715000D01*
X114469000Y-112285000D02*
X114469000Y-111540000D01*
X114509000Y-109460000D02*
X114509000Y-108674000D01*
X114509000Y-112326000D02*
X114509000Y-111540000D01*
X114549000Y-109460000D02*
X114549000Y-108636000D01*
X114549000Y-112364000D02*
X114549000Y-111540000D01*
X114589000Y-109460000D02*
X114589000Y-108599000D01*
X114589000Y-112401000D02*
X114589000Y-111540000D01*
X114629000Y-109460000D02*
X114629000Y-108563000D01*
X114629000Y-112437000D02*
X114629000Y-111540000D01*
X114669000Y-109460000D02*
X114669000Y-108529000D01*
X114669000Y-112471000D02*
X114669000Y-111540000D01*
X114709000Y-109460000D02*
X114709000Y-108496000D01*
X114709000Y-112504000D02*
X114709000Y-111540000D01*
X114749000Y-109460000D02*
X114749000Y-108465000D01*
X114749000Y-112535000D02*
X114749000Y-111540000D01*
X114789000Y-109460000D02*
X114789000Y-108435000D01*
X114789000Y-112565000D02*
X114789000Y-111540000D01*
X114829000Y-109460000D02*
X114829000Y-108405000D01*
X114829000Y-112595000D02*
X114829000Y-111540000D01*
X114869000Y-109460000D02*
X114869000Y-108378000D01*
X114869000Y-112622000D02*
X114869000Y-111540000D01*
X114909000Y-109460000D02*
X114909000Y-108351000D01*
X114909000Y-112649000D02*
X114909000Y-111540000D01*
X114949000Y-109460000D02*
X114949000Y-108325000D01*
X114949000Y-112675000D02*
X114949000Y-111540000D01*
X114989000Y-109460000D02*
X114989000Y-108300000D01*
X114989000Y-112700000D02*
X114989000Y-111540000D01*
X115029000Y-109460000D02*
X115029000Y-108276000D01*
X115029000Y-112724000D02*
X115029000Y-111540000D01*
X115069000Y-109460000D02*
X115069000Y-108253000D01*
X115069000Y-112747000D02*
X115069000Y-111540000D01*
X115109000Y-109460000D02*
X115109000Y-108232000D01*
X115109000Y-112768000D02*
X115109000Y-111540000D01*
X115149000Y-109460000D02*
X115149000Y-108210000D01*
X115149000Y-112790000D02*
X115149000Y-111540000D01*
X115189000Y-109460000D02*
X115189000Y-108190000D01*
X115189000Y-112810000D02*
X115189000Y-111540000D01*
X115229000Y-109460000D02*
X115229000Y-108171000D01*
X115229000Y-112829000D02*
X115229000Y-111540000D01*
X115269000Y-109460000D02*
X115269000Y-108152000D01*
X115269000Y-112848000D02*
X115269000Y-111540000D01*
X115309000Y-109460000D02*
X115309000Y-108135000D01*
X115309000Y-112865000D02*
X115309000Y-111540000D01*
X115349000Y-109460000D02*
X115349000Y-108118000D01*
X115349000Y-112882000D02*
X115349000Y-111540000D01*
X115389000Y-109460000D02*
X115389000Y-108102000D01*
X115389000Y-112898000D02*
X115389000Y-111540000D01*
X115429000Y-109460000D02*
X115429000Y-108086000D01*
X115429000Y-112914000D02*
X115429000Y-111540000D01*
X115469000Y-109460000D02*
X115469000Y-108072000D01*
X115469000Y-112928000D02*
X115469000Y-111540000D01*
X115509000Y-109460000D02*
X115509000Y-108058000D01*
X115509000Y-112942000D02*
X115509000Y-111540000D01*
X115549000Y-109460000D02*
X115549000Y-108045000D01*
X115549000Y-112955000D02*
X115549000Y-111540000D01*
X115589000Y-109460000D02*
X115589000Y-108032000D01*
X115589000Y-112968000D02*
X115589000Y-111540000D01*
X115629000Y-109460000D02*
X115629000Y-108020000D01*
X115629000Y-112980000D02*
X115629000Y-111540000D01*
X115670000Y-109460000D02*
X115670000Y-108009000D01*
X115670000Y-112991000D02*
X115670000Y-111540000D01*
X115710000Y-109460000D02*
X115710000Y-107999000D01*
X115710000Y-113001000D02*
X115710000Y-111540000D01*
X115750000Y-109460000D02*
X115750000Y-107989000D01*
X115750000Y-113011000D02*
X115750000Y-111540000D01*
X115790000Y-109460000D02*
X115790000Y-107980000D01*
X115790000Y-113020000D02*
X115790000Y-111540000D01*
X115830000Y-109460000D02*
X115830000Y-107972000D01*
X115830000Y-113028000D02*
X115830000Y-111540000D01*
X115870000Y-109460000D02*
X115870000Y-107964000D01*
X115870000Y-113036000D02*
X115870000Y-111540000D01*
X115910000Y-109460000D02*
X115910000Y-107957000D01*
X115910000Y-113043000D02*
X115910000Y-111540000D01*
X115950000Y-109460000D02*
X115950000Y-107950000D01*
X115950000Y-113050000D02*
X115950000Y-111540000D01*
X115990000Y-109460000D02*
X115990000Y-107944000D01*
X115990000Y-113056000D02*
X115990000Y-111540000D01*
X116030000Y-109460000D02*
X116030000Y-107939000D01*
X116030000Y-113061000D02*
X116030000Y-111540000D01*
X116070000Y-109460000D02*
X116070000Y-107935000D01*
X116070000Y-113065000D02*
X116070000Y-111540000D01*
X116110000Y-109460000D02*
X116110000Y-107931000D01*
X116110000Y-113069000D02*
X116110000Y-111540000D01*
X116150000Y-113073000D02*
X116150000Y-107927000D01*
X116190000Y-113076000D02*
X116190000Y-107924000D01*
X116230000Y-113078000D02*
X116230000Y-107922000D01*
X116270000Y-113079000D02*
X116270000Y-107921000D01*
X116310000Y-113080000D02*
X116310000Y-107920000D01*
X116350000Y-113080000D02*
X116350000Y-107920000D01*
X118970000Y-110500000D02*
G75*
G03X118970000Y-110500000I-2620000J0D01*
G01*
D12*
X119820000Y-91200000D02*
X119820000Y-86600000D01*
X113180000Y-86600000D02*
X119820000Y-86600000D01*
X113180000Y-91200000D02*
X113180000Y-86600000D01*
X119820000Y-91200000D02*
X113180000Y-91200000D01*
X114500000Y-87300000D02*
G75*
G03X114500000Y-87300000I-600000J0D01*
G01*
X114200000Y-87600000D02*
X113600000Y-87000000D01*
X86820000Y-91200000D02*
X86820000Y-86600000D01*
X80180000Y-86600000D02*
X86820000Y-86600000D01*
X80180000Y-91200000D02*
X80180000Y-86600000D01*
X86820000Y-91200000D02*
X80180000Y-91200000D01*
X81500000Y-87300000D02*
G75*
G03X81500000Y-87300000I-600000J0D01*
G01*
X81200000Y-87600000D02*
X80600000Y-87000000D01*
D11*
X96620000Y-87530000D02*
X96620000Y-87860000D01*
X103160000Y-87530000D02*
X96620000Y-87530000D01*
X103160000Y-87860000D02*
X103160000Y-87530000D01*
X96620000Y-90270000D02*
X96620000Y-89940000D01*
X103160000Y-90270000D02*
X96620000Y-90270000D01*
X103160000Y-89940000D02*
X103160000Y-90270000D01*
X96620000Y-98630000D02*
X96620000Y-98960000D01*
X103160000Y-98630000D02*
X96620000Y-98630000D01*
X103160000Y-98960000D02*
X103160000Y-98630000D01*
X96620000Y-101370000D02*
X96620000Y-101040000D01*
X103160000Y-101370000D02*
X96620000Y-101370000D01*
X103160000Y-101040000D02*
X103160000Y-101370000D01*
X105430000Y-76810000D02*
X106760000Y-76810000D01*
X105433500Y-78463500D02*
X105430000Y-76810000D01*
X105420000Y-79976500D02*
X107960000Y-79980000D01*
X125930000Y-76810000D02*
X127260000Y-76810000D01*
X125933500Y-78463500D02*
X125930000Y-76810000D01*
X125920000Y-79976500D02*
X128460000Y-79980000D01*
X98730000Y-109310000D02*
X100060000Y-109310000D01*
X98733500Y-110963500D02*
X98730000Y-109310000D01*
X98720000Y-112476500D02*
X101260000Y-112480000D01*
X102830000Y-76810000D02*
X104160000Y-76810000D01*
X102833500Y-78463500D02*
X102830000Y-76810000D01*
X102820000Y-79976500D02*
X105360000Y-79980000D01*
X96130000Y-109310000D02*
X97460000Y-109310000D01*
X96133500Y-110963500D02*
X96130000Y-109310000D01*
X96120000Y-112476500D02*
X98660000Y-112480000D01*
X123330000Y-76810000D02*
X124660000Y-76810000D01*
X123333500Y-78463500D02*
X123330000Y-76810000D01*
X123320000Y-79976500D02*
X125860000Y-79980000D01*
X103930000Y-109310000D02*
X105260000Y-109310000D01*
X103933500Y-110963500D02*
X103930000Y-109310000D01*
X103920000Y-112476500D02*
X106460000Y-112480000D01*
X74130000Y-76810000D02*
X75460000Y-76810000D01*
X74133500Y-78463500D02*
X74130000Y-76810000D01*
X74120000Y-79976500D02*
X76660000Y-79980000D01*
X71530000Y-76810000D02*
X72860000Y-76810000D01*
X71533500Y-78463500D02*
X71530000Y-76810000D01*
X71520000Y-79976500D02*
X74060000Y-79980000D01*
X93530000Y-109310000D02*
X94860000Y-109310000D01*
X93533500Y-110963500D02*
X93530000Y-109310000D01*
X93520000Y-112476500D02*
X96060000Y-112480000D01*
X90930000Y-109310000D02*
X92260000Y-109310000D01*
X90933500Y-110963500D02*
X90930000Y-109310000D01*
X90920000Y-112476500D02*
X93460000Y-112480000D01*
X106530000Y-109310000D02*
X107860000Y-109310000D01*
X106533500Y-110963500D02*
X106530000Y-109310000D01*
X106520000Y-112476500D02*
X109060000Y-112480000D01*
X101330000Y-109310000D02*
X102660000Y-109310000D01*
X101333500Y-110963500D02*
X101330000Y-109310000D01*
X101320000Y-112476500D02*
X103860000Y-112480000D01*
X94530000Y-76810000D02*
X95860000Y-76810000D01*
X94533500Y-78463500D02*
X94530000Y-76810000D01*
X94520000Y-79976500D02*
X97060000Y-79980000D01*
X92030000Y-76810000D02*
X93360000Y-76810000D01*
X92033500Y-78463500D02*
X92030000Y-76810000D01*
X92020000Y-79976500D02*
X94560000Y-79980000D01*
X102504775Y-83625000D02*
X102504775Y-83125000D01*
X102754775Y-83375000D02*
X102254775Y-83375000D01*
X97349000Y-82184000D02*
X97349000Y-81616000D01*
X97389000Y-82418000D02*
X97389000Y-81382000D01*
X97429000Y-82577000D02*
X97429000Y-81223000D01*
X97469000Y-82705000D02*
X97469000Y-81095000D01*
X97509000Y-82815000D02*
X97509000Y-80985000D01*
X97549000Y-82911000D02*
X97549000Y-80889000D01*
X97589000Y-82998000D02*
X97589000Y-80802000D01*
X97629000Y-83078000D02*
X97629000Y-80722000D01*
X97669000Y-80860000D02*
X97669000Y-80649000D01*
X97669000Y-83151000D02*
X97669000Y-82940000D01*
X97709000Y-80860000D02*
X97709000Y-80581000D01*
X97709000Y-83219000D02*
X97709000Y-82940000D01*
X97749000Y-80860000D02*
X97749000Y-80517000D01*
X97749000Y-83283000D02*
X97749000Y-82940000D01*
X97789000Y-80860000D02*
X97789000Y-80457000D01*
X97789000Y-83343000D02*
X97789000Y-82940000D01*
X97829000Y-80860000D02*
X97829000Y-80400000D01*
X97829000Y-83400000D02*
X97829000Y-82940000D01*
X97869000Y-80860000D02*
X97869000Y-80346000D01*
X97869000Y-83454000D02*
X97869000Y-82940000D01*
X97909000Y-80860000D02*
X97909000Y-80295000D01*
X97909000Y-83505000D02*
X97909000Y-82940000D01*
X97949000Y-80860000D02*
X97949000Y-80247000D01*
X97949000Y-83553000D02*
X97949000Y-82940000D01*
X97989000Y-80860000D02*
X97989000Y-80201000D01*
X97989000Y-83599000D02*
X97989000Y-82940000D01*
X98029000Y-80860000D02*
X98029000Y-80157000D01*
X98029000Y-83643000D02*
X98029000Y-82940000D01*
X98069000Y-80860000D02*
X98069000Y-80115000D01*
X98069000Y-83685000D02*
X98069000Y-82940000D01*
X98109000Y-80860000D02*
X98109000Y-80074000D01*
X98109000Y-83726000D02*
X98109000Y-82940000D01*
X98149000Y-80860000D02*
X98149000Y-80036000D01*
X98149000Y-83764000D02*
X98149000Y-82940000D01*
X98189000Y-80860000D02*
X98189000Y-79999000D01*
X98189000Y-83801000D02*
X98189000Y-82940000D01*
X98229000Y-80860000D02*
X98229000Y-79963000D01*
X98229000Y-83837000D02*
X98229000Y-82940000D01*
X98269000Y-80860000D02*
X98269000Y-79929000D01*
X98269000Y-83871000D02*
X98269000Y-82940000D01*
X98309000Y-80860000D02*
X98309000Y-79896000D01*
X98309000Y-83904000D02*
X98309000Y-82940000D01*
X98349000Y-80860000D02*
X98349000Y-79865000D01*
X98349000Y-83935000D02*
X98349000Y-82940000D01*
X98389000Y-80860000D02*
X98389000Y-79835000D01*
X98389000Y-83965000D02*
X98389000Y-82940000D01*
X98429000Y-80860000D02*
X98429000Y-79805000D01*
X98429000Y-83995000D02*
X98429000Y-82940000D01*
X98469000Y-80860000D02*
X98469000Y-79778000D01*
X98469000Y-84022000D02*
X98469000Y-82940000D01*
X98509000Y-80860000D02*
X98509000Y-79751000D01*
X98509000Y-84049000D02*
X98509000Y-82940000D01*
X98549000Y-80860000D02*
X98549000Y-79725000D01*
X98549000Y-84075000D02*
X98549000Y-82940000D01*
X98589000Y-80860000D02*
X98589000Y-79700000D01*
X98589000Y-84100000D02*
X98589000Y-82940000D01*
X98629000Y-80860000D02*
X98629000Y-79676000D01*
X98629000Y-84124000D02*
X98629000Y-82940000D01*
X98669000Y-80860000D02*
X98669000Y-79653000D01*
X98669000Y-84147000D02*
X98669000Y-82940000D01*
X98709000Y-80860000D02*
X98709000Y-79632000D01*
X98709000Y-84168000D02*
X98709000Y-82940000D01*
X98749000Y-80860000D02*
X98749000Y-79610000D01*
X98749000Y-84190000D02*
X98749000Y-82940000D01*
X98789000Y-80860000D02*
X98789000Y-79590000D01*
X98789000Y-84210000D02*
X98789000Y-82940000D01*
X98829000Y-80860000D02*
X98829000Y-79571000D01*
X98829000Y-84229000D02*
X98829000Y-82940000D01*
X98869000Y-80860000D02*
X98869000Y-79552000D01*
X98869000Y-84248000D02*
X98869000Y-82940000D01*
X98909000Y-80860000D02*
X98909000Y-79535000D01*
X98909000Y-84265000D02*
X98909000Y-82940000D01*
X98949000Y-80860000D02*
X98949000Y-79518000D01*
X98949000Y-84282000D02*
X98949000Y-82940000D01*
X98989000Y-80860000D02*
X98989000Y-79502000D01*
X98989000Y-84298000D02*
X98989000Y-82940000D01*
X99029000Y-80860000D02*
X99029000Y-79486000D01*
X99029000Y-84314000D02*
X99029000Y-82940000D01*
X99069000Y-80860000D02*
X99069000Y-79472000D01*
X99069000Y-84328000D02*
X99069000Y-82940000D01*
X99109000Y-80860000D02*
X99109000Y-79458000D01*
X99109000Y-84342000D02*
X99109000Y-82940000D01*
X99149000Y-80860000D02*
X99149000Y-79445000D01*
X99149000Y-84355000D02*
X99149000Y-82940000D01*
X99189000Y-80860000D02*
X99189000Y-79432000D01*
X99189000Y-84368000D02*
X99189000Y-82940000D01*
X99229000Y-80860000D02*
X99229000Y-79420000D01*
X99229000Y-84380000D02*
X99229000Y-82940000D01*
X99270000Y-80860000D02*
X99270000Y-79409000D01*
X99270000Y-84391000D02*
X99270000Y-82940000D01*
X99310000Y-80860000D02*
X99310000Y-79399000D01*
X99310000Y-84401000D02*
X99310000Y-82940000D01*
X99350000Y-80860000D02*
X99350000Y-79389000D01*
X99350000Y-84411000D02*
X99350000Y-82940000D01*
X99390000Y-80860000D02*
X99390000Y-79380000D01*
X99390000Y-84420000D02*
X99390000Y-82940000D01*
X99430000Y-80860000D02*
X99430000Y-79372000D01*
X99430000Y-84428000D02*
X99430000Y-82940000D01*
X99470000Y-80860000D02*
X99470000Y-79364000D01*
X99470000Y-84436000D02*
X99470000Y-82940000D01*
X99510000Y-80860000D02*
X99510000Y-79357000D01*
X99510000Y-84443000D02*
X99510000Y-82940000D01*
X99550000Y-80860000D02*
X99550000Y-79350000D01*
X99550000Y-84450000D02*
X99550000Y-82940000D01*
X99590000Y-80860000D02*
X99590000Y-79344000D01*
X99590000Y-84456000D02*
X99590000Y-82940000D01*
X99630000Y-80860000D02*
X99630000Y-79339000D01*
X99630000Y-84461000D02*
X99630000Y-82940000D01*
X99670000Y-80860000D02*
X99670000Y-79335000D01*
X99670000Y-84465000D02*
X99670000Y-82940000D01*
X99710000Y-80860000D02*
X99710000Y-79331000D01*
X99710000Y-84469000D02*
X99710000Y-82940000D01*
X99750000Y-84473000D02*
X99750000Y-79327000D01*
X99790000Y-84476000D02*
X99790000Y-79324000D01*
X99830000Y-84478000D02*
X99830000Y-79322000D01*
X99870000Y-84479000D02*
X99870000Y-79321000D01*
X99910000Y-84480000D02*
X99910000Y-79320000D01*
X99950000Y-84480000D02*
X99950000Y-79320000D01*
X102570000Y-81900000D02*
G75*
G03X102570000Y-81900000I-2620000J0D01*
G01*
X97230000Y-93445000D02*
X97230000Y-92779000D01*
X97230000Y-96221000D02*
X97230000Y-95555000D01*
X102570000Y-93445000D02*
X102570000Y-92779000D01*
X102570000Y-96221000D02*
X102570000Y-95555000D01*
X102570000Y-92779000D02*
X97230000Y-92779000D01*
X102570000Y-96221000D02*
X97230000Y-96221000D01*
X80995225Y-108775000D02*
X80995225Y-109275000D01*
X80745225Y-109025000D02*
X81245225Y-109025000D01*
X86151000Y-110216000D02*
X86151000Y-110784000D01*
X86111000Y-109982000D02*
X86111000Y-111018000D01*
X86071000Y-109823000D02*
X86071000Y-111177000D01*
X86031000Y-109695000D02*
X86031000Y-111305000D01*
X85991000Y-109585000D02*
X85991000Y-111415000D01*
X85951000Y-109489000D02*
X85951000Y-111511000D01*
X85911000Y-109402000D02*
X85911000Y-111598000D01*
X85871000Y-109322000D02*
X85871000Y-111678000D01*
X85831000Y-111540000D02*
X85831000Y-111751000D01*
X85831000Y-109249000D02*
X85831000Y-109460000D01*
X85791000Y-111540000D02*
X85791000Y-111819000D01*
X85791000Y-109181000D02*
X85791000Y-109460000D01*
X85751000Y-111540000D02*
X85751000Y-111883000D01*
X85751000Y-109117000D02*
X85751000Y-109460000D01*
X85711000Y-111540000D02*
X85711000Y-111943000D01*
X85711000Y-109057000D02*
X85711000Y-109460000D01*
X85671000Y-111540000D02*
X85671000Y-112000000D01*
X85671000Y-109000000D02*
X85671000Y-109460000D01*
X85631000Y-111540000D02*
X85631000Y-112054000D01*
X85631000Y-108946000D02*
X85631000Y-109460000D01*
X85591000Y-111540000D02*
X85591000Y-112105000D01*
X85591000Y-108895000D02*
X85591000Y-109460000D01*
X85551000Y-111540000D02*
X85551000Y-112153000D01*
X85551000Y-108847000D02*
X85551000Y-109460000D01*
X85511000Y-111540000D02*
X85511000Y-112199000D01*
X85511000Y-108801000D02*
X85511000Y-109460000D01*
X85471000Y-111540000D02*
X85471000Y-112243000D01*
X85471000Y-108757000D02*
X85471000Y-109460000D01*
X85431000Y-111540000D02*
X85431000Y-112285000D01*
X85431000Y-108715000D02*
X85431000Y-109460000D01*
X85391000Y-111540000D02*
X85391000Y-112326000D01*
X85391000Y-108674000D02*
X85391000Y-109460000D01*
X85351000Y-111540000D02*
X85351000Y-112364000D01*
X85351000Y-108636000D02*
X85351000Y-109460000D01*
X85311000Y-111540000D02*
X85311000Y-112401000D01*
X85311000Y-108599000D02*
X85311000Y-109460000D01*
X85271000Y-111540000D02*
X85271000Y-112437000D01*
X85271000Y-108563000D02*
X85271000Y-109460000D01*
X85231000Y-111540000D02*
X85231000Y-112471000D01*
X85231000Y-108529000D02*
X85231000Y-109460000D01*
X85191000Y-111540000D02*
X85191000Y-112504000D01*
X85191000Y-108496000D02*
X85191000Y-109460000D01*
X85151000Y-111540000D02*
X85151000Y-112535000D01*
X85151000Y-108465000D02*
X85151000Y-109460000D01*
X85111000Y-111540000D02*
X85111000Y-112565000D01*
X85111000Y-108435000D02*
X85111000Y-109460000D01*
X85071000Y-111540000D02*
X85071000Y-112595000D01*
X85071000Y-108405000D02*
X85071000Y-109460000D01*
X85031000Y-111540000D02*
X85031000Y-112622000D01*
X85031000Y-108378000D02*
X85031000Y-109460000D01*
X84991000Y-111540000D02*
X84991000Y-112649000D01*
X84991000Y-108351000D02*
X84991000Y-109460000D01*
X84951000Y-111540000D02*
X84951000Y-112675000D01*
X84951000Y-108325000D02*
X84951000Y-109460000D01*
X84911000Y-111540000D02*
X84911000Y-112700000D01*
X84911000Y-108300000D02*
X84911000Y-109460000D01*
X84871000Y-111540000D02*
X84871000Y-112724000D01*
X84871000Y-108276000D02*
X84871000Y-109460000D01*
X84831000Y-111540000D02*
X84831000Y-112747000D01*
X84831000Y-108253000D02*
X84831000Y-109460000D01*
X84791000Y-111540000D02*
X84791000Y-112768000D01*
X84791000Y-108232000D02*
X84791000Y-109460000D01*
X84751000Y-111540000D02*
X84751000Y-112790000D01*
X84751000Y-108210000D02*
X84751000Y-109460000D01*
X84711000Y-111540000D02*
X84711000Y-112810000D01*
X84711000Y-108190000D02*
X84711000Y-109460000D01*
X84671000Y-111540000D02*
X84671000Y-112829000D01*
X84671000Y-108171000D02*
X84671000Y-109460000D01*
X84631000Y-111540000D02*
X84631000Y-112848000D01*
X84631000Y-108152000D02*
X84631000Y-109460000D01*
X84591000Y-111540000D02*
X84591000Y-112865000D01*
X84591000Y-108135000D02*
X84591000Y-109460000D01*
X84551000Y-111540000D02*
X84551000Y-112882000D01*
X84551000Y-108118000D02*
X84551000Y-109460000D01*
X84511000Y-111540000D02*
X84511000Y-112898000D01*
X84511000Y-108102000D02*
X84511000Y-109460000D01*
X84471000Y-111540000D02*
X84471000Y-112914000D01*
X84471000Y-108086000D02*
X84471000Y-109460000D01*
X84431000Y-111540000D02*
X84431000Y-112928000D01*
X84431000Y-108072000D02*
X84431000Y-109460000D01*
X84391000Y-111540000D02*
X84391000Y-112942000D01*
X84391000Y-108058000D02*
X84391000Y-109460000D01*
X84351000Y-111540000D02*
X84351000Y-112955000D01*
X84351000Y-108045000D02*
X84351000Y-109460000D01*
X84311000Y-111540000D02*
X84311000Y-112968000D01*
X84311000Y-108032000D02*
X84311000Y-109460000D01*
X84271000Y-111540000D02*
X84271000Y-112980000D01*
X84271000Y-108020000D02*
X84271000Y-109460000D01*
X84230000Y-111540000D02*
X84230000Y-112991000D01*
X84230000Y-108009000D02*
X84230000Y-109460000D01*
X84190000Y-111540000D02*
X84190000Y-113001000D01*
X84190000Y-107999000D02*
X84190000Y-109460000D01*
X84150000Y-111540000D02*
X84150000Y-113011000D01*
X84150000Y-107989000D02*
X84150000Y-109460000D01*
X84110000Y-111540000D02*
X84110000Y-113020000D01*
X84110000Y-107980000D02*
X84110000Y-109460000D01*
X84070000Y-111540000D02*
X84070000Y-113028000D01*
X84070000Y-107972000D02*
X84070000Y-109460000D01*
X84030000Y-111540000D02*
X84030000Y-113036000D01*
X84030000Y-107964000D02*
X84030000Y-109460000D01*
X83990000Y-111540000D02*
X83990000Y-113043000D01*
X83990000Y-107957000D02*
X83990000Y-109460000D01*
X83950000Y-111540000D02*
X83950000Y-113050000D01*
X83950000Y-107950000D02*
X83950000Y-109460000D01*
X83910000Y-111540000D02*
X83910000Y-113056000D01*
X83910000Y-107944000D02*
X83910000Y-109460000D01*
X83870000Y-111540000D02*
X83870000Y-113061000D01*
X83870000Y-107939000D02*
X83870000Y-109460000D01*
X83830000Y-111540000D02*
X83830000Y-113065000D01*
X83830000Y-107935000D02*
X83830000Y-109460000D01*
X83790000Y-111540000D02*
X83790000Y-113069000D01*
X83790000Y-107931000D02*
X83790000Y-109460000D01*
X83750000Y-107927000D02*
X83750000Y-113073000D01*
X83710000Y-107924000D02*
X83710000Y-113076000D01*
X83670000Y-107922000D02*
X83670000Y-113078000D01*
X83630000Y-107921000D02*
X83630000Y-113079000D01*
X83590000Y-107920000D02*
X83590000Y-113080000D01*
X83550000Y-107920000D02*
X83550000Y-113080000D01*
X86170000Y-110500000D02*
G75*
G03X86170000Y-110500000I-2620000J0D01*
G01*
D13*
X123104000Y-79924000D02*
X123104000Y-76876000D01*
X120056000Y-79924000D02*
X123104000Y-79924000D01*
X120056000Y-76876000D02*
X120056000Y-79924000D01*
X118024000Y-79924000D02*
X118024000Y-76876000D01*
X114976000Y-79924000D02*
X118024000Y-79924000D01*
X114976000Y-76876000D02*
X114976000Y-79924000D01*
X112944000Y-79924000D02*
X112944000Y-76876000D01*
X109896000Y-79924000D02*
X112944000Y-79924000D01*
X109896000Y-76876000D02*
X109896000Y-79924000D01*
X120056000Y-76876000D02*
X123104000Y-76876000D01*
X114976000Y-76876000D02*
X118024000Y-76876000D01*
X109896000Y-76876000D02*
X112944000Y-76876000D01*
X90104000Y-79924000D02*
X90104000Y-76876000D01*
X87056000Y-79924000D02*
X90104000Y-79924000D01*
X87056000Y-76876000D02*
X87056000Y-79924000D01*
X85024000Y-79924000D02*
X85024000Y-76876000D01*
X81976000Y-79924000D02*
X85024000Y-79924000D01*
X81976000Y-76876000D02*
X81976000Y-79924000D01*
X79944000Y-79924000D02*
X79944000Y-76876000D01*
X76896000Y-79924000D02*
X79944000Y-79924000D01*
X76896000Y-76876000D02*
X76896000Y-79924000D01*
X87056000Y-76876000D02*
X90104000Y-76876000D01*
X81976000Y-76876000D02*
X85024000Y-76876000D01*
X76896000Y-76876000D02*
X79944000Y-76876000D01*
D14*
X83404761Y-105547619D02*
X83309523Y-105500000D01*
X83214285Y-105404761D01*
X83071428Y-105261904D01*
X82976190Y-105214285D01*
X82880952Y-105214285D01*
X82928571Y-105452380D02*
X82833333Y-105404761D01*
X82738095Y-105309523D01*
X82690476Y-105119047D01*
X82690476Y-104785714D01*
X82738095Y-104595238D01*
X82833333Y-104500000D01*
X82928571Y-104452380D01*
X83119047Y-104452380D01*
X83214285Y-104500000D01*
X83309523Y-104595238D01*
X83357142Y-104785714D01*
X83357142Y-105119047D01*
X83309523Y-105309523D01*
X83214285Y-105404761D01*
X83119047Y-105452380D01*
X82928571Y-105452380D01*
X84309523Y-105452380D02*
X83738095Y-105452380D01*
X84023809Y-105452380D02*
X84023809Y-104452380D01*
X83928571Y-104595238D01*
X83833333Y-104690476D01*
X83738095Y-104738095D01*
D15*
X83814285Y-93985714D02*
X84242857Y-94128571D01*
X84385714Y-94271428D01*
X84528571Y-94557142D01*
X84528571Y-94985714D01*
X84385714Y-95271428D01*
X84242857Y-95414285D01*
X83957142Y-95557142D01*
X82814285Y-95557142D01*
X82814285Y-92557142D01*
X83814285Y-92557142D01*
X84100000Y-92700000D01*
X84242857Y-92842857D01*
X84385714Y-93128571D01*
X84385714Y-93414285D01*
X84242857Y-93700000D01*
X84100000Y-93842857D01*
X83814285Y-93985714D01*
X82814285Y-93985714D01*
X87957142Y-99785714D02*
X88957142Y-99785714D01*
X89385714Y-101357142D02*
X87957142Y-101357142D01*
X87957142Y-98357142D01*
X89385714Y-98357142D01*
X79228571Y-101071428D02*
X79085714Y-101214285D01*
X78657142Y-101357142D01*
X78371428Y-101357142D01*
X77942857Y-101214285D01*
X77657142Y-100928571D01*
X77514285Y-100642857D01*
X77371428Y-100071428D01*
X77371428Y-99642857D01*
X77514285Y-99071428D01*
X77657142Y-98785714D01*
X77942857Y-98500000D01*
X78371428Y-98357142D01*
X78657142Y-98357142D01*
X79085714Y-98500000D01*
X79228571Y-98642857D01*
D14*
X116404761Y-105547619D02*
X116309523Y-105500000D01*
X116214285Y-105404761D01*
X116071428Y-105261904D01*
X115976190Y-105214285D01*
X115880952Y-105214285D01*
X115928571Y-105452380D02*
X115833333Y-105404761D01*
X115738095Y-105309523D01*
X115690476Y-105119047D01*
X115690476Y-104785714D01*
X115738095Y-104595238D01*
X115833333Y-104500000D01*
X115928571Y-104452380D01*
X116119047Y-104452380D01*
X116214285Y-104500000D01*
X116309523Y-104595238D01*
X116357142Y-104785714D01*
X116357142Y-105119047D01*
X116309523Y-105309523D01*
X116214285Y-105404761D01*
X116119047Y-105452380D01*
X115928571Y-105452380D01*
X116738095Y-104547619D02*
X116785714Y-104500000D01*
X116880952Y-104452380D01*
X117119047Y-104452380D01*
X117214285Y-104500000D01*
X117261904Y-104547619D01*
X117309523Y-104642857D01*
X117309523Y-104738095D01*
X117261904Y-104880952D01*
X116690476Y-105452380D01*
X117309523Y-105452380D01*
D15*
X116814285Y-93985714D02*
X117242857Y-94128571D01*
X117385714Y-94271428D01*
X117528571Y-94557142D01*
X117528571Y-94985714D01*
X117385714Y-95271428D01*
X117242857Y-95414285D01*
X116957142Y-95557142D01*
X115814285Y-95557142D01*
X115814285Y-92557142D01*
X116814285Y-92557142D01*
X117100000Y-92700000D01*
X117242857Y-92842857D01*
X117385714Y-93128571D01*
X117385714Y-93414285D01*
X117242857Y-93700000D01*
X117100000Y-93842857D01*
X116814285Y-93985714D01*
X115814285Y-93985714D01*
X120957142Y-99785714D02*
X121957142Y-99785714D01*
X122385714Y-101357142D02*
X120957142Y-101357142D01*
X120957142Y-98357142D01*
X122385714Y-98357142D01*
X112228571Y-101071428D02*
X112085714Y-101214285D01*
X111657142Y-101357142D01*
X111371428Y-101357142D01*
X110942857Y-101214285D01*
X110657142Y-100928571D01*
X110514285Y-100642857D01*
X110371428Y-100071428D01*
X110371428Y-99642857D01*
X110514285Y-99071428D01*
X110657142Y-98785714D01*
X110942857Y-98500000D01*
X111371428Y-98357142D01*
X111657142Y-98357142D01*
X112085714Y-98500000D01*
X112228571Y-98642857D01*
D14*
X116233333Y-114657142D02*
X116185714Y-114704761D01*
X116042857Y-114752380D01*
X115947619Y-114752380D01*
X115804761Y-114704761D01*
X115709523Y-114609523D01*
X115661904Y-114514285D01*
X115614285Y-114323809D01*
X115614285Y-114180952D01*
X115661904Y-113990476D01*
X115709523Y-113895238D01*
X115804761Y-113800000D01*
X115947619Y-113752380D01*
X116042857Y-113752380D01*
X116185714Y-113800000D01*
X116233333Y-113847619D01*
X116566666Y-113752380D02*
X117185714Y-113752380D01*
X116852380Y-114133333D01*
X116995238Y-114133333D01*
X117090476Y-114180952D01*
X117138095Y-114228571D01*
X117185714Y-114323809D01*
X117185714Y-114561904D01*
X117138095Y-114657142D01*
X117090476Y-114704761D01*
X116995238Y-114752380D01*
X116709523Y-114752380D01*
X116614285Y-114704761D01*
X116566666Y-114657142D01*
D12*
X115904761Y-86052380D02*
X115571428Y-85576190D01*
X115333333Y-86052380D02*
X115333333Y-85052380D01*
X115714285Y-85052380D01*
X115809523Y-85100000D01*
X115857142Y-85147619D01*
X115904761Y-85242857D01*
X115904761Y-85385714D01*
X115857142Y-85480952D01*
X115809523Y-85528571D01*
X115714285Y-85576190D01*
X115333333Y-85576190D01*
X116190476Y-85052380D02*
X116523809Y-86052380D01*
X116857142Y-85052380D01*
X117142857Y-85147619D02*
X117190476Y-85100000D01*
X117285714Y-85052380D01*
X117523809Y-85052380D01*
X117619047Y-85100000D01*
X117666666Y-85147619D01*
X117714285Y-85242857D01*
X117714285Y-85338095D01*
X117666666Y-85480952D01*
X117095238Y-86052380D01*
X117714285Y-86052380D01*
D16*
X114220617Y-90749310D02*
X113779382Y-90749310D01*
X114000000Y-90749310D02*
X114000000Y-89977150D01*
X113926460Y-90087459D01*
X113852921Y-90160998D01*
X113779382Y-90197767D01*
D12*
X82904761Y-85952380D02*
X82571428Y-85476190D01*
X82333333Y-85952380D02*
X82333333Y-84952380D01*
X82714285Y-84952380D01*
X82809523Y-85000000D01*
X82857142Y-85047619D01*
X82904761Y-85142857D01*
X82904761Y-85285714D01*
X82857142Y-85380952D01*
X82809523Y-85428571D01*
X82714285Y-85476190D01*
X82333333Y-85476190D01*
X83190476Y-84952380D02*
X83523809Y-85952380D01*
X83857142Y-84952380D01*
X84714285Y-85952380D02*
X84142857Y-85952380D01*
X84428571Y-85952380D02*
X84428571Y-84952380D01*
X84333333Y-85095238D01*
X84238095Y-85190476D01*
X84142857Y-85238095D01*
D16*
X81220617Y-90749310D02*
X80779382Y-90749310D01*
X81000000Y-90749310D02*
X81000000Y-89977150D01*
X80926460Y-90087459D01*
X80852921Y-90160998D01*
X80779382Y-90197767D01*
D14*
X99723333Y-91722380D02*
X99390000Y-91246190D01*
X99151904Y-91722380D02*
X99151904Y-90722380D01*
X99532857Y-90722380D01*
X99628095Y-90770000D01*
X99675714Y-90817619D01*
X99723333Y-90912857D01*
X99723333Y-91055714D01*
X99675714Y-91150952D01*
X99628095Y-91198571D01*
X99532857Y-91246190D01*
X99151904Y-91246190D01*
X100104285Y-90817619D02*
X100151904Y-90770000D01*
X100247142Y-90722380D01*
X100485238Y-90722380D01*
X100580476Y-90770000D01*
X100628095Y-90817619D01*
X100675714Y-90912857D01*
X100675714Y-91008095D01*
X100628095Y-91150952D01*
X100056666Y-91722380D01*
X100675714Y-91722380D01*
X99723333Y-102822380D02*
X99390000Y-102346190D01*
X99151904Y-102822380D02*
X99151904Y-101822380D01*
X99532857Y-101822380D01*
X99628095Y-101870000D01*
X99675714Y-101917619D01*
X99723333Y-102012857D01*
X99723333Y-102155714D01*
X99675714Y-102250952D01*
X99628095Y-102298571D01*
X99532857Y-102346190D01*
X99151904Y-102346190D01*
X100675714Y-102822380D02*
X100104285Y-102822380D01*
X100390000Y-102822380D02*
X100390000Y-101822380D01*
X100294761Y-101965238D01*
X100199523Y-102060476D01*
X100104285Y-102108095D01*
X107052380Y-83588214D02*
X107052380Y-84064404D01*
X106052380Y-84064404D01*
X106528571Y-83254880D02*
X106528571Y-82921547D01*
X107052380Y-82778690D02*
X107052380Y-83254880D01*
X106052380Y-83254880D01*
X106052380Y-82778690D01*
X107052380Y-82350119D02*
X106052380Y-82350119D01*
X106052380Y-82112023D01*
X106100000Y-81969166D01*
X106195238Y-81873928D01*
X106290476Y-81826309D01*
X106480952Y-81778690D01*
X106623809Y-81778690D01*
X106814285Y-81826309D01*
X106909523Y-81873928D01*
X107004761Y-81969166D01*
X107052380Y-82112023D01*
X107052380Y-82350119D01*
X106671428Y-81350119D02*
X106671428Y-80588214D01*
X107052380Y-80969166D02*
X106290476Y-80969166D01*
X127652380Y-88264404D02*
X126652380Y-88264404D01*
X126652380Y-87883452D01*
X126700000Y-87788214D01*
X126747619Y-87740595D01*
X126842857Y-87692976D01*
X126985714Y-87692976D01*
X127080952Y-87740595D01*
X127128571Y-87788214D01*
X127176190Y-87883452D01*
X127176190Y-88264404D01*
X127128571Y-87264404D02*
X127128571Y-86931071D01*
X127652380Y-86788214D02*
X127652380Y-87264404D01*
X126652380Y-87264404D01*
X126652380Y-86788214D01*
X127652380Y-86359642D02*
X126652380Y-86359642D01*
X126652380Y-86121547D01*
X126700000Y-85978690D01*
X126795238Y-85883452D01*
X126890476Y-85835833D01*
X127080952Y-85788214D01*
X127223809Y-85788214D01*
X127414285Y-85835833D01*
X127509523Y-85883452D01*
X127604761Y-85978690D01*
X127652380Y-86121547D01*
X127652380Y-86359642D01*
X127366666Y-85407261D02*
X127366666Y-84931071D01*
X127652380Y-85502500D02*
X126652380Y-85169166D01*
X127652380Y-84835833D01*
X127652380Y-84026309D02*
X127652380Y-84502500D01*
X126652380Y-84502500D01*
X127747619Y-83931071D02*
X127747619Y-83169166D01*
X126652380Y-82740595D02*
X126652380Y-82550119D01*
X126700000Y-82454880D01*
X126795238Y-82359642D01*
X126985714Y-82312023D01*
X127319047Y-82312023D01*
X127509523Y-82359642D01*
X127604761Y-82454880D01*
X127652380Y-82550119D01*
X127652380Y-82740595D01*
X127604761Y-82835833D01*
X127509523Y-82931071D01*
X127319047Y-82978690D01*
X126985714Y-82978690D01*
X126795238Y-82931071D01*
X126700000Y-82835833D01*
X126652380Y-82740595D01*
X126652380Y-81883452D02*
X127461904Y-81883452D01*
X127557142Y-81835833D01*
X127604761Y-81788214D01*
X127652380Y-81692976D01*
X127652380Y-81502500D01*
X127604761Y-81407261D01*
X127557142Y-81359642D01*
X127461904Y-81312023D01*
X126652380Y-81312023D01*
X126652380Y-80978690D02*
X126652380Y-80407261D01*
X127652380Y-80692976D02*
X126652380Y-80692976D01*
D17*
X100316666Y-108761833D02*
X99616666Y-108761833D01*
X99616666Y-108495166D01*
X99650000Y-108428500D01*
X99683333Y-108395166D01*
X99750000Y-108361833D01*
X99850000Y-108361833D01*
X99916666Y-108395166D01*
X99950000Y-108428500D01*
X99983333Y-108495166D01*
X99983333Y-108761833D01*
X99950000Y-108061833D02*
X99950000Y-107828500D01*
X100316666Y-107728500D02*
X100316666Y-108061833D01*
X99616666Y-108061833D01*
X99616666Y-107728500D01*
X100316666Y-107428500D02*
X99616666Y-107428500D01*
X99616666Y-107261833D01*
X99650000Y-107161833D01*
X99716666Y-107095166D01*
X99783333Y-107061833D01*
X99916666Y-107028500D01*
X100016666Y-107028500D01*
X100150000Y-107061833D01*
X100216666Y-107095166D01*
X100283333Y-107161833D01*
X100316666Y-107261833D01*
X100316666Y-107428500D01*
X100116666Y-106761833D02*
X100116666Y-106428500D01*
X100316666Y-106828500D02*
X99616666Y-106595166D01*
X100316666Y-106361833D01*
X100316666Y-105795166D02*
X100316666Y-106128500D01*
X99616666Y-106128500D01*
X100383333Y-105728500D02*
X100383333Y-105195166D01*
X100316666Y-105028500D02*
X99616666Y-105028500D01*
X100316666Y-104695166D02*
X99616666Y-104695166D01*
X100316666Y-104295166D01*
X99616666Y-104295166D01*
D14*
X104552380Y-83488214D02*
X104552380Y-83964404D01*
X103552380Y-83964404D01*
X104028571Y-83154880D02*
X104028571Y-82821547D01*
X104552380Y-82678690D02*
X104552380Y-83154880D01*
X103552380Y-83154880D01*
X103552380Y-82678690D01*
X104552380Y-82250119D02*
X103552380Y-82250119D01*
X103552380Y-82012023D01*
X103600000Y-81869166D01*
X103695238Y-81773928D01*
X103790476Y-81726309D01*
X103980952Y-81678690D01*
X104123809Y-81678690D01*
X104314285Y-81726309D01*
X104409523Y-81773928D01*
X104504761Y-81869166D01*
X104552380Y-82012023D01*
X104552380Y-82250119D01*
X104171428Y-81250119D02*
X104171428Y-80488214D01*
D17*
X97716666Y-108328500D02*
X97716666Y-108661833D01*
X97016666Y-108661833D01*
X97350000Y-108095166D02*
X97350000Y-107861833D01*
X97716666Y-107761833D02*
X97716666Y-108095166D01*
X97016666Y-108095166D01*
X97016666Y-107761833D01*
X97716666Y-107461833D02*
X97016666Y-107461833D01*
X97016666Y-107295166D01*
X97050000Y-107195166D01*
X97116666Y-107128500D01*
X97183333Y-107095166D01*
X97316666Y-107061833D01*
X97416666Y-107061833D01*
X97550000Y-107095166D01*
X97616666Y-107128500D01*
X97683333Y-107195166D01*
X97716666Y-107295166D01*
X97716666Y-107461833D01*
X97450000Y-106761833D02*
X97450000Y-106228500D01*
X97716666Y-106495166D02*
X97183333Y-106495166D01*
D14*
X124052380Y-87678690D02*
X124766666Y-87678690D01*
X124909523Y-87726309D01*
X125004761Y-87821547D01*
X125052380Y-87964404D01*
X125052380Y-88059642D01*
X124766666Y-87250119D02*
X124766666Y-86773928D01*
X125052380Y-87345357D02*
X124052380Y-87012023D01*
X125052380Y-86678690D01*
X124957142Y-85773928D02*
X125004761Y-85821547D01*
X125052380Y-85964404D01*
X125052380Y-86059642D01*
X125004761Y-86202500D01*
X124909523Y-86297738D01*
X124814285Y-86345357D01*
X124623809Y-86392976D01*
X124480952Y-86392976D01*
X124290476Y-86345357D01*
X124195238Y-86297738D01*
X124100000Y-86202500D01*
X124052380Y-86059642D01*
X124052380Y-85964404D01*
X124100000Y-85821547D01*
X124147619Y-85773928D01*
X125052380Y-85345357D02*
X124052380Y-85345357D01*
X125052380Y-84773928D02*
X124480952Y-85202500D01*
X124052380Y-84773928D02*
X124623809Y-85345357D01*
X125147619Y-84583452D02*
X125147619Y-83821547D01*
X124100000Y-83059642D02*
X124052380Y-83154880D01*
X124052380Y-83297738D01*
X124100000Y-83440595D01*
X124195238Y-83535833D01*
X124290476Y-83583452D01*
X124480952Y-83631071D01*
X124623809Y-83631071D01*
X124814285Y-83583452D01*
X124909523Y-83535833D01*
X125004761Y-83440595D01*
X125052380Y-83297738D01*
X125052380Y-83202500D01*
X125004761Y-83059642D01*
X124957142Y-83012023D01*
X124623809Y-83012023D01*
X124623809Y-83202500D01*
X125052380Y-82583452D02*
X124052380Y-82583452D01*
X125052380Y-82012023D01*
X124052380Y-82012023D01*
X125052380Y-81535833D02*
X124052380Y-81535833D01*
X124052380Y-81297738D01*
X124100000Y-81154880D01*
X124195238Y-81059642D01*
X124290476Y-81012023D01*
X124480952Y-80964404D01*
X124623809Y-80964404D01*
X124814285Y-81012023D01*
X124909523Y-81059642D01*
X125004761Y-81154880D01*
X125052380Y-81297738D01*
X125052380Y-81535833D01*
D17*
X105516666Y-108661833D02*
X104816666Y-108661833D01*
X104816666Y-108395166D01*
X104850000Y-108328500D01*
X104883333Y-108295166D01*
X104950000Y-108261833D01*
X105050000Y-108261833D01*
X105116666Y-108295166D01*
X105150000Y-108328500D01*
X105183333Y-108395166D01*
X105183333Y-108661833D01*
X105150000Y-107961833D02*
X105150000Y-107728500D01*
X105516666Y-107628500D02*
X105516666Y-107961833D01*
X104816666Y-107961833D01*
X104816666Y-107628500D01*
X105516666Y-107328500D02*
X104816666Y-107328500D01*
X104816666Y-107161833D01*
X104850000Y-107061833D01*
X104916666Y-106995166D01*
X104983333Y-106961833D01*
X105116666Y-106928500D01*
X105216666Y-106928500D01*
X105350000Y-106961833D01*
X105416666Y-106995166D01*
X105483333Y-107061833D01*
X105516666Y-107161833D01*
X105516666Y-107328500D01*
X105316666Y-106661833D02*
X105316666Y-106328500D01*
X105516666Y-106728500D02*
X104816666Y-106495166D01*
X105516666Y-106261833D01*
X105516666Y-105695166D02*
X105516666Y-106028500D01*
X104816666Y-106028500D01*
X105583333Y-105628500D02*
X105583333Y-105095166D01*
X104816666Y-104795166D02*
X104816666Y-104661833D01*
X104850000Y-104595166D01*
X104916666Y-104528500D01*
X105050000Y-104495166D01*
X105283333Y-104495166D01*
X105416666Y-104528500D01*
X105483333Y-104595166D01*
X105516666Y-104661833D01*
X105516666Y-104795166D01*
X105483333Y-104861833D01*
X105416666Y-104928500D01*
X105283333Y-104961833D01*
X105050000Y-104961833D01*
X104916666Y-104928500D01*
X104850000Y-104861833D01*
X104816666Y-104795166D01*
X104816666Y-104195166D02*
X105383333Y-104195166D01*
X105450000Y-104161833D01*
X105483333Y-104128500D01*
X105516666Y-104061833D01*
X105516666Y-103928500D01*
X105483333Y-103861833D01*
X105450000Y-103828500D01*
X105383333Y-103795166D01*
X104816666Y-103795166D01*
X104816666Y-103561833D02*
X104816666Y-103161833D01*
X105516666Y-103361833D02*
X104816666Y-103361833D01*
D14*
X74752380Y-87178690D02*
X75466666Y-87178690D01*
X75609523Y-87226309D01*
X75704761Y-87321547D01*
X75752380Y-87464404D01*
X75752380Y-87559642D01*
X75466666Y-86750119D02*
X75466666Y-86273928D01*
X75752380Y-86845357D02*
X74752380Y-86512023D01*
X75752380Y-86178690D01*
X75657142Y-85273928D02*
X75704761Y-85321547D01*
X75752380Y-85464404D01*
X75752380Y-85559642D01*
X75704761Y-85702500D01*
X75609523Y-85797738D01*
X75514285Y-85845357D01*
X75323809Y-85892976D01*
X75180952Y-85892976D01*
X74990476Y-85845357D01*
X74895238Y-85797738D01*
X74800000Y-85702500D01*
X74752380Y-85559642D01*
X74752380Y-85464404D01*
X74800000Y-85321547D01*
X74847619Y-85273928D01*
X75752380Y-84845357D02*
X74752380Y-84845357D01*
X75752380Y-84273928D02*
X75180952Y-84702500D01*
X74752380Y-84273928D02*
X75323809Y-84845357D01*
X75847619Y-84083452D02*
X75847619Y-83321547D01*
X74800000Y-82559642D02*
X74752380Y-82654880D01*
X74752380Y-82797738D01*
X74800000Y-82940595D01*
X74895238Y-83035833D01*
X74990476Y-83083452D01*
X75180952Y-83131071D01*
X75323809Y-83131071D01*
X75514285Y-83083452D01*
X75609523Y-83035833D01*
X75704761Y-82940595D01*
X75752380Y-82797738D01*
X75752380Y-82702500D01*
X75704761Y-82559642D01*
X75657142Y-82512023D01*
X75323809Y-82512023D01*
X75323809Y-82702500D01*
X75752380Y-82083452D02*
X74752380Y-82083452D01*
X75752380Y-81512023D01*
X74752380Y-81512023D01*
X75752380Y-81035833D02*
X74752380Y-81035833D01*
X74752380Y-80797738D01*
X74800000Y-80654880D01*
X74895238Y-80559642D01*
X74990476Y-80512023D01*
X75180952Y-80464404D01*
X75323809Y-80464404D01*
X75514285Y-80512023D01*
X75609523Y-80559642D01*
X75704761Y-80654880D01*
X75752380Y-80797738D01*
X75752380Y-81035833D01*
X73352380Y-87464404D02*
X72352380Y-87464404D01*
X72352380Y-87083452D01*
X72400000Y-86988214D01*
X72447619Y-86940595D01*
X72542857Y-86892976D01*
X72685714Y-86892976D01*
X72780952Y-86940595D01*
X72828571Y-86988214D01*
X72876190Y-87083452D01*
X72876190Y-87464404D01*
X72828571Y-86464404D02*
X72828571Y-86131071D01*
X73352380Y-85988214D02*
X73352380Y-86464404D01*
X72352380Y-86464404D01*
X72352380Y-85988214D01*
X73352380Y-85559642D02*
X72352380Y-85559642D01*
X72352380Y-85321547D01*
X72400000Y-85178690D01*
X72495238Y-85083452D01*
X72590476Y-85035833D01*
X72780952Y-84988214D01*
X72923809Y-84988214D01*
X73114285Y-85035833D01*
X73209523Y-85083452D01*
X73304761Y-85178690D01*
X73352380Y-85321547D01*
X73352380Y-85559642D01*
X73066666Y-84607261D02*
X73066666Y-84131071D01*
X73352380Y-84702500D02*
X72352380Y-84369166D01*
X73352380Y-84035833D01*
X73352380Y-83226309D02*
X73352380Y-83702500D01*
X72352380Y-83702500D01*
X73447619Y-83131071D02*
X73447619Y-82369166D01*
X73352380Y-82131071D02*
X72352380Y-82131071D01*
X73352380Y-81654880D02*
X72352380Y-81654880D01*
X73352380Y-81083452D01*
X72352380Y-81083452D01*
D17*
X95116666Y-108428500D02*
X95116666Y-108295166D01*
X95083333Y-108228500D01*
X95050000Y-108195166D01*
X94950000Y-108128500D01*
X94816666Y-108095166D01*
X94550000Y-108095166D01*
X94483333Y-108128500D01*
X94450000Y-108161833D01*
X94416666Y-108228500D01*
X94416666Y-108361833D01*
X94450000Y-108428500D01*
X94483333Y-108461833D01*
X94550000Y-108495166D01*
X94716666Y-108495166D01*
X94783333Y-108461833D01*
X94816666Y-108428500D01*
X94850000Y-108361833D01*
X94850000Y-108228500D01*
X94816666Y-108161833D01*
X94783333Y-108128500D01*
X94716666Y-108095166D01*
X94416666Y-107895166D02*
X95116666Y-107661833D01*
X94416666Y-107428500D01*
X91850000Y-108295166D02*
X91816666Y-108361833D01*
X91816666Y-108461833D01*
X91850000Y-108561833D01*
X91916666Y-108628500D01*
X91983333Y-108661833D01*
X92116666Y-108695166D01*
X92216666Y-108695166D01*
X92350000Y-108661833D01*
X92416666Y-108628500D01*
X92483333Y-108561833D01*
X92516666Y-108461833D01*
X92516666Y-108395166D01*
X92483333Y-108295166D01*
X92450000Y-108261833D01*
X92216666Y-108261833D01*
X92216666Y-108395166D01*
X92516666Y-107961833D02*
X91816666Y-107961833D01*
X92516666Y-107561833D01*
X91816666Y-107561833D01*
X92516666Y-107228500D02*
X91816666Y-107228500D01*
X91816666Y-107061833D01*
X91850000Y-106961833D01*
X91916666Y-106895166D01*
X91983333Y-106861833D01*
X92116666Y-106828500D01*
X92216666Y-106828500D01*
X92350000Y-106861833D01*
X92416666Y-106895166D01*
X92483333Y-106961833D01*
X92516666Y-107061833D01*
X92516666Y-107228500D01*
X107750000Y-108428500D02*
X107750000Y-108661833D01*
X108116666Y-108661833D02*
X107416666Y-108661833D01*
X107416666Y-108328500D01*
X107416666Y-108128500D02*
X108116666Y-107661833D01*
X107416666Y-107661833D02*
X108116666Y-108128500D01*
X108183333Y-107561833D02*
X108183333Y-107028500D01*
X107416666Y-106728500D02*
X107416666Y-106595166D01*
X107450000Y-106528500D01*
X107516666Y-106461833D01*
X107650000Y-106428500D01*
X107883333Y-106428500D01*
X108016666Y-106461833D01*
X108083333Y-106528500D01*
X108116666Y-106595166D01*
X108116666Y-106728500D01*
X108083333Y-106795166D01*
X108016666Y-106861833D01*
X107883333Y-106895166D01*
X107650000Y-106895166D01*
X107516666Y-106861833D01*
X107450000Y-106795166D01*
X107416666Y-106728500D01*
X107416666Y-106128500D02*
X107983333Y-106128500D01*
X108050000Y-106095166D01*
X108083333Y-106061833D01*
X108116666Y-105995166D01*
X108116666Y-105861833D01*
X108083333Y-105795166D01*
X108050000Y-105761833D01*
X107983333Y-105728500D01*
X107416666Y-105728500D01*
X107416666Y-105495166D02*
X107416666Y-105095166D01*
X108116666Y-105295166D02*
X107416666Y-105295166D01*
X102550000Y-108428500D02*
X102550000Y-108661833D01*
X102916666Y-108661833D02*
X102216666Y-108661833D01*
X102216666Y-108328500D01*
X102216666Y-108128500D02*
X102916666Y-107661833D01*
X102216666Y-107661833D02*
X102916666Y-108128500D01*
X102983333Y-107561833D02*
X102983333Y-107028500D01*
X102916666Y-106861833D02*
X102216666Y-106861833D01*
X102916666Y-106528500D02*
X102216666Y-106528500D01*
X102916666Y-106128500D01*
X102216666Y-106128500D01*
D14*
X96252380Y-82116785D02*
X96252380Y-81926309D01*
X96204761Y-81831071D01*
X96157142Y-81783452D01*
X96014285Y-81688214D01*
X95823809Y-81640595D01*
X95442857Y-81640595D01*
X95347619Y-81688214D01*
X95300000Y-81735833D01*
X95252380Y-81831071D01*
X95252380Y-82021547D01*
X95300000Y-82116785D01*
X95347619Y-82164404D01*
X95442857Y-82212023D01*
X95680952Y-82212023D01*
X95776190Y-82164404D01*
X95823809Y-82116785D01*
X95871428Y-82021547D01*
X95871428Y-81831071D01*
X95823809Y-81735833D01*
X95776190Y-81688214D01*
X95680952Y-81640595D01*
X95252380Y-81354880D02*
X96252380Y-81021547D01*
X95252380Y-80688214D01*
X92700000Y-82340595D02*
X92652380Y-82435833D01*
X92652380Y-82578690D01*
X92700000Y-82721547D01*
X92795238Y-82816785D01*
X92890476Y-82864404D01*
X93080952Y-82912023D01*
X93223809Y-82912023D01*
X93414285Y-82864404D01*
X93509523Y-82816785D01*
X93604761Y-82721547D01*
X93652380Y-82578690D01*
X93652380Y-82483452D01*
X93604761Y-82340595D01*
X93557142Y-82292976D01*
X93223809Y-82292976D01*
X93223809Y-82483452D01*
X93652380Y-81864404D02*
X92652380Y-81864404D01*
X93652380Y-81292976D01*
X92652380Y-81292976D01*
X93652380Y-80816785D02*
X92652380Y-80816785D01*
X92652380Y-80578690D01*
X92700000Y-80435833D01*
X92795238Y-80340595D01*
X92890476Y-80292976D01*
X93080952Y-80245357D01*
X93223809Y-80245357D01*
X93414285Y-80292976D01*
X93509523Y-80340595D01*
X93604761Y-80435833D01*
X93652380Y-80578690D01*
X93652380Y-80816785D01*
X99330952Y-86007142D02*
X99283333Y-86054761D01*
X99140476Y-86102380D01*
X99045238Y-86102380D01*
X98902380Y-86054761D01*
X98807142Y-85959523D01*
X98759523Y-85864285D01*
X98711904Y-85673809D01*
X98711904Y-85530952D01*
X98759523Y-85340476D01*
X98807142Y-85245238D01*
X98902380Y-85150000D01*
X99045238Y-85102380D01*
X99140476Y-85102380D01*
X99283333Y-85150000D01*
X99330952Y-85197619D01*
X99759523Y-85435714D02*
X99759523Y-86435714D01*
X99759523Y-85483333D02*
X99854761Y-85435714D01*
X100045238Y-85435714D01*
X100140476Y-85483333D01*
X100188095Y-85530952D01*
X100235714Y-85626190D01*
X100235714Y-85911904D01*
X100188095Y-86007142D01*
X100140476Y-86054761D01*
X100045238Y-86102380D01*
X99854761Y-86102380D01*
X99759523Y-86054761D01*
X101188095Y-86102380D02*
X100616666Y-86102380D01*
X100902380Y-86102380D02*
X100902380Y-85102380D01*
X100807142Y-85245238D01*
X100711904Y-85340476D01*
X100616666Y-85388095D01*
X99733333Y-97707142D02*
X99685714Y-97754761D01*
X99542857Y-97802380D01*
X99447619Y-97802380D01*
X99304761Y-97754761D01*
X99209523Y-97659523D01*
X99161904Y-97564285D01*
X99114285Y-97373809D01*
X99114285Y-97230952D01*
X99161904Y-97040476D01*
X99209523Y-96945238D01*
X99304761Y-96850000D01*
X99447619Y-96802380D01*
X99542857Y-96802380D01*
X99685714Y-96850000D01*
X99733333Y-96897619D01*
X100114285Y-96897619D02*
X100161904Y-96850000D01*
X100257142Y-96802380D01*
X100495238Y-96802380D01*
X100590476Y-96850000D01*
X100638095Y-96897619D01*
X100685714Y-96992857D01*
X100685714Y-97088095D01*
X100638095Y-97230952D01*
X100066666Y-97802380D01*
X100685714Y-97802380D01*
X83333333Y-114657142D02*
X83285714Y-114704761D01*
X83142857Y-114752380D01*
X83047619Y-114752380D01*
X82904761Y-114704761D01*
X82809523Y-114609523D01*
X82761904Y-114514285D01*
X82714285Y-114323809D01*
X82714285Y-114180952D01*
X82761904Y-113990476D01*
X82809523Y-113895238D01*
X82904761Y-113800000D01*
X83047619Y-113752380D01*
X83142857Y-113752380D01*
X83285714Y-113800000D01*
X83333333Y-113847619D01*
X84285714Y-114752380D02*
X83714285Y-114752380D01*
X84000000Y-114752380D02*
X84000000Y-113752380D01*
X83904761Y-113895238D01*
X83809523Y-113990476D01*
X83714285Y-114038095D01*
X98222000Y-62589428D02*
X97714000Y-61863714D01*
X97351142Y-62589428D02*
X97351142Y-61065428D01*
X97931714Y-61065428D01*
X98076857Y-61138000D01*
X98149428Y-61210571D01*
X98222000Y-61355714D01*
X98222000Y-61573428D01*
X98149428Y-61718571D01*
X98076857Y-61791142D01*
X97931714Y-61863714D01*
X97351142Y-61863714D01*
X99455714Y-62516857D02*
X99310571Y-62589428D01*
X99020285Y-62589428D01*
X98875142Y-62516857D01*
X98802571Y-62371714D01*
X98802571Y-61791142D01*
X98875142Y-61646000D01*
X99020285Y-61573428D01*
X99310571Y-61573428D01*
X99455714Y-61646000D01*
X99528285Y-61791142D01*
X99528285Y-61936285D01*
X98802571Y-62081428D01*
X99963714Y-61573428D02*
X100544285Y-61573428D01*
X100181428Y-62589428D02*
X100181428Y-61283142D01*
X100254000Y-61138000D01*
X100399142Y-61065428D01*
X100544285Y-61065428D01*
X101270000Y-61065428D02*
X101270000Y-61428285D01*
X100907142Y-61283142D02*
X101270000Y-61428285D01*
X101632857Y-61283142D01*
X101052285Y-61718571D02*
X101270000Y-61428285D01*
X101487714Y-61718571D01*
X102431142Y-61065428D02*
X102431142Y-61428285D01*
X102068285Y-61283142D02*
X102431142Y-61428285D01*
X102794000Y-61283142D01*
X102213428Y-61718571D02*
X102431142Y-61428285D01*
X102648857Y-61718571D01*
X97242285Y-61065428D02*
X97750285Y-62589428D01*
X98258285Y-61065428D01*
X99419428Y-62589428D02*
X99419428Y-61791142D01*
X99346857Y-61646000D01*
X99201714Y-61573428D01*
X98911428Y-61573428D01*
X98766285Y-61646000D01*
X99419428Y-62516857D02*
X99274285Y-62589428D01*
X98911428Y-62589428D01*
X98766285Y-62516857D01*
X98693714Y-62371714D01*
X98693714Y-62226571D01*
X98766285Y-62081428D01*
X98911428Y-62008857D01*
X99274285Y-62008857D01*
X99419428Y-61936285D01*
X100362857Y-62589428D02*
X100217714Y-62516857D01*
X100145142Y-62371714D01*
X100145142Y-61065428D01*
X101161142Y-61065428D02*
X101161142Y-61428285D01*
X100798285Y-61283142D02*
X101161142Y-61428285D01*
X101524000Y-61283142D01*
X100943428Y-61718571D02*
X101161142Y-61428285D01*
X101378857Y-61718571D01*
X102322285Y-61065428D02*
X102322285Y-61428285D01*
X101959428Y-61283142D02*
X102322285Y-61428285D01*
X102685142Y-61283142D01*
X102104571Y-61718571D02*
X102322285Y-61428285D01*
X102540000Y-61718571D01*
X113866666Y-16952380D02*
X113533333Y-16476190D01*
X113295238Y-16952380D02*
X113295238Y-15952380D01*
X113676190Y-15952380D01*
X113771428Y-16000000D01*
X113819047Y-16047619D01*
X113866666Y-16142857D01*
X113866666Y-16285714D01*
X113819047Y-16380952D01*
X113771428Y-16428571D01*
X113676190Y-16476190D01*
X113295238Y-16476190D01*
X114295238Y-16428571D02*
X114628571Y-16428571D01*
X114771428Y-16952380D02*
X114295238Y-16952380D01*
X114295238Y-15952380D01*
X114771428Y-15952380D01*
X115533333Y-16428571D02*
X115200000Y-16428571D01*
X115200000Y-16952380D02*
X115200000Y-15952380D01*
X115676190Y-15952380D01*
X116200000Y-15952380D02*
X116200000Y-16190476D01*
X115961904Y-16095238D02*
X116200000Y-16190476D01*
X116438095Y-16095238D01*
X116057142Y-16380952D02*
X116200000Y-16190476D01*
X116342857Y-16380952D01*
X116961904Y-15952380D02*
X116961904Y-16190476D01*
X116723809Y-16095238D02*
X116961904Y-16190476D01*
X117200000Y-16095238D01*
X116819047Y-16380952D02*
X116961904Y-16190476D01*
X117104761Y-16380952D01*
X85752380Y-17333333D02*
X85276190Y-17666666D01*
X85752380Y-17904761D02*
X84752380Y-17904761D01*
X84752380Y-17523809D01*
X84800000Y-17428571D01*
X84847619Y-17380952D01*
X84942857Y-17333333D01*
X85085714Y-17333333D01*
X85180952Y-17380952D01*
X85228571Y-17428571D01*
X85276190Y-17523809D01*
X85276190Y-17904761D01*
X85228571Y-16904761D02*
X85228571Y-16571428D01*
X85752380Y-16428571D02*
X85752380Y-16904761D01*
X84752380Y-16904761D01*
X84752380Y-16428571D01*
X85228571Y-15666666D02*
X85228571Y-16000000D01*
X85752380Y-16000000D02*
X84752380Y-16000000D01*
X84752380Y-15523809D01*
X84752380Y-15000000D02*
X84990476Y-15000000D01*
X84895238Y-15238095D02*
X84990476Y-15000000D01*
X84895238Y-14761904D01*
X85180952Y-15142857D02*
X84990476Y-15000000D01*
X85180952Y-14857142D01*
X84752380Y-14238095D02*
X84990476Y-14238095D01*
X84895238Y-14476190D02*
X84990476Y-14238095D01*
X84895238Y-14000000D01*
X85180952Y-14380952D02*
X84990476Y-14238095D01*
X85180952Y-14095238D01*
X114752380Y-44433333D02*
X114276190Y-44766666D01*
X114752380Y-45004761D02*
X113752380Y-45004761D01*
X113752380Y-44623809D01*
X113800000Y-44528571D01*
X113847619Y-44480952D01*
X113942857Y-44433333D01*
X114085714Y-44433333D01*
X114180952Y-44480952D01*
X114228571Y-44528571D01*
X114276190Y-44623809D01*
X114276190Y-45004761D01*
X114228571Y-44004761D02*
X114228571Y-43671428D01*
X114752380Y-43528571D02*
X114752380Y-44004761D01*
X113752380Y-44004761D01*
X113752380Y-43528571D01*
X114228571Y-42766666D02*
X114228571Y-43100000D01*
X114752380Y-43100000D02*
X113752380Y-43100000D01*
X113752380Y-42623809D01*
X113752380Y-42100000D02*
X113990476Y-42100000D01*
X113895238Y-42338095D02*
X113990476Y-42100000D01*
X113895238Y-41861904D01*
X114180952Y-42242857D02*
X113990476Y-42100000D01*
X114180952Y-41957142D01*
X113752380Y-41338095D02*
X113990476Y-41338095D01*
X113895238Y-41576190D02*
X113990476Y-41338095D01*
X113895238Y-41100000D01*
X114180952Y-41480952D02*
X113990476Y-41338095D01*
X114180952Y-41195238D01*
X84752380Y-44433333D02*
X84276190Y-44766666D01*
X84752380Y-45004761D02*
X83752380Y-45004761D01*
X83752380Y-44623809D01*
X83800000Y-44528571D01*
X83847619Y-44480952D01*
X83942857Y-44433333D01*
X84085714Y-44433333D01*
X84180952Y-44480952D01*
X84228571Y-44528571D01*
X84276190Y-44623809D01*
X84276190Y-45004761D01*
X84228571Y-44004761D02*
X84228571Y-43671428D01*
X84752380Y-43528571D02*
X84752380Y-44004761D01*
X83752380Y-44004761D01*
X83752380Y-43528571D01*
X84228571Y-42766666D02*
X84228571Y-43100000D01*
X84752380Y-43100000D02*
X83752380Y-43100000D01*
X83752380Y-42623809D01*
X83752380Y-42100000D02*
X83990476Y-42100000D01*
X83895238Y-42338095D02*
X83990476Y-42100000D01*
X83895238Y-41861904D01*
X84180952Y-42242857D02*
X83990476Y-42100000D01*
X84180952Y-41957142D01*
X83752380Y-41338095D02*
X83990476Y-41338095D01*
X83895238Y-41576190D02*
X83990476Y-41338095D01*
X83895238Y-41100000D01*
X84180952Y-41480952D02*
X83990476Y-41338095D01*
X84180952Y-41195238D01*
D18*
X123070617Y-76209310D02*
X122629382Y-76209310D01*
X122850000Y-76209310D02*
X122850000Y-75437150D01*
X122776460Y-75547459D01*
X122702921Y-75620998D01*
X122629382Y-75657767D01*
X90070617Y-76209310D02*
X89629382Y-76209310D01*
X89850000Y-76209310D02*
X89850000Y-75437150D01*
X89776460Y-75547459D01*
X89702921Y-75620998D01*
X89629382Y-75657767D01*
%LPC*%
D19*
X86040000Y-100000000D03*
X83500000Y-97460000D03*
X80960000Y-100000000D03*
X119040000Y-100000000D03*
X116500000Y-97460000D03*
X113960000Y-100000000D03*
D20*
X115100000Y-110500000D03*
D21*
X117600000Y-110500000D03*
D22*
X119040000Y-88900000D03*
X116500000Y-88900000D03*
D23*
X113960000Y-88900000D03*
D22*
X86040000Y-88900000D03*
X83500000Y-88900000D03*
D23*
X80960000Y-88900000D03*
D24*
X96080000Y-88900000D03*
D20*
X103700000Y-88900000D03*
D24*
X96080000Y-100000000D03*
D20*
X103700000Y-100000000D03*
D25*
X106700000Y-78400000D03*
X127200000Y-78400000D03*
X100000000Y-110900000D03*
X104100000Y-78400000D03*
X97400000Y-110900000D03*
X124600000Y-78400000D03*
X105200000Y-110900000D03*
X75400000Y-78400000D03*
X72800000Y-78400000D03*
X94800000Y-110900000D03*
X92200000Y-110900000D03*
X107800000Y-110900000D03*
X102600000Y-110900000D03*
X95800000Y-78400000D03*
X93300000Y-78400000D03*
D20*
X98700000Y-81900000D03*
D21*
X101200000Y-81900000D03*
D20*
X97400000Y-94500000D03*
X102400000Y-94500000D03*
X84800000Y-110500000D03*
D21*
X82300000Y-110500000D03*
D26*
X111420000Y-78400000D03*
X116500000Y-78400000D03*
D27*
X121580000Y-78400000D03*
D26*
X78420000Y-78400000D03*
X83500000Y-78400000D03*
D27*
X88580000Y-78400000D03*
M02*
