G04 #@! TF.GenerationSoftware,KiCad,Pcbnew,(5.1.5-0-10_14)*
G04 #@! TF.CreationDate,2021-12-30T16:01:06+01:00*
G04 #@! TF.ProjectId,npnium,6e706e69-756d-42e6-9b69-6361645f7063,rev?*
G04 #@! TF.SameCoordinates,Original*
G04 #@! TF.FileFunction,Soldermask,Top*
G04 #@! TF.FilePolarity,Negative*
%FSLAX46Y46*%
G04 Gerber Fmt 4.6, Leading zero omitted, Abs format (unit mm)*
G04 Created by KiCad (PCBNEW (5.1.5-0-10_14)) date 2021-12-30 16:01:06*
%MOMM*%
%LPD*%
G04 APERTURE LIST*
%ADD10C,0.100000*%
G04 APERTURE END LIST*
D10*
G36*
X92366822Y-109361313D02*
G01*
X92527241Y-109409976D01*
X92675077Y-109488995D01*
X92804659Y-109595341D01*
X92911004Y-109724922D01*
X92911005Y-109724924D01*
X92990024Y-109872758D01*
X93038687Y-110033177D01*
X93051000Y-110158196D01*
X93051000Y-111641804D01*
X93038687Y-111766823D01*
X92990024Y-111927242D01*
X92919114Y-112059906D01*
X92911004Y-112075078D01*
X92804659Y-112204659D01*
X92675078Y-112311004D01*
X92675076Y-112311005D01*
X92527242Y-112390024D01*
X92366823Y-112438687D01*
X92200000Y-112455117D01*
X92033178Y-112438687D01*
X91872759Y-112390024D01*
X91724925Y-112311005D01*
X91724923Y-112311004D01*
X91595342Y-112204659D01*
X91488997Y-112075078D01*
X91480887Y-112059906D01*
X91409977Y-111927242D01*
X91361314Y-111766823D01*
X91349001Y-111641804D01*
X91349000Y-110158197D01*
X91361313Y-110033178D01*
X91409976Y-109872759D01*
X91488995Y-109724923D01*
X91595341Y-109595341D01*
X91724922Y-109488996D01*
X91740094Y-109480886D01*
X91872758Y-109409976D01*
X92033177Y-109361313D01*
X92200000Y-109344883D01*
X92366822Y-109361313D01*
G37*
G36*
X94966822Y-109361313D02*
G01*
X95127241Y-109409976D01*
X95275077Y-109488995D01*
X95404659Y-109595341D01*
X95511004Y-109724922D01*
X95511005Y-109724924D01*
X95590024Y-109872758D01*
X95638687Y-110033177D01*
X95651000Y-110158196D01*
X95651000Y-111641804D01*
X95638687Y-111766823D01*
X95590024Y-111927242D01*
X95519114Y-112059906D01*
X95511004Y-112075078D01*
X95404659Y-112204659D01*
X95275078Y-112311004D01*
X95275076Y-112311005D01*
X95127242Y-112390024D01*
X94966823Y-112438687D01*
X94800000Y-112455117D01*
X94633178Y-112438687D01*
X94472759Y-112390024D01*
X94324925Y-112311005D01*
X94324923Y-112311004D01*
X94195342Y-112204659D01*
X94088997Y-112075078D01*
X94080887Y-112059906D01*
X94009977Y-111927242D01*
X93961314Y-111766823D01*
X93949001Y-111641804D01*
X93949000Y-110158197D01*
X93961313Y-110033178D01*
X94009976Y-109872759D01*
X94088995Y-109724923D01*
X94195341Y-109595341D01*
X94324922Y-109488996D01*
X94340094Y-109480886D01*
X94472758Y-109409976D01*
X94633177Y-109361313D01*
X94800000Y-109344883D01*
X94966822Y-109361313D01*
G37*
G36*
X97566822Y-109361313D02*
G01*
X97727241Y-109409976D01*
X97875077Y-109488995D01*
X98004659Y-109595341D01*
X98111004Y-109724922D01*
X98111005Y-109724924D01*
X98190024Y-109872758D01*
X98238687Y-110033177D01*
X98251000Y-110158196D01*
X98251000Y-111641804D01*
X98238687Y-111766823D01*
X98190024Y-111927242D01*
X98119114Y-112059906D01*
X98111004Y-112075078D01*
X98004659Y-112204659D01*
X97875078Y-112311004D01*
X97875076Y-112311005D01*
X97727242Y-112390024D01*
X97566823Y-112438687D01*
X97400000Y-112455117D01*
X97233178Y-112438687D01*
X97072759Y-112390024D01*
X96924925Y-112311005D01*
X96924923Y-112311004D01*
X96795342Y-112204659D01*
X96688997Y-112075078D01*
X96680887Y-112059906D01*
X96609977Y-111927242D01*
X96561314Y-111766823D01*
X96549001Y-111641804D01*
X96549000Y-110158197D01*
X96561313Y-110033178D01*
X96609976Y-109872759D01*
X96688995Y-109724923D01*
X96795341Y-109595341D01*
X96924922Y-109488996D01*
X96940094Y-109480886D01*
X97072758Y-109409976D01*
X97233177Y-109361313D01*
X97400000Y-109344883D01*
X97566822Y-109361313D01*
G37*
G36*
X100166822Y-109361313D02*
G01*
X100327241Y-109409976D01*
X100475077Y-109488995D01*
X100604659Y-109595341D01*
X100711004Y-109724922D01*
X100711005Y-109724924D01*
X100790024Y-109872758D01*
X100838687Y-110033177D01*
X100851000Y-110158196D01*
X100851000Y-111641804D01*
X100838687Y-111766823D01*
X100790024Y-111927242D01*
X100719114Y-112059906D01*
X100711004Y-112075078D01*
X100604659Y-112204659D01*
X100475078Y-112311004D01*
X100475076Y-112311005D01*
X100327242Y-112390024D01*
X100166823Y-112438687D01*
X100000000Y-112455117D01*
X99833178Y-112438687D01*
X99672759Y-112390024D01*
X99524925Y-112311005D01*
X99524923Y-112311004D01*
X99395342Y-112204659D01*
X99288997Y-112075078D01*
X99280887Y-112059906D01*
X99209977Y-111927242D01*
X99161314Y-111766823D01*
X99149001Y-111641804D01*
X99149000Y-110158197D01*
X99161313Y-110033178D01*
X99209976Y-109872759D01*
X99288995Y-109724923D01*
X99395341Y-109595341D01*
X99524922Y-109488996D01*
X99540094Y-109480886D01*
X99672758Y-109409976D01*
X99833177Y-109361313D01*
X100000000Y-109344883D01*
X100166822Y-109361313D01*
G37*
G36*
X102766822Y-109361313D02*
G01*
X102927241Y-109409976D01*
X103075077Y-109488995D01*
X103204659Y-109595341D01*
X103311004Y-109724922D01*
X103311005Y-109724924D01*
X103390024Y-109872758D01*
X103438687Y-110033177D01*
X103451000Y-110158196D01*
X103451000Y-111641804D01*
X103438687Y-111766823D01*
X103390024Y-111927242D01*
X103319114Y-112059906D01*
X103311004Y-112075078D01*
X103204659Y-112204659D01*
X103075078Y-112311004D01*
X103075076Y-112311005D01*
X102927242Y-112390024D01*
X102766823Y-112438687D01*
X102600000Y-112455117D01*
X102433178Y-112438687D01*
X102272759Y-112390024D01*
X102124925Y-112311005D01*
X102124923Y-112311004D01*
X101995342Y-112204659D01*
X101888997Y-112075078D01*
X101880887Y-112059906D01*
X101809977Y-111927242D01*
X101761314Y-111766823D01*
X101749001Y-111641804D01*
X101749000Y-110158197D01*
X101761313Y-110033178D01*
X101809976Y-109872759D01*
X101888995Y-109724923D01*
X101995341Y-109595341D01*
X102124922Y-109488996D01*
X102140094Y-109480886D01*
X102272758Y-109409976D01*
X102433177Y-109361313D01*
X102600000Y-109344883D01*
X102766822Y-109361313D01*
G37*
G36*
X105366822Y-109361313D02*
G01*
X105527241Y-109409976D01*
X105675077Y-109488995D01*
X105804659Y-109595341D01*
X105911004Y-109724922D01*
X105911005Y-109724924D01*
X105990024Y-109872758D01*
X106038687Y-110033177D01*
X106051000Y-110158196D01*
X106051000Y-111641804D01*
X106038687Y-111766823D01*
X105990024Y-111927242D01*
X105919114Y-112059906D01*
X105911004Y-112075078D01*
X105804659Y-112204659D01*
X105675078Y-112311004D01*
X105675076Y-112311005D01*
X105527242Y-112390024D01*
X105366823Y-112438687D01*
X105200000Y-112455117D01*
X105033178Y-112438687D01*
X104872759Y-112390024D01*
X104724925Y-112311005D01*
X104724923Y-112311004D01*
X104595342Y-112204659D01*
X104488997Y-112075078D01*
X104480887Y-112059906D01*
X104409977Y-111927242D01*
X104361314Y-111766823D01*
X104349001Y-111641804D01*
X104349000Y-110158197D01*
X104361313Y-110033178D01*
X104409976Y-109872759D01*
X104488995Y-109724923D01*
X104595341Y-109595341D01*
X104724922Y-109488996D01*
X104740094Y-109480886D01*
X104872758Y-109409976D01*
X105033177Y-109361313D01*
X105200000Y-109344883D01*
X105366822Y-109361313D01*
G37*
G36*
X107966822Y-109361313D02*
G01*
X108127241Y-109409976D01*
X108275077Y-109488995D01*
X108404659Y-109595341D01*
X108511004Y-109724922D01*
X108511005Y-109724924D01*
X108590024Y-109872758D01*
X108638687Y-110033177D01*
X108651000Y-110158196D01*
X108651000Y-111641804D01*
X108638687Y-111766823D01*
X108590024Y-111927242D01*
X108519114Y-112059906D01*
X108511004Y-112075078D01*
X108404659Y-112204659D01*
X108275078Y-112311004D01*
X108275076Y-112311005D01*
X108127242Y-112390024D01*
X107966823Y-112438687D01*
X107800000Y-112455117D01*
X107633178Y-112438687D01*
X107472759Y-112390024D01*
X107324925Y-112311005D01*
X107324923Y-112311004D01*
X107195342Y-112204659D01*
X107088997Y-112075078D01*
X107080887Y-112059906D01*
X107009977Y-111927242D01*
X106961314Y-111766823D01*
X106949001Y-111641804D01*
X106949000Y-110158197D01*
X106961313Y-110033178D01*
X107009976Y-109872759D01*
X107088995Y-109724923D01*
X107195341Y-109595341D01*
X107324922Y-109488996D01*
X107340094Y-109480886D01*
X107472758Y-109409976D01*
X107633177Y-109361313D01*
X107800000Y-109344883D01*
X107966822Y-109361313D01*
G37*
G36*
X118451000Y-111351000D02*
G01*
X116749000Y-111351000D01*
X116749000Y-109649000D01*
X118451000Y-109649000D01*
X118451000Y-111351000D01*
G37*
G36*
X115348228Y-109681703D02*
G01*
X115503100Y-109745853D01*
X115642481Y-109838985D01*
X115761015Y-109957519D01*
X115854147Y-110096900D01*
X115918297Y-110251772D01*
X115951000Y-110416184D01*
X115951000Y-110583816D01*
X115918297Y-110748228D01*
X115854147Y-110903100D01*
X115761015Y-111042481D01*
X115642481Y-111161015D01*
X115503100Y-111254147D01*
X115348228Y-111318297D01*
X115183816Y-111351000D01*
X115016184Y-111351000D01*
X114851772Y-111318297D01*
X114696900Y-111254147D01*
X114557519Y-111161015D01*
X114438985Y-111042481D01*
X114345853Y-110903100D01*
X114281703Y-110748228D01*
X114249000Y-110583816D01*
X114249000Y-110416184D01*
X114281703Y-110251772D01*
X114345853Y-110096900D01*
X114438985Y-109957519D01*
X114557519Y-109838985D01*
X114696900Y-109745853D01*
X114851772Y-109681703D01*
X115016184Y-109649000D01*
X115183816Y-109649000D01*
X115348228Y-109681703D01*
G37*
G36*
X85048228Y-109681703D02*
G01*
X85203100Y-109745853D01*
X85342481Y-109838985D01*
X85461015Y-109957519D01*
X85554147Y-110096900D01*
X85618297Y-110251772D01*
X85651000Y-110416184D01*
X85651000Y-110583816D01*
X85618297Y-110748228D01*
X85554147Y-110903100D01*
X85461015Y-111042481D01*
X85342481Y-111161015D01*
X85203100Y-111254147D01*
X85048228Y-111318297D01*
X84883816Y-111351000D01*
X84716184Y-111351000D01*
X84551772Y-111318297D01*
X84396900Y-111254147D01*
X84257519Y-111161015D01*
X84138985Y-111042481D01*
X84045853Y-110903100D01*
X83981703Y-110748228D01*
X83949000Y-110583816D01*
X83949000Y-110416184D01*
X83981703Y-110251772D01*
X84045853Y-110096900D01*
X84138985Y-109957519D01*
X84257519Y-109838985D01*
X84396900Y-109745853D01*
X84551772Y-109681703D01*
X84716184Y-109649000D01*
X84883816Y-109649000D01*
X85048228Y-109681703D01*
G37*
G36*
X83151000Y-111351000D02*
G01*
X81449000Y-111351000D01*
X81449000Y-109649000D01*
X83151000Y-109649000D01*
X83151000Y-111351000D01*
G37*
G36*
X103948228Y-99181703D02*
G01*
X104103100Y-99245853D01*
X104242481Y-99338985D01*
X104361015Y-99457519D01*
X104454147Y-99596900D01*
X104518297Y-99751772D01*
X104551000Y-99916184D01*
X104551000Y-100083816D01*
X104518297Y-100248228D01*
X104454147Y-100403100D01*
X104361015Y-100542481D01*
X104242481Y-100661015D01*
X104103100Y-100754147D01*
X103948228Y-100818297D01*
X103783816Y-100851000D01*
X103616184Y-100851000D01*
X103451772Y-100818297D01*
X103296900Y-100754147D01*
X103157519Y-100661015D01*
X103038985Y-100542481D01*
X102945853Y-100403100D01*
X102881703Y-100248228D01*
X102849000Y-100083816D01*
X102849000Y-99916184D01*
X102881703Y-99751772D01*
X102945853Y-99596900D01*
X103038985Y-99457519D01*
X103157519Y-99338985D01*
X103296900Y-99245853D01*
X103451772Y-99181703D01*
X103616184Y-99149000D01*
X103783816Y-99149000D01*
X103948228Y-99181703D01*
G37*
G36*
X96328228Y-99181703D02*
G01*
X96483100Y-99245853D01*
X96622481Y-99338985D01*
X96741015Y-99457519D01*
X96834147Y-99596900D01*
X96898297Y-99751772D01*
X96931000Y-99916184D01*
X96931000Y-100083816D01*
X96898297Y-100248228D01*
X96834147Y-100403100D01*
X96741015Y-100542481D01*
X96622481Y-100661015D01*
X96483100Y-100754147D01*
X96328228Y-100818297D01*
X96163816Y-100851000D01*
X95996184Y-100851000D01*
X95831772Y-100818297D01*
X95676900Y-100754147D01*
X95537519Y-100661015D01*
X95418985Y-100542481D01*
X95325853Y-100403100D01*
X95261703Y-100248228D01*
X95229000Y-100083816D01*
X95229000Y-99916184D01*
X95261703Y-99751772D01*
X95325853Y-99596900D01*
X95418985Y-99457519D01*
X95537519Y-99338985D01*
X95676900Y-99245853D01*
X95831772Y-99181703D01*
X95996184Y-99149000D01*
X96163816Y-99149000D01*
X96328228Y-99181703D01*
G37*
G36*
X86277142Y-99218242D02*
G01*
X86425101Y-99279529D01*
X86558255Y-99368499D01*
X86671501Y-99481745D01*
X86760471Y-99614899D01*
X86821758Y-99762858D01*
X86853000Y-99919925D01*
X86853000Y-100080075D01*
X86821758Y-100237142D01*
X86760471Y-100385101D01*
X86671501Y-100518255D01*
X86558255Y-100631501D01*
X86425101Y-100720471D01*
X86277142Y-100781758D01*
X86120075Y-100813000D01*
X85959925Y-100813000D01*
X85802858Y-100781758D01*
X85654899Y-100720471D01*
X85521745Y-100631501D01*
X85408499Y-100518255D01*
X85319529Y-100385101D01*
X85258242Y-100237142D01*
X85227000Y-100080075D01*
X85227000Y-99919925D01*
X85258242Y-99762858D01*
X85319529Y-99614899D01*
X85408499Y-99481745D01*
X85521745Y-99368499D01*
X85654899Y-99279529D01*
X85802858Y-99218242D01*
X85959925Y-99187000D01*
X86120075Y-99187000D01*
X86277142Y-99218242D01*
G37*
G36*
X119277142Y-99218242D02*
G01*
X119425101Y-99279529D01*
X119558255Y-99368499D01*
X119671501Y-99481745D01*
X119760471Y-99614899D01*
X119821758Y-99762858D01*
X119853000Y-99919925D01*
X119853000Y-100080075D01*
X119821758Y-100237142D01*
X119760471Y-100385101D01*
X119671501Y-100518255D01*
X119558255Y-100631501D01*
X119425101Y-100720471D01*
X119277142Y-100781758D01*
X119120075Y-100813000D01*
X118959925Y-100813000D01*
X118802858Y-100781758D01*
X118654899Y-100720471D01*
X118521745Y-100631501D01*
X118408499Y-100518255D01*
X118319529Y-100385101D01*
X118258242Y-100237142D01*
X118227000Y-100080075D01*
X118227000Y-99919925D01*
X118258242Y-99762858D01*
X118319529Y-99614899D01*
X118408499Y-99481745D01*
X118521745Y-99368499D01*
X118654899Y-99279529D01*
X118802858Y-99218242D01*
X118959925Y-99187000D01*
X119120075Y-99187000D01*
X119277142Y-99218242D01*
G37*
G36*
X114197142Y-99218242D02*
G01*
X114345101Y-99279529D01*
X114478255Y-99368499D01*
X114591501Y-99481745D01*
X114680471Y-99614899D01*
X114741758Y-99762858D01*
X114773000Y-99919925D01*
X114773000Y-100080075D01*
X114741758Y-100237142D01*
X114680471Y-100385101D01*
X114591501Y-100518255D01*
X114478255Y-100631501D01*
X114345101Y-100720471D01*
X114197142Y-100781758D01*
X114040075Y-100813000D01*
X113879925Y-100813000D01*
X113722858Y-100781758D01*
X113574899Y-100720471D01*
X113441745Y-100631501D01*
X113328499Y-100518255D01*
X113239529Y-100385101D01*
X113178242Y-100237142D01*
X113147000Y-100080075D01*
X113147000Y-99919925D01*
X113178242Y-99762858D01*
X113239529Y-99614899D01*
X113328499Y-99481745D01*
X113441745Y-99368499D01*
X113574899Y-99279529D01*
X113722858Y-99218242D01*
X113879925Y-99187000D01*
X114040075Y-99187000D01*
X114197142Y-99218242D01*
G37*
G36*
X81197142Y-99218242D02*
G01*
X81345101Y-99279529D01*
X81478255Y-99368499D01*
X81591501Y-99481745D01*
X81680471Y-99614899D01*
X81741758Y-99762858D01*
X81773000Y-99919925D01*
X81773000Y-100080075D01*
X81741758Y-100237142D01*
X81680471Y-100385101D01*
X81591501Y-100518255D01*
X81478255Y-100631501D01*
X81345101Y-100720471D01*
X81197142Y-100781758D01*
X81040075Y-100813000D01*
X80879925Y-100813000D01*
X80722858Y-100781758D01*
X80574899Y-100720471D01*
X80441745Y-100631501D01*
X80328499Y-100518255D01*
X80239529Y-100385101D01*
X80178242Y-100237142D01*
X80147000Y-100080075D01*
X80147000Y-99919925D01*
X80178242Y-99762858D01*
X80239529Y-99614899D01*
X80328499Y-99481745D01*
X80441745Y-99368499D01*
X80574899Y-99279529D01*
X80722858Y-99218242D01*
X80879925Y-99187000D01*
X81040075Y-99187000D01*
X81197142Y-99218242D01*
G37*
G36*
X116737142Y-96678242D02*
G01*
X116885101Y-96739529D01*
X117018255Y-96828499D01*
X117131501Y-96941745D01*
X117220471Y-97074899D01*
X117281758Y-97222858D01*
X117313000Y-97379925D01*
X117313000Y-97540075D01*
X117281758Y-97697142D01*
X117220471Y-97845101D01*
X117131501Y-97978255D01*
X117018255Y-98091501D01*
X116885101Y-98180471D01*
X116737142Y-98241758D01*
X116580075Y-98273000D01*
X116419925Y-98273000D01*
X116262858Y-98241758D01*
X116114899Y-98180471D01*
X115981745Y-98091501D01*
X115868499Y-97978255D01*
X115779529Y-97845101D01*
X115718242Y-97697142D01*
X115687000Y-97540075D01*
X115687000Y-97379925D01*
X115718242Y-97222858D01*
X115779529Y-97074899D01*
X115868499Y-96941745D01*
X115981745Y-96828499D01*
X116114899Y-96739529D01*
X116262858Y-96678242D01*
X116419925Y-96647000D01*
X116580075Y-96647000D01*
X116737142Y-96678242D01*
G37*
G36*
X83737142Y-96678242D02*
G01*
X83885101Y-96739529D01*
X84018255Y-96828499D01*
X84131501Y-96941745D01*
X84220471Y-97074899D01*
X84281758Y-97222858D01*
X84313000Y-97379925D01*
X84313000Y-97540075D01*
X84281758Y-97697142D01*
X84220471Y-97845101D01*
X84131501Y-97978255D01*
X84018255Y-98091501D01*
X83885101Y-98180471D01*
X83737142Y-98241758D01*
X83580075Y-98273000D01*
X83419925Y-98273000D01*
X83262858Y-98241758D01*
X83114899Y-98180471D01*
X82981745Y-98091501D01*
X82868499Y-97978255D01*
X82779529Y-97845101D01*
X82718242Y-97697142D01*
X82687000Y-97540075D01*
X82687000Y-97379925D01*
X82718242Y-97222858D01*
X82779529Y-97074899D01*
X82868499Y-96941745D01*
X82981745Y-96828499D01*
X83114899Y-96739529D01*
X83262858Y-96678242D01*
X83419925Y-96647000D01*
X83580075Y-96647000D01*
X83737142Y-96678242D01*
G37*
G36*
X102648228Y-93681703D02*
G01*
X102803100Y-93745853D01*
X102942481Y-93838985D01*
X103061015Y-93957519D01*
X103154147Y-94096900D01*
X103218297Y-94251772D01*
X103251000Y-94416184D01*
X103251000Y-94583816D01*
X103218297Y-94748228D01*
X103154147Y-94903100D01*
X103061015Y-95042481D01*
X102942481Y-95161015D01*
X102803100Y-95254147D01*
X102648228Y-95318297D01*
X102483816Y-95351000D01*
X102316184Y-95351000D01*
X102151772Y-95318297D01*
X101996900Y-95254147D01*
X101857519Y-95161015D01*
X101738985Y-95042481D01*
X101645853Y-94903100D01*
X101581703Y-94748228D01*
X101549000Y-94583816D01*
X101549000Y-94416184D01*
X101581703Y-94251772D01*
X101645853Y-94096900D01*
X101738985Y-93957519D01*
X101857519Y-93838985D01*
X101996900Y-93745853D01*
X102151772Y-93681703D01*
X102316184Y-93649000D01*
X102483816Y-93649000D01*
X102648228Y-93681703D01*
G37*
G36*
X97648228Y-93681703D02*
G01*
X97803100Y-93745853D01*
X97942481Y-93838985D01*
X98061015Y-93957519D01*
X98154147Y-94096900D01*
X98218297Y-94251772D01*
X98251000Y-94416184D01*
X98251000Y-94583816D01*
X98218297Y-94748228D01*
X98154147Y-94903100D01*
X98061015Y-95042481D01*
X97942481Y-95161015D01*
X97803100Y-95254147D01*
X97648228Y-95318297D01*
X97483816Y-95351000D01*
X97316184Y-95351000D01*
X97151772Y-95318297D01*
X96996900Y-95254147D01*
X96857519Y-95161015D01*
X96738985Y-95042481D01*
X96645853Y-94903100D01*
X96581703Y-94748228D01*
X96549000Y-94583816D01*
X96549000Y-94416184D01*
X96581703Y-94251772D01*
X96645853Y-94096900D01*
X96738985Y-93957519D01*
X96857519Y-93838985D01*
X96996900Y-93745853D01*
X97151772Y-93681703D01*
X97316184Y-93649000D01*
X97483816Y-93649000D01*
X97648228Y-93681703D01*
G37*
G36*
X81976200Y-89916200D02*
G01*
X79943800Y-89916200D01*
X79943800Y-87883800D01*
X81976200Y-87883800D01*
X81976200Y-89916200D01*
G37*
G36*
X119336415Y-87922851D02*
G01*
X119521350Y-87999454D01*
X119521351Y-87999455D01*
X119687790Y-88110666D01*
X119829334Y-88252210D01*
X119829335Y-88252212D01*
X119940546Y-88418650D01*
X120017149Y-88603585D01*
X120056200Y-88799912D01*
X120056200Y-89000088D01*
X120017149Y-89196415D01*
X119940546Y-89381350D01*
X119940545Y-89381351D01*
X119829334Y-89547790D01*
X119687790Y-89689334D01*
X119644447Y-89718295D01*
X119521350Y-89800546D01*
X119336415Y-89877149D01*
X119140088Y-89916200D01*
X118939912Y-89916200D01*
X118743585Y-89877149D01*
X118558650Y-89800546D01*
X118435553Y-89718295D01*
X118392210Y-89689334D01*
X118250666Y-89547790D01*
X118139455Y-89381351D01*
X118139454Y-89381350D01*
X118062851Y-89196415D01*
X118023800Y-89000088D01*
X118023800Y-88799912D01*
X118062851Y-88603585D01*
X118139454Y-88418650D01*
X118250665Y-88252212D01*
X118250666Y-88252210D01*
X118392210Y-88110666D01*
X118558649Y-87999455D01*
X118558650Y-87999454D01*
X118743585Y-87922851D01*
X118939912Y-87883800D01*
X119140088Y-87883800D01*
X119336415Y-87922851D01*
G37*
G36*
X116796415Y-87922851D02*
G01*
X116981350Y-87999454D01*
X116981351Y-87999455D01*
X117147790Y-88110666D01*
X117289334Y-88252210D01*
X117289335Y-88252212D01*
X117400546Y-88418650D01*
X117477149Y-88603585D01*
X117516200Y-88799912D01*
X117516200Y-89000088D01*
X117477149Y-89196415D01*
X117400546Y-89381350D01*
X117400545Y-89381351D01*
X117289334Y-89547790D01*
X117147790Y-89689334D01*
X117104447Y-89718295D01*
X116981350Y-89800546D01*
X116796415Y-89877149D01*
X116600088Y-89916200D01*
X116399912Y-89916200D01*
X116203585Y-89877149D01*
X116018650Y-89800546D01*
X115895553Y-89718295D01*
X115852210Y-89689334D01*
X115710666Y-89547790D01*
X115599455Y-89381351D01*
X115599454Y-89381350D01*
X115522851Y-89196415D01*
X115483800Y-89000088D01*
X115483800Y-88799912D01*
X115522851Y-88603585D01*
X115599454Y-88418650D01*
X115710665Y-88252212D01*
X115710666Y-88252210D01*
X115852210Y-88110666D01*
X116018649Y-87999455D01*
X116018650Y-87999454D01*
X116203585Y-87922851D01*
X116399912Y-87883800D01*
X116600088Y-87883800D01*
X116796415Y-87922851D01*
G37*
G36*
X114976200Y-89916200D02*
G01*
X112943800Y-89916200D01*
X112943800Y-87883800D01*
X114976200Y-87883800D01*
X114976200Y-89916200D01*
G37*
G36*
X83796415Y-87922851D02*
G01*
X83981350Y-87999454D01*
X83981351Y-87999455D01*
X84147790Y-88110666D01*
X84289334Y-88252210D01*
X84289335Y-88252212D01*
X84400546Y-88418650D01*
X84477149Y-88603585D01*
X84516200Y-88799912D01*
X84516200Y-89000088D01*
X84477149Y-89196415D01*
X84400546Y-89381350D01*
X84400545Y-89381351D01*
X84289334Y-89547790D01*
X84147790Y-89689334D01*
X84104447Y-89718295D01*
X83981350Y-89800546D01*
X83796415Y-89877149D01*
X83600088Y-89916200D01*
X83399912Y-89916200D01*
X83203585Y-89877149D01*
X83018650Y-89800546D01*
X82895553Y-89718295D01*
X82852210Y-89689334D01*
X82710666Y-89547790D01*
X82599455Y-89381351D01*
X82599454Y-89381350D01*
X82522851Y-89196415D01*
X82483800Y-89000088D01*
X82483800Y-88799912D01*
X82522851Y-88603585D01*
X82599454Y-88418650D01*
X82710665Y-88252212D01*
X82710666Y-88252210D01*
X82852210Y-88110666D01*
X83018649Y-87999455D01*
X83018650Y-87999454D01*
X83203585Y-87922851D01*
X83399912Y-87883800D01*
X83600088Y-87883800D01*
X83796415Y-87922851D01*
G37*
G36*
X86336415Y-87922851D02*
G01*
X86521350Y-87999454D01*
X86521351Y-87999455D01*
X86687790Y-88110666D01*
X86829334Y-88252210D01*
X86829335Y-88252212D01*
X86940546Y-88418650D01*
X87017149Y-88603585D01*
X87056200Y-88799912D01*
X87056200Y-89000088D01*
X87017149Y-89196415D01*
X86940546Y-89381350D01*
X86940545Y-89381351D01*
X86829334Y-89547790D01*
X86687790Y-89689334D01*
X86644447Y-89718295D01*
X86521350Y-89800546D01*
X86336415Y-89877149D01*
X86140088Y-89916200D01*
X85939912Y-89916200D01*
X85743585Y-89877149D01*
X85558650Y-89800546D01*
X85435553Y-89718295D01*
X85392210Y-89689334D01*
X85250666Y-89547790D01*
X85139455Y-89381351D01*
X85139454Y-89381350D01*
X85062851Y-89196415D01*
X85023800Y-89000088D01*
X85023800Y-88799912D01*
X85062851Y-88603585D01*
X85139454Y-88418650D01*
X85250665Y-88252212D01*
X85250666Y-88252210D01*
X85392210Y-88110666D01*
X85558649Y-87999455D01*
X85558650Y-87999454D01*
X85743585Y-87922851D01*
X85939912Y-87883800D01*
X86140088Y-87883800D01*
X86336415Y-87922851D01*
G37*
G36*
X103948228Y-88081703D02*
G01*
X104103100Y-88145853D01*
X104242481Y-88238985D01*
X104361015Y-88357519D01*
X104454147Y-88496900D01*
X104518297Y-88651772D01*
X104551000Y-88816184D01*
X104551000Y-88983816D01*
X104518297Y-89148228D01*
X104454147Y-89303100D01*
X104361015Y-89442481D01*
X104242481Y-89561015D01*
X104103100Y-89654147D01*
X103948228Y-89718297D01*
X103783816Y-89751000D01*
X103616184Y-89751000D01*
X103451772Y-89718297D01*
X103296900Y-89654147D01*
X103157519Y-89561015D01*
X103038985Y-89442481D01*
X102945853Y-89303100D01*
X102881703Y-89148228D01*
X102849000Y-88983816D01*
X102849000Y-88816184D01*
X102881703Y-88651772D01*
X102945853Y-88496900D01*
X103038985Y-88357519D01*
X103157519Y-88238985D01*
X103296900Y-88145853D01*
X103451772Y-88081703D01*
X103616184Y-88049000D01*
X103783816Y-88049000D01*
X103948228Y-88081703D01*
G37*
G36*
X96328228Y-88081703D02*
G01*
X96483100Y-88145853D01*
X96622481Y-88238985D01*
X96741015Y-88357519D01*
X96834147Y-88496900D01*
X96898297Y-88651772D01*
X96931000Y-88816184D01*
X96931000Y-88983816D01*
X96898297Y-89148228D01*
X96834147Y-89303100D01*
X96741015Y-89442481D01*
X96622481Y-89561015D01*
X96483100Y-89654147D01*
X96328228Y-89718297D01*
X96163816Y-89751000D01*
X95996184Y-89751000D01*
X95831772Y-89718297D01*
X95676900Y-89654147D01*
X95537519Y-89561015D01*
X95418985Y-89442481D01*
X95325853Y-89303100D01*
X95261703Y-89148228D01*
X95229000Y-88983816D01*
X95229000Y-88816184D01*
X95261703Y-88651772D01*
X95325853Y-88496900D01*
X95418985Y-88357519D01*
X95537519Y-88238985D01*
X95676900Y-88145853D01*
X95831772Y-88081703D01*
X95996184Y-88049000D01*
X96163816Y-88049000D01*
X96328228Y-88081703D01*
G37*
G36*
X102051000Y-82751000D02*
G01*
X100349000Y-82751000D01*
X100349000Y-81049000D01*
X102051000Y-81049000D01*
X102051000Y-82751000D01*
G37*
G36*
X98948228Y-81081703D02*
G01*
X99103100Y-81145853D01*
X99242481Y-81238985D01*
X99361015Y-81357519D01*
X99454147Y-81496900D01*
X99518297Y-81651772D01*
X99551000Y-81816184D01*
X99551000Y-81983816D01*
X99518297Y-82148228D01*
X99454147Y-82303100D01*
X99361015Y-82442481D01*
X99242481Y-82561015D01*
X99103100Y-82654147D01*
X98948228Y-82718297D01*
X98783816Y-82751000D01*
X98616184Y-82751000D01*
X98451772Y-82718297D01*
X98296900Y-82654147D01*
X98157519Y-82561015D01*
X98038985Y-82442481D01*
X97945853Y-82303100D01*
X97881703Y-82148228D01*
X97849000Y-81983816D01*
X97849000Y-81816184D01*
X97881703Y-81651772D01*
X97945853Y-81496900D01*
X98038985Y-81357519D01*
X98157519Y-81238985D01*
X98296900Y-81145853D01*
X98451772Y-81081703D01*
X98616184Y-81049000D01*
X98783816Y-81049000D01*
X98948228Y-81081703D01*
G37*
G36*
X104266822Y-76861313D02*
G01*
X104427241Y-76909976D01*
X104575077Y-76988995D01*
X104704659Y-77095341D01*
X104811004Y-77224922D01*
X104811005Y-77224924D01*
X104890024Y-77372758D01*
X104938687Y-77533177D01*
X104951000Y-77658196D01*
X104951000Y-79141804D01*
X104938687Y-79266823D01*
X104890024Y-79427242D01*
X104819114Y-79559906D01*
X104811004Y-79575078D01*
X104704659Y-79704659D01*
X104575078Y-79811004D01*
X104575076Y-79811005D01*
X104427242Y-79890024D01*
X104266823Y-79938687D01*
X104100000Y-79955117D01*
X103933178Y-79938687D01*
X103772759Y-79890024D01*
X103624925Y-79811005D01*
X103624923Y-79811004D01*
X103495342Y-79704659D01*
X103388997Y-79575078D01*
X103380887Y-79559906D01*
X103309977Y-79427242D01*
X103261314Y-79266823D01*
X103249001Y-79141804D01*
X103249000Y-77658197D01*
X103261313Y-77533178D01*
X103309976Y-77372759D01*
X103388995Y-77224923D01*
X103495341Y-77095341D01*
X103624922Y-76988996D01*
X103640094Y-76980886D01*
X103772758Y-76909976D01*
X103933177Y-76861313D01*
X104100000Y-76844883D01*
X104266822Y-76861313D01*
G37*
G36*
X72966822Y-76861313D02*
G01*
X73127241Y-76909976D01*
X73275077Y-76988995D01*
X73404659Y-77095341D01*
X73511004Y-77224922D01*
X73511005Y-77224924D01*
X73590024Y-77372758D01*
X73638687Y-77533177D01*
X73651000Y-77658196D01*
X73651000Y-79141804D01*
X73638687Y-79266823D01*
X73590024Y-79427242D01*
X73519114Y-79559906D01*
X73511004Y-79575078D01*
X73404659Y-79704659D01*
X73275078Y-79811004D01*
X73275076Y-79811005D01*
X73127242Y-79890024D01*
X72966823Y-79938687D01*
X72800000Y-79955117D01*
X72633178Y-79938687D01*
X72472759Y-79890024D01*
X72324925Y-79811005D01*
X72324923Y-79811004D01*
X72195342Y-79704659D01*
X72088997Y-79575078D01*
X72080887Y-79559906D01*
X72009977Y-79427242D01*
X71961314Y-79266823D01*
X71949001Y-79141804D01*
X71949000Y-77658197D01*
X71961313Y-77533178D01*
X72009976Y-77372759D01*
X72088995Y-77224923D01*
X72195341Y-77095341D01*
X72324922Y-76988996D01*
X72340094Y-76980886D01*
X72472758Y-76909976D01*
X72633177Y-76861313D01*
X72800000Y-76844883D01*
X72966822Y-76861313D01*
G37*
G36*
X106866822Y-76861313D02*
G01*
X107027241Y-76909976D01*
X107175077Y-76988995D01*
X107304659Y-77095341D01*
X107411004Y-77224922D01*
X107411005Y-77224924D01*
X107490024Y-77372758D01*
X107538687Y-77533177D01*
X107551000Y-77658196D01*
X107551000Y-79141804D01*
X107538687Y-79266823D01*
X107490024Y-79427242D01*
X107419114Y-79559906D01*
X107411004Y-79575078D01*
X107304659Y-79704659D01*
X107175078Y-79811004D01*
X107175076Y-79811005D01*
X107027242Y-79890024D01*
X106866823Y-79938687D01*
X106700000Y-79955117D01*
X106533178Y-79938687D01*
X106372759Y-79890024D01*
X106224925Y-79811005D01*
X106224923Y-79811004D01*
X106095342Y-79704659D01*
X105988997Y-79575078D01*
X105980887Y-79559906D01*
X105909977Y-79427242D01*
X105861314Y-79266823D01*
X105849001Y-79141804D01*
X105849000Y-77658197D01*
X105861313Y-77533178D01*
X105909976Y-77372759D01*
X105988995Y-77224923D01*
X106095341Y-77095341D01*
X106224922Y-76988996D01*
X106240094Y-76980886D01*
X106372758Y-76909976D01*
X106533177Y-76861313D01*
X106700000Y-76844883D01*
X106866822Y-76861313D01*
G37*
G36*
X127366822Y-76861313D02*
G01*
X127527241Y-76909976D01*
X127675077Y-76988995D01*
X127804659Y-77095341D01*
X127911004Y-77224922D01*
X127911005Y-77224924D01*
X127990024Y-77372758D01*
X128038687Y-77533177D01*
X128051000Y-77658196D01*
X128051000Y-79141804D01*
X128038687Y-79266823D01*
X127990024Y-79427242D01*
X127919114Y-79559906D01*
X127911004Y-79575078D01*
X127804659Y-79704659D01*
X127675078Y-79811004D01*
X127675076Y-79811005D01*
X127527242Y-79890024D01*
X127366823Y-79938687D01*
X127200000Y-79955117D01*
X127033178Y-79938687D01*
X126872759Y-79890024D01*
X126724925Y-79811005D01*
X126724923Y-79811004D01*
X126595342Y-79704659D01*
X126488997Y-79575078D01*
X126480887Y-79559906D01*
X126409977Y-79427242D01*
X126361314Y-79266823D01*
X126349001Y-79141804D01*
X126349000Y-77658197D01*
X126361313Y-77533178D01*
X126409976Y-77372759D01*
X126488995Y-77224923D01*
X126595341Y-77095341D01*
X126724922Y-76988996D01*
X126740094Y-76980886D01*
X126872758Y-76909976D01*
X127033177Y-76861313D01*
X127200000Y-76844883D01*
X127366822Y-76861313D01*
G37*
G36*
X124766822Y-76861313D02*
G01*
X124927241Y-76909976D01*
X125075077Y-76988995D01*
X125204659Y-77095341D01*
X125311004Y-77224922D01*
X125311005Y-77224924D01*
X125390024Y-77372758D01*
X125438687Y-77533177D01*
X125451000Y-77658196D01*
X125451000Y-79141804D01*
X125438687Y-79266823D01*
X125390024Y-79427242D01*
X125319114Y-79559906D01*
X125311004Y-79575078D01*
X125204659Y-79704659D01*
X125075078Y-79811004D01*
X125075076Y-79811005D01*
X124927242Y-79890024D01*
X124766823Y-79938687D01*
X124600000Y-79955117D01*
X124433178Y-79938687D01*
X124272759Y-79890024D01*
X124124925Y-79811005D01*
X124124923Y-79811004D01*
X123995342Y-79704659D01*
X123888997Y-79575078D01*
X123880887Y-79559906D01*
X123809977Y-79427242D01*
X123761314Y-79266823D01*
X123749001Y-79141804D01*
X123749000Y-77658197D01*
X123761313Y-77533178D01*
X123809976Y-77372759D01*
X123888995Y-77224923D01*
X123995341Y-77095341D01*
X124124922Y-76988996D01*
X124140094Y-76980886D01*
X124272758Y-76909976D01*
X124433177Y-76861313D01*
X124600000Y-76844883D01*
X124766822Y-76861313D01*
G37*
G36*
X75566822Y-76861313D02*
G01*
X75727241Y-76909976D01*
X75875077Y-76988995D01*
X76004659Y-77095341D01*
X76111004Y-77224922D01*
X76111005Y-77224924D01*
X76190024Y-77372758D01*
X76238687Y-77533177D01*
X76251000Y-77658196D01*
X76251000Y-79141804D01*
X76238687Y-79266823D01*
X76190024Y-79427242D01*
X76119114Y-79559906D01*
X76111004Y-79575078D01*
X76004659Y-79704659D01*
X75875078Y-79811004D01*
X75875076Y-79811005D01*
X75727242Y-79890024D01*
X75566823Y-79938687D01*
X75400000Y-79955117D01*
X75233178Y-79938687D01*
X75072759Y-79890024D01*
X74924925Y-79811005D01*
X74924923Y-79811004D01*
X74795342Y-79704659D01*
X74688997Y-79575078D01*
X74680887Y-79559906D01*
X74609977Y-79427242D01*
X74561314Y-79266823D01*
X74549001Y-79141804D01*
X74549000Y-77658197D01*
X74561313Y-77533178D01*
X74609976Y-77372759D01*
X74688995Y-77224923D01*
X74795341Y-77095341D01*
X74924922Y-76988996D01*
X74940094Y-76980886D01*
X75072758Y-76909976D01*
X75233177Y-76861313D01*
X75400000Y-76844883D01*
X75566822Y-76861313D01*
G37*
G36*
X95966822Y-76861313D02*
G01*
X96127241Y-76909976D01*
X96275077Y-76988995D01*
X96404659Y-77095341D01*
X96511004Y-77224922D01*
X96511005Y-77224924D01*
X96590024Y-77372758D01*
X96638687Y-77533177D01*
X96651000Y-77658196D01*
X96651000Y-79141804D01*
X96638687Y-79266823D01*
X96590024Y-79427242D01*
X96519114Y-79559906D01*
X96511004Y-79575078D01*
X96404659Y-79704659D01*
X96275078Y-79811004D01*
X96275076Y-79811005D01*
X96127242Y-79890024D01*
X95966823Y-79938687D01*
X95800000Y-79955117D01*
X95633178Y-79938687D01*
X95472759Y-79890024D01*
X95324925Y-79811005D01*
X95324923Y-79811004D01*
X95195342Y-79704659D01*
X95088997Y-79575078D01*
X95080887Y-79559906D01*
X95009977Y-79427242D01*
X94961314Y-79266823D01*
X94949001Y-79141804D01*
X94949000Y-77658197D01*
X94961313Y-77533178D01*
X95009976Y-77372759D01*
X95088995Y-77224923D01*
X95195341Y-77095341D01*
X95324922Y-76988996D01*
X95340094Y-76980886D01*
X95472758Y-76909976D01*
X95633177Y-76861313D01*
X95800000Y-76844883D01*
X95966822Y-76861313D01*
G37*
G36*
X93466822Y-76861313D02*
G01*
X93627241Y-76909976D01*
X93775077Y-76988995D01*
X93904659Y-77095341D01*
X94011004Y-77224922D01*
X94011005Y-77224924D01*
X94090024Y-77372758D01*
X94138687Y-77533177D01*
X94151000Y-77658196D01*
X94151000Y-79141804D01*
X94138687Y-79266823D01*
X94090024Y-79427242D01*
X94019114Y-79559906D01*
X94011004Y-79575078D01*
X93904659Y-79704659D01*
X93775078Y-79811004D01*
X93775076Y-79811005D01*
X93627242Y-79890024D01*
X93466823Y-79938687D01*
X93300000Y-79955117D01*
X93133178Y-79938687D01*
X92972759Y-79890024D01*
X92824925Y-79811005D01*
X92824923Y-79811004D01*
X92695342Y-79704659D01*
X92588997Y-79575078D01*
X92580887Y-79559906D01*
X92509977Y-79427242D01*
X92461314Y-79266823D01*
X92449001Y-79141804D01*
X92449000Y-77658197D01*
X92461313Y-77533178D01*
X92509976Y-77372759D01*
X92588995Y-77224923D01*
X92695341Y-77095341D01*
X92824922Y-76988996D01*
X92840094Y-76980886D01*
X92972758Y-76909976D01*
X93133177Y-76861313D01*
X93300000Y-76844883D01*
X93466822Y-76861313D01*
G37*
G36*
X83757715Y-77104383D02*
G01*
X83885322Y-77129765D01*
X84026148Y-77188097D01*
X84125727Y-77229344D01*
X84125728Y-77229345D01*
X84342089Y-77373912D01*
X84526088Y-77557911D01*
X84593099Y-77658201D01*
X84670656Y-77774273D01*
X84711903Y-77873852D01*
X84770235Y-78014678D01*
X84821000Y-78269893D01*
X84821000Y-78530107D01*
X84770235Y-78785322D01*
X84711903Y-78926148D01*
X84670656Y-79025727D01*
X84670655Y-79025728D01*
X84526088Y-79242089D01*
X84342089Y-79426088D01*
X84197521Y-79522685D01*
X84125727Y-79570656D01*
X84026148Y-79611903D01*
X83885322Y-79670235D01*
X83757715Y-79695617D01*
X83630109Y-79721000D01*
X83369891Y-79721000D01*
X83242285Y-79695617D01*
X83114678Y-79670235D01*
X82973852Y-79611903D01*
X82874273Y-79570656D01*
X82802479Y-79522685D01*
X82657911Y-79426088D01*
X82473912Y-79242089D01*
X82329345Y-79025728D01*
X82329344Y-79025727D01*
X82288097Y-78926148D01*
X82229765Y-78785322D01*
X82179000Y-78530107D01*
X82179000Y-78269893D01*
X82229765Y-78014678D01*
X82288097Y-77873852D01*
X82329344Y-77774273D01*
X82406901Y-77658201D01*
X82473912Y-77557911D01*
X82657911Y-77373912D01*
X82874272Y-77229345D01*
X82874273Y-77229344D01*
X82973852Y-77188097D01*
X83114678Y-77129765D01*
X83242285Y-77104383D01*
X83369891Y-77079000D01*
X83630109Y-77079000D01*
X83757715Y-77104383D01*
G37*
G36*
X122901000Y-79721000D02*
G01*
X120259000Y-79721000D01*
X120259000Y-77079000D01*
X122901000Y-77079000D01*
X122901000Y-79721000D01*
G37*
G36*
X116757715Y-77104383D02*
G01*
X116885322Y-77129765D01*
X117026148Y-77188097D01*
X117125727Y-77229344D01*
X117125728Y-77229345D01*
X117342089Y-77373912D01*
X117526088Y-77557911D01*
X117593099Y-77658201D01*
X117670656Y-77774273D01*
X117711903Y-77873852D01*
X117770235Y-78014678D01*
X117821000Y-78269893D01*
X117821000Y-78530107D01*
X117770235Y-78785322D01*
X117711903Y-78926148D01*
X117670656Y-79025727D01*
X117670655Y-79025728D01*
X117526088Y-79242089D01*
X117342089Y-79426088D01*
X117197521Y-79522685D01*
X117125727Y-79570656D01*
X117026148Y-79611903D01*
X116885322Y-79670235D01*
X116757715Y-79695617D01*
X116630109Y-79721000D01*
X116369891Y-79721000D01*
X116242285Y-79695617D01*
X116114678Y-79670235D01*
X115973852Y-79611903D01*
X115874273Y-79570656D01*
X115802479Y-79522685D01*
X115657911Y-79426088D01*
X115473912Y-79242089D01*
X115329345Y-79025728D01*
X115329344Y-79025727D01*
X115288097Y-78926148D01*
X115229765Y-78785322D01*
X115179000Y-78530107D01*
X115179000Y-78269893D01*
X115229765Y-78014678D01*
X115288097Y-77873852D01*
X115329344Y-77774273D01*
X115406901Y-77658201D01*
X115473912Y-77557911D01*
X115657911Y-77373912D01*
X115874272Y-77229345D01*
X115874273Y-77229344D01*
X115973852Y-77188097D01*
X116114678Y-77129765D01*
X116242285Y-77104383D01*
X116369891Y-77079000D01*
X116630109Y-77079000D01*
X116757715Y-77104383D01*
G37*
G36*
X78677715Y-77104383D02*
G01*
X78805322Y-77129765D01*
X78946148Y-77188097D01*
X79045727Y-77229344D01*
X79045728Y-77229345D01*
X79262089Y-77373912D01*
X79446088Y-77557911D01*
X79513099Y-77658201D01*
X79590656Y-77774273D01*
X79631903Y-77873852D01*
X79690235Y-78014678D01*
X79741000Y-78269893D01*
X79741000Y-78530107D01*
X79690235Y-78785322D01*
X79631903Y-78926148D01*
X79590656Y-79025727D01*
X79590655Y-79025728D01*
X79446088Y-79242089D01*
X79262089Y-79426088D01*
X79117521Y-79522685D01*
X79045727Y-79570656D01*
X78946148Y-79611903D01*
X78805322Y-79670235D01*
X78677715Y-79695617D01*
X78550109Y-79721000D01*
X78289891Y-79721000D01*
X78162285Y-79695617D01*
X78034678Y-79670235D01*
X77893852Y-79611903D01*
X77794273Y-79570656D01*
X77722479Y-79522685D01*
X77577911Y-79426088D01*
X77393912Y-79242089D01*
X77249345Y-79025728D01*
X77249344Y-79025727D01*
X77208097Y-78926148D01*
X77149765Y-78785322D01*
X77099000Y-78530107D01*
X77099000Y-78269893D01*
X77149765Y-78014678D01*
X77208097Y-77873852D01*
X77249344Y-77774273D01*
X77326901Y-77658201D01*
X77393912Y-77557911D01*
X77577911Y-77373912D01*
X77794272Y-77229345D01*
X77794273Y-77229344D01*
X77893852Y-77188097D01*
X78034678Y-77129765D01*
X78162285Y-77104383D01*
X78289891Y-77079000D01*
X78550109Y-77079000D01*
X78677715Y-77104383D01*
G37*
G36*
X111677715Y-77104383D02*
G01*
X111805322Y-77129765D01*
X111946148Y-77188097D01*
X112045727Y-77229344D01*
X112045728Y-77229345D01*
X112262089Y-77373912D01*
X112446088Y-77557911D01*
X112513099Y-77658201D01*
X112590656Y-77774273D01*
X112631903Y-77873852D01*
X112690235Y-78014678D01*
X112741000Y-78269893D01*
X112741000Y-78530107D01*
X112690235Y-78785322D01*
X112631903Y-78926148D01*
X112590656Y-79025727D01*
X112590655Y-79025728D01*
X112446088Y-79242089D01*
X112262089Y-79426088D01*
X112117521Y-79522685D01*
X112045727Y-79570656D01*
X111946148Y-79611903D01*
X111805322Y-79670235D01*
X111677715Y-79695617D01*
X111550109Y-79721000D01*
X111289891Y-79721000D01*
X111162285Y-79695617D01*
X111034678Y-79670235D01*
X110893852Y-79611903D01*
X110794273Y-79570656D01*
X110722479Y-79522685D01*
X110577911Y-79426088D01*
X110393912Y-79242089D01*
X110249345Y-79025728D01*
X110249344Y-79025727D01*
X110208097Y-78926148D01*
X110149765Y-78785322D01*
X110099000Y-78530107D01*
X110099000Y-78269893D01*
X110149765Y-78014678D01*
X110208097Y-77873852D01*
X110249344Y-77774273D01*
X110326901Y-77658201D01*
X110393912Y-77557911D01*
X110577911Y-77373912D01*
X110794272Y-77229345D01*
X110794273Y-77229344D01*
X110893852Y-77188097D01*
X111034678Y-77129765D01*
X111162285Y-77104383D01*
X111289891Y-77079000D01*
X111550109Y-77079000D01*
X111677715Y-77104383D01*
G37*
G36*
X89901000Y-79721000D02*
G01*
X87259000Y-79721000D01*
X87259000Y-77079000D01*
X89901000Y-77079000D01*
X89901000Y-79721000D01*
G37*
M02*
