M48
; DRILL file {KiCad (5.1.5-0-10_14)} date 2021 November 26, Friday 18:20:27
; FORMAT={-:-/ absolute / inch / decimal}
; #@! TF.CreationDate,2021-11-26T18:20:27+01:00
; #@! TF.GenerationSoftware,Kicad,Pcbnew,(5.1.5-0-10_14)
FMAT,2
INCH
T1C0.0300
T2C0.0315
T3C0.0433
T4C0.0472
T5C0.0551
%
G90
G05
T1
X4.4866Y-3.937
X4.5866Y-3.837
X4.6866Y-3.937
X3.1874Y-3.937
X3.2874Y-3.837
X3.3874Y-3.937
T2
X3.7827Y-3.937
X4.0827Y-3.937
X3.7827Y-3.5
X4.0827Y-3.5
X3.8858Y-3.2244
X3.9843Y-3.2244
X4.5315Y-4.3504
X4.6299Y-4.3504
X3.8346Y-3.7205
X4.0315Y-3.7205
X3.2402Y-4.3504
X3.3386Y-4.3504
T3
X4.4866Y-3.5
X4.5866Y-3.5
X4.6866Y-3.5
X3.1874Y-3.5
X3.2874Y-3.5
X3.3874Y-3.5
T5
X4.3866Y-3.0866
X4.5866Y-3.0866
X4.7866Y-3.0866
X3.0874Y-3.0866
X3.2874Y-3.0866
X3.4874Y-3.0866
T4
G00X3.6299Y-4.3583
M15
G01X3.6299Y-4.374
M16
G05
G00X4.9055Y-3.0787
M15
G01X4.9055Y-3.0945
M16
G05
G00X3.7323Y-4.3583
M15
G01X3.7323Y-4.374
M16
G05
G00X4.2008Y-3.0787
M15
G01X4.2008Y-3.0945
M16
G05
G00X3.6732Y-3.0787
M15
G01X3.6732Y-3.0945
M16
G05
G00X3.8346Y-4.3583
M15
G01X3.8346Y-4.374
M16
G05
G00X2.8661Y-3.0787
M15
G01X2.8661Y-3.0945
M16
G05
G00X3.7717Y-3.0787
M15
G01X3.7717Y-3.0945
M16
G05
G00X4.0984Y-3.0787
M15
G01X4.0984Y-3.0945
M16
G05
G00X2.9685Y-3.0787
M15
G01X2.9685Y-3.0945
M16
G05
G00X4.0394Y-4.3583
M15
G01X4.0394Y-4.374
M16
G05
G00X3.937Y-4.3583
M15
G01X3.937Y-4.374
M16
G05
G00X4.1417Y-4.3583
M15
G01X4.1417Y-4.374
M16
G05
G00X5.0079Y-3.0787
M15
G01X5.0079Y-3.0945
M16
G05
G00X4.2441Y-4.3583
M15
G01X4.2441Y-4.374
M16
G05
T0
M30
