G04 #@! TF.GenerationSoftware,KiCad,Pcbnew,(5.1.5-0-10_14)*
G04 #@! TF.CreationDate,2021-09-14T18:47:20+02:00*
G04 #@! TF.ProjectId,3pdt-npnium,33706474-2d6e-4706-9e69-756d2e6b6963,rev?*
G04 #@! TF.SameCoordinates,Original*
G04 #@! TF.FileFunction,Legend,Bot*
G04 #@! TF.FilePolarity,Positive*
%FSLAX46Y46*%
G04 Gerber Fmt 4.6, Leading zero omitted, Abs format (unit mm)*
G04 Created by KiCad (PCBNEW (5.1.5-0-10_14)) date 2021-09-14 18:47:20*
%MOMM*%
%LPD*%
G04 APERTURE LIST*
%ADD10C,0.150000*%
%ADD11C,0.120000*%
%ADD12C,0.130000*%
G04 APERTURE END LIST*
D10*
X74350000Y-65150000D02*
X74183333Y-65616666D01*
X74016666Y-65150000D02*
X74183333Y-65616666D01*
X74250000Y-65783333D01*
X74283333Y-65816666D01*
X74350000Y-65850000D01*
X73650000Y-65616666D02*
X73716666Y-65583333D01*
X73750000Y-65550000D01*
X73783333Y-65483333D01*
X73783333Y-65283333D01*
X73750000Y-65216666D01*
X73716666Y-65183333D01*
X73650000Y-65150000D01*
X73550000Y-65150000D01*
X73483333Y-65183333D01*
X73450000Y-65216666D01*
X73416666Y-65283333D01*
X73416666Y-65483333D01*
X73450000Y-65550000D01*
X73483333Y-65583333D01*
X73550000Y-65616666D01*
X73650000Y-65616666D01*
X72816666Y-65150000D02*
X72816666Y-65616666D01*
X73116666Y-65150000D02*
X73116666Y-65516666D01*
X73083333Y-65583333D01*
X73016666Y-65616666D01*
X72916666Y-65616666D01*
X72850000Y-65583333D01*
X72816666Y-65550000D01*
X71650000Y-65616666D02*
X71650000Y-65250000D01*
X71683333Y-65183333D01*
X71750000Y-65150000D01*
X71883333Y-65150000D01*
X71950000Y-65183333D01*
X71650000Y-65583333D02*
X71716666Y-65616666D01*
X71883333Y-65616666D01*
X71950000Y-65583333D01*
X71983333Y-65516666D01*
X71983333Y-65450000D01*
X71950000Y-65383333D01*
X71883333Y-65350000D01*
X71716666Y-65350000D01*
X71650000Y-65316666D01*
X71316666Y-65616666D02*
X71316666Y-65150000D01*
X71316666Y-65283333D02*
X71283333Y-65216666D01*
X71250000Y-65183333D01*
X71183333Y-65150000D01*
X71116666Y-65150000D01*
X70616666Y-65583333D02*
X70683333Y-65616666D01*
X70816666Y-65616666D01*
X70883333Y-65583333D01*
X70916666Y-65516666D01*
X70916666Y-65250000D01*
X70883333Y-65183333D01*
X70816666Y-65150000D01*
X70683333Y-65150000D01*
X70616666Y-65183333D01*
X70583333Y-65250000D01*
X70583333Y-65316666D01*
X70916666Y-65383333D01*
X69450000Y-65616666D02*
X69450000Y-65250000D01*
X69483333Y-65183333D01*
X69550000Y-65150000D01*
X69683333Y-65150000D01*
X69750000Y-65183333D01*
X69450000Y-65583333D02*
X69516666Y-65616666D01*
X69683333Y-65616666D01*
X69750000Y-65583333D01*
X69783333Y-65516666D01*
X69783333Y-65450000D01*
X69750000Y-65383333D01*
X69683333Y-65350000D01*
X69516666Y-65350000D01*
X69450000Y-65316666D01*
X69016666Y-65616666D02*
X69083333Y-65583333D01*
X69116666Y-65516666D01*
X69116666Y-64916666D01*
X68750000Y-65616666D02*
X68750000Y-65150000D01*
X68750000Y-65216666D02*
X68716666Y-65183333D01*
X68650000Y-65150000D01*
X68550000Y-65150000D01*
X68483333Y-65183333D01*
X68450000Y-65250000D01*
X68450000Y-65616666D01*
X68450000Y-65250000D02*
X68416666Y-65183333D01*
X68350000Y-65150000D01*
X68250000Y-65150000D01*
X68183333Y-65183333D01*
X68150000Y-65250000D01*
X68150000Y-65616666D01*
X67716666Y-65616666D02*
X67783333Y-65583333D01*
X67816666Y-65550000D01*
X67850000Y-65483333D01*
X67850000Y-65283333D01*
X67816666Y-65216666D01*
X67783333Y-65183333D01*
X67716666Y-65150000D01*
X67616666Y-65150000D01*
X67550000Y-65183333D01*
X67516666Y-65216666D01*
X67483333Y-65283333D01*
X67483333Y-65483333D01*
X67516666Y-65550000D01*
X67550000Y-65583333D01*
X67616666Y-65616666D01*
X67716666Y-65616666D01*
X67216666Y-65583333D02*
X67150000Y-65616666D01*
X67016666Y-65616666D01*
X66950000Y-65583333D01*
X66916666Y-65516666D01*
X66916666Y-65483333D01*
X66950000Y-65416666D01*
X67016666Y-65383333D01*
X67116666Y-65383333D01*
X67183333Y-65350000D01*
X67216666Y-65283333D01*
X67216666Y-65250000D01*
X67183333Y-65183333D01*
X67116666Y-65150000D01*
X67016666Y-65150000D01*
X66950000Y-65183333D01*
X66716666Y-65150000D02*
X66450000Y-65150000D01*
X66616666Y-64916666D02*
X66616666Y-65516666D01*
X66583333Y-65583333D01*
X66516666Y-65616666D01*
X66450000Y-65616666D01*
X65383333Y-65616666D02*
X65383333Y-64916666D01*
X65383333Y-65583333D02*
X65450000Y-65616666D01*
X65583333Y-65616666D01*
X65650000Y-65583333D01*
X65683333Y-65550000D01*
X65716666Y-65483333D01*
X65716666Y-65283333D01*
X65683333Y-65216666D01*
X65650000Y-65183333D01*
X65583333Y-65150000D01*
X65450000Y-65150000D01*
X65383333Y-65183333D01*
X64950000Y-65616666D02*
X65016666Y-65583333D01*
X65050000Y-65550000D01*
X65083333Y-65483333D01*
X65083333Y-65283333D01*
X65050000Y-65216666D01*
X65016666Y-65183333D01*
X64950000Y-65150000D01*
X64850000Y-65150000D01*
X64783333Y-65183333D01*
X64750000Y-65216666D01*
X64716666Y-65283333D01*
X64716666Y-65483333D01*
X64750000Y-65550000D01*
X64783333Y-65583333D01*
X64850000Y-65616666D01*
X64950000Y-65616666D01*
X64416666Y-65150000D02*
X64416666Y-65616666D01*
X64416666Y-65216666D02*
X64383333Y-65183333D01*
X64316666Y-65150000D01*
X64216666Y-65150000D01*
X64150000Y-65183333D01*
X64116666Y-65250000D01*
X64116666Y-65616666D01*
X63516666Y-65583333D02*
X63583333Y-65616666D01*
X63716666Y-65616666D01*
X63783333Y-65583333D01*
X63816666Y-65516666D01*
X63816666Y-65250000D01*
X63783333Y-65183333D01*
X63716666Y-65150000D01*
X63583333Y-65150000D01*
X63516666Y-65183333D01*
X63483333Y-65250000D01*
X63483333Y-65316666D01*
X63816666Y-65383333D01*
X70883333Y-60516666D02*
X70883333Y-59816666D01*
X70883333Y-60150000D02*
X70483333Y-60150000D01*
X70483333Y-60516666D02*
X70483333Y-59816666D01*
X69616666Y-60150000D02*
X69383333Y-60150000D01*
X69283333Y-60516666D02*
X69616666Y-60516666D01*
X69616666Y-59816666D01*
X69283333Y-59816666D01*
X68050000Y-60516666D02*
X68283333Y-60183333D01*
X68450000Y-60516666D02*
X68450000Y-59816666D01*
X68183333Y-59816666D01*
X68116666Y-59850000D01*
X68083333Y-59883333D01*
X68050000Y-59950000D01*
X68050000Y-60050000D01*
X68083333Y-60116666D01*
X68116666Y-60150000D01*
X68183333Y-60183333D01*
X68450000Y-60183333D01*
X67216666Y-60150000D02*
X66983333Y-60150000D01*
X66883333Y-60516666D02*
X67216666Y-60516666D01*
X67216666Y-59816666D01*
X66883333Y-59816666D01*
X71983333Y-55683333D02*
X71883333Y-55716666D01*
X71716666Y-55716666D01*
X71650000Y-55683333D01*
X71616666Y-55650000D01*
X71583333Y-55583333D01*
X71583333Y-55516666D01*
X71616666Y-55450000D01*
X71650000Y-55416666D01*
X71716666Y-55383333D01*
X71850000Y-55350000D01*
X71916666Y-55316666D01*
X71950000Y-55283333D01*
X71983333Y-55216666D01*
X71983333Y-55150000D01*
X71950000Y-55083333D01*
X71916666Y-55050000D01*
X71850000Y-55016666D01*
X71683333Y-55016666D01*
X71583333Y-55050000D01*
X70816666Y-55016666D02*
X70650000Y-55716666D01*
X70516666Y-55216666D01*
X70383333Y-55716666D01*
X70216666Y-55016666D01*
X69416666Y-55716666D02*
X69416666Y-55016666D01*
X68650000Y-55016666D02*
X68250000Y-55016666D01*
X68450000Y-55716666D02*
X68450000Y-55016666D01*
X67083333Y-55650000D02*
X67116666Y-55683333D01*
X67216666Y-55716666D01*
X67283333Y-55716666D01*
X67383333Y-55683333D01*
X67450000Y-55616666D01*
X67483333Y-55550000D01*
X67516666Y-55416666D01*
X67516666Y-55316666D01*
X67483333Y-55183333D01*
X67450000Y-55116666D01*
X67383333Y-55050000D01*
X67283333Y-55016666D01*
X67216666Y-55016666D01*
X67116666Y-55050000D01*
X67083333Y-55083333D01*
X66250000Y-55716666D02*
X66250000Y-55016666D01*
X66250000Y-55350000D02*
X65850000Y-55350000D01*
X65850000Y-55716666D02*
X65850000Y-55016666D01*
X71866666Y-50716666D02*
X71866666Y-50016666D01*
X71000000Y-50716666D02*
X71000000Y-50016666D01*
X70600000Y-50716666D01*
X70600000Y-50016666D01*
X69766666Y-50683333D02*
X69666666Y-50716666D01*
X69500000Y-50716666D01*
X69433333Y-50683333D01*
X69400000Y-50650000D01*
X69366666Y-50583333D01*
X69366666Y-50516666D01*
X69400000Y-50450000D01*
X69433333Y-50416666D01*
X69500000Y-50383333D01*
X69633333Y-50350000D01*
X69700000Y-50316666D01*
X69733333Y-50283333D01*
X69766666Y-50216666D01*
X69766666Y-50150000D01*
X69733333Y-50083333D01*
X69700000Y-50050000D01*
X69633333Y-50016666D01*
X69466666Y-50016666D01*
X69366666Y-50050000D01*
X68533333Y-50350000D02*
X68300000Y-50350000D01*
X68200000Y-50716666D02*
X68533333Y-50716666D01*
X68533333Y-50016666D01*
X68200000Y-50016666D01*
X66966666Y-50716666D02*
X67200000Y-50383333D01*
X67366666Y-50716666D02*
X67366666Y-50016666D01*
X67100000Y-50016666D01*
X67033333Y-50050000D01*
X67000000Y-50083333D01*
X66966666Y-50150000D01*
X66966666Y-50250000D01*
X67000000Y-50316666D01*
X67033333Y-50350000D01*
X67100000Y-50383333D01*
X67366666Y-50383333D01*
X66233333Y-50016666D02*
X65833333Y-50016666D01*
X66033333Y-50716666D02*
X66033333Y-50016666D01*
D11*
X69180000Y-47600000D02*
X68230000Y-47600000D01*
X63440000Y-47600000D02*
X64390000Y-47600000D01*
X68230000Y-48520000D02*
X64390000Y-48520000D01*
X68230000Y-46680000D02*
X68230000Y-48520000D01*
X64390000Y-46680000D02*
X68230000Y-46680000D01*
X64390000Y-48520000D02*
X64390000Y-46680000D01*
X77980000Y-49210000D02*
X59980000Y-49210000D01*
X77980000Y-66210000D02*
X77980000Y-49210000D01*
X59980000Y-66210000D02*
X77980000Y-66210000D01*
X59980000Y-49210000D02*
X59980000Y-66210000D01*
X75220000Y-40580000D02*
X77760000Y-40580000D01*
X75230000Y-39063500D02*
X75233500Y-37410000D01*
X75233500Y-37410000D02*
X76563500Y-37410000D01*
X72680000Y-40580000D02*
X75220000Y-40580000D01*
X72690000Y-39063500D02*
X72693500Y-37410000D01*
X72693500Y-37410000D02*
X74023500Y-37410000D01*
X70150000Y-39063500D02*
X70153500Y-37410000D01*
X70153500Y-37410000D02*
X71483500Y-37410000D01*
X70140000Y-40580000D02*
X72680000Y-40580000D01*
X59980000Y-40580000D02*
X62520000Y-40580000D01*
X59993500Y-37410000D02*
X61323500Y-37410000D01*
X59990000Y-39063500D02*
X59993500Y-37410000D01*
X62520000Y-40580000D02*
X65060000Y-40580000D01*
X62533500Y-37410000D02*
X63863500Y-37410000D01*
X62530000Y-39063500D02*
X62533500Y-37410000D01*
X65060000Y-40580000D02*
X67600000Y-40580000D01*
X65073500Y-37410000D02*
X66403500Y-37410000D01*
X65070000Y-39063500D02*
X65073500Y-37410000D01*
X67600000Y-40580000D02*
X70140000Y-40580000D01*
X67613500Y-37410000D02*
X68943500Y-37410000D01*
X67610000Y-39063500D02*
X67613500Y-37410000D01*
D12*
X67452857Y-48061904D02*
X67719523Y-47680952D01*
X67910000Y-48061904D02*
X67910000Y-47261904D01*
X67605238Y-47261904D01*
X67529047Y-47300000D01*
X67490952Y-47338095D01*
X67452857Y-47414285D01*
X67452857Y-47528571D01*
X67490952Y-47604761D01*
X67529047Y-47642857D01*
X67605238Y-47680952D01*
X67910000Y-47680952D01*
X67300476Y-48138095D02*
X66690952Y-48138095D01*
X66119523Y-48061904D02*
X66500476Y-48061904D01*
X66500476Y-47261904D01*
X65852857Y-47642857D02*
X65586190Y-47642857D01*
X65471904Y-48061904D02*
X65852857Y-48061904D01*
X65852857Y-47261904D01*
X65471904Y-47261904D01*
X65129047Y-48061904D02*
X65129047Y-47261904D01*
X64938571Y-47261904D01*
X64824285Y-47300000D01*
X64748095Y-47376190D01*
X64710000Y-47452380D01*
X64671904Y-47604761D01*
X64671904Y-47719047D01*
X64710000Y-47871428D01*
X64748095Y-47947619D01*
X64824285Y-48023809D01*
X64938571Y-48061904D01*
X65129047Y-48061904D01*
D11*
X76442857Y-41567142D02*
X76442857Y-41300476D01*
X76861904Y-41300476D02*
X76061904Y-41300476D01*
X76061904Y-41681428D01*
X76061904Y-41910000D02*
X76861904Y-42443333D01*
X76061904Y-42443333D02*
X76861904Y-41910000D01*
X76938095Y-42557619D02*
X76938095Y-43167142D01*
X76061904Y-43510000D02*
X76061904Y-43662380D01*
X76100000Y-43738571D01*
X76176190Y-43814761D01*
X76328571Y-43852857D01*
X76595238Y-43852857D01*
X76747619Y-43814761D01*
X76823809Y-43738571D01*
X76861904Y-43662380D01*
X76861904Y-43510000D01*
X76823809Y-43433809D01*
X76747619Y-43357619D01*
X76595238Y-43319523D01*
X76328571Y-43319523D01*
X76176190Y-43357619D01*
X76100000Y-43433809D01*
X76061904Y-43510000D01*
X76061904Y-44195714D02*
X76709523Y-44195714D01*
X76785714Y-44233809D01*
X76823809Y-44271904D01*
X76861904Y-44348095D01*
X76861904Y-44500476D01*
X76823809Y-44576666D01*
X76785714Y-44614761D01*
X76709523Y-44652857D01*
X76061904Y-44652857D01*
X76061904Y-44919523D02*
X76061904Y-45376666D01*
X76861904Y-45148095D02*
X76061904Y-45148095D01*
X74321904Y-41300476D02*
X73521904Y-41300476D01*
X73521904Y-41605238D01*
X73560000Y-41681428D01*
X73598095Y-41719523D01*
X73674285Y-41757619D01*
X73788571Y-41757619D01*
X73864761Y-41719523D01*
X73902857Y-41681428D01*
X73940952Y-41605238D01*
X73940952Y-41300476D01*
X73902857Y-42100476D02*
X73902857Y-42367142D01*
X74321904Y-42481428D02*
X74321904Y-42100476D01*
X73521904Y-42100476D01*
X73521904Y-42481428D01*
X74321904Y-42824285D02*
X73521904Y-42824285D01*
X73521904Y-43014761D01*
X73560000Y-43129047D01*
X73636190Y-43205238D01*
X73712380Y-43243333D01*
X73864761Y-43281428D01*
X73979047Y-43281428D01*
X74131428Y-43243333D01*
X74207619Y-43205238D01*
X74283809Y-43129047D01*
X74321904Y-43014761D01*
X74321904Y-42824285D01*
X74093333Y-43586190D02*
X74093333Y-43967142D01*
X74321904Y-43510000D02*
X73521904Y-43776666D01*
X74321904Y-44043333D01*
X74321904Y-44690952D02*
X74321904Y-44310000D01*
X73521904Y-44310000D01*
X74398095Y-44767142D02*
X74398095Y-45376666D01*
X73521904Y-45719523D02*
X73521904Y-45871904D01*
X73560000Y-45948095D01*
X73636190Y-46024285D01*
X73788571Y-46062380D01*
X74055238Y-46062380D01*
X74207619Y-46024285D01*
X74283809Y-45948095D01*
X74321904Y-45871904D01*
X74321904Y-45719523D01*
X74283809Y-45643333D01*
X74207619Y-45567142D01*
X74055238Y-45529047D01*
X73788571Y-45529047D01*
X73636190Y-45567142D01*
X73560000Y-45643333D01*
X73521904Y-45719523D01*
X73521904Y-46405238D02*
X74169523Y-46405238D01*
X74245714Y-46443333D01*
X74283809Y-46481428D01*
X74321904Y-46557619D01*
X74321904Y-46710000D01*
X74283809Y-46786190D01*
X74245714Y-46824285D01*
X74169523Y-46862380D01*
X73521904Y-46862380D01*
X73521904Y-47129047D02*
X73521904Y-47586190D01*
X74321904Y-47357619D02*
X73521904Y-47357619D01*
X71362857Y-41567142D02*
X71362857Y-41300476D01*
X71781904Y-41300476D02*
X70981904Y-41300476D01*
X70981904Y-41681428D01*
X70981904Y-41910000D02*
X71781904Y-42443333D01*
X70981904Y-42443333D02*
X71781904Y-41910000D01*
X71858095Y-42557619D02*
X71858095Y-43167142D01*
X71781904Y-43357619D02*
X70981904Y-43357619D01*
X71781904Y-43738571D02*
X70981904Y-43738571D01*
X71781904Y-44195714D01*
X70981904Y-44195714D01*
X66701904Y-41681428D02*
X66701904Y-41300476D01*
X65901904Y-41300476D01*
X66282857Y-41948095D02*
X66282857Y-42214761D01*
X66701904Y-42329047D02*
X66701904Y-41948095D01*
X65901904Y-41948095D01*
X65901904Y-42329047D01*
X66701904Y-42671904D02*
X65901904Y-42671904D01*
X65901904Y-42862380D01*
X65940000Y-42976666D01*
X66016190Y-43052857D01*
X66092380Y-43090952D01*
X66244761Y-43129047D01*
X66359047Y-43129047D01*
X66511428Y-43090952D01*
X66587619Y-43052857D01*
X66663809Y-42976666D01*
X66701904Y-42862380D01*
X66701904Y-42671904D01*
X66397142Y-43471904D02*
X66397142Y-44081428D01*
X66701904Y-43776666D02*
X66092380Y-43776666D01*
X64161904Y-41338571D02*
X64161904Y-41490952D01*
X64123809Y-41567142D01*
X64085714Y-41605238D01*
X63971428Y-41681428D01*
X63819047Y-41719523D01*
X63514285Y-41719523D01*
X63438095Y-41681428D01*
X63400000Y-41643333D01*
X63361904Y-41567142D01*
X63361904Y-41414761D01*
X63400000Y-41338571D01*
X63438095Y-41300476D01*
X63514285Y-41262380D01*
X63704761Y-41262380D01*
X63780952Y-41300476D01*
X63819047Y-41338571D01*
X63857142Y-41414761D01*
X63857142Y-41567142D01*
X63819047Y-41643333D01*
X63780952Y-41681428D01*
X63704761Y-41719523D01*
X63361904Y-41948095D02*
X64161904Y-42214761D01*
X63361904Y-42481428D01*
X60860000Y-41719523D02*
X60821904Y-41643333D01*
X60821904Y-41529047D01*
X60860000Y-41414761D01*
X60936190Y-41338571D01*
X61012380Y-41300476D01*
X61164761Y-41262380D01*
X61279047Y-41262380D01*
X61431428Y-41300476D01*
X61507619Y-41338571D01*
X61583809Y-41414761D01*
X61621904Y-41529047D01*
X61621904Y-41605238D01*
X61583809Y-41719523D01*
X61545714Y-41757619D01*
X61279047Y-41757619D01*
X61279047Y-41605238D01*
X61621904Y-42100476D02*
X60821904Y-42100476D01*
X61621904Y-42557619D01*
X60821904Y-42557619D01*
X61621904Y-42938571D02*
X60821904Y-42938571D01*
X60821904Y-43129047D01*
X60860000Y-43243333D01*
X60936190Y-43319523D01*
X61012380Y-43357619D01*
X61164761Y-43395714D01*
X61279047Y-43395714D01*
X61431428Y-43357619D01*
X61507619Y-43319523D01*
X61583809Y-43243333D01*
X61621904Y-43129047D01*
X61621904Y-42938571D01*
X69241904Y-41300476D02*
X68441904Y-41300476D01*
X68441904Y-41605238D01*
X68480000Y-41681428D01*
X68518095Y-41719523D01*
X68594285Y-41757619D01*
X68708571Y-41757619D01*
X68784761Y-41719523D01*
X68822857Y-41681428D01*
X68860952Y-41605238D01*
X68860952Y-41300476D01*
X68822857Y-42100476D02*
X68822857Y-42367142D01*
X69241904Y-42481428D02*
X69241904Y-42100476D01*
X68441904Y-42100476D01*
X68441904Y-42481428D01*
X69241904Y-42824285D02*
X68441904Y-42824285D01*
X68441904Y-43014761D01*
X68480000Y-43129047D01*
X68556190Y-43205238D01*
X68632380Y-43243333D01*
X68784761Y-43281428D01*
X68899047Y-43281428D01*
X69051428Y-43243333D01*
X69127619Y-43205238D01*
X69203809Y-43129047D01*
X69241904Y-43014761D01*
X69241904Y-42824285D01*
X69013333Y-43586190D02*
X69013333Y-43967142D01*
X69241904Y-43510000D02*
X68441904Y-43776666D01*
X69241904Y-44043333D01*
X69241904Y-44690952D02*
X69241904Y-44310000D01*
X68441904Y-44310000D01*
X69318095Y-44767142D02*
X69318095Y-45376666D01*
X69241904Y-45567142D02*
X68441904Y-45567142D01*
X69241904Y-45948095D02*
X68441904Y-45948095D01*
X69241904Y-46405238D01*
X68441904Y-46405238D01*
M02*
