G04 #@! TF.GenerationSoftware,KiCad,Pcbnew,(5.1.5-0-10_14)*
G04 #@! TF.CreationDate,2021-09-14T18:47:20+02:00*
G04 #@! TF.ProjectId,3pdt-npnium,33706474-2d6e-4706-9e69-756d2e6b6963,rev?*
G04 #@! TF.SameCoordinates,Original*
G04 #@! TF.FileFunction,Soldermask,Bot*
G04 #@! TF.FilePolarity,Negative*
%FSLAX46Y46*%
G04 Gerber Fmt 4.6, Leading zero omitted, Abs format (unit mm)*
G04 Created by KiCad (PCBNEW (5.1.5-0-10_14)) date 2021-09-14 18:47:20*
%MOMM*%
%LPD*%
G04 APERTURE LIST*
%ADD10C,0.100000*%
G04 APERTURE END LIST*
D10*
G36*
X65859000Y-64369000D02*
G01*
X61941000Y-64369000D01*
X61941000Y-60451000D01*
X65859000Y-60451000D01*
X65859000Y-64369000D01*
G37*
G36*
X74937861Y-60969497D02*
G01*
X75044446Y-60979995D01*
X75317960Y-61062965D01*
X75317963Y-61062966D01*
X75570028Y-61197698D01*
X75570029Y-61197699D01*
X75570033Y-61197701D01*
X75790976Y-61379024D01*
X75972299Y-61599967D01*
X75972301Y-61599971D01*
X75972302Y-61599972D01*
X76107034Y-61852037D01*
X76107035Y-61852040D01*
X76190005Y-62125554D01*
X76218020Y-62410000D01*
X76190005Y-62694446D01*
X76107035Y-62967960D01*
X76107034Y-62967963D01*
X75972302Y-63220028D01*
X75972299Y-63220033D01*
X75790976Y-63440976D01*
X75570033Y-63622299D01*
X75570029Y-63622301D01*
X75570028Y-63622302D01*
X75317963Y-63757034D01*
X75317960Y-63757035D01*
X75044446Y-63840005D01*
X74937861Y-63850503D01*
X74831278Y-63861000D01*
X73288722Y-63861000D01*
X73182139Y-63850503D01*
X73075554Y-63840005D01*
X72802040Y-63757035D01*
X72802037Y-63757034D01*
X72549972Y-63622302D01*
X72549971Y-63622301D01*
X72549967Y-63622299D01*
X72329024Y-63440976D01*
X72147701Y-63220033D01*
X72147698Y-63220028D01*
X72012966Y-62967963D01*
X72012965Y-62967960D01*
X71929995Y-62694446D01*
X71901980Y-62410000D01*
X71929995Y-62125554D01*
X72012965Y-61852040D01*
X72012966Y-61852037D01*
X72147698Y-61599972D01*
X72147699Y-61599971D01*
X72147701Y-61599967D01*
X72329024Y-61379024D01*
X72549967Y-61197701D01*
X72549971Y-61197699D01*
X72549972Y-61197698D01*
X72802037Y-61062966D01*
X72802040Y-61062965D01*
X73075554Y-60979995D01*
X73182139Y-60969497D01*
X73288722Y-60959000D01*
X74831278Y-60959000D01*
X74937861Y-60969497D01*
G37*
G36*
X69857861Y-60969497D02*
G01*
X69964446Y-60979995D01*
X70237960Y-61062965D01*
X70237963Y-61062966D01*
X70490028Y-61197698D01*
X70490029Y-61197699D01*
X70490033Y-61197701D01*
X70710976Y-61379024D01*
X70892299Y-61599967D01*
X70892301Y-61599971D01*
X70892302Y-61599972D01*
X71027034Y-61852037D01*
X71027035Y-61852040D01*
X71110005Y-62125554D01*
X71138020Y-62410000D01*
X71110005Y-62694446D01*
X71027035Y-62967960D01*
X71027034Y-62967963D01*
X70892302Y-63220028D01*
X70892299Y-63220033D01*
X70710976Y-63440976D01*
X70490033Y-63622299D01*
X70490029Y-63622301D01*
X70490028Y-63622302D01*
X70237963Y-63757034D01*
X70237960Y-63757035D01*
X69964446Y-63840005D01*
X69857861Y-63850503D01*
X69751278Y-63861000D01*
X68208722Y-63861000D01*
X68102139Y-63850503D01*
X67995554Y-63840005D01*
X67722040Y-63757035D01*
X67722037Y-63757034D01*
X67469972Y-63622302D01*
X67469971Y-63622301D01*
X67469967Y-63622299D01*
X67249024Y-63440976D01*
X67067701Y-63220033D01*
X67067698Y-63220028D01*
X66932966Y-62967963D01*
X66932965Y-62967960D01*
X66849995Y-62694446D01*
X66821980Y-62410000D01*
X66849995Y-62125554D01*
X66932965Y-61852040D01*
X66932966Y-61852037D01*
X67067698Y-61599972D01*
X67067699Y-61599971D01*
X67067701Y-61599967D01*
X67249024Y-61379024D01*
X67469967Y-61197701D01*
X67469971Y-61197699D01*
X67469972Y-61197698D01*
X67722037Y-61062966D01*
X67722040Y-61062965D01*
X67995554Y-60979995D01*
X68102139Y-60969497D01*
X68208722Y-60959000D01*
X69751278Y-60959000D01*
X69857861Y-60969497D01*
G37*
G36*
X74937861Y-56269498D02*
G01*
X75044446Y-56279995D01*
X75317960Y-56362965D01*
X75317963Y-56362966D01*
X75570028Y-56497698D01*
X75570029Y-56497699D01*
X75570033Y-56497701D01*
X75790976Y-56679024D01*
X75972299Y-56899967D01*
X75972301Y-56899971D01*
X75972302Y-56899972D01*
X76107034Y-57152037D01*
X76107035Y-57152040D01*
X76190005Y-57425554D01*
X76218020Y-57710000D01*
X76190005Y-57994446D01*
X76107035Y-58267960D01*
X76107034Y-58267963D01*
X75972302Y-58520028D01*
X75972299Y-58520033D01*
X75790976Y-58740976D01*
X75570033Y-58922299D01*
X75570029Y-58922301D01*
X75570028Y-58922302D01*
X75317963Y-59057034D01*
X75317960Y-59057035D01*
X75044446Y-59140005D01*
X74937861Y-59150502D01*
X74831278Y-59161000D01*
X73288722Y-59161000D01*
X73182139Y-59150502D01*
X73075554Y-59140005D01*
X72802040Y-59057035D01*
X72802037Y-59057034D01*
X72549972Y-58922302D01*
X72549971Y-58922301D01*
X72549967Y-58922299D01*
X72329024Y-58740976D01*
X72147701Y-58520033D01*
X72147698Y-58520028D01*
X72012966Y-58267963D01*
X72012965Y-58267960D01*
X71929995Y-57994446D01*
X71901980Y-57710000D01*
X71929995Y-57425554D01*
X72012965Y-57152040D01*
X72012966Y-57152037D01*
X72147698Y-56899972D01*
X72147699Y-56899971D01*
X72147701Y-56899967D01*
X72329024Y-56679024D01*
X72549967Y-56497701D01*
X72549971Y-56497699D01*
X72549972Y-56497698D01*
X72802037Y-56362966D01*
X72802040Y-56362965D01*
X73075554Y-56279995D01*
X73182139Y-56269498D01*
X73288722Y-56259000D01*
X74831278Y-56259000D01*
X74937861Y-56269498D01*
G37*
G36*
X69857861Y-56269498D02*
G01*
X69964446Y-56279995D01*
X70237960Y-56362965D01*
X70237963Y-56362966D01*
X70490028Y-56497698D01*
X70490029Y-56497699D01*
X70490033Y-56497701D01*
X70710976Y-56679024D01*
X70892299Y-56899967D01*
X70892301Y-56899971D01*
X70892302Y-56899972D01*
X71027034Y-57152037D01*
X71027035Y-57152040D01*
X71110005Y-57425554D01*
X71138020Y-57710000D01*
X71110005Y-57994446D01*
X71027035Y-58267960D01*
X71027034Y-58267963D01*
X70892302Y-58520028D01*
X70892299Y-58520033D01*
X70710976Y-58740976D01*
X70490033Y-58922299D01*
X70490029Y-58922301D01*
X70490028Y-58922302D01*
X70237963Y-59057034D01*
X70237960Y-59057035D01*
X69964446Y-59140005D01*
X69857861Y-59150502D01*
X69751278Y-59161000D01*
X68208722Y-59161000D01*
X68102139Y-59150502D01*
X67995554Y-59140005D01*
X67722040Y-59057035D01*
X67722037Y-59057034D01*
X67469972Y-58922302D01*
X67469971Y-58922301D01*
X67469967Y-58922299D01*
X67249024Y-58740976D01*
X67067701Y-58520033D01*
X67067698Y-58520028D01*
X66932966Y-58267963D01*
X66932965Y-58267960D01*
X66849995Y-57994446D01*
X66821980Y-57710000D01*
X66849995Y-57425554D01*
X66932965Y-57152040D01*
X66932966Y-57152037D01*
X67067698Y-56899972D01*
X67067699Y-56899971D01*
X67067701Y-56899967D01*
X67249024Y-56679024D01*
X67469967Y-56497701D01*
X67469971Y-56497699D01*
X67469972Y-56497698D01*
X67722037Y-56362966D01*
X67722040Y-56362965D01*
X67995554Y-56279995D01*
X68102139Y-56269498D01*
X68208722Y-56259000D01*
X69751278Y-56259000D01*
X69857861Y-56269498D01*
G37*
G36*
X64777861Y-56269498D02*
G01*
X64884446Y-56279995D01*
X65157960Y-56362965D01*
X65157963Y-56362966D01*
X65410028Y-56497698D01*
X65410029Y-56497699D01*
X65410033Y-56497701D01*
X65630976Y-56679024D01*
X65812299Y-56899967D01*
X65812301Y-56899971D01*
X65812302Y-56899972D01*
X65947034Y-57152037D01*
X65947035Y-57152040D01*
X66030005Y-57425554D01*
X66058020Y-57710000D01*
X66030005Y-57994446D01*
X65947035Y-58267960D01*
X65947034Y-58267963D01*
X65812302Y-58520028D01*
X65812299Y-58520033D01*
X65630976Y-58740976D01*
X65410033Y-58922299D01*
X65410029Y-58922301D01*
X65410028Y-58922302D01*
X65157963Y-59057034D01*
X65157960Y-59057035D01*
X64884446Y-59140005D01*
X64777861Y-59150502D01*
X64671278Y-59161000D01*
X63128722Y-59161000D01*
X63022139Y-59150502D01*
X62915554Y-59140005D01*
X62642040Y-59057035D01*
X62642037Y-59057034D01*
X62389972Y-58922302D01*
X62389971Y-58922301D01*
X62389967Y-58922299D01*
X62169024Y-58740976D01*
X61987701Y-58520033D01*
X61987698Y-58520028D01*
X61852966Y-58267963D01*
X61852965Y-58267960D01*
X61769995Y-57994446D01*
X61741980Y-57710000D01*
X61769995Y-57425554D01*
X61852965Y-57152040D01*
X61852966Y-57152037D01*
X61987698Y-56899972D01*
X61987699Y-56899971D01*
X61987701Y-56899967D01*
X62169024Y-56679024D01*
X62389967Y-56497701D01*
X62389971Y-56497699D01*
X62389972Y-56497698D01*
X62642037Y-56362966D01*
X62642040Y-56362965D01*
X62915554Y-56279995D01*
X63022139Y-56269498D01*
X63128722Y-56259000D01*
X64671278Y-56259000D01*
X64777861Y-56269498D01*
G37*
G36*
X74937861Y-51569498D02*
G01*
X75044446Y-51579995D01*
X75317960Y-51662965D01*
X75317963Y-51662966D01*
X75570028Y-51797698D01*
X75570029Y-51797699D01*
X75570033Y-51797701D01*
X75790976Y-51979024D01*
X75972299Y-52199967D01*
X75972301Y-52199971D01*
X75972302Y-52199972D01*
X76107034Y-52452037D01*
X76107035Y-52452040D01*
X76190005Y-52725554D01*
X76218020Y-53010000D01*
X76190005Y-53294446D01*
X76107035Y-53567960D01*
X76107034Y-53567963D01*
X75972302Y-53820028D01*
X75972299Y-53820033D01*
X75790976Y-54040976D01*
X75570033Y-54222299D01*
X75570029Y-54222301D01*
X75570028Y-54222302D01*
X75317963Y-54357034D01*
X75317960Y-54357035D01*
X75044446Y-54440005D01*
X74937861Y-54450502D01*
X74831278Y-54461000D01*
X73288722Y-54461000D01*
X73182139Y-54450502D01*
X73075554Y-54440005D01*
X72802040Y-54357035D01*
X72802037Y-54357034D01*
X72549972Y-54222302D01*
X72549971Y-54222301D01*
X72549967Y-54222299D01*
X72329024Y-54040976D01*
X72147701Y-53820033D01*
X72147698Y-53820028D01*
X72012966Y-53567963D01*
X72012965Y-53567960D01*
X71929995Y-53294446D01*
X71901980Y-53010000D01*
X71929995Y-52725554D01*
X72012965Y-52452040D01*
X72012966Y-52452037D01*
X72147698Y-52199972D01*
X72147699Y-52199971D01*
X72147701Y-52199967D01*
X72329024Y-51979024D01*
X72549967Y-51797701D01*
X72549971Y-51797699D01*
X72549972Y-51797698D01*
X72802037Y-51662966D01*
X72802040Y-51662965D01*
X73075554Y-51579995D01*
X73182139Y-51569498D01*
X73288722Y-51559000D01*
X74831278Y-51559000D01*
X74937861Y-51569498D01*
G37*
G36*
X69857861Y-51569498D02*
G01*
X69964446Y-51579995D01*
X70237960Y-51662965D01*
X70237963Y-51662966D01*
X70490028Y-51797698D01*
X70490029Y-51797699D01*
X70490033Y-51797701D01*
X70710976Y-51979024D01*
X70892299Y-52199967D01*
X70892301Y-52199971D01*
X70892302Y-52199972D01*
X71027034Y-52452037D01*
X71027035Y-52452040D01*
X71110005Y-52725554D01*
X71138020Y-53010000D01*
X71110005Y-53294446D01*
X71027035Y-53567960D01*
X71027034Y-53567963D01*
X70892302Y-53820028D01*
X70892299Y-53820033D01*
X70710976Y-54040976D01*
X70490033Y-54222299D01*
X70490029Y-54222301D01*
X70490028Y-54222302D01*
X70237963Y-54357034D01*
X70237960Y-54357035D01*
X69964446Y-54440005D01*
X69857861Y-54450502D01*
X69751278Y-54461000D01*
X68208722Y-54461000D01*
X68102139Y-54450502D01*
X67995554Y-54440005D01*
X67722040Y-54357035D01*
X67722037Y-54357034D01*
X67469972Y-54222302D01*
X67469971Y-54222301D01*
X67469967Y-54222299D01*
X67249024Y-54040976D01*
X67067701Y-53820033D01*
X67067698Y-53820028D01*
X66932966Y-53567963D01*
X66932965Y-53567960D01*
X66849995Y-53294446D01*
X66821980Y-53010000D01*
X66849995Y-52725554D01*
X66932965Y-52452040D01*
X66932966Y-52452037D01*
X67067698Y-52199972D01*
X67067699Y-52199971D01*
X67067701Y-52199967D01*
X67249024Y-51979024D01*
X67469967Y-51797701D01*
X67469971Y-51797699D01*
X67469972Y-51797698D01*
X67722037Y-51662966D01*
X67722040Y-51662965D01*
X67995554Y-51579995D01*
X68102139Y-51569498D01*
X68208722Y-51559000D01*
X69751278Y-51559000D01*
X69857861Y-51569498D01*
G37*
G36*
X64777861Y-51569498D02*
G01*
X64884446Y-51579995D01*
X65157960Y-51662965D01*
X65157963Y-51662966D01*
X65410028Y-51797698D01*
X65410029Y-51797699D01*
X65410033Y-51797701D01*
X65630976Y-51979024D01*
X65812299Y-52199967D01*
X65812301Y-52199971D01*
X65812302Y-52199972D01*
X65947034Y-52452037D01*
X65947035Y-52452040D01*
X66030005Y-52725554D01*
X66058020Y-53010000D01*
X66030005Y-53294446D01*
X65947035Y-53567960D01*
X65947034Y-53567963D01*
X65812302Y-53820028D01*
X65812299Y-53820033D01*
X65630976Y-54040976D01*
X65410033Y-54222299D01*
X65410029Y-54222301D01*
X65410028Y-54222302D01*
X65157963Y-54357034D01*
X65157960Y-54357035D01*
X64884446Y-54440005D01*
X64777861Y-54450502D01*
X64671278Y-54461000D01*
X63128722Y-54461000D01*
X63022139Y-54450502D01*
X62915554Y-54440005D01*
X62642040Y-54357035D01*
X62642037Y-54357034D01*
X62389972Y-54222302D01*
X62389971Y-54222301D01*
X62389967Y-54222299D01*
X62169024Y-54040976D01*
X61987701Y-53820033D01*
X61987698Y-53820028D01*
X61852966Y-53567963D01*
X61852965Y-53567960D01*
X61769995Y-53294446D01*
X61741980Y-53010000D01*
X61769995Y-52725554D01*
X61852965Y-52452040D01*
X61852966Y-52452037D01*
X61987698Y-52199972D01*
X61987699Y-52199971D01*
X61987701Y-52199967D01*
X62169024Y-51979024D01*
X62389967Y-51797701D01*
X62389971Y-51797699D01*
X62389972Y-51797698D01*
X62642037Y-51662966D01*
X62642040Y-51662965D01*
X62915554Y-51579995D01*
X63022139Y-51569498D01*
X63128722Y-51559000D01*
X64671278Y-51559000D01*
X64777861Y-51569498D01*
G37*
G36*
X70339059Y-46877860D02*
G01*
X70475732Y-46934472D01*
X70598735Y-47016660D01*
X70703340Y-47121265D01*
X70785528Y-47244268D01*
X70842140Y-47380941D01*
X70871000Y-47526033D01*
X70871000Y-47673967D01*
X70842140Y-47819059D01*
X70785528Y-47955732D01*
X70703340Y-48078735D01*
X70598735Y-48183340D01*
X70475732Y-48265528D01*
X70475731Y-48265529D01*
X70475730Y-48265529D01*
X70339059Y-48322140D01*
X70193968Y-48351000D01*
X70046032Y-48351000D01*
X69900941Y-48322140D01*
X69764270Y-48265529D01*
X69764269Y-48265529D01*
X69764268Y-48265528D01*
X69641265Y-48183340D01*
X69536660Y-48078735D01*
X69454472Y-47955732D01*
X69397860Y-47819059D01*
X69369000Y-47673967D01*
X69369000Y-47526033D01*
X69397860Y-47380941D01*
X69454472Y-47244268D01*
X69536660Y-47121265D01*
X69641265Y-47016660D01*
X69764268Y-46934472D01*
X69900941Y-46877860D01*
X70046032Y-46849000D01*
X70193968Y-46849000D01*
X70339059Y-46877860D01*
G37*
G36*
X62719059Y-46877860D02*
G01*
X62855732Y-46934472D01*
X62978735Y-47016660D01*
X63083340Y-47121265D01*
X63165528Y-47244268D01*
X63222140Y-47380941D01*
X63251000Y-47526033D01*
X63251000Y-47673967D01*
X63222140Y-47819059D01*
X63165528Y-47955732D01*
X63083340Y-48078735D01*
X62978735Y-48183340D01*
X62855732Y-48265528D01*
X62855731Y-48265529D01*
X62855730Y-48265529D01*
X62719059Y-48322140D01*
X62573968Y-48351000D01*
X62426032Y-48351000D01*
X62280941Y-48322140D01*
X62144270Y-48265529D01*
X62144269Y-48265529D01*
X62144268Y-48265528D01*
X62021265Y-48183340D01*
X61916660Y-48078735D01*
X61834472Y-47955732D01*
X61777860Y-47819059D01*
X61749000Y-47673967D01*
X61749000Y-47526033D01*
X61777860Y-47380941D01*
X61834472Y-47244268D01*
X61916660Y-47121265D01*
X62021265Y-47016660D01*
X62144268Y-46934472D01*
X62280941Y-46877860D01*
X62426032Y-46849000D01*
X62573968Y-46849000D01*
X62719059Y-46877860D01*
G37*
G36*
X76666822Y-37461313D02*
G01*
X76827241Y-37509976D01*
X76975077Y-37588995D01*
X77104659Y-37695341D01*
X77211004Y-37824922D01*
X77211005Y-37824924D01*
X77290024Y-37972758D01*
X77338687Y-38133177D01*
X77351000Y-38258196D01*
X77351000Y-39741804D01*
X77338687Y-39866823D01*
X77290024Y-40027242D01*
X77219114Y-40159906D01*
X77211004Y-40175078D01*
X77104659Y-40304659D01*
X76975078Y-40411004D01*
X76975076Y-40411005D01*
X76827242Y-40490024D01*
X76666823Y-40538687D01*
X76500000Y-40555117D01*
X76333178Y-40538687D01*
X76172759Y-40490024D01*
X76024925Y-40411005D01*
X76024923Y-40411004D01*
X75895342Y-40304659D01*
X75788997Y-40175078D01*
X75780887Y-40159906D01*
X75709977Y-40027242D01*
X75661314Y-39866823D01*
X75649001Y-39741804D01*
X75649000Y-38258197D01*
X75661313Y-38133178D01*
X75709976Y-37972759D01*
X75788995Y-37824923D01*
X75895341Y-37695341D01*
X76024922Y-37588996D01*
X76040094Y-37580886D01*
X76172758Y-37509976D01*
X76333177Y-37461313D01*
X76500000Y-37444883D01*
X76666822Y-37461313D01*
G37*
G36*
X74126822Y-37461313D02*
G01*
X74287241Y-37509976D01*
X74435077Y-37588995D01*
X74564659Y-37695341D01*
X74671004Y-37824922D01*
X74671005Y-37824924D01*
X74750024Y-37972758D01*
X74798687Y-38133177D01*
X74811000Y-38258196D01*
X74811000Y-39741804D01*
X74798687Y-39866823D01*
X74750024Y-40027242D01*
X74679114Y-40159906D01*
X74671004Y-40175078D01*
X74564659Y-40304659D01*
X74435078Y-40411004D01*
X74435076Y-40411005D01*
X74287242Y-40490024D01*
X74126823Y-40538687D01*
X73960000Y-40555117D01*
X73793178Y-40538687D01*
X73632759Y-40490024D01*
X73484925Y-40411005D01*
X73484923Y-40411004D01*
X73355342Y-40304659D01*
X73248997Y-40175078D01*
X73240887Y-40159906D01*
X73169977Y-40027242D01*
X73121314Y-39866823D01*
X73109001Y-39741804D01*
X73109000Y-38258197D01*
X73121313Y-38133178D01*
X73169976Y-37972759D01*
X73248995Y-37824923D01*
X73355341Y-37695341D01*
X73484922Y-37588996D01*
X73500094Y-37580886D01*
X73632758Y-37509976D01*
X73793177Y-37461313D01*
X73960000Y-37444883D01*
X74126822Y-37461313D01*
G37*
G36*
X71586822Y-37461313D02*
G01*
X71747241Y-37509976D01*
X71895077Y-37588995D01*
X72024659Y-37695341D01*
X72131004Y-37824922D01*
X72131005Y-37824924D01*
X72210024Y-37972758D01*
X72258687Y-38133177D01*
X72271000Y-38258196D01*
X72271000Y-39741804D01*
X72258687Y-39866823D01*
X72210024Y-40027242D01*
X72139114Y-40159906D01*
X72131004Y-40175078D01*
X72024659Y-40304659D01*
X71895078Y-40411004D01*
X71895076Y-40411005D01*
X71747242Y-40490024D01*
X71586823Y-40538687D01*
X71420000Y-40555117D01*
X71253178Y-40538687D01*
X71092759Y-40490024D01*
X70944925Y-40411005D01*
X70944923Y-40411004D01*
X70815342Y-40304659D01*
X70708997Y-40175078D01*
X70700887Y-40159906D01*
X70629977Y-40027242D01*
X70581314Y-39866823D01*
X70569001Y-39741804D01*
X70569000Y-38258197D01*
X70581313Y-38133178D01*
X70629976Y-37972759D01*
X70708995Y-37824923D01*
X70815341Y-37695341D01*
X70944922Y-37588996D01*
X70960094Y-37580886D01*
X71092758Y-37509976D01*
X71253177Y-37461313D01*
X71420000Y-37444883D01*
X71586822Y-37461313D01*
G37*
G36*
X69046822Y-37461313D02*
G01*
X69207241Y-37509976D01*
X69355077Y-37588995D01*
X69484659Y-37695341D01*
X69591004Y-37824922D01*
X69591005Y-37824924D01*
X69670024Y-37972758D01*
X69718687Y-38133177D01*
X69731000Y-38258196D01*
X69731000Y-39741804D01*
X69718687Y-39866823D01*
X69670024Y-40027242D01*
X69599114Y-40159906D01*
X69591004Y-40175078D01*
X69484659Y-40304659D01*
X69355078Y-40411004D01*
X69355076Y-40411005D01*
X69207242Y-40490024D01*
X69046823Y-40538687D01*
X68880000Y-40555117D01*
X68713178Y-40538687D01*
X68552759Y-40490024D01*
X68404925Y-40411005D01*
X68404923Y-40411004D01*
X68275342Y-40304659D01*
X68168997Y-40175078D01*
X68160887Y-40159906D01*
X68089977Y-40027242D01*
X68041314Y-39866823D01*
X68029001Y-39741804D01*
X68029000Y-38258197D01*
X68041313Y-38133178D01*
X68089976Y-37972759D01*
X68168995Y-37824923D01*
X68275341Y-37695341D01*
X68404922Y-37588996D01*
X68420094Y-37580886D01*
X68552758Y-37509976D01*
X68713177Y-37461313D01*
X68880000Y-37444883D01*
X69046822Y-37461313D01*
G37*
G36*
X66506822Y-37461313D02*
G01*
X66667241Y-37509976D01*
X66815077Y-37588995D01*
X66944659Y-37695341D01*
X67051004Y-37824922D01*
X67051005Y-37824924D01*
X67130024Y-37972758D01*
X67178687Y-38133177D01*
X67191000Y-38258196D01*
X67191000Y-39741804D01*
X67178687Y-39866823D01*
X67130024Y-40027242D01*
X67059114Y-40159906D01*
X67051004Y-40175078D01*
X66944659Y-40304659D01*
X66815078Y-40411004D01*
X66815076Y-40411005D01*
X66667242Y-40490024D01*
X66506823Y-40538687D01*
X66340000Y-40555117D01*
X66173178Y-40538687D01*
X66012759Y-40490024D01*
X65864925Y-40411005D01*
X65864923Y-40411004D01*
X65735342Y-40304659D01*
X65628997Y-40175078D01*
X65620887Y-40159906D01*
X65549977Y-40027242D01*
X65501314Y-39866823D01*
X65489001Y-39741804D01*
X65489000Y-38258197D01*
X65501313Y-38133178D01*
X65549976Y-37972759D01*
X65628995Y-37824923D01*
X65735341Y-37695341D01*
X65864922Y-37588996D01*
X65880094Y-37580886D01*
X66012758Y-37509976D01*
X66173177Y-37461313D01*
X66340000Y-37444883D01*
X66506822Y-37461313D01*
G37*
G36*
X63966822Y-37461313D02*
G01*
X64127241Y-37509976D01*
X64275077Y-37588995D01*
X64404659Y-37695341D01*
X64511004Y-37824922D01*
X64511005Y-37824924D01*
X64590024Y-37972758D01*
X64638687Y-38133177D01*
X64651000Y-38258196D01*
X64651000Y-39741804D01*
X64638687Y-39866823D01*
X64590024Y-40027242D01*
X64519114Y-40159906D01*
X64511004Y-40175078D01*
X64404659Y-40304659D01*
X64275078Y-40411004D01*
X64275076Y-40411005D01*
X64127242Y-40490024D01*
X63966823Y-40538687D01*
X63800000Y-40555117D01*
X63633178Y-40538687D01*
X63472759Y-40490024D01*
X63324925Y-40411005D01*
X63324923Y-40411004D01*
X63195342Y-40304659D01*
X63088997Y-40175078D01*
X63080887Y-40159906D01*
X63009977Y-40027242D01*
X62961314Y-39866823D01*
X62949001Y-39741804D01*
X62949000Y-38258197D01*
X62961313Y-38133178D01*
X63009976Y-37972759D01*
X63088995Y-37824923D01*
X63195341Y-37695341D01*
X63324922Y-37588996D01*
X63340094Y-37580886D01*
X63472758Y-37509976D01*
X63633177Y-37461313D01*
X63800000Y-37444883D01*
X63966822Y-37461313D01*
G37*
G36*
X61426822Y-37461313D02*
G01*
X61587241Y-37509976D01*
X61735077Y-37588995D01*
X61864659Y-37695341D01*
X61971004Y-37824922D01*
X61971005Y-37824924D01*
X62050024Y-37972758D01*
X62098687Y-38133177D01*
X62111000Y-38258196D01*
X62111000Y-39741804D01*
X62098687Y-39866823D01*
X62050024Y-40027242D01*
X61979114Y-40159906D01*
X61971004Y-40175078D01*
X61864659Y-40304659D01*
X61735078Y-40411004D01*
X61735076Y-40411005D01*
X61587242Y-40490024D01*
X61426823Y-40538687D01*
X61260000Y-40555117D01*
X61093178Y-40538687D01*
X60932759Y-40490024D01*
X60784925Y-40411005D01*
X60784923Y-40411004D01*
X60655342Y-40304659D01*
X60548997Y-40175078D01*
X60540887Y-40159906D01*
X60469977Y-40027242D01*
X60421314Y-39866823D01*
X60409001Y-39741804D01*
X60409000Y-38258197D01*
X60421313Y-38133178D01*
X60469976Y-37972759D01*
X60548995Y-37824923D01*
X60655341Y-37695341D01*
X60784922Y-37588996D01*
X60800094Y-37580886D01*
X60932758Y-37509976D01*
X61093177Y-37461313D01*
X61260000Y-37444883D01*
X61426822Y-37461313D01*
G37*
M02*
