G04 #@! TF.GenerationSoftware,KiCad,Pcbnew,(5.1.5-0-10_14)*
G04 #@! TF.CreationDate,2021-09-14T18:47:20+02:00*
G04 #@! TF.ProjectId,3pdt-npnium,33706474-2d6e-4706-9e69-756d2e6b6963,rev?*
G04 #@! TF.SameCoordinates,Original*
G04 #@! TF.FileFunction,Copper,L1,Top*
G04 #@! TF.FilePolarity,Positive*
%FSLAX46Y46*%
G04 Gerber Fmt 4.6, Leading zero omitted, Abs format (unit mm)*
G04 Created by KiCad (PCBNEW (5.1.5-0-10_14)) date 2021-09-14 18:47:20*
%MOMM*%
%LPD*%
G04 APERTURE LIST*
%ADD10O,1.400000X1.400000*%
%ADD11C,1.400000*%
%ADD12O,4.200000X2.800000*%
%ADD13R,3.816000X3.816000*%
%ADD14O,1.600000X3.000000*%
%ADD15C,0.400000*%
%ADD16C,0.800000*%
G04 APERTURE END LIST*
D10*
X70120000Y-47600000D03*
D11*
X62500000Y-47600000D03*
D12*
X74060000Y-53010000D03*
X74060000Y-57710000D03*
X74060000Y-62410000D03*
X68980000Y-53010000D03*
X68980000Y-57710000D03*
X68980000Y-62410000D03*
X63900000Y-53010000D03*
X63900000Y-57710000D03*
D13*
X63900000Y-62410000D03*
D14*
X76500000Y-39000000D03*
X73960000Y-39000000D03*
X71420000Y-39000000D03*
X61260000Y-39000000D03*
X63800000Y-39000000D03*
X66340000Y-39000000D03*
X68880000Y-39000000D03*
D15*
X76499990Y-37099990D02*
X76500000Y-37100000D01*
X72900010Y-37099990D02*
X76499990Y-37099990D01*
X72759990Y-37240010D02*
X72900010Y-37099990D01*
X76500000Y-37100000D02*
X76500000Y-39000000D01*
X72759990Y-47430010D02*
X72759990Y-37240010D01*
X68980000Y-51210000D02*
X72759990Y-47430010D01*
X68980000Y-53010000D02*
X68980000Y-51210000D01*
X71480000Y-57710000D02*
X68980000Y-57710000D01*
X71480010Y-52264412D02*
X71480010Y-57709990D01*
X73960000Y-49784422D02*
X71480010Y-52264412D01*
X71480010Y-57709990D02*
X71480000Y-57710000D01*
X73960000Y-39000000D02*
X73960000Y-49784422D01*
X66479990Y-55830010D02*
X66479990Y-45840010D01*
X71420000Y-40900000D02*
X71420000Y-39000000D01*
X64600000Y-57710000D02*
X66479990Y-55830010D01*
X66479990Y-45840010D02*
X71420000Y-40900000D01*
X63900000Y-57710000D02*
X64600000Y-57710000D01*
D16*
X60125010Y-42434990D02*
X60125010Y-62410000D01*
X60125010Y-62410000D02*
X63900000Y-62410000D01*
X61260000Y-41300000D02*
X60125010Y-42434990D01*
X61260000Y-39000000D02*
X61260000Y-41300000D01*
X63800000Y-46300000D02*
X63800000Y-39000000D01*
X62500000Y-47600000D02*
X63800000Y-46300000D01*
D15*
X61400000Y-53010000D02*
X63900000Y-53010000D01*
X61399990Y-53010010D02*
X61400000Y-53010000D01*
X61399990Y-58699990D02*
X61399990Y-53010010D01*
X62210010Y-59510010D02*
X61399990Y-58699990D01*
X67880010Y-59510010D02*
X62210010Y-59510010D01*
X68980000Y-60610000D02*
X67880010Y-59510010D01*
X68980000Y-62410000D02*
X68980000Y-60610000D01*
X62599990Y-41091394D02*
X62599990Y-37100010D01*
X61399999Y-42291385D02*
X62599990Y-41091394D01*
X61399999Y-48709999D02*
X61399999Y-42291385D01*
X62599990Y-37100010D02*
X62774990Y-36925010D01*
X63900000Y-51210000D02*
X61399999Y-48709999D01*
X63900000Y-53010000D02*
X63900000Y-51210000D01*
X68880000Y-37100000D02*
X68880000Y-39000000D01*
X68705010Y-36925010D02*
X68880000Y-37100000D01*
X62774990Y-36925010D02*
X68705010Y-36925010D01*
M02*
