M48
; DRILL file {KiCad (5.1.5-0-10_14)} date 2021 September 14, Tuesday 18:43:29
; FORMAT={-:-/ absolute / inch / decimal}
; #@! TF.CreationDate,2021-09-14T18:43:29+02:00
; #@! TF.GenerationSoftware,Kicad,Pcbnew,(5.1.5-0-10_14)
FMAT,2
INCH
T1C0.0276
T2C0.0472
T3C0.0630
%
G90
G05
T1
X2.4606Y-1.874
X2.7606Y-1.874
T2
G00X2.4118Y-1.5276
M15
G01X2.4118Y-1.5433
M16
G05
G00X2.5118Y-1.5276
M15
G01X2.5118Y-1.5433
M16
G05
G00X2.6118Y-1.5276
M15
G01X2.6118Y-1.5433
M16
G05
G00X2.7118Y-1.5276
M15
G01X2.7118Y-1.5433
M16
G05
G00X2.8118Y-1.5276
M15
G01X2.8118Y-1.5433
M16
G05
G00X2.9118Y-1.5276
M15
G01X2.9118Y-1.5433
M16
G05
G00X3.0118Y-1.5276
M15
G01X3.0118Y-1.5433
M16
G05
T3
G00X2.5394Y-2.087
M15
G01X2.4921Y-2.087
M16
G05
G00X2.5394Y-2.272
M15
G01X2.4921Y-2.272
M16
G05
G00X2.5394Y-2.4571
M15
G01X2.4921Y-2.4571
M16
G05
G00X2.7394Y-2.087
M15
G01X2.6921Y-2.087
M16
G05
G00X2.7394Y-2.272
M15
G01X2.6921Y-2.272
M16
G05
G00X2.7394Y-2.4571
M15
G01X2.6921Y-2.4571
M16
G05
G00X2.9394Y-2.087
M15
G01X2.8921Y-2.087
M16
G05
G00X2.9394Y-2.272
M15
G01X2.8921Y-2.272
M16
G05
G00X2.9394Y-2.4571
M15
G01X2.8921Y-2.4571
M16
G05
T0
M30
