%TF.GenerationSoftware,KiCad,Pcbnew,(6.0.9-0)*%
%TF.CreationDate,2024-05-22T19:22:00+02:00*%
%TF.ProjectId,npnium-switch,6e706e69-756d-42d7-9377-697463682e6b,rev?*%
%TF.SameCoordinates,Original*%
%TF.FileFunction,Copper,L1,Top*%
%TF.FilePolarity,Positive*%
%FSLAX46Y46*%
G04 Gerber Fmt 4.6, Leading zero omitted, Abs format (unit mm)*
G04 Created by KiCad (PCBNEW (6.0.9-0)) date 2024-05-22 19:22:00*
%MOMM*%
%LPD*%
G01*
G04 APERTURE LIST*
%TA.AperFunction,ComponentPad*%
%ADD10R,1.700000X1.700000*%
%TD*%
%TA.AperFunction,ComponentPad*%
%ADD11O,1.700000X1.700000*%
%TD*%
%TA.AperFunction,ComponentPad*%
%ADD12R,3.816000X3.816000*%
%TD*%
%TA.AperFunction,ComponentPad*%
%ADD13O,4.200000X2.800000*%
%TD*%
%TA.AperFunction,ViaPad*%
%ADD14C,0.800000*%
%TD*%
G04 APERTURE END LIST*
D10*
%TO.P,J3,1,Pin_1*%
%TO.N,/Switch/IN*%
X93599000Y-132080000D03*
D11*
%TO.P,J3,2,Pin_2*%
%TO.N,/Switch/FX_IN*%
X96139000Y-132080000D03*
%TO.P,J3,3,Pin_3*%
%TO.N,/Switch/LED_GND*%
X98679000Y-132080000D03*
%TO.P,J3,4,Pin_4*%
%TO.N,/Switch/OUT*%
X101219000Y-132080000D03*
%TO.P,J3,5,Pin_5*%
%TO.N,/Switch/GND*%
X103759000Y-132080000D03*
%TO.P,J3,6,Pin_6*%
%TO.N,/Switch/FX_OUT*%
X106299000Y-132080000D03*
%TD*%
D12*
%TO.P,SW1,1,A*%
%TO.N,/Switch/IN*%
X94920000Y-140400000D03*
D13*
%TO.P,SW1,2,B*%
%TO.N,/Switch/OUT*%
X94920000Y-145100000D03*
%TO.P,SW1,3,C*%
%TO.N,/Switch/FX_OUT*%
X94920000Y-149800000D03*
%TO.P,SW1,4,A*%
%TO.N,/Switch/GND*%
X100000000Y-140400000D03*
%TO.P,SW1,5,B*%
%TO.N,/Switch/FX_IN*%
X100000000Y-145100000D03*
%TO.P,SW1,6,C*%
%TO.N,/Switch/IN*%
X100000000Y-149800000D03*
%TO.P,SW1,7,A*%
%TO.N,unconnected-(SW1-Pad7)*%
X105080000Y-140400000D03*
%TO.P,SW1,8,B*%
%TO.N,/Switch/LED_GND*%
X105080000Y-145100000D03*
%TO.P,SW1,9,C*%
%TO.N,/Switch/GND*%
X105080000Y-149800000D03*
%TD*%
D14*
%TO.N,/Switch/GND*%
X94869000Y-134620000D03*
X92202000Y-130048000D03*
X92202000Y-147447000D03*
X92202000Y-134620000D03*
X97409000Y-130048000D03*
X92202000Y-152527000D03*
%TD*%
%TA.AperFunction,Conductor*%
%TO.N,/Switch/GND*%
G36*
X109179621Y-128782502D02*
G01*
X109226114Y-128836158D01*
X109237500Y-128888500D01*
X109237500Y-153111500D01*
X109217498Y-153179621D01*
X109163842Y-153226114D01*
X109111500Y-153237500D01*
X90888500Y-153237500D01*
X90820379Y-153217498D01*
X90773886Y-153163842D01*
X90762500Y-153111500D01*
X90762500Y-149936102D01*
X92056724Y-149936102D01*
X92057283Y-149940346D01*
X92057283Y-149940350D01*
X92072835Y-150058475D01*
X92095210Y-150228433D01*
X92173014Y-150512836D01*
X92174698Y-150516784D01*
X92197377Y-150569953D01*
X92288696Y-150784048D01*
X92440116Y-151037052D01*
X92624471Y-151267165D01*
X92650076Y-151291463D01*
X92815792Y-151448721D01*
X92838350Y-151470128D01*
X92979346Y-151571444D01*
X93063275Y-151631753D01*
X93077795Y-151642187D01*
X93081590Y-151644196D01*
X93081591Y-151644197D01*
X93124888Y-151667121D01*
X93338377Y-151780158D01*
X93615272Y-151881487D01*
X93903357Y-151944300D01*
X93932950Y-151946629D01*
X94132153Y-151962307D01*
X94132162Y-151962307D01*
X94134610Y-151962500D01*
X95694118Y-151962500D01*
X95696254Y-151962354D01*
X95696265Y-151962354D01*
X95909894Y-151947790D01*
X95909900Y-151947789D01*
X95914171Y-151947498D01*
X95918366Y-151946629D01*
X95918368Y-151946629D01*
X96058535Y-151917602D01*
X96202898Y-151887706D01*
X96480839Y-151789282D01*
X96742851Y-151654047D01*
X96746352Y-151651586D01*
X96746356Y-151651584D01*
X96915008Y-151533053D01*
X96984085Y-151484505D01*
X97200078Y-151283792D01*
X97239522Y-151235602D01*
X97363154Y-151084553D01*
X97421779Y-151044507D01*
X97492748Y-151042514D01*
X97553528Y-151079205D01*
X97558992Y-151085578D01*
X97567563Y-151096276D01*
X97704471Y-151267165D01*
X97730076Y-151291463D01*
X97895792Y-151448721D01*
X97918350Y-151470128D01*
X98059346Y-151571444D01*
X98143275Y-151631753D01*
X98157795Y-151642187D01*
X98161590Y-151644196D01*
X98161591Y-151644197D01*
X98204888Y-151667121D01*
X98418377Y-151780158D01*
X98695272Y-151881487D01*
X98983357Y-151944300D01*
X99012950Y-151946629D01*
X99212153Y-151962307D01*
X99212162Y-151962307D01*
X99214610Y-151962500D01*
X100774118Y-151962500D01*
X100776254Y-151962354D01*
X100776265Y-151962354D01*
X100989894Y-151947790D01*
X100989900Y-151947789D01*
X100994171Y-151947498D01*
X100998366Y-151946629D01*
X100998368Y-151946629D01*
X101138535Y-151917602D01*
X101282898Y-151887706D01*
X101560839Y-151789282D01*
X101822851Y-151654047D01*
X101826352Y-151651586D01*
X101826356Y-151651584D01*
X101995008Y-151533053D01*
X102064085Y-151484505D01*
X102280078Y-151283792D01*
X102319522Y-151235602D01*
X102464117Y-151058941D01*
X102466833Y-151055623D01*
X102570069Y-150887157D01*
X102580544Y-150870064D01*
X102633192Y-150822433D01*
X102703233Y-150810826D01*
X102768431Y-150838929D01*
X102796710Y-150872235D01*
X102801054Y-150879655D01*
X102806211Y-150887157D01*
X102973446Y-151096276D01*
X102979635Y-151102959D01*
X103175305Y-151285743D01*
X103182394Y-151291463D01*
X103402403Y-151444089D01*
X103410236Y-151448721D01*
X103649973Y-151567988D01*
X103658398Y-151571444D01*
X103912845Y-151654857D01*
X103921670Y-151657057D01*
X104186210Y-151702989D01*
X104193828Y-151703836D01*
X104275902Y-151707922D01*
X104279043Y-151708000D01*
X104807885Y-151708000D01*
X104823124Y-151703525D01*
X104824329Y-151702135D01*
X104826000Y-151694452D01*
X104826000Y-151689885D01*
X105334000Y-151689885D01*
X105338475Y-151705124D01*
X105339865Y-151706329D01*
X105347548Y-151708000D01*
X105848053Y-151708000D01*
X105852624Y-151707835D01*
X106051617Y-151693396D01*
X106060626Y-151692082D01*
X106322092Y-151634356D01*
X106330822Y-151631753D01*
X106581215Y-151536888D01*
X106589476Y-151533053D01*
X106823552Y-151403035D01*
X106831177Y-151398045D01*
X107044029Y-151235602D01*
X107050856Y-151229562D01*
X107238026Y-151038096D01*
X107243907Y-151031137D01*
X107401482Y-150814652D01*
X107406302Y-150806906D01*
X107530969Y-150569953D01*
X107534618Y-150561601D01*
X107623778Y-150309124D01*
X107626181Y-150300340D01*
X107671231Y-150071775D01*
X107670052Y-150058862D01*
X107654951Y-150054000D01*
X105352115Y-150054000D01*
X105336876Y-150058475D01*
X105335671Y-150059865D01*
X105334000Y-150067548D01*
X105334000Y-151689885D01*
X104826000Y-151689885D01*
X104826000Y-149527885D01*
X105334000Y-149527885D01*
X105338475Y-149543124D01*
X105339865Y-149544329D01*
X105347548Y-149546000D01*
X107654404Y-149546000D01*
X107668881Y-149541749D01*
X107670944Y-149529488D01*
X107666747Y-149485506D01*
X107665227Y-149476514D01*
X107601584Y-149216429D01*
X107598786Y-149207765D01*
X107498264Y-148959586D01*
X107494242Y-148951412D01*
X107358945Y-148720344D01*
X107353789Y-148712843D01*
X107186554Y-148503724D01*
X107180365Y-148497041D01*
X106984695Y-148314257D01*
X106977606Y-148308537D01*
X106757597Y-148155911D01*
X106749764Y-148151279D01*
X106510027Y-148032012D01*
X106501602Y-148028556D01*
X106247155Y-147945143D01*
X106238330Y-147942943D01*
X105973790Y-147897011D01*
X105966172Y-147896164D01*
X105884098Y-147892078D01*
X105880957Y-147892000D01*
X105352115Y-147892000D01*
X105336876Y-147896475D01*
X105335671Y-147897865D01*
X105334000Y-147905548D01*
X105334000Y-149527885D01*
X104826000Y-149527885D01*
X104826000Y-147910115D01*
X104821525Y-147894876D01*
X104820135Y-147893671D01*
X104812452Y-147892000D01*
X104311947Y-147892000D01*
X104307376Y-147892165D01*
X104108383Y-147906604D01*
X104099374Y-147907918D01*
X103837908Y-147965644D01*
X103829178Y-147968247D01*
X103578785Y-148063112D01*
X103570524Y-148066947D01*
X103336448Y-148196965D01*
X103328823Y-148201955D01*
X103115971Y-148364398D01*
X103109144Y-148370438D01*
X102921974Y-148561904D01*
X102916085Y-148568871D01*
X102790788Y-148741012D01*
X102734528Y-148784317D01*
X102663787Y-148790331D01*
X102601024Y-148757144D01*
X102580801Y-148731568D01*
X102482088Y-148566630D01*
X102482085Y-148566626D01*
X102479884Y-148562948D01*
X102295529Y-148332835D01*
X102157610Y-148201955D01*
X102084759Y-148132822D01*
X102084756Y-148132820D01*
X102081650Y-148129872D01*
X101885345Y-147988812D01*
X101845694Y-147960320D01*
X101845693Y-147960319D01*
X101842205Y-147957813D01*
X101814121Y-147942943D01*
X101752119Y-147910115D01*
X101581623Y-147819842D01*
X101304728Y-147718513D01*
X101016643Y-147655700D01*
X100976009Y-147652502D01*
X100787847Y-147637693D01*
X100787838Y-147637693D01*
X100785390Y-147637500D01*
X99225882Y-147637500D01*
X99223746Y-147637646D01*
X99223735Y-147637646D01*
X99010106Y-147652210D01*
X99010100Y-147652211D01*
X99005829Y-147652502D01*
X99001634Y-147653371D01*
X99001632Y-147653371D01*
X98861465Y-147682398D01*
X98717102Y-147712294D01*
X98439161Y-147810718D01*
X98177149Y-147945953D01*
X98173648Y-147948414D01*
X98173644Y-147948416D01*
X98059617Y-148028556D01*
X97935915Y-148115495D01*
X97719922Y-148316208D01*
X97717208Y-148319524D01*
X97717205Y-148319527D01*
X97556846Y-148515447D01*
X97498221Y-148555493D01*
X97427252Y-148557486D01*
X97366472Y-148520795D01*
X97361008Y-148514422D01*
X97278931Y-148411974D01*
X97215529Y-148332835D01*
X97077610Y-148201955D01*
X97004759Y-148132822D01*
X97004756Y-148132820D01*
X97001650Y-148129872D01*
X96805345Y-147988812D01*
X96765694Y-147960320D01*
X96765693Y-147960319D01*
X96762205Y-147957813D01*
X96734121Y-147942943D01*
X96672119Y-147910115D01*
X96501623Y-147819842D01*
X96224728Y-147718513D01*
X95936643Y-147655700D01*
X95896009Y-147652502D01*
X95707847Y-147637693D01*
X95707838Y-147637693D01*
X95705390Y-147637500D01*
X94145882Y-147637500D01*
X94143746Y-147637646D01*
X94143735Y-147637646D01*
X93930106Y-147652210D01*
X93930100Y-147652211D01*
X93925829Y-147652502D01*
X93921634Y-147653371D01*
X93921632Y-147653371D01*
X93781465Y-147682398D01*
X93637102Y-147712294D01*
X93359161Y-147810718D01*
X93097149Y-147945953D01*
X93093648Y-147948414D01*
X93093644Y-147948416D01*
X92979617Y-148028556D01*
X92855915Y-148115495D01*
X92639922Y-148316208D01*
X92637208Y-148319524D01*
X92637205Y-148319527D01*
X92595535Y-148370438D01*
X92453167Y-148544377D01*
X92299107Y-148795781D01*
X92297381Y-148799714D01*
X92297380Y-148799715D01*
X92230790Y-148951412D01*
X92180591Y-149065768D01*
X92099813Y-149349340D01*
X92058268Y-149641252D01*
X92056724Y-149936102D01*
X90762500Y-149936102D01*
X90762500Y-145236102D01*
X92056724Y-145236102D01*
X92095210Y-145528433D01*
X92173014Y-145812836D01*
X92288696Y-146084048D01*
X92440116Y-146337052D01*
X92624471Y-146567165D01*
X92838350Y-146770128D01*
X93077795Y-146942187D01*
X93338377Y-147080158D01*
X93615272Y-147181487D01*
X93903357Y-147244300D01*
X93932950Y-147246629D01*
X94132153Y-147262307D01*
X94132162Y-147262307D01*
X94134610Y-147262500D01*
X95694118Y-147262500D01*
X95696254Y-147262354D01*
X95696265Y-147262354D01*
X95909894Y-147247790D01*
X95909900Y-147247789D01*
X95914171Y-147247498D01*
X95918366Y-147246629D01*
X95918368Y-147246629D01*
X96058534Y-147217602D01*
X96202898Y-147187706D01*
X96480839Y-147089282D01*
X96742851Y-146954047D01*
X96746352Y-146951586D01*
X96746356Y-146951584D01*
X96863468Y-146869276D01*
X96984085Y-146784505D01*
X97200078Y-146583792D01*
X97363154Y-146384553D01*
X97421779Y-146344507D01*
X97492748Y-146342514D01*
X97553528Y-146379205D01*
X97558992Y-146385578D01*
X97641069Y-146488026D01*
X97704471Y-146567165D01*
X97918350Y-146770128D01*
X98157795Y-146942187D01*
X98418377Y-147080158D01*
X98695272Y-147181487D01*
X98983357Y-147244300D01*
X99012950Y-147246629D01*
X99212153Y-147262307D01*
X99212162Y-147262307D01*
X99214610Y-147262500D01*
X100774118Y-147262500D01*
X100776254Y-147262354D01*
X100776265Y-147262354D01*
X100989894Y-147247790D01*
X100989900Y-147247789D01*
X100994171Y-147247498D01*
X100998366Y-147246629D01*
X100998368Y-147246629D01*
X101138534Y-147217602D01*
X101282898Y-147187706D01*
X101560839Y-147089282D01*
X101822851Y-146954047D01*
X101826352Y-146951586D01*
X101826356Y-146951584D01*
X101943468Y-146869276D01*
X102064085Y-146784505D01*
X102280078Y-146583792D01*
X102443154Y-146384553D01*
X102501779Y-146344507D01*
X102572748Y-146342514D01*
X102633528Y-146379205D01*
X102638992Y-146385578D01*
X102721069Y-146488026D01*
X102784471Y-146567165D01*
X102998350Y-146770128D01*
X103237795Y-146942187D01*
X103498377Y-147080158D01*
X103775272Y-147181487D01*
X104063357Y-147244300D01*
X104092950Y-147246629D01*
X104292153Y-147262307D01*
X104292162Y-147262307D01*
X104294610Y-147262500D01*
X105854118Y-147262500D01*
X105856254Y-147262354D01*
X105856265Y-147262354D01*
X106069894Y-147247790D01*
X106069900Y-147247789D01*
X106074171Y-147247498D01*
X106078366Y-147246629D01*
X106078368Y-147246629D01*
X106218534Y-147217602D01*
X106362898Y-147187706D01*
X106640839Y-147089282D01*
X106902851Y-146954047D01*
X106906352Y-146951586D01*
X106906356Y-146951584D01*
X107023468Y-146869276D01*
X107144085Y-146784505D01*
X107360078Y-146583792D01*
X107546833Y-146355623D01*
X107700893Y-146104219D01*
X107709748Y-146084048D01*
X107817683Y-145838164D01*
X107819409Y-145834232D01*
X107900187Y-145550660D01*
X107941732Y-145258748D01*
X107943276Y-144963898D01*
X107904790Y-144671567D01*
X107826986Y-144387164D01*
X107711304Y-144115952D01*
X107559884Y-143862948D01*
X107375529Y-143632835D01*
X107161650Y-143429872D01*
X106922205Y-143257813D01*
X106661623Y-143119842D01*
X106384728Y-143018513D01*
X106096643Y-142955700D01*
X106056009Y-142952502D01*
X105867847Y-142937693D01*
X105867838Y-142937693D01*
X105865390Y-142937500D01*
X104305882Y-142937500D01*
X104303746Y-142937646D01*
X104303735Y-142937646D01*
X104090106Y-142952210D01*
X104090100Y-142952211D01*
X104085829Y-142952502D01*
X104081634Y-142953371D01*
X104081632Y-142953371D01*
X103941465Y-142982398D01*
X103797102Y-143012294D01*
X103519161Y-143110718D01*
X103257149Y-143245953D01*
X103253648Y-143248414D01*
X103253644Y-143248416D01*
X103204284Y-143283107D01*
X103015915Y-143415495D01*
X102799922Y-143616208D01*
X102797208Y-143619524D01*
X102797205Y-143619527D01*
X102636846Y-143815447D01*
X102578221Y-143855493D01*
X102507252Y-143857486D01*
X102446472Y-143820795D01*
X102441008Y-143814422D01*
X102298206Y-143636177D01*
X102295529Y-143632835D01*
X102081650Y-143429872D01*
X101842205Y-143257813D01*
X101581623Y-143119842D01*
X101304728Y-143018513D01*
X101016643Y-142955700D01*
X100976009Y-142952502D01*
X100787847Y-142937693D01*
X100787838Y-142937693D01*
X100785390Y-142937500D01*
X99225882Y-142937500D01*
X99223746Y-142937646D01*
X99223735Y-142937646D01*
X99010106Y-142952210D01*
X99010100Y-142952211D01*
X99005829Y-142952502D01*
X99001634Y-142953371D01*
X99001632Y-142953371D01*
X98861465Y-142982398D01*
X98717102Y-143012294D01*
X98439161Y-143110718D01*
X98177149Y-143245953D01*
X98173648Y-143248414D01*
X98173644Y-143248416D01*
X98124284Y-143283107D01*
X97935915Y-143415495D01*
X97719922Y-143616208D01*
X97717208Y-143619524D01*
X97717205Y-143619527D01*
X97556846Y-143815447D01*
X97498221Y-143855493D01*
X97427252Y-143857486D01*
X97366472Y-143820795D01*
X97361008Y-143814422D01*
X97218206Y-143636177D01*
X97215529Y-143632835D01*
X97001650Y-143429872D01*
X96905288Y-143360629D01*
X96818314Y-143298131D01*
X96774666Y-143242137D01*
X96768220Y-143171433D01*
X96801023Y-143108469D01*
X96862660Y-143073235D01*
X96878833Y-143070483D01*
X96922968Y-143065903D01*
X96978131Y-143060180D01*
X96978134Y-143060179D01*
X96984990Y-143059468D01*
X96991526Y-143057287D01*
X96991528Y-143057287D01*
X97128992Y-143011425D01*
X97153654Y-143003197D01*
X97304850Y-142909634D01*
X97430466Y-142783799D01*
X97523764Y-142632440D01*
X97552888Y-142544636D01*
X97577575Y-142470209D01*
X97577576Y-142470207D01*
X97579741Y-142463678D01*
X97590500Y-142358666D01*
X97590500Y-141676757D01*
X97610502Y-141608636D01*
X97664158Y-141562143D01*
X97734432Y-141552039D01*
X97799012Y-141581533D01*
X97814903Y-141598063D01*
X97893440Y-141696270D01*
X97899635Y-141702959D01*
X98095305Y-141885743D01*
X98102394Y-141891463D01*
X98322403Y-142044089D01*
X98330236Y-142048721D01*
X98569973Y-142167988D01*
X98578398Y-142171444D01*
X98832845Y-142254857D01*
X98841670Y-142257057D01*
X99106210Y-142302989D01*
X99113828Y-142303836D01*
X99195902Y-142307922D01*
X99199043Y-142308000D01*
X99727885Y-142308000D01*
X99743124Y-142303525D01*
X99744329Y-142302135D01*
X99746000Y-142294452D01*
X99746000Y-142289885D01*
X100254000Y-142289885D01*
X100258475Y-142305124D01*
X100259865Y-142306329D01*
X100267548Y-142308000D01*
X100768053Y-142308000D01*
X100772624Y-142307835D01*
X100971617Y-142293396D01*
X100980626Y-142292082D01*
X101242092Y-142234356D01*
X101250822Y-142231753D01*
X101501215Y-142136888D01*
X101509476Y-142133053D01*
X101743552Y-142003035D01*
X101751177Y-141998045D01*
X101964029Y-141835602D01*
X101970856Y-141829562D01*
X102158026Y-141638096D01*
X102163915Y-141631129D01*
X102289212Y-141458988D01*
X102345472Y-141415683D01*
X102416213Y-141409669D01*
X102478976Y-141442856D01*
X102499199Y-141468432D01*
X102576782Y-141598063D01*
X102600116Y-141637052D01*
X102784471Y-141867165D01*
X102810076Y-141891463D01*
X102975792Y-142048721D01*
X102998350Y-142070128D01*
X103139346Y-142171444D01*
X103223275Y-142231753D01*
X103237795Y-142242187D01*
X103241590Y-142244196D01*
X103241591Y-142244197D01*
X103284888Y-142267121D01*
X103498377Y-142380158D01*
X103523310Y-142389282D01*
X103748058Y-142471528D01*
X103775272Y-142481487D01*
X104063357Y-142544300D01*
X104092950Y-142546629D01*
X104292153Y-142562307D01*
X104292162Y-142562307D01*
X104294610Y-142562500D01*
X105854118Y-142562500D01*
X105856254Y-142562354D01*
X105856265Y-142562354D01*
X106069894Y-142547790D01*
X106069900Y-142547789D01*
X106074171Y-142547498D01*
X106078366Y-142546629D01*
X106078368Y-142546629D01*
X106218535Y-142517602D01*
X106362898Y-142487706D01*
X106640839Y-142389282D01*
X106902851Y-142254047D01*
X106906352Y-142251586D01*
X106906356Y-142251584D01*
X107075008Y-142133053D01*
X107144085Y-142084505D01*
X107360078Y-141883792D01*
X107399522Y-141835602D01*
X107544117Y-141658941D01*
X107546833Y-141655623D01*
X107700893Y-141404219D01*
X107709748Y-141384048D01*
X107817683Y-141138164D01*
X107819409Y-141134232D01*
X107900187Y-140850660D01*
X107941732Y-140558748D01*
X107943276Y-140263898D01*
X107904790Y-139971567D01*
X107826986Y-139687164D01*
X107711304Y-139415952D01*
X107603912Y-139236513D01*
X107562088Y-139166630D01*
X107562085Y-139166626D01*
X107559884Y-139162948D01*
X107375529Y-138932835D01*
X107237610Y-138801955D01*
X107164759Y-138732822D01*
X107164756Y-138732820D01*
X107161650Y-138729872D01*
X106965345Y-138588812D01*
X106925694Y-138560320D01*
X106925693Y-138560319D01*
X106922205Y-138557813D01*
X106894121Y-138542943D01*
X106832119Y-138510115D01*
X106661623Y-138419842D01*
X106523176Y-138369178D01*
X106388759Y-138319988D01*
X106388757Y-138319987D01*
X106384728Y-138318513D01*
X106096643Y-138255700D01*
X106056009Y-138252502D01*
X105867847Y-138237693D01*
X105867838Y-138237693D01*
X105865390Y-138237500D01*
X104305882Y-138237500D01*
X104303746Y-138237646D01*
X104303735Y-138237646D01*
X104090106Y-138252210D01*
X104090100Y-138252211D01*
X104085829Y-138252502D01*
X104081634Y-138253371D01*
X104081632Y-138253371D01*
X103941465Y-138282398D01*
X103797102Y-138312294D01*
X103519161Y-138410718D01*
X103257149Y-138545953D01*
X103253648Y-138548414D01*
X103253644Y-138548416D01*
X103139617Y-138628556D01*
X103015915Y-138715495D01*
X102799922Y-138916208D01*
X102797208Y-138919524D01*
X102797205Y-138919527D01*
X102755535Y-138970438D01*
X102613167Y-139144377D01*
X102601787Y-139162948D01*
X102499456Y-139329936D01*
X102446808Y-139377567D01*
X102376767Y-139389174D01*
X102311569Y-139361071D01*
X102283290Y-139327765D01*
X102278946Y-139320345D01*
X102273789Y-139312843D01*
X102106554Y-139103724D01*
X102100365Y-139097041D01*
X101904695Y-138914257D01*
X101897606Y-138908537D01*
X101677597Y-138755911D01*
X101669764Y-138751279D01*
X101430027Y-138632012D01*
X101421602Y-138628556D01*
X101167155Y-138545143D01*
X101158330Y-138542943D01*
X100893790Y-138497011D01*
X100886172Y-138496164D01*
X100804098Y-138492078D01*
X100800957Y-138492000D01*
X100272115Y-138492000D01*
X100256876Y-138496475D01*
X100255671Y-138497865D01*
X100254000Y-138505548D01*
X100254000Y-142289885D01*
X99746000Y-142289885D01*
X99746000Y-138510115D01*
X99741525Y-138494876D01*
X99740135Y-138493671D01*
X99732452Y-138492000D01*
X99231947Y-138492000D01*
X99227376Y-138492165D01*
X99028383Y-138506604D01*
X99019374Y-138507918D01*
X98757908Y-138565644D01*
X98749178Y-138568247D01*
X98498785Y-138663112D01*
X98490524Y-138666947D01*
X98256448Y-138796965D01*
X98248823Y-138801955D01*
X98035971Y-138964398D01*
X98029144Y-138970438D01*
X97841974Y-139161904D01*
X97836085Y-139168872D01*
X97818371Y-139193208D01*
X97762111Y-139236513D01*
X97691369Y-139242526D01*
X97628607Y-139209339D01*
X97593749Y-139147489D01*
X97590500Y-139119058D01*
X97590500Y-138441334D01*
X97588117Y-138418367D01*
X97580180Y-138341868D01*
X97580179Y-138341864D01*
X97579468Y-138335010D01*
X97572367Y-138313724D01*
X97525515Y-138173294D01*
X97523197Y-138166346D01*
X97429634Y-138015150D01*
X97303799Y-137889534D01*
X97152440Y-137796236D01*
X97145491Y-137793931D01*
X96990209Y-137742425D01*
X96990207Y-137742424D01*
X96983678Y-137740259D01*
X96878666Y-137729500D01*
X92961334Y-137729500D01*
X92958088Y-137729837D01*
X92958084Y-137729837D01*
X92861868Y-137739820D01*
X92861864Y-137739821D01*
X92855010Y-137740532D01*
X92848474Y-137742713D01*
X92848472Y-137742713D01*
X92716723Y-137786668D01*
X92686346Y-137796803D01*
X92535150Y-137890366D01*
X92409534Y-138016201D01*
X92316236Y-138167560D01*
X92313931Y-138174508D01*
X92313931Y-138174509D01*
X92267755Y-138313724D01*
X92260259Y-138336322D01*
X92249500Y-138441334D01*
X92249500Y-142358666D01*
X92249837Y-142361912D01*
X92249837Y-142361916D01*
X92259686Y-142456833D01*
X92260532Y-142464990D01*
X92262713Y-142471526D01*
X92262713Y-142471528D01*
X92286687Y-142543387D01*
X92316803Y-142633654D01*
X92410366Y-142784850D01*
X92536201Y-142910466D01*
X92687560Y-143003764D01*
X92694508Y-143006069D01*
X92694509Y-143006069D01*
X92849791Y-143057575D01*
X92849793Y-143057576D01*
X92856322Y-143059741D01*
X92961158Y-143070482D01*
X92961334Y-143070500D01*
X92961182Y-143071982D01*
X93022657Y-143093467D01*
X93066377Y-143149405D01*
X93072913Y-143220100D01*
X93040191Y-143283107D01*
X93021713Y-143298970D01*
X92855915Y-143415495D01*
X92639922Y-143616208D01*
X92453167Y-143844377D01*
X92299107Y-144095781D01*
X92297381Y-144099714D01*
X92297380Y-144099715D01*
X92288518Y-144119904D01*
X92180591Y-144365768D01*
X92099813Y-144649340D01*
X92058268Y-144941252D01*
X92056724Y-145236102D01*
X90762500Y-145236102D01*
X90762500Y-132980666D01*
X91986500Y-132980666D01*
X91986837Y-132983912D01*
X91986837Y-132983916D01*
X91991258Y-133026520D01*
X91997532Y-133086990D01*
X91999713Y-133093526D01*
X91999713Y-133093528D01*
X92009810Y-133123792D01*
X92053803Y-133255654D01*
X92147366Y-133406850D01*
X92273201Y-133532466D01*
X92424560Y-133625764D01*
X92431508Y-133628069D01*
X92431509Y-133628069D01*
X92586791Y-133679575D01*
X92586793Y-133679576D01*
X92593322Y-133681741D01*
X92698334Y-133692500D01*
X94499666Y-133692500D01*
X94502912Y-133692163D01*
X94502916Y-133692163D01*
X94599132Y-133682180D01*
X94599136Y-133682179D01*
X94605990Y-133681468D01*
X94612526Y-133679287D01*
X94612528Y-133679287D01*
X94744277Y-133635332D01*
X94774654Y-133625197D01*
X94925850Y-133531634D01*
X95043819Y-133413460D01*
X95106100Y-133379381D01*
X95176920Y-133384384D01*
X95198825Y-133395044D01*
X95404677Y-133521191D01*
X95409247Y-133523084D01*
X95409251Y-133523086D01*
X95634596Y-133616427D01*
X95639169Y-133618321D01*
X95679773Y-133628069D01*
X95881156Y-133676417D01*
X95881162Y-133676418D01*
X95885969Y-133677572D01*
X96139000Y-133697486D01*
X96392031Y-133677572D01*
X96396838Y-133676418D01*
X96396844Y-133676417D01*
X96598227Y-133628069D01*
X96638831Y-133618321D01*
X96643404Y-133616427D01*
X96868749Y-133523086D01*
X96868753Y-133523084D01*
X96873323Y-133521191D01*
X97089734Y-133388574D01*
X97282735Y-133223735D01*
X97313189Y-133188078D01*
X97372640Y-133149269D01*
X97443634Y-133148763D01*
X97504811Y-133188078D01*
X97535265Y-133223735D01*
X97728266Y-133388574D01*
X97944677Y-133521191D01*
X97949247Y-133523084D01*
X97949251Y-133523086D01*
X98174596Y-133616427D01*
X98179169Y-133618321D01*
X98219773Y-133628069D01*
X98421156Y-133676417D01*
X98421162Y-133676418D01*
X98425969Y-133677572D01*
X98679000Y-133697486D01*
X98932031Y-133677572D01*
X98936838Y-133676418D01*
X98936844Y-133676417D01*
X99138227Y-133628069D01*
X99178831Y-133618321D01*
X99183404Y-133616427D01*
X99408749Y-133523086D01*
X99408753Y-133523084D01*
X99413323Y-133521191D01*
X99629734Y-133388574D01*
X99822735Y-133223735D01*
X99853189Y-133188078D01*
X99912640Y-133149269D01*
X99983634Y-133148763D01*
X100044811Y-133188078D01*
X100075265Y-133223735D01*
X100268266Y-133388574D01*
X100484677Y-133521191D01*
X100489247Y-133523084D01*
X100489251Y-133523086D01*
X100714596Y-133616427D01*
X100719169Y-133618321D01*
X100759773Y-133628069D01*
X100961156Y-133676417D01*
X100961162Y-133676418D01*
X100965969Y-133677572D01*
X101219000Y-133697486D01*
X101472031Y-133677572D01*
X101476838Y-133676418D01*
X101476844Y-133676417D01*
X101678227Y-133628069D01*
X101718831Y-133618321D01*
X101723404Y-133616427D01*
X101948749Y-133523086D01*
X101948753Y-133523084D01*
X101953323Y-133521191D01*
X102169734Y-133388574D01*
X102362735Y-133223735D01*
X102527574Y-133030734D01*
X102530156Y-133026520D01*
X102530160Y-133026515D01*
X102544617Y-133002923D01*
X102597264Y-132955291D01*
X102667306Y-132943684D01*
X102732503Y-132971787D01*
X102747287Y-132986259D01*
X102802218Y-133049673D01*
X102809580Y-133056883D01*
X102973434Y-133192916D01*
X102981881Y-133198831D01*
X103165756Y-133306279D01*
X103175042Y-133310729D01*
X103374001Y-133386703D01*
X103383899Y-133389579D01*
X103487250Y-133410606D01*
X103501299Y-133409410D01*
X103505000Y-133399065D01*
X103505000Y-133398517D01*
X104013000Y-133398517D01*
X104017064Y-133412359D01*
X104030478Y-133414393D01*
X104037184Y-133413534D01*
X104047262Y-133411392D01*
X104251255Y-133350191D01*
X104260842Y-133346433D01*
X104452095Y-133252739D01*
X104460945Y-133247464D01*
X104634328Y-133123792D01*
X104642193Y-133117145D01*
X104778262Y-132981549D01*
X104840633Y-132947633D01*
X104911440Y-132952821D01*
X104968202Y-132995467D01*
X104974635Y-133004966D01*
X104987840Y-133026515D01*
X104987844Y-133026520D01*
X104990426Y-133030734D01*
X105155265Y-133223735D01*
X105348266Y-133388574D01*
X105564677Y-133521191D01*
X105569247Y-133523084D01*
X105569251Y-133523086D01*
X105794596Y-133616427D01*
X105799169Y-133618321D01*
X105839773Y-133628069D01*
X106041156Y-133676417D01*
X106041162Y-133676418D01*
X106045969Y-133677572D01*
X106299000Y-133697486D01*
X106552031Y-133677572D01*
X106556838Y-133676418D01*
X106556844Y-133676417D01*
X106758227Y-133628069D01*
X106798831Y-133618321D01*
X106803404Y-133616427D01*
X107028749Y-133523086D01*
X107028753Y-133523084D01*
X107033323Y-133521191D01*
X107249734Y-133388574D01*
X107442735Y-133223735D01*
X107607574Y-133030734D01*
X107740191Y-132814323D01*
X107837321Y-132579831D01*
X107896572Y-132333031D01*
X107916486Y-132080000D01*
X107896572Y-131826969D01*
X107837321Y-131580169D01*
X107740191Y-131345677D01*
X107607574Y-131129266D01*
X107442735Y-130936265D01*
X107249734Y-130771426D01*
X107033323Y-130638809D01*
X107028753Y-130636916D01*
X107028749Y-130636914D01*
X106803404Y-130543573D01*
X106803402Y-130543572D01*
X106798831Y-130541679D01*
X106713854Y-130521278D01*
X106556844Y-130483583D01*
X106556838Y-130483582D01*
X106552031Y-130482428D01*
X106299000Y-130462514D01*
X106045969Y-130482428D01*
X106041162Y-130483582D01*
X106041156Y-130483583D01*
X105884146Y-130521278D01*
X105799169Y-130541679D01*
X105794598Y-130543572D01*
X105794596Y-130543573D01*
X105569251Y-130636914D01*
X105569247Y-130636916D01*
X105564677Y-130638809D01*
X105348266Y-130771426D01*
X105155265Y-130936265D01*
X104990426Y-131129266D01*
X104973744Y-131156489D01*
X104973324Y-131157174D01*
X104920676Y-131204805D01*
X104850635Y-131216412D01*
X104785437Y-131188309D01*
X104772698Y-131176139D01*
X104691806Y-131087240D01*
X104684273Y-131080215D01*
X104517139Y-130948222D01*
X104508552Y-130942517D01*
X104322117Y-130839599D01*
X104312705Y-130835369D01*
X104111959Y-130764280D01*
X104101988Y-130761646D01*
X104030837Y-130748972D01*
X104017540Y-130750432D01*
X104013000Y-130764989D01*
X104013000Y-133398517D01*
X103505000Y-133398517D01*
X103505000Y-130763102D01*
X103501082Y-130749758D01*
X103486806Y-130747771D01*
X103448324Y-130753660D01*
X103438288Y-130756051D01*
X103235868Y-130822212D01*
X103226359Y-130826209D01*
X103037463Y-130924542D01*
X103028738Y-130930036D01*
X102858433Y-131057905D01*
X102850726Y-131064748D01*
X102742783Y-131177704D01*
X102681259Y-131213134D01*
X102610346Y-131209677D01*
X102552560Y-131168431D01*
X102544257Y-131156489D01*
X102530159Y-131133484D01*
X102530156Y-131133480D01*
X102527574Y-131129266D01*
X102362735Y-130936265D01*
X102169734Y-130771426D01*
X101953323Y-130638809D01*
X101948753Y-130636916D01*
X101948749Y-130636914D01*
X101723404Y-130543573D01*
X101723402Y-130543572D01*
X101718831Y-130541679D01*
X101633854Y-130521278D01*
X101476844Y-130483583D01*
X101476838Y-130483582D01*
X101472031Y-130482428D01*
X101219000Y-130462514D01*
X100965969Y-130482428D01*
X100961162Y-130483582D01*
X100961156Y-130483583D01*
X100804146Y-130521278D01*
X100719169Y-130541679D01*
X100714598Y-130543572D01*
X100714596Y-130543573D01*
X100489251Y-130636914D01*
X100489247Y-130636916D01*
X100484677Y-130638809D01*
X100268266Y-130771426D01*
X100075265Y-130936265D01*
X100072057Y-130940021D01*
X100044811Y-130971922D01*
X99985360Y-131010731D01*
X99914366Y-131011237D01*
X99853189Y-130971922D01*
X99825943Y-130940021D01*
X99822735Y-130936265D01*
X99629734Y-130771426D01*
X99413323Y-130638809D01*
X99408753Y-130636916D01*
X99408749Y-130636914D01*
X99183404Y-130543573D01*
X99183402Y-130543572D01*
X99178831Y-130541679D01*
X99093854Y-130521278D01*
X98936844Y-130483583D01*
X98936838Y-130483582D01*
X98932031Y-130482428D01*
X98679000Y-130462514D01*
X98425969Y-130482428D01*
X98421162Y-130483582D01*
X98421156Y-130483583D01*
X98264146Y-130521278D01*
X98179169Y-130541679D01*
X98174598Y-130543572D01*
X98174596Y-130543573D01*
X97949251Y-130636914D01*
X97949247Y-130636916D01*
X97944677Y-130638809D01*
X97728266Y-130771426D01*
X97535265Y-130936265D01*
X97532057Y-130940021D01*
X97504811Y-130971922D01*
X97445360Y-131010731D01*
X97374366Y-131011237D01*
X97313189Y-130971922D01*
X97285943Y-130940021D01*
X97282735Y-130936265D01*
X97089734Y-130771426D01*
X96873323Y-130638809D01*
X96868753Y-130636916D01*
X96868749Y-130636914D01*
X96643404Y-130543573D01*
X96643402Y-130543572D01*
X96638831Y-130541679D01*
X96553854Y-130521278D01*
X96396844Y-130483583D01*
X96396838Y-130483582D01*
X96392031Y-130482428D01*
X96139000Y-130462514D01*
X95885969Y-130482428D01*
X95881162Y-130483582D01*
X95881156Y-130483583D01*
X95724146Y-130521278D01*
X95639169Y-130541679D01*
X95634598Y-130543572D01*
X95634596Y-130543573D01*
X95409251Y-130636914D01*
X95409247Y-130636916D01*
X95404677Y-130638809D01*
X95198946Y-130764881D01*
X95130414Y-130783419D01*
X95062737Y-130761963D01*
X95044094Y-130746621D01*
X94929978Y-130632704D01*
X94924799Y-130627534D01*
X94773440Y-130534236D01*
X94766491Y-130531931D01*
X94611209Y-130480425D01*
X94611207Y-130480424D01*
X94604678Y-130478259D01*
X94499666Y-130467500D01*
X92698334Y-130467500D01*
X92695088Y-130467837D01*
X92695084Y-130467837D01*
X92598868Y-130477820D01*
X92598864Y-130477821D01*
X92592010Y-130478532D01*
X92585474Y-130480713D01*
X92585472Y-130480713D01*
X92581495Y-130482040D01*
X92423346Y-130534803D01*
X92272150Y-130628366D01*
X92146534Y-130754201D01*
X92053236Y-130905560D01*
X92050931Y-130912508D01*
X92050931Y-130912509D01*
X92000435Y-131064748D01*
X91997259Y-131074322D01*
X91986500Y-131179334D01*
X91986500Y-132980666D01*
X90762500Y-132980666D01*
X90762500Y-128888500D01*
X90782502Y-128820379D01*
X90836158Y-128773886D01*
X90888500Y-128762500D01*
X109111500Y-128762500D01*
X109179621Y-128782502D01*
G37*
%TD.AperFunction*%
%TD*%
M02*
