%TF.GenerationSoftware,KiCad,Pcbnew,(6.0.9-0)*%
%TF.CreationDate,2024-05-22T19:22:00+02:00*%
%TF.ProjectId,npnium-switch,6e706e69-756d-42d7-9377-697463682e6b,rev?*%
%TF.SameCoordinates,Original*%
%TF.FileFunction,Copper,L2,Bot*%
%TF.FilePolarity,Positive*%
%FSLAX46Y46*%
G04 Gerber Fmt 4.6, Leading zero omitted, Abs format (unit mm)*
G04 Created by KiCad (PCBNEW (6.0.9-0)) date 2024-05-22 19:22:00*
%MOMM*%
%LPD*%
G01*
G04 APERTURE LIST*
%TA.AperFunction,ComponentPad*%
%ADD10R,1.700000X1.700000*%
%TD*%
%TA.AperFunction,ComponentPad*%
%ADD11O,1.700000X1.700000*%
%TD*%
%TA.AperFunction,ComponentPad*%
%ADD12R,3.816000X3.816000*%
%TD*%
%TA.AperFunction,ComponentPad*%
%ADD13O,4.200000X2.800000*%
%TD*%
%TA.AperFunction,ViaPad*%
%ADD14C,0.800000*%
%TD*%
%TA.AperFunction,Conductor*%
%ADD15C,0.500000*%
%TD*%
%TA.AperFunction,Conductor*%
%ADD16C,0.900000*%
%TD*%
%TA.AperFunction,Conductor*%
%ADD17C,0.300000*%
%TD*%
G04 APERTURE END LIST*
D10*
%TO.P,J3,1,Pin_1*%
%TO.N,/Switch/IN*%
X93599000Y-132080000D03*
D11*
%TO.P,J3,2,Pin_2*%
%TO.N,/Switch/FX_IN*%
X96139000Y-132080000D03*
%TO.P,J3,3,Pin_3*%
%TO.N,/Switch/LED_GND*%
X98679000Y-132080000D03*
%TO.P,J3,4,Pin_4*%
%TO.N,/Switch/OUT*%
X101219000Y-132080000D03*
%TO.P,J3,5,Pin_5*%
%TO.N,/Switch/GND*%
X103759000Y-132080000D03*
%TO.P,J3,6,Pin_6*%
%TO.N,/Switch/FX_OUT*%
X106299000Y-132080000D03*
%TD*%
D12*
%TO.P,SW1,1,A*%
%TO.N,/Switch/IN*%
X94920000Y-140400000D03*
D13*
%TO.P,SW1,2,B*%
%TO.N,/Switch/OUT*%
X94920000Y-145100000D03*
%TO.P,SW1,3,C*%
%TO.N,/Switch/FX_OUT*%
X94920000Y-149800000D03*
%TO.P,SW1,4,A*%
%TO.N,/Switch/GND*%
X100000000Y-140400000D03*
%TO.P,SW1,5,B*%
%TO.N,/Switch/FX_IN*%
X100000000Y-145100000D03*
%TO.P,SW1,6,C*%
%TO.N,/Switch/IN*%
X100000000Y-149800000D03*
%TO.P,SW1,7,A*%
%TO.N,unconnected-(SW1-Pad7)*%
X105080000Y-140400000D03*
%TO.P,SW1,8,B*%
%TO.N,/Switch/LED_GND*%
X105080000Y-145100000D03*
%TO.P,SW1,9,C*%
%TO.N,/Switch/GND*%
X105080000Y-149800000D03*
%TD*%
D14*
%TO.N,/Switch/GND*%
X94869000Y-134620000D03*
X92202000Y-130048000D03*
X92202000Y-147447000D03*
X92202000Y-134620000D03*
X97409000Y-130048000D03*
X92202000Y-152527000D03*
%TD*%
D15*
%TO.N,/Switch/IN*%
X94920000Y-141275000D02*
X94920000Y-140400000D01*
X97490000Y-143845000D02*
X94920000Y-141275000D01*
D16*
X93599000Y-139079000D02*
X94920000Y-140400000D01*
D15*
X100000000Y-148895000D02*
X100000000Y-149800000D01*
X97490000Y-146385000D02*
X100000000Y-148895000D01*
D17*
X97490000Y-146177000D02*
X97490000Y-143845000D01*
D15*
X97490000Y-146177000D02*
X97490000Y-146385000D01*
D16*
X93599000Y-132080000D02*
X93599000Y-139079000D01*
D15*
%TO.N,/Switch/FX_IN*%
X100000000Y-144323000D02*
X100000000Y-145100000D01*
X97390000Y-141713000D02*
X100000000Y-144323000D01*
X96139000Y-132080000D02*
X97390000Y-133331000D01*
X97390000Y-133331000D02*
X97390000Y-141713000D01*
%TO.N,/Switch/LED_GND*%
X105080000Y-145100000D02*
X105725000Y-145100000D01*
X107950000Y-136525000D02*
X106680000Y-135255000D01*
X106680000Y-135255000D02*
X99695000Y-135255000D01*
X98679000Y-134239000D02*
X98679000Y-132080000D01*
X105725000Y-145100000D02*
X107950000Y-142875000D01*
X99695000Y-135255000D02*
X98679000Y-134239000D01*
X107950000Y-142875000D02*
X107950000Y-136525000D01*
%TO.N,/Switch/OUT*%
X94920000Y-145100000D02*
X93030000Y-145100000D01*
X99822000Y-129032000D02*
X101219000Y-130429000D01*
X91059000Y-129032000D02*
X99822000Y-129032000D01*
X101219000Y-130429000D02*
X101219000Y-132080000D01*
X91059000Y-143129000D02*
X91059000Y-129032000D01*
X93030000Y-145100000D02*
X91059000Y-143129000D01*
%TO.N,/Switch/FX_OUT*%
X94920000Y-149800000D02*
X94920000Y-150920000D01*
X109000000Y-133000000D02*
X108080000Y-132080000D01*
X97000000Y-153000000D02*
X108000000Y-153000000D01*
X94920000Y-150920000D02*
X97000000Y-153000000D01*
X108080000Y-132080000D02*
X106299000Y-132080000D01*
X108000000Y-153000000D02*
X109000000Y-152000000D01*
X109000000Y-152000000D02*
X109000000Y-133000000D01*
%TD*%
%TA.AperFunction,Conductor*%
%TO.N,/Switch/GND*%
G36*
X90971012Y-144473358D02*
G01*
X90977595Y-144479487D01*
X92097446Y-145599338D01*
X92129885Y-145655185D01*
X92173014Y-145812836D01*
X92174698Y-145816784D01*
X92274949Y-146051818D01*
X92288696Y-146084048D01*
X92440116Y-146337052D01*
X92624471Y-146567165D01*
X92838350Y-146770128D01*
X93077795Y-146942187D01*
X93338377Y-147080158D01*
X93363310Y-147089282D01*
X93488328Y-147135032D01*
X93615272Y-147181487D01*
X93903357Y-147244300D01*
X93932950Y-147246629D01*
X94132153Y-147262307D01*
X94132162Y-147262307D01*
X94134610Y-147262500D01*
X95694118Y-147262500D01*
X95696254Y-147262354D01*
X95696265Y-147262354D01*
X95909894Y-147247790D01*
X95909900Y-147247789D01*
X95914171Y-147247498D01*
X95918366Y-147246629D01*
X95918368Y-147246629D01*
X96058534Y-147217602D01*
X96202898Y-147187706D01*
X96480839Y-147089282D01*
X96484648Y-147087316D01*
X96484660Y-147087311D01*
X96584899Y-147035573D01*
X96654606Y-147022103D01*
X96720529Y-147048458D01*
X96736644Y-147063583D01*
X96736963Y-147063940D01*
X96740651Y-147068259D01*
X96764188Y-147097119D01*
X96764191Y-147097122D01*
X96768083Y-147101894D01*
X96772830Y-147105821D01*
X96772832Y-147105823D01*
X96803566Y-147131248D01*
X96812346Y-147139238D01*
X97767136Y-148094028D01*
X97801162Y-148156340D01*
X97796097Y-148227155D01*
X97763814Y-148275421D01*
X97719922Y-148316208D01*
X97717208Y-148319524D01*
X97717205Y-148319527D01*
X97556846Y-148515447D01*
X97498221Y-148555493D01*
X97427252Y-148557486D01*
X97366472Y-148520795D01*
X97361008Y-148514422D01*
X97278931Y-148411974D01*
X97215529Y-148332835D01*
X97077610Y-148201955D01*
X97004759Y-148132822D01*
X97004756Y-148132820D01*
X97001650Y-148129872D01*
X96805345Y-147988812D01*
X96765694Y-147960320D01*
X96765693Y-147960319D01*
X96762205Y-147957813D01*
X96734121Y-147942943D01*
X96672119Y-147910115D01*
X96501623Y-147819842D01*
X96224728Y-147718513D01*
X95936643Y-147655700D01*
X95896009Y-147652502D01*
X95707847Y-147637693D01*
X95707838Y-147637693D01*
X95705390Y-147637500D01*
X94145882Y-147637500D01*
X94143746Y-147637646D01*
X94143735Y-147637646D01*
X93930106Y-147652210D01*
X93930100Y-147652211D01*
X93925829Y-147652502D01*
X93921634Y-147653371D01*
X93921632Y-147653371D01*
X93781465Y-147682398D01*
X93637102Y-147712294D01*
X93359161Y-147810718D01*
X93097149Y-147945953D01*
X93093648Y-147948414D01*
X93093644Y-147948416D01*
X92979617Y-148028556D01*
X92855915Y-148115495D01*
X92639922Y-148316208D01*
X92637208Y-148319524D01*
X92637205Y-148319527D01*
X92595535Y-148370438D01*
X92453167Y-148544377D01*
X92299107Y-148795781D01*
X92297381Y-148799714D01*
X92297380Y-148799715D01*
X92230790Y-148951412D01*
X92180591Y-149065768D01*
X92099813Y-149349340D01*
X92058268Y-149641252D01*
X92056724Y-149936102D01*
X92057283Y-149940346D01*
X92057283Y-149940350D01*
X92072835Y-150058475D01*
X92095210Y-150228433D01*
X92173014Y-150512836D01*
X92174698Y-150516784D01*
X92197377Y-150569953D01*
X92288696Y-150784048D01*
X92440116Y-151037052D01*
X92624471Y-151267165D01*
X92650076Y-151291463D01*
X92815792Y-151448721D01*
X92838350Y-151470128D01*
X92979346Y-151571444D01*
X93063275Y-151631753D01*
X93077795Y-151642187D01*
X93081590Y-151644196D01*
X93081591Y-151644197D01*
X93124888Y-151667121D01*
X93338377Y-151780158D01*
X93342408Y-151781633D01*
X93580803Y-151868873D01*
X93615272Y-151881487D01*
X93903357Y-151944300D01*
X93937223Y-151946965D01*
X94132153Y-151962307D01*
X94132162Y-151962307D01*
X94134610Y-151962500D01*
X94478418Y-151962500D01*
X94546539Y-151982502D01*
X94567513Y-151999405D01*
X95590514Y-153022405D01*
X95624539Y-153084717D01*
X95619475Y-153155532D01*
X95576928Y-153212368D01*
X95510408Y-153237179D01*
X95501419Y-153237500D01*
X90888500Y-153237500D01*
X90820379Y-153217498D01*
X90773886Y-153163842D01*
X90762500Y-153111500D01*
X90762500Y-144568582D01*
X90782502Y-144500461D01*
X90836158Y-144453968D01*
X90906432Y-144443864D01*
X90971012Y-144473358D01*
G37*
%TD.AperFunction*%
%TA.AperFunction,Conductor*%
G36*
X107928049Y-145944826D02*
G01*
X107975329Y-145997790D01*
X107987500Y-146051818D01*
X107987500Y-151528419D01*
X107967498Y-151596540D01*
X107950595Y-151617514D01*
X107617514Y-151950595D01*
X107555202Y-151984621D01*
X107528419Y-151987500D01*
X101695639Y-151987500D01*
X101627518Y-151967498D01*
X101581025Y-151913842D01*
X101570921Y-151843568D01*
X101600415Y-151778988D01*
X101637849Y-151749534D01*
X101819044Y-151656012D01*
X101819045Y-151656012D01*
X101822851Y-151654047D01*
X101826352Y-151651586D01*
X101826356Y-151651584D01*
X101995008Y-151533053D01*
X102064085Y-151484505D01*
X102280078Y-151283792D01*
X102319522Y-151235602D01*
X102464117Y-151058941D01*
X102466833Y-151055623D01*
X102570069Y-150887157D01*
X102580544Y-150870064D01*
X102633192Y-150822433D01*
X102703233Y-150810826D01*
X102768431Y-150838929D01*
X102796710Y-150872235D01*
X102801054Y-150879655D01*
X102806211Y-150887157D01*
X102973446Y-151096276D01*
X102979635Y-151102959D01*
X103175305Y-151285743D01*
X103182394Y-151291463D01*
X103402403Y-151444089D01*
X103410236Y-151448721D01*
X103649973Y-151567988D01*
X103658398Y-151571444D01*
X103912845Y-151654857D01*
X103921670Y-151657057D01*
X104186210Y-151702989D01*
X104193828Y-151703836D01*
X104275902Y-151707922D01*
X104279043Y-151708000D01*
X104807885Y-151708000D01*
X104823124Y-151703525D01*
X104824329Y-151702135D01*
X104826000Y-151694452D01*
X104826000Y-151689885D01*
X105334000Y-151689885D01*
X105338475Y-151705124D01*
X105339865Y-151706329D01*
X105347548Y-151708000D01*
X105848053Y-151708000D01*
X105852624Y-151707835D01*
X106051617Y-151693396D01*
X106060626Y-151692082D01*
X106322092Y-151634356D01*
X106330822Y-151631753D01*
X106581215Y-151536888D01*
X106589476Y-151533053D01*
X106823552Y-151403035D01*
X106831177Y-151398045D01*
X107044029Y-151235602D01*
X107050856Y-151229562D01*
X107238026Y-151038096D01*
X107243907Y-151031137D01*
X107401482Y-150814652D01*
X107406302Y-150806906D01*
X107530969Y-150569953D01*
X107534618Y-150561601D01*
X107623778Y-150309124D01*
X107626181Y-150300340D01*
X107671231Y-150071775D01*
X107670052Y-150058862D01*
X107654951Y-150054000D01*
X105352115Y-150054000D01*
X105336876Y-150058475D01*
X105335671Y-150059865D01*
X105334000Y-150067548D01*
X105334000Y-151689885D01*
X104826000Y-151689885D01*
X104826000Y-149527885D01*
X105334000Y-149527885D01*
X105338475Y-149543124D01*
X105339865Y-149544329D01*
X105347548Y-149546000D01*
X107654404Y-149546000D01*
X107668881Y-149541749D01*
X107670944Y-149529488D01*
X107666747Y-149485506D01*
X107665227Y-149476514D01*
X107601584Y-149216429D01*
X107598786Y-149207765D01*
X107498264Y-148959586D01*
X107494242Y-148951412D01*
X107358945Y-148720344D01*
X107353789Y-148712843D01*
X107186554Y-148503724D01*
X107180365Y-148497041D01*
X106984695Y-148314257D01*
X106977606Y-148308537D01*
X106757597Y-148155911D01*
X106749764Y-148151279D01*
X106510027Y-148032012D01*
X106501602Y-148028556D01*
X106247155Y-147945143D01*
X106238330Y-147942943D01*
X105973790Y-147897011D01*
X105966172Y-147896164D01*
X105884098Y-147892078D01*
X105880957Y-147892000D01*
X105352115Y-147892000D01*
X105336876Y-147896475D01*
X105335671Y-147897865D01*
X105334000Y-147905548D01*
X105334000Y-149527885D01*
X104826000Y-149527885D01*
X104826000Y-147910115D01*
X104821525Y-147894876D01*
X104820135Y-147893671D01*
X104812452Y-147892000D01*
X104311947Y-147892000D01*
X104307376Y-147892165D01*
X104108383Y-147906604D01*
X104099374Y-147907918D01*
X103837908Y-147965644D01*
X103829178Y-147968247D01*
X103578785Y-148063112D01*
X103570524Y-148066947D01*
X103336448Y-148196965D01*
X103328823Y-148201955D01*
X103115971Y-148364398D01*
X103109144Y-148370438D01*
X102921974Y-148561904D01*
X102916085Y-148568871D01*
X102790788Y-148741012D01*
X102734528Y-148784317D01*
X102663787Y-148790331D01*
X102601024Y-148757144D01*
X102580801Y-148731568D01*
X102482088Y-148566630D01*
X102482085Y-148566626D01*
X102479884Y-148562948D01*
X102295529Y-148332835D01*
X102157610Y-148201955D01*
X102084759Y-148132822D01*
X102084756Y-148132820D01*
X102081650Y-148129872D01*
X101885345Y-147988812D01*
X101845694Y-147960320D01*
X101845693Y-147960319D01*
X101842205Y-147957813D01*
X101814121Y-147942943D01*
X101752119Y-147910115D01*
X101581623Y-147819842D01*
X101304728Y-147718513D01*
X101016643Y-147655700D01*
X100976009Y-147652502D01*
X100787847Y-147637693D01*
X100787838Y-147637693D01*
X100785390Y-147637500D01*
X100226582Y-147637500D01*
X100158461Y-147617498D01*
X100137487Y-147600595D01*
X100014487Y-147477595D01*
X99980461Y-147415283D01*
X99985526Y-147344468D01*
X100028073Y-147287632D01*
X100094593Y-147262821D01*
X100103582Y-147262500D01*
X100774118Y-147262500D01*
X100776254Y-147262354D01*
X100776265Y-147262354D01*
X100989894Y-147247790D01*
X100989900Y-147247789D01*
X100994171Y-147247498D01*
X100998366Y-147246629D01*
X100998368Y-147246629D01*
X101138534Y-147217602D01*
X101282898Y-147187706D01*
X101560839Y-147089282D01*
X101822851Y-146954047D01*
X101826352Y-146951586D01*
X101826356Y-146951584D01*
X101943468Y-146869276D01*
X102064085Y-146784505D01*
X102280078Y-146583792D01*
X102443154Y-146384553D01*
X102501779Y-146344507D01*
X102572748Y-146342514D01*
X102633528Y-146379205D01*
X102638992Y-146385578D01*
X102721069Y-146488026D01*
X102784471Y-146567165D01*
X102998350Y-146770128D01*
X103237795Y-146942187D01*
X103498377Y-147080158D01*
X103523310Y-147089282D01*
X103648328Y-147135032D01*
X103775272Y-147181487D01*
X104063357Y-147244300D01*
X104092950Y-147246629D01*
X104292153Y-147262307D01*
X104292162Y-147262307D01*
X104294610Y-147262500D01*
X105854118Y-147262500D01*
X105856254Y-147262354D01*
X105856265Y-147262354D01*
X106069894Y-147247790D01*
X106069900Y-147247789D01*
X106074171Y-147247498D01*
X106078366Y-147246629D01*
X106078368Y-147246629D01*
X106218534Y-147217602D01*
X106362898Y-147187706D01*
X106640839Y-147089282D01*
X106902851Y-146954047D01*
X106906352Y-146951586D01*
X106906356Y-146951584D01*
X107023468Y-146869276D01*
X107144085Y-146784505D01*
X107360078Y-146583792D01*
X107546833Y-146355623D01*
X107700893Y-146104219D01*
X107709748Y-146084048D01*
X107746127Y-146001173D01*
X107791823Y-145946837D01*
X107859641Y-145925832D01*
X107928049Y-145944826D01*
G37*
%TD.AperFunction*%
%TA.AperFunction,Conductor*%
G36*
X98611012Y-135603358D02*
G01*
X98617595Y-135609487D01*
X98935167Y-135927059D01*
X98944268Y-135937201D01*
X98968096Y-135966837D01*
X99006697Y-135999227D01*
X99010345Y-136002410D01*
X99012202Y-136004094D01*
X99014384Y-136006276D01*
X99047746Y-136033681D01*
X99048633Y-136034417D01*
X99120203Y-136094470D01*
X99124891Y-136097047D01*
X99129025Y-136100443D01*
X99134451Y-136103352D01*
X99134455Y-136103355D01*
X99175018Y-136125103D01*
X99211310Y-136144563D01*
X99212402Y-136145156D01*
X99294204Y-136190127D01*
X99299304Y-136191745D01*
X99304019Y-136194273D01*
X99387826Y-136219896D01*
X99393295Y-136221568D01*
X99394553Y-136221960D01*
X99477597Y-136248303D01*
X99477600Y-136248304D01*
X99483471Y-136250166D01*
X99488786Y-136250762D01*
X99493904Y-136252327D01*
X99500029Y-136252949D01*
X99500033Y-136252950D01*
X99554167Y-136258449D01*
X99586806Y-136261764D01*
X99588007Y-136261892D01*
X99607990Y-136264134D01*
X99634504Y-136267108D01*
X99634512Y-136267108D01*
X99638003Y-136267500D01*
X99641528Y-136267500D01*
X99642567Y-136267558D01*
X99648256Y-136268006D01*
X99670111Y-136270226D01*
X99685322Y-136271771D01*
X99685325Y-136271771D01*
X99691448Y-136272393D01*
X99737295Y-136268059D01*
X99749154Y-136267500D01*
X106208417Y-136267500D01*
X106276538Y-136287502D01*
X106297512Y-136304404D01*
X106900595Y-136907486D01*
X106934620Y-136969799D01*
X106937500Y-136996582D01*
X106937500Y-138356627D01*
X106917498Y-138424748D01*
X106863842Y-138471241D01*
X106793568Y-138481345D01*
X106752545Y-138467983D01*
X106661623Y-138419842D01*
X106488880Y-138356627D01*
X106388759Y-138319988D01*
X106388757Y-138319987D01*
X106384728Y-138318513D01*
X106096643Y-138255700D01*
X106056009Y-138252502D01*
X105867847Y-138237693D01*
X105867838Y-138237693D01*
X105865390Y-138237500D01*
X104305882Y-138237500D01*
X104303746Y-138237646D01*
X104303735Y-138237646D01*
X104090106Y-138252210D01*
X104090100Y-138252211D01*
X104085829Y-138252502D01*
X104081634Y-138253371D01*
X104081632Y-138253371D01*
X103941465Y-138282398D01*
X103797102Y-138312294D01*
X103519161Y-138410718D01*
X103257149Y-138545953D01*
X103253648Y-138548414D01*
X103253644Y-138548416D01*
X103224635Y-138568804D01*
X103015915Y-138715495D01*
X102799922Y-138916208D01*
X102613167Y-139144377D01*
X102610928Y-139148031D01*
X102499456Y-139329936D01*
X102446808Y-139377567D01*
X102376767Y-139389174D01*
X102311569Y-139361071D01*
X102283290Y-139327765D01*
X102278946Y-139320345D01*
X102273789Y-139312843D01*
X102106554Y-139103724D01*
X102100365Y-139097041D01*
X101904695Y-138914257D01*
X101897606Y-138908537D01*
X101677597Y-138755911D01*
X101669764Y-138751279D01*
X101430027Y-138632012D01*
X101421602Y-138628556D01*
X101167155Y-138545143D01*
X101158330Y-138542943D01*
X100893790Y-138497011D01*
X100886172Y-138496164D01*
X100804098Y-138492078D01*
X100800957Y-138492000D01*
X100272115Y-138492000D01*
X100256876Y-138496475D01*
X100255671Y-138497865D01*
X100254000Y-138505548D01*
X100254000Y-142289885D01*
X100258475Y-142305124D01*
X100259865Y-142306329D01*
X100267548Y-142308000D01*
X100768053Y-142308000D01*
X100772624Y-142307835D01*
X100971617Y-142293396D01*
X100980626Y-142292082D01*
X101242092Y-142234356D01*
X101250822Y-142231753D01*
X101501215Y-142136888D01*
X101509476Y-142133053D01*
X101743552Y-142003035D01*
X101751177Y-141998045D01*
X101964029Y-141835602D01*
X101970856Y-141829562D01*
X102158026Y-141638096D01*
X102163915Y-141631129D01*
X102289212Y-141458988D01*
X102345472Y-141415683D01*
X102416213Y-141409669D01*
X102478976Y-141442856D01*
X102499198Y-141468431D01*
X102600116Y-141637052D01*
X102784471Y-141867165D01*
X102911342Y-141987561D01*
X102927649Y-142003035D01*
X102998350Y-142070128D01*
X103194655Y-142211188D01*
X103223275Y-142231753D01*
X103237795Y-142242187D01*
X103498377Y-142380158D01*
X103517929Y-142387313D01*
X103730192Y-142464990D01*
X103775272Y-142481487D01*
X104063357Y-142544300D01*
X104092950Y-142546629D01*
X104292153Y-142562307D01*
X104292162Y-142562307D01*
X104294610Y-142562500D01*
X105854118Y-142562500D01*
X105856254Y-142562354D01*
X105856265Y-142562354D01*
X106069894Y-142547790D01*
X106069900Y-142547789D01*
X106074171Y-142547498D01*
X106078366Y-142546629D01*
X106078368Y-142546629D01*
X106231833Y-142514848D01*
X106362898Y-142487706D01*
X106640839Y-142389282D01*
X106644654Y-142387313D01*
X106671926Y-142373237D01*
X106741633Y-142359767D01*
X106807557Y-142386122D01*
X106848767Y-142443934D01*
X106852180Y-142514848D01*
X106818812Y-142574297D01*
X106425088Y-142968021D01*
X106362776Y-143002047D01*
X106309151Y-143002034D01*
X106230992Y-142984993D01*
X106096643Y-142955700D01*
X106056009Y-142952502D01*
X105867847Y-142937693D01*
X105867838Y-142937693D01*
X105865390Y-142937500D01*
X104305882Y-142937500D01*
X104303746Y-142937646D01*
X104303735Y-142937646D01*
X104090106Y-142952210D01*
X104090100Y-142952211D01*
X104085829Y-142952502D01*
X104081634Y-142953371D01*
X104081632Y-142953371D01*
X104010890Y-142968021D01*
X103797102Y-143012294D01*
X103519161Y-143110718D01*
X103257149Y-143245953D01*
X103253648Y-143248414D01*
X103253644Y-143248416D01*
X103204284Y-143283107D01*
X103015915Y-143415495D01*
X102799922Y-143616208D01*
X102797208Y-143619524D01*
X102797205Y-143619527D01*
X102636846Y-143815447D01*
X102578221Y-143855493D01*
X102507252Y-143857486D01*
X102446472Y-143820795D01*
X102441008Y-143814422D01*
X102298206Y-143636177D01*
X102295529Y-143632835D01*
X102081650Y-143429872D01*
X101842205Y-143257813D01*
X101581623Y-143119842D01*
X101304728Y-143018513D01*
X101016643Y-142955700D01*
X100976009Y-142952502D01*
X100787847Y-142937693D01*
X100787838Y-142937693D01*
X100785390Y-142937500D01*
X100098581Y-142937500D01*
X100030460Y-142917498D01*
X100009486Y-142900595D01*
X99631986Y-142523095D01*
X99597960Y-142460783D01*
X99603025Y-142389968D01*
X99645572Y-142333132D01*
X99712092Y-142308321D01*
X99721081Y-142308000D01*
X99727885Y-142308000D01*
X99743124Y-142303525D01*
X99744329Y-142302135D01*
X99746000Y-142294452D01*
X99746000Y-138510115D01*
X99741525Y-138494876D01*
X99740135Y-138493671D01*
X99732452Y-138492000D01*
X99231947Y-138492000D01*
X99227376Y-138492165D01*
X99028383Y-138506604D01*
X99019374Y-138507918D01*
X98757908Y-138565644D01*
X98749178Y-138568247D01*
X98573141Y-138634941D01*
X98502352Y-138640371D01*
X98439865Y-138606668D01*
X98405519Y-138544532D01*
X98402500Y-138517114D01*
X98402500Y-135698582D01*
X98422502Y-135630461D01*
X98476158Y-135583968D01*
X98546432Y-135573864D01*
X98611012Y-135603358D01*
G37*
%TD.AperFunction*%
%TA.AperFunction,Conductor*%
G36*
X92272817Y-133532082D02*
G01*
X92273201Y-133532466D01*
X92279434Y-133536308D01*
X92279439Y-133536312D01*
X92326615Y-133565391D01*
X92374109Y-133618162D01*
X92386500Y-133672651D01*
X92386500Y-138017856D01*
X92367760Y-138083971D01*
X92316236Y-138167560D01*
X92313931Y-138174509D01*
X92311694Y-138179306D01*
X92264775Y-138232590D01*
X92196498Y-138252050D01*
X92128538Y-138231507D01*
X92082474Y-138177483D01*
X92071500Y-138126054D01*
X92071500Y-133632156D01*
X92091502Y-133564035D01*
X92145158Y-133517542D01*
X92215432Y-133507438D01*
X92272817Y-133532082D01*
G37*
%TD.AperFunction*%
%TA.AperFunction,Conductor*%
G36*
X95176920Y-133384384D02*
G01*
X95198825Y-133395044D01*
X95404677Y-133521191D01*
X95409247Y-133523084D01*
X95409251Y-133523086D01*
X95634596Y-133616427D01*
X95639169Y-133618321D01*
X95724146Y-133638722D01*
X95881156Y-133676417D01*
X95881162Y-133676418D01*
X95885969Y-133677572D01*
X96139000Y-133697486D01*
X96241614Y-133689410D01*
X96311094Y-133704006D01*
X96361654Y-133753848D01*
X96377500Y-133815022D01*
X96377500Y-137603500D01*
X96357498Y-137671621D01*
X96303842Y-137718114D01*
X96251500Y-137729500D01*
X94937500Y-137729500D01*
X94869379Y-137709498D01*
X94822886Y-137655842D01*
X94811500Y-137603500D01*
X94811500Y-133672598D01*
X94831502Y-133604477D01*
X94871193Y-133565457D01*
X94925850Y-133531634D01*
X95043819Y-133413460D01*
X95106100Y-133379381D01*
X95176920Y-133384384D01*
G37*
%TD.AperFunction*%
%TA.AperFunction,Conductor*%
G36*
X109179621Y-128782502D02*
G01*
X109226114Y-128836158D01*
X109237500Y-128888500D01*
X109237500Y-131501419D01*
X109217498Y-131569540D01*
X109163842Y-131616033D01*
X109093568Y-131626137D01*
X109028988Y-131596643D01*
X109022405Y-131590514D01*
X108839837Y-131407946D01*
X108830735Y-131397803D01*
X108810763Y-131372963D01*
X108806904Y-131368163D01*
X108802186Y-131364204D01*
X108802180Y-131364198D01*
X108768289Y-131335760D01*
X108764637Y-131332574D01*
X108762790Y-131330899D01*
X108760616Y-131328725D01*
X108758247Y-131326779D01*
X108758237Y-131326770D01*
X108727316Y-131301371D01*
X108726301Y-131300529D01*
X108659514Y-131244488D01*
X108654797Y-131240530D01*
X108650109Y-131237953D01*
X108645975Y-131234557D01*
X108640549Y-131231648D01*
X108640545Y-131231645D01*
X108599573Y-131209677D01*
X108563690Y-131190437D01*
X108562596Y-131189843D01*
X108486195Y-131147841D01*
X108486194Y-131147841D01*
X108480796Y-131144873D01*
X108475696Y-131143255D01*
X108470981Y-131140727D01*
X108381705Y-131113432D01*
X108380447Y-131113040D01*
X108297403Y-131086697D01*
X108297400Y-131086696D01*
X108291529Y-131084834D01*
X108286214Y-131084238D01*
X108281096Y-131082673D01*
X108274971Y-131082051D01*
X108274967Y-131082050D01*
X108220833Y-131076551D01*
X108188194Y-131073236D01*
X108186993Y-131073108D01*
X108167010Y-131070866D01*
X108140496Y-131067892D01*
X108140488Y-131067892D01*
X108136997Y-131067500D01*
X108133472Y-131067500D01*
X108132433Y-131067442D01*
X108126744Y-131066994D01*
X108104629Y-131064748D01*
X108089678Y-131063229D01*
X108089675Y-131063229D01*
X108083552Y-131062607D01*
X108041094Y-131066621D01*
X108037704Y-131066941D01*
X108025846Y-131067500D01*
X107612908Y-131067500D01*
X107544787Y-131047498D01*
X107517097Y-131023331D01*
X107445943Y-130940021D01*
X107442735Y-130936265D01*
X107249734Y-130771426D01*
X107033323Y-130638809D01*
X107028753Y-130636916D01*
X107028749Y-130636914D01*
X106803404Y-130543573D01*
X106803402Y-130543572D01*
X106798831Y-130541679D01*
X106713854Y-130521278D01*
X106556844Y-130483583D01*
X106556838Y-130483582D01*
X106552031Y-130482428D01*
X106299000Y-130462514D01*
X106045969Y-130482428D01*
X106041162Y-130483582D01*
X106041156Y-130483583D01*
X105884146Y-130521278D01*
X105799169Y-130541679D01*
X105794598Y-130543572D01*
X105794596Y-130543573D01*
X105569251Y-130636914D01*
X105569247Y-130636916D01*
X105564677Y-130638809D01*
X105348266Y-130771426D01*
X105155265Y-130936265D01*
X104990426Y-131129266D01*
X104980265Y-131145848D01*
X104973324Y-131157174D01*
X104920676Y-131204805D01*
X104850635Y-131216412D01*
X104785437Y-131188309D01*
X104772698Y-131176139D01*
X104691806Y-131087240D01*
X104684273Y-131080215D01*
X104517139Y-130948222D01*
X104508552Y-130942517D01*
X104322117Y-130839599D01*
X104312705Y-130835369D01*
X104111959Y-130764280D01*
X104101988Y-130761646D01*
X104030837Y-130748972D01*
X104017540Y-130750432D01*
X104013000Y-130764989D01*
X104013000Y-133398517D01*
X104017064Y-133412359D01*
X104030478Y-133414393D01*
X104037184Y-133413534D01*
X104047262Y-133411392D01*
X104251255Y-133350191D01*
X104260842Y-133346433D01*
X104452095Y-133252739D01*
X104460945Y-133247464D01*
X104634328Y-133123792D01*
X104642193Y-133117145D01*
X104778262Y-132981549D01*
X104840633Y-132947633D01*
X104911440Y-132952821D01*
X104968202Y-132995467D01*
X104974635Y-133004966D01*
X104987840Y-133026515D01*
X104987844Y-133026520D01*
X104990426Y-133030734D01*
X105155265Y-133223735D01*
X105348266Y-133388574D01*
X105564677Y-133521191D01*
X105569247Y-133523084D01*
X105569251Y-133523086D01*
X105794596Y-133616427D01*
X105799169Y-133618321D01*
X105884146Y-133638722D01*
X106041156Y-133676417D01*
X106041162Y-133676418D01*
X106045969Y-133677572D01*
X106299000Y-133697486D01*
X106552031Y-133677572D01*
X106556838Y-133676418D01*
X106556844Y-133676417D01*
X106713854Y-133638722D01*
X106798831Y-133618321D01*
X106803404Y-133616427D01*
X107028749Y-133523086D01*
X107028753Y-133523084D01*
X107033323Y-133521191D01*
X107249734Y-133388574D01*
X107442735Y-133223735D01*
X107515029Y-133139091D01*
X107574479Y-133100282D01*
X107645473Y-133099776D01*
X107699934Y-133131826D01*
X107950595Y-133382486D01*
X107984620Y-133444799D01*
X107987500Y-133471582D01*
X107987500Y-134826419D01*
X107967498Y-134894540D01*
X107913842Y-134941033D01*
X107843568Y-134951137D01*
X107778988Y-134921643D01*
X107772405Y-134915514D01*
X107439837Y-134582946D01*
X107430735Y-134572803D01*
X107410763Y-134547963D01*
X107406904Y-134543163D01*
X107402186Y-134539204D01*
X107402180Y-134539198D01*
X107368289Y-134510760D01*
X107364637Y-134507574D01*
X107362790Y-134505899D01*
X107360616Y-134503725D01*
X107358247Y-134501779D01*
X107358237Y-134501770D01*
X107327316Y-134476371D01*
X107326301Y-134475529D01*
X107259514Y-134419488D01*
X107254797Y-134415530D01*
X107250109Y-134412953D01*
X107245975Y-134409557D01*
X107240549Y-134406648D01*
X107240545Y-134406645D01*
X107199982Y-134384897D01*
X107163690Y-134365437D01*
X107162596Y-134364843D01*
X107086195Y-134322841D01*
X107086194Y-134322841D01*
X107080796Y-134319873D01*
X107075696Y-134318255D01*
X107070981Y-134315727D01*
X106981705Y-134288432D01*
X106980447Y-134288040D01*
X106897403Y-134261697D01*
X106897400Y-134261696D01*
X106891529Y-134259834D01*
X106886214Y-134259238D01*
X106881096Y-134257673D01*
X106874971Y-134257051D01*
X106874967Y-134257050D01*
X106820833Y-134251551D01*
X106788194Y-134248236D01*
X106786993Y-134248108D01*
X106767010Y-134245866D01*
X106740496Y-134242892D01*
X106740488Y-134242892D01*
X106736997Y-134242500D01*
X106733472Y-134242500D01*
X106732433Y-134242442D01*
X106726744Y-134241994D01*
X106704889Y-134239774D01*
X106689678Y-134238229D01*
X106689675Y-134238229D01*
X106683552Y-134237607D01*
X106641094Y-134241621D01*
X106637704Y-134241941D01*
X106625846Y-134242500D01*
X100166583Y-134242500D01*
X100098462Y-134222498D01*
X100077488Y-134205596D01*
X99728405Y-133856514D01*
X99694380Y-133794201D01*
X99691500Y-133767418D01*
X99691500Y-133393908D01*
X99711502Y-133325787D01*
X99735669Y-133298097D01*
X99818979Y-133226943D01*
X99822735Y-133223735D01*
X99853189Y-133188078D01*
X99912640Y-133149269D01*
X99983634Y-133148763D01*
X100044811Y-133188078D01*
X100075265Y-133223735D01*
X100268266Y-133388574D01*
X100484677Y-133521191D01*
X100489247Y-133523084D01*
X100489251Y-133523086D01*
X100714596Y-133616427D01*
X100719169Y-133618321D01*
X100804146Y-133638722D01*
X100961156Y-133676417D01*
X100961162Y-133676418D01*
X100965969Y-133677572D01*
X101219000Y-133697486D01*
X101472031Y-133677572D01*
X101476838Y-133676418D01*
X101476844Y-133676417D01*
X101633854Y-133638722D01*
X101718831Y-133618321D01*
X101723404Y-133616427D01*
X101948749Y-133523086D01*
X101948753Y-133523084D01*
X101953323Y-133521191D01*
X102169734Y-133388574D01*
X102362735Y-133223735D01*
X102527574Y-133030734D01*
X102530156Y-133026520D01*
X102530160Y-133026515D01*
X102544617Y-133002923D01*
X102597264Y-132955291D01*
X102667306Y-132943684D01*
X102732503Y-132971787D01*
X102747287Y-132986259D01*
X102802218Y-133049673D01*
X102809580Y-133056883D01*
X102973434Y-133192916D01*
X102981881Y-133198831D01*
X103165756Y-133306279D01*
X103175042Y-133310729D01*
X103374001Y-133386703D01*
X103383899Y-133389579D01*
X103487250Y-133410606D01*
X103501299Y-133409410D01*
X103505000Y-133399065D01*
X103505000Y-130763102D01*
X103501082Y-130749758D01*
X103486806Y-130747771D01*
X103448324Y-130753660D01*
X103438288Y-130756051D01*
X103235868Y-130822212D01*
X103226359Y-130826209D01*
X103037463Y-130924542D01*
X103028738Y-130930036D01*
X102858433Y-131057905D01*
X102850726Y-131064748D01*
X102742783Y-131177704D01*
X102681259Y-131213134D01*
X102610346Y-131209677D01*
X102552560Y-131168431D01*
X102544257Y-131156489D01*
X102530159Y-131133484D01*
X102530156Y-131133480D01*
X102527574Y-131129266D01*
X102362735Y-130936265D01*
X102275669Y-130861903D01*
X102236860Y-130802452D01*
X102231500Y-130766092D01*
X102231500Y-130491058D01*
X102232237Y-130477450D01*
X102235678Y-130445779D01*
X102235678Y-130445775D01*
X102236343Y-130439654D01*
X102231952Y-130389460D01*
X102231623Y-130384632D01*
X102231500Y-130382114D01*
X102231500Y-130379036D01*
X102231201Y-130375982D01*
X102231200Y-130375971D01*
X102227293Y-130336130D01*
X102227171Y-130334815D01*
X102219575Y-130247985D01*
X102219575Y-130247984D01*
X102219038Y-130241848D01*
X102217545Y-130236709D01*
X102217023Y-130231386D01*
X102190062Y-130142087D01*
X102189687Y-130140823D01*
X102165360Y-130057092D01*
X102163640Y-130051171D01*
X102161179Y-130046424D01*
X102159632Y-130041299D01*
X102156740Y-130035860D01*
X102156738Y-130035855D01*
X102115771Y-129958807D01*
X102115159Y-129957640D01*
X102075102Y-129880363D01*
X102075100Y-129880360D01*
X102072262Y-129874885D01*
X102068926Y-129870706D01*
X102066413Y-129865980D01*
X102062524Y-129861212D01*
X102062521Y-129861207D01*
X102007465Y-129793702D01*
X102006636Y-129792676D01*
X101977443Y-129756107D01*
X101975248Y-129753357D01*
X101972753Y-129750862D01*
X101972068Y-129750096D01*
X101968348Y-129745740D01*
X101940917Y-129712106D01*
X101905428Y-129682747D01*
X101896649Y-129674758D01*
X101199486Y-128977595D01*
X101165460Y-128915283D01*
X101170525Y-128844468D01*
X101213072Y-128787632D01*
X101279592Y-128762821D01*
X101288581Y-128762500D01*
X109111500Y-128762500D01*
X109179621Y-128782502D01*
G37*
%TD.AperFunction*%
%TA.AperFunction,Conductor*%
G36*
X99418539Y-130064502D02*
G01*
X99439513Y-130081405D01*
X100097058Y-130738950D01*
X100131084Y-130801262D01*
X100126019Y-130872077D01*
X100089794Y-130923856D01*
X100075265Y-130936265D01*
X100072057Y-130940021D01*
X100044811Y-130971922D01*
X99985360Y-131010731D01*
X99914366Y-131011237D01*
X99853189Y-130971922D01*
X99825943Y-130940021D01*
X99822735Y-130936265D01*
X99629734Y-130771426D01*
X99413323Y-130638809D01*
X99408753Y-130636916D01*
X99408749Y-130636914D01*
X99183404Y-130543573D01*
X99183402Y-130543572D01*
X99178831Y-130541679D01*
X99093854Y-130521278D01*
X98936844Y-130483583D01*
X98936838Y-130483582D01*
X98932031Y-130482428D01*
X98679000Y-130462514D01*
X98425969Y-130482428D01*
X98421162Y-130483582D01*
X98421156Y-130483583D01*
X98264146Y-130521278D01*
X98179169Y-130541679D01*
X98174598Y-130543572D01*
X98174596Y-130543573D01*
X97949251Y-130636914D01*
X97949247Y-130636916D01*
X97944677Y-130638809D01*
X97728266Y-130771426D01*
X97535265Y-130936265D01*
X97532057Y-130940021D01*
X97504811Y-130971922D01*
X97445360Y-131010731D01*
X97374366Y-131011237D01*
X97313189Y-130971922D01*
X97285943Y-130940021D01*
X97282735Y-130936265D01*
X97089734Y-130771426D01*
X96873323Y-130638809D01*
X96868753Y-130636916D01*
X96868749Y-130636914D01*
X96643404Y-130543573D01*
X96643402Y-130543572D01*
X96638831Y-130541679D01*
X96553854Y-130521278D01*
X96396844Y-130483583D01*
X96396838Y-130483582D01*
X96392031Y-130482428D01*
X96139000Y-130462514D01*
X95885969Y-130482428D01*
X95881162Y-130483582D01*
X95881156Y-130483583D01*
X95724146Y-130521278D01*
X95639169Y-130541679D01*
X95634598Y-130543572D01*
X95634596Y-130543573D01*
X95409251Y-130636914D01*
X95409247Y-130636916D01*
X95404677Y-130638809D01*
X95198946Y-130764881D01*
X95130414Y-130783419D01*
X95062737Y-130761963D01*
X95044094Y-130746621D01*
X94929978Y-130632704D01*
X94924799Y-130627534D01*
X94773440Y-130534236D01*
X94754151Y-130527838D01*
X94611209Y-130480425D01*
X94611207Y-130480424D01*
X94604678Y-130478259D01*
X94499666Y-130467500D01*
X92698334Y-130467500D01*
X92695088Y-130467837D01*
X92695084Y-130467837D01*
X92598868Y-130477820D01*
X92598864Y-130477821D01*
X92592010Y-130478532D01*
X92585474Y-130480713D01*
X92585472Y-130480713D01*
X92554465Y-130491058D01*
X92423346Y-130534803D01*
X92272150Y-130628366D01*
X92271992Y-130628110D01*
X92209957Y-130653221D01*
X92140192Y-130640051D01*
X92088623Y-130591255D01*
X92071500Y-130527838D01*
X92071500Y-130170500D01*
X92091502Y-130102379D01*
X92145158Y-130055886D01*
X92197500Y-130044500D01*
X99350418Y-130044500D01*
X99418539Y-130064502D01*
G37*
%TD.AperFunction*%
%TD*%
M02*
