M48
; DRILL file {KiCad (6.0.9-0)} date 2024 May 22, Wednesday 19:22:00
; FORMAT={-:-/ absolute / inch / decimal}
; #@! TF.CreationDate,2024-05-22T19:22:00+02:00
; #@! TF.GenerationSoftware,Kicad,Pcbnew,(6.0.9-0)
; #@! TF.FileFunction,Plated,1,2,PTH
FMAT,2
INCH
; #@! TA.AperFunction,Plated,PTH,ViaDrill
T1C0.0157
; #@! TA.AperFunction,Plated,PTH,ComponentDrill
T2C0.0394
; #@! TA.AperFunction,Plated,PTH,ComponentDrill
T3C0.0630
%
G90
G05
T1
X3.63Y-5.12
X3.63Y-5.3
X3.63Y-5.805
X3.63Y-6.005
X3.735Y-5.3
X3.835Y-5.12
T2
X3.685Y-5.2
X3.785Y-5.2
X3.885Y-5.2
X3.985Y-5.2
X4.085Y-5.2
X4.185Y-5.2
T3
G00X3.7606Y-5.5276
M15
G01X3.7134Y-5.5276
M16
G05
G00X3.7606Y-5.7126
M15
G01X3.7134Y-5.7126
M16
G05
G00X3.7606Y-5.8976
M15
G01X3.7134Y-5.8976
M16
G05
G00X3.9606Y-5.5276
M15
G01X3.9134Y-5.5276
M16
G05
G00X3.9606Y-5.7126
M15
G01X3.9134Y-5.7126
M16
G05
G00X3.9606Y-5.8976
M15
G01X3.9134Y-5.8976
M16
G05
G00X4.1606Y-5.5276
M15
G01X4.1134Y-5.5276
M16
G05
G00X4.1606Y-5.7126
M15
G01X4.1134Y-5.7126
M16
G05
G00X4.1606Y-5.8976
M15
G01X4.1134Y-5.8976
M16
G05
T0
M30
